{"events": [{"t": 0.019, "dur": 0.383, "note": 51, "inst": "piano_v0_additive_0", "vel": 1.0, "bend": 0.0, "ch": 3}, {"t": 0.019, "dur": 0.192, "note": 77, "inst": "celesta_v0_additive_3", "vel": 1.0, "bend": 0.0, "ch": 13}, {"t": 0.211, "dur": 0.192, "note": 75, "inst": "piano_v0_additive_0", "vel": 1.0, "bend": 0.0, "ch": 11}, {"t": 0.402, "dur": 0.383, "note": 46, "inst": "organ_v0_additive_1", "vel": 1.0, "bend": 0.0, "ch": 14}, {"t": 0.402, "dur": 0.192, "note": 75, "inst": "piano_v0_additive_0", "vel": 1.0, "bend": 0.0, "ch": 11}, {"t": 0.594, "dur": 0.064, "note": 75, "inst": "piano_v0_additive_0", "vel": 1.0, "bend": 0.0, "ch": 11}, {"t": 0.658, "dur": 0.064, "note": 77, "inst": "celesta_v0_additive_3", "vel": 1.0, "bend": 0.0, "ch": 13}, {"t": 0.722, "dur": 0.064, "note": 75, "inst": "piano_v0_additive_0", "vel": 1.0, "bend": 0.0, "ch": 11}, {"t": 0.786, "dur": 0.383, "note": 54, "inst": "piano_v0_additive_0", "vel": 1.0, "bend": 0.0, "ch": 6}, {"t": 0.786, "dur": 0.192, "note": 75, "inst": "piano_v0_additive_0", "vel": 1.0, "bend": 0.0, "ch": 11}, {"t": 0.978, "dur": 0.192, "note": 77, "inst": "celesta_v0_additive_3", "vel": 1.0, "bend": 0.0, "ch": 13}, {"t": 1.169, "dur": 0.383, "note": 54, "inst": "piano_v0_additive_0", "vel": 1.0, "bend": 0.0, "ch": 6}, {"t": 1.169, "dur": 0.192, "note": 75, "inst": "piano_v0_additive_0", "vel": 1.0, "bend": 0.0, "ch": 11}, {"t": 1.361, "dur": 0.192, "note": 71, "inst": "celesta_v0_additive_3", "vel": 1.0, "bend": 0.0, "ch": 7}, {"t": 1.553, "dur": 0.383, "note": 53, "inst": "celesta_v0_additive_3", "vel": 1.0, "bend": 0.0, "ch": 5}, {"t": 1.553, "dur": 0.192, "note": 70, "inst": "organ_v0_additive_1", "vel": 1.0, "bend": 0.0, "ch": 6}, {"t": 1.745, "dur": 0.192, "note": 83, "inst": "celesta_v0_additive_3", "vel": 1.0, "bend": 0.0, "ch": 3}, {"t": 1.936, "dur": 0.383, "note": 46, "inst": "organ_v0_additive_1", "vel": 1.0, "bend": 0.0, "ch": 14}, {"t": 1.936, "dur": 0.192, "note": 82, "inst": "organ_v0_additive_1", "vel": 1.0, "bend": 0.0, "ch": 2}, {"t": 2.128, "dur": 0.064, "note": 71, "inst": "celesta_v0_additive_3", "vel": 1.0, "bend": 0.0, "ch": 7}, {"t": 2.192, "dur": 0.064, "note": 75, "inst": "piano_v0_additive_0", "vel": 1.0, "bend": 0.0, "ch": 11}, {"t": 2.256, "dur": 0.064, "note": 71, "inst": "celesta_v0_additive_3", "vel": 1.0, "bend": 0.0, "ch": 7}, {"t": 2.32, "dur": 0.383, "note": 53, "inst": "celesta_v0_additive_3", "vel": 1.0, "bend": 0.0, "ch": 5}, {"t": 2.32, "dur": 0.192, "note": 70, "inst": "organ_v0_additive_1", "vel": 1.0, "bend": 0.0, "ch": 6}, {"t": 2.512, "dur": 0.192, "note": 82, "inst": "organ_v0_additive_1", "vel": 1.0, "bend": 0.0, "ch": 2}, {"t": 2.703, "dur": 0.383, "note": 46, "inst": "organ_v0_additive_1", "vel": 1.0, "bend": 0.0, "ch": 14}, {"t": 2.703, "dur": 0.192, "note": 70, "inst": "organ_v0_additive_1", "vel": 1.0, "bend": 0.0, "ch": 6}, {"t": 2.895, "dur": 0.064, "note": 58, "inst": "organ_v0_additive_1", "vel": 1.0, "bend": 0.0, "ch": 10}, {"t": 2.959, "dur": 0.064, "note": 70, "inst": "organ_v0_additive_1", "vel": 1.0, "bend": 0.0, "ch": 6}, {"t": 3.023, "dur": 0.064, "note": 58, "inst": "organ_v0_additive_1", "vel": 1.0, "bend": 0.0, "ch": 10}, {"t": 3.087, "dur": 0.383, "note": 51, "inst": "piano_v0_additive_0", "vel": 1.0, "bend": 0.0, "ch": 3}, {"t": 3.087, "dur": 0.192, "note": 66, "inst": "piano_v0_additive_0", "vel": 1.0, "bend": 0.0, "ch": 2}, {"t": 3.278, "dur": 0.192, "note": 70, "inst": "organ_v0_additive_1", "vel": 1.0, "bend": 0.0, "ch": 6}, {"t": 3.47, "dur": 0.383, "note": 51, "inst": "piano_v0_additive_0", "vel": 1.0, "bend": 0.0, "ch": 3}, {"t": 3.47, "dur": 0.192, "note": 78, "inst": "piano_v0_additive_0", "vel": 1.0, "bend": 0.0, "ch": 14}, {"t": 3.662, "dur": 0.064, "note": 78, "inst": "piano_v0_additive_0", "vel": 1.0, "bend": 0.0, "ch": 14}, {"t": 3.726, "dur": 0.064, "note": 70, "inst": "organ_v0_additive_1", "vel": 1.0, "bend": 0.0, "ch": 6}, {"t": 3.79, "dur": 0.064, "note": 78, "inst": "piano_v0_additive_0", "vel": 1.0, "bend": 0.0, "ch": 14}, {"t": 3.854, "dur": 0.383, "note": 51, "inst": "piano_v0_additive_0", "vel": 1.0, "bend": 0.0, "ch": 3}, {"t": 3.854, "dur": 0.192, "note": 78, "inst": "piano_v0_additive_0", "vel": 1.0, "bend": 0.0, "ch": 14}, {"t": 4.045, "dur": 0.192, "note": 78, "inst": "piano_v0_additive_0", "vel": 1.0, "bend": 0.0, "ch": 14}, {"t": 4.237, "dur": 0.383, "note": 46, "inst": "organ_v0_additive_1", "vel": 1.0, "bend": 0.0, "ch": 14}, {"t": 4.237, "dur": 0.192, "note": 82, "inst": "organ_v0_additive_1", "vel": 1.0, "bend": 0.0, "ch": 2}, {"t": 4.429, "dur": 0.192, "note": 70, "inst": "organ_v0_additive_1", "vel": 1.0, "bend": 0.0, "ch": 6}, {"t": 4.621, "dur": 0.383, "note": 53, "inst": "celesta_v0_additive_3", "vel": 1.0, "bend": 0.0, "ch": 5}, {"t": 4.621, "dur": 0.192, "note": 78, "inst": "piano_v0_additive_0", "vel": 1.0, "bend": 0.0, "ch": 14}, {"t": 4.812, "dur": 0.192, "note": 75, "inst": "piano_v0_additive_0", "vel": 1.0, "bend": 0.0, "ch": 11}, {"t": 5.004, "dur": 0.383, "note": 46, "inst": "organ_v0_additive_1", "vel": 1.0, "bend": 0.0, "ch": 14}, {"t": 5.004, "dur": 0.192, "note": 77, "inst": "celesta_v0_additive_3", "vel": 1.0, "bend": 0.0, "ch": 13}, {"t": 5.196, "dur": 0.064, "note": 77, "inst": "celesta_v0_additive_3", "vel": 1.0, "bend": 0.0, "ch": 13}, {"t": 5.26, "dur": 0.064, "note": 78, "inst": "piano_v0_additive_0", "vel": 1.0, "bend": 0.0, "ch": 14}, {"t": 5.324, "dur": 0.064, "note": 77, "inst": "celesta_v0_additive_3", "vel": 1.0, "bend": 0.0, "ch": 13}, {"t": 5.388, "dur": 0.383, "note": 47, "inst": "celesta_v0_additive_3", "vel": 1.0, "bend": 0.0, "ch": 15}, {"t": 5.388, "dur": 0.192, "note": 75, "inst": "piano_v0_additive_0", "vel": 1.0, "bend": 0.0, "ch": 11}, {"t": 5.579, "dur": 0.192, "note": 77, "inst": "celesta_v0_additive_3", "vel": 1.0, "bend": 0.0, "ch": 13}, {"t": 5.771, "dur": 0.383, "note": 42, "inst": "piano_v0_additive_0", "vel": 1.0, "bend": 0.0, "ch": 10}, {"t": 5.771, "dur": 0.192, "note": 70, "inst": "organ_v0_additive_1", "vel": 1.0, "bend": 0.0, "ch": 6}, {"t": 5.963, "dur": 0.192, "note": 78, "inst": "piano_v0_additive_0", "vel": 1.0, "bend": 0.0, "ch": 14}, {"t": 6.154, "dur": 0.383, "note": 47, "inst": "celesta_v0_additive_3", "vel": 1.0, "bend": 0.0, "ch": 15}, {"t": 6.154, "dur": 0.192, "note": 77, "inst": "celesta_v0_additive_3", "vel": 1.0, "bend": 0.0, "ch": 13}, {"t": 6.346, "dur": 0.192, "note": 75, "inst": "piano_v0_additive_0", "vel": 1.0, "bend": 0.0, "ch": 11}, {"t": 6.538, "dur": 0.383, "note": 46, "inst": "organ_v0_additive_1", "vel": 1.0, "bend": 0.0, "ch": 14}, {"t": 6.538, "dur": 0.192, "note": 75, "inst": "piano_v0_additive_0", "vel": 1.0, "bend": 0.0, "ch": 11}, {"t": 6.73, "dur": 0.064, "note": 75, "inst": "piano_v0_additive_0", "vel": 1.0, "bend": 0.0, "ch": 11}, {"t": 6.794, "dur": 0.064, "note": 77, "inst": "celesta_v0_additive_3", "vel": 1.0, "bend": 0.0, "ch": 13}, {"t": 6.857, "dur": 0.064, "note": 75, "inst": "piano_v0_additive_0", "vel": 1.0, "bend": 0.0, "ch": 11}, {"t": 6.921, "dur": 0.383, "note": 34, "inst": "organ_v0_additive_1", "vel": 1.0, "bend": 0.0, "ch": 2}, {"t": 6.921, "dur": 0.192, "note": 75, "inst": "piano_v0_additive_0", "vel": 1.0, "bend": 0.0, "ch": 11}, {"t": 7.113, "dur": 0.192, "note": 77, "inst": "celesta_v0_additive_3", "vel": 1.0, "bend": 0.0, "ch": 13}, {"t": 7.305, "dur": 0.383, "note": 34, "inst": "organ_v0_additive_1", "vel": 1.0, "bend": 0.0, "ch": 2}, {"t": 7.305, "dur": 0.192, "note": 75, "inst": "piano_v0_additive_0", "vel": 1.0, "bend": 0.0, "ch": 11}, {"t": 7.497, "dur": 0.192, "note": 71, "inst": "celesta_v0_additive_3", "vel": 1.0, "bend": 0.0, "ch": 7}, {"t": 7.688, "dur": 0.383, "note": 46, "inst": "organ_v0_additive_1", "vel": 1.0, "bend": 0.0, "ch": 14}, {"t": 7.688, "dur": 0.192, "note": 70, "inst": "organ_v0_additive_1", "vel": 1.0, "bend": 0.0, "ch": 6}, {"t": 7.88, "dur": 0.192, "note": 83, "inst": "celesta_v0_additive_3", "vel": 1.0, "bend": 0.0, "ch": 3}, {"t": 8.072, "dur": 0.383, "note": 46, "inst": "organ_v0_additive_1", "vel": 1.0, "bend": 0.0, "ch": 14}, {"t": 8.072, "dur": 0.192, "note": 82, "inst": "organ_v0_additive_1", "vel": 1.0, "bend": 0.0, "ch": 2}, {"t": 8.264, "dur": 0.064, "note": 71, "inst": "celesta_v0_additive_3", "vel": 1.0, "bend": 0.0, "ch": 7}, {"t": 8.327, "dur": 0.064, "note": 75, "inst": "piano_v0_additive_0", "vel": 1.0, "bend": 0.0, "ch": 11}, {"t": 8.391, "dur": 0.064, "note": 71, "inst": "celesta_v0_additive_3", "vel": 1.0, "bend": 0.0, "ch": 7}, {"t": 8.455, "dur": 0.383, "note": 46, "inst": "organ_v0_additive_1", "vel": 1.0, "bend": 0.0, "ch": 14}, {"t": 8.455, "dur": 0.192, "note": 70, "inst": "organ_v0_additive_1", "vel": 1.0, "bend": 0.0, "ch": 6}, {"t": 8.647, "dur": 0.192, "note": 78, "inst": "piano_v0_additive_0", "vel": 1.0, "bend": 0.0, "ch": 14}, {"t": 8.839, "dur": 0.383, "note": 46, "inst": "organ_v0_additive_1", "vel": 1.0, "bend": 0.0, "ch": 14}, {"t": 8.839, "dur": 0.192, "note": 77, "inst": "celesta_v0_additive_3", "vel": 1.0, "bend": 0.0, "ch": 13}, {"t": 9.03, "dur": 0.192, "note": 70, "inst": "organ_v0_additive_1", "vel": 1.0, "bend": 0.0, "ch": 6}, {"t": 9.222, "dur": 0.383, "note": 51, "inst": "piano_v0_additive_0", "vel": 1.0, "bend": 0.0, "ch": 3}, {"t": 9.222, "dur": 0.383, "note": 75, "inst": "piano_v0_additive_0", "vel": 1.0, "bend": 0.0, "ch": 11}, {"t": 9.606, "dur": 0.192, "note": 87, "inst": "piano_v0_additive_0", "vel": 1.0, "bend": 0.0, "ch": 7}, {"t": 9.797, "dur": 0.064, "note": 87, "inst": "piano_v0_additive_0", "vel": 1.0, "bend": 0.0, "ch": 7}, {"t": 9.861, "dur": 0.064, "note": 89, "inst": "celesta_v0_additive_3", "vel": 1.0, "bend": 0.0, "ch": 9}, {"t": 9.925, "dur": 0.064, "note": 87, "inst": "piano_v0_additive_0", "vel": 1.0, "bend": 0.0, "ch": 7}, {"t": 9.989, "dur": 0.383, "note": 46, "inst": "organ_v0_additive_1", "vel": 1.0, "bend": 0.0, "ch": 14}, {"t": 9.989, "dur": 0.192, "note": 87, "inst": "piano_v0_additive_0", "vel": 1.0, "bend": 0.0, "ch": 7}, {"t": 10.181, "dur": 0.192, "note": 90, "inst": "piano_v0_additive_0", "vel": 1.0, "bend": 0.0, "ch": 10}, {"t": 10.373, "dur": 0.383, "note": 41, "inst": "celesta_v0_additive_3", "vel": 1.0, "bend": 0.0, "ch": 9}, {"t": 10.373, "dur": 0.192, "note": 89, "inst": "celesta_v0_additive_3", "vel": 1.0, "bend": 0.0, "ch": 9}, {"t": 10.564, "dur": 0.064, "note": 83, "inst": "celesta_v0_additive_3", "vel": 1.0, "bend": 0.0, "ch": 3}, {"t": 10.628, "dur": 0.064, "note": 87, "inst": "piano_v0_additive_0", "vel": 1.0, "bend": 0.0, "ch": 7}, {"t": 10.692, "dur": 0.064, "note": 83, "inst": "celesta_v0_additive_3", "vel": 1.0, "bend": 0.0, "ch": 3}, {"t": 10.756, "dur": 0.383, "note": 46, "inst": "organ_v0_additive_1", "vel": 1.0, "bend": 0.0, "ch": 14}, {"t": 10.756, "dur": 0.192, "note": 82, "inst": "organ_v0_additive_1", "vel": 1.0, "bend": 0.0, "ch": 2}, {"t": 10.948, "dur": 0.192, "note": 87, "inst": "piano_v0_additive_0", "vel": 1.0, "bend": 0.0, "ch": 7}, {"t": 11.14, "dur": 0.383, "note": 41, "inst": "celesta_v0_additive_3", "vel": 1.0, "bend": 0.0, "ch": 9}, {"t": 11.14, "dur": 0.192, "note": 87, "inst": "piano_v0_additive_0", "vel": 1.0, "bend": 0.0, "ch": 7}, {"t": 11.331, "dur": 0.192, "note": 82, "inst": "organ_v0_additive_1", "vel": 1.0, "bend": 0.0, "ch": 2}, {"t": 11.523, "dur": 0.383, "note": 46, "inst": "organ_v0_additive_1", "vel": 1.0, "bend": 0.0, "ch": 14}, {"t": 11.523, "dur": 0.096, "note": 77, "inst": "celesta_v0_additive_3", "vel": 1.0, "bend": 0.0, "ch": 13}, {"t": 11.619, "dur": 0.096, "note": 75, "inst": "piano_v0_additive_0", "vel": 1.0, "bend": 0.0, "ch": 11}, {"t": 11.715, "dur": 0.096, "note": 77, "inst": "celesta_v0_additive_3", "vel": 1.0, "bend": 0.0, "ch": 13}, {"t": 11.811, "dur": 0.096, "note": 78, "inst": "piano_v0_additive_0", "vel": 1.0, "bend": 0.0, "ch": 14}, {"t": 11.906, "dur": 0.383, "note": 41, "inst": "celesta_v0_additive_3", "vel": 1.0, "bend": 0.0, "ch": 9}, {"t": 11.906, "dur": 0.096, "note": 70, "inst": "organ_v0_additive_1", "vel": 1.0, "bend": 0.0, "ch": 6}, {"t": 12.002, "dur": 0.096, "note": 82, "inst": "organ_v0_additive_1", "vel": 1.0, "bend": 0.0, "ch": 2}, {"t": 12.098, "dur": 0.096, "note": 83, "inst": "celesta_v0_additive_3", "vel": 1.0, "bend": 0.0, "ch": 3}, {"t": 12.194, "dur": 0.096, "note": 87, "inst": "piano_v0_additive_0", "vel": 1.0, "bend": 0.0, "ch": 7}, {"t": 42.044, "dur": 0.063, "note": 63, "inst": "piano_v0_additive_0", "vel": 0.504, "bend": 0.0, "ch": 15}, {"t": 42.115, "dur": 0.066, "note": 63, "inst": "piano_v0_additive_0", "vel": 0.559, "bend": 0.0, "ch": 15}, {"t": 42.198, "dur": 0.046, "note": 58, "inst": "organ_v0_additive_1", "vel": 0.488, "bend": 0.0, "ch": 10}, {"t": 42.311, "dur": 0.08, "note": 70, "inst": "organ_v0_additive_1", "vel": 0.52, "bend": 0.0, "ch": 6}, {"t": 42.364, "dur": 0.342, "note": 32, "inst": "celesta_v0_additive_3", "vel": 0.449, "bend": 0.0, "ch": 0}, {"t": 42.364, "dur": 0.314, "note": 44, "inst": "celesta_v0_additive_3", "vel": 0.425, "bend": 0.0, "ch": 12}, {"t": 42.374, "dur": 0.063, "note": 72, "inst": "piano_v0_additive_0", "vel": 0.559, "bend": 0.0, "ch": 8}, {"t": 42.479, "dur": 0.08, "note": 60, "inst": "piano_v0_additive_0", "vel": 0.488, "bend": 0.0, "ch": 12}, {"t": 42.568, "dur": 0.066, "note": 63, "inst": "piano_v0_additive_0", "vel": 0.535, "bend": 0.0, "ch": 15}, {"t": 42.637, "dur": 0.056, "note": 63, "inst": "piano_v0_additive_0", "vel": 0.583, "bend": 0.0, "ch": 15}, {"t": 42.735, "dur": 0.067, "note": 58, "inst": "organ_v0_additive_1", "vel": 0.472, "bend": 0.0, "ch": 10}, {"t": 42.824, "dur": 0.089, "note": 68, "inst": "celesta_v0_additive_3", "vel": 0.559, "bend": 0.0, "ch": 4}, {"t": 42.906, "dur": 0.228, "note": 56, "inst": "celesta_v0_additive_3", "vel": 0.457, "bend": 0.0, "ch": 8}, {"t": 42.906, "dur": 0.091, "note": 70, "inst": "organ_v0_additive_1", "vel": 0.575, "bend": 0.0, "ch": 6}, {"t": 42.909, "dur": 0.195, "note": 44, "inst": "celesta_v0_additive_3", "vel": 0.449, "bend": 0.0, "ch": 12}, {"t": 43.012, "dur": 0.076, "note": 63, "inst": "piano_v0_additive_0", "vel": 0.48, "bend": 0.0, "ch": 15}, {"t": 43.089, "dur": 0.064, "note": 65, "inst": "celesta_v0_additive_3", "vel": 0.567, "bend": 0.0, "ch": 1}, {"t": 43.156, "dur": 0.054, "note": 65, "inst": "celesta_v0_additive_3", "vel": 0.583, "bend": 0.0, "ch": 1}, {"t": 43.239, "dur": 0.037, "note": 60, "inst": "piano_v0_additive_0", "vel": 0.591, "bend": 0.0, "ch": 12}, {"t": 43.338, "dur": 0.084, "note": 72, "inst": "piano_v0_additive_0", "vel": 0.567, "bend": 0.0, "ch": 8}, {"t": 43.391, "dur": 0.375, "note": 56, "inst": "celesta_v0_additive_3", "vel": 0.488, "bend": 0.0, "ch": 8}, {"t": 43.397, "dur": 0.377, "note": 44, "inst": "celesta_v0_additive_3", "vel": 0.417, "bend": 0.0, "ch": 12}, {"t": 43.41, "dur": 0.091, "note": 75, "inst": "piano_v0_additive_0", "vel": 0.606, "bend": 0.0, "ch": 11}, {"t": 43.504, "dur": 0.084, "note": 65, "inst": "celesta_v0_additive_3", "vel": 0.622, "bend": 0.0, "ch": 1}, {"t": 43.589, "dur": 0.091, "note": 68, "inst": "celesta_v0_additive_3", "vel": 0.614, "bend": 0.0, "ch": 4}, {"t": 43.657, "dur": 0.056, "note": 68, "inst": "celesta_v0_additive_3", "vel": 0.654, "bend": 0.0, "ch": 4}, {"t": 43.732, "dur": 0.034, "note": 63, "inst": "piano_v0_additive_0", "vel": 0.606, "bend": 0.0, "ch": 15}, {"t": 43.816, "dur": 0.104, "note": 75, "inst": "piano_v0_additive_0", "vel": 0.638, "bend": 0.0, "ch": 11}, {"t": 43.898, "dur": 0.066, "note": 77, "inst": "celesta_v0_additive_3", "vel": 0.575, "bend": 0.0, "ch": 13}, {"t": 43.916, "dur": 0.462, "note": 58, "inst": "organ_v0_additive_1", "vel": 0.559, "bend": 0.0, "ch": 10}, {"t": 43.921, "dur": 0.44, "note": 46, "inst": "organ_v0_additive_1", "vel": 0.488, "bend": 0.0, "ch": 14}, {"t": 44.001, "dur": 0.075, "note": 65, "inst": "celesta_v0_additive_3", "vel": 0.535, "bend": 0.0, "ch": 1}, {"t": 44.087, "dur": 0.052, "note": 68, "inst": "celesta_v0_additive_3", "vel": 0.535, "bend": 0.0, "ch": 4}, {"t": 44.148, "dur": 0.055, "note": 70, "inst": "organ_v0_additive_1", "vel": 0.567, "bend": 0.0, "ch": 6}, {"t": 44.24, "dur": 0.037, "note": 65, "inst": "celesta_v0_additive_3", "vel": 0.496, "bend": 0.0, "ch": 1}, {"t": 44.322, "dur": 0.127, "note": 75, "inst": "piano_v0_additive_0", "vel": 0.559, "bend": 0.0, "ch": 11}, {"t": 44.385, "dur": 0.157, "note": 77, "inst": "celesta_v0_additive_3", "vel": 0.606, "bend": 0.0, "ch": 13}, {"t": 44.463, "dur": 0.106, "note": 68, "inst": "celesta_v0_additive_3", "vel": 0.567, "bend": 0.0, "ch": 4}, {"t": 44.54, "dur": 0.106, "note": 70, "inst": "organ_v0_additive_1", "vel": 0.654, "bend": 0.0, "ch": 6}, {"t": 44.619, "dur": 0.199, "note": 70, "inst": "organ_v0_additive_1", "vel": 0.654, "bend": 0.0, "ch": 6}, {"t": 44.717, "dur": 0.087, "note": 65, "inst": "celesta_v0_additive_3", "vel": 0.409, "bend": 0.0, "ch": 1}, {"t": 44.82, "dur": 0.123, "note": 75, "inst": "piano_v0_additive_0", "vel": 0.504, "bend": 0.0, "ch": 11}, {"t": 44.885, "dur": 0.262, "note": 58, "inst": "organ_v0_additive_1", "vel": 0.488, "bend": 0.0, "ch": 10}, {"t": 44.887, "dur": 0.196, "note": 51, "inst": "piano_v0_additive_0", "vel": 0.52, "bend": 0.0, "ch": 3}, {"t": 44.89, "dur": 0.157, "note": 46, "inst": "organ_v0_additive_1", "vel": 0.465, "bend": 0.0, "ch": 14}, {"t": 44.894, "dur": 0.102, "note": 77, "inst": "celesta_v0_additive_3", "vel": 0.551, "bend": 0.0, "ch": 13}, {"t": 44.994, "dur": 0.07, "note": 68, "inst": "celesta_v0_additive_3", "vel": 0.512, "bend": 0.0, "ch": 4}, {"t": 45.058, "dur": 0.084, "note": 70, "inst": "organ_v0_additive_1", "vel": 0.583, "bend": 0.0, "ch": 6}, {"t": 45.129, "dur": 0.067, "note": 70, "inst": "organ_v0_additive_1", "vel": 0.677, "bend": 0.0, "ch": 6}, {"t": 45.217, "dur": 0.06, "note": 65, "inst": "celesta_v0_additive_3", "vel": 0.583, "bend": 0.0, "ch": 1}, {"t": 45.302, "dur": 0.097, "note": 75, "inst": "piano_v0_additive_0", "vel": 0.575, "bend": 0.0, "ch": 11}, {"t": 45.379, "dur": 0.176, "note": 77, "inst": "celesta_v0_additive_3", "vel": 0.591, "bend": 0.0, "ch": 13}, {"t": 45.397, "dur": 0.263, "note": 63, "inst": "piano_v0_additive_0", "vel": 0.598, "bend": 0.0, "ch": 15}, {"t": 45.402, "dur": 0.209, "note": 51, "inst": "piano_v0_additive_0", "vel": 0.583, "bend": 0.0, "ch": 3}, {"t": 45.405, "dur": 0.451, "note": 53, "inst": "celesta_v0_additive_3", "vel": 0.52, "bend": 0.0, "ch": 5}, {"t": 45.488, "dur": 0.097, "note": 70, "inst": "organ_v0_additive_1", "vel": 0.504, "bend": 0.0, "ch": 6}, {"t": 45.574, "dur": 0.101, "note": 72, "inst": "piano_v0_additive_0", "vel": 0.598, "bend": 0.0, "ch": 8}, {"t": 45.649, "dur": 0.073, "note": 75, "inst": "piano_v0_additive_0", "vel": 0.685, "bend": 0.0, "ch": 11}, {"t": 45.736, "dur": 0.057, "note": 68, "inst": "celesta_v0_additive_3", "vel": 0.614, "bend": 0.0, "ch": 4}, {"t": 45.825, "dur": 0.107, "note": 77, "inst": "celesta_v0_additive_3", "vel": 0.622, "bend": 0.0, "ch": 13}, {"t": 45.908, "dur": 0.15, "note": 80, "inst": "celesta_v0_additive_3", "vel": 0.654, "bend": 0.0, "ch": 0}, {"t": 45.915, "dur": 0.228, "note": 53, "inst": "celesta_v0_additive_3", "vel": 0.52, "bend": 0.0, "ch": 5}, {"t": 45.915, "dur": 0.308, "note": 63, "inst": "piano_v0_additive_0", "vel": 0.567, "bend": 0.0, "ch": 15}, {"t": 45.92, "dur": 0.22, "note": 56, "inst": "celesta_v0_additive_3", "vel": 0.52, "bend": 0.0, "ch": 8}, {"t": 45.99, "dur": 0.071, "note": 70, "inst": "organ_v0_additive_1", "vel": 0.622, "bend": 0.0, "ch": 6}, {"t": 46.076, "dur": 0.093, "note": 75, "inst": "piano_v0_additive_0", "vel": 0.685, "bend": 0.0, "ch": 11}, {"t": 46.146, "dur": 0.074, "note": 75, "inst": "piano_v0_additive_0", "vel": 0.724, "bend": 0.0, "ch": 11}, {"t": 46.239, "dur": 0.048, "note": 70, "inst": "organ_v0_additive_1", "vel": 0.669, "bend": 0.0, "ch": 6}, {"t": 46.316, "dur": 0.086, "note": 82, "inst": "organ_v0_additive_1", "vel": 0.685, "bend": 0.0, "ch": 2}, {"t": 46.392, "dur": 0.066, "note": 84, "inst": "piano_v0_additive_0", "vel": 0.669, "bend": 0.0, "ch": 4}, {"t": 46.401, "dur": 0.223, "note": 63, "inst": "piano_v0_additive_0", "vel": 0.646, "bend": 0.0, "ch": 15}, {"t": 46.403, "dur": 0.219, "note": 44, "inst": "celesta_v0_additive_3", "vel": 0.614, "bend": 0.0, "ch": 12}, {"t": 46.415, "dur": 0.211, "note": 60, "inst": "piano_v0_additive_0", "vel": 0.591, "bend": 0.0, "ch": 12}, {"t": 46.417, "dur": 0.205, "note": 58, "inst": "organ_v0_additive_1", "vel": 0.559, "bend": 0.0, "ch": 10}, {"t": 46.492, "dur": 0.087, "note": 72, "inst": "piano_v0_additive_0", "vel": 0.606, "bend": 0.0, "ch": 8}, {"t": 46.575, "dur": 0.08, "note": 75, "inst": "piano_v0_additive_0", "vel": 0.685, "bend": 0.0, "ch": 11}, {"t": 46.649, "dur": 0.066, "note": 75, "inst": "piano_v0_additive_0", "vel": 0.717, "bend": 0.0, "ch": 11}, {"t": 46.734, "dur": 0.069, "note": 70, "inst": "organ_v0_additive_1", "vel": 0.669, "bend": 0.0, "ch": 6}, {"t": 46.826, "dur": 0.126, "note": 80, "inst": "celesta_v0_additive_3", "vel": 0.598, "bend": 0.0, "ch": 0}, {"t": 46.915, "dur": 0.302, "note": 63, "inst": "piano_v0_additive_0", "vel": 0.583, "bend": 0.0, "ch": 15}, {"t": 46.917, "dur": 0.119, "note": 82, "inst": "organ_v0_additive_1", "vel": 0.693, "bend": 0.0, "ch": 2}, {"t": 46.925, "dur": 0.232, "note": 68, "inst": "celesta_v0_additive_3", "vel": 0.669, "bend": 0.0, "ch": 4}, {"t": 46.926, "dur": 0.207, "note": 56, "inst": "celesta_v0_additive_3", "vel": 0.583, "bend": 0.0, "ch": 8}, {"t": 46.928, "dur": 0.246, "note": 58, "inst": "organ_v0_additive_1", "vel": 0.559, "bend": 0.0, "ch": 10}, {"t": 47.03, "dur": 0.067, "note": 75, "inst": "piano_v0_additive_0", "vel": 0.583, "bend": 0.0, "ch": 11}, {"t": 47.105, "dur": 0.066, "note": 77, "inst": "celesta_v0_additive_3", "vel": 0.661, "bend": 0.0, "ch": 13}, {"t": 47.17, "dur": 0.057, "note": 77, "inst": "celesta_v0_additive_3", "vel": 0.693, "bend": 0.0, "ch": 13}, {"t": 47.259, "dur": 0.036, "note": 72, "inst": "piano_v0_additive_0", "vel": 0.654, "bend": 0.0, "ch": 8}, {"t": 47.354, "dur": 0.081, "note": 87, "inst": "piano_v0_additive_0", "vel": 0.677, "bend": 0.0, "ch": 7}, {"t": 47.365, "dur": 0.022, "note": 84, "inst": "piano_v0_additive_0", "vel": 0.48, "bend": 0.0, "ch": 4}, {"t": 47.41, "dur": 0.198, "note": 56, "inst": "celesta_v0_additive_3", "vel": 0.583, "bend": 0.0, "ch": 8}, {"t": 47.416, "dur": 0.195, "note": 65, "inst": "celesta_v0_additive_3", "vel": 0.598, "bend": 0.0, "ch": 1}, {"t": 47.417, "dur": 0.203, "note": 63, "inst": "piano_v0_additive_0", "vel": 0.591, "bend": 0.0, "ch": 15}, {"t": 47.421, "dur": 0.198, "note": 60, "inst": "piano_v0_additive_0", "vel": 0.543, "bend": 0.0, "ch": 12}, {"t": 47.432, "dur": 0.054, "note": 89, "inst": "celesta_v0_additive_3", "vel": 0.677, "bend": 0.0, "ch": 9}, {"t": 47.519, "dur": 0.061, "note": 77, "inst": "celesta_v0_additive_3", "vel": 0.661, "bend": 0.0, "ch": 13}, {"t": 47.589, "dur": 0.067, "note": 84, "inst": "piano_v0_additive_0", "vel": 0.701, "bend": 0.0, "ch": 4}, {"t": 47.653, "dur": 0.072, "note": 87, "inst": "piano_v0_additive_0", "vel": 0.732, "bend": 0.0, "ch": 7}, {"t": 47.739, "dur": 0.048, "note": 77, "inst": "celesta_v0_additive_3", "vel": 0.661, "bend": 0.0, "ch": 13}, {"t": 47.828, "dur": 0.07, "note": 89, "inst": "celesta_v0_additive_3", "vel": 0.717, "bend": 0.0, "ch": 9}, {"t": 47.884, "dur": 0.024, "note": 70, "inst": "organ_v0_additive_1", "vel": 0.701, "bend": 0.0, "ch": 6}, {"t": 47.89, "dur": 0.026, "note": 63, "inst": "piano_v0_additive_0", "vel": 0.622, "bend": 0.0, "ch": 15}, {"t": 47.892, "dur": 0.033, "note": 58, "inst": "organ_v0_additive_1", "vel": 0.551, "bend": 0.0, "ch": 10}, {"t": 47.893, "dur": 0.071, "note": 94, "inst": "organ_v0_additive_1", "vel": 0.811, "bend": 0.0, "ch": 14}, {"t": 47.966, "dur": 0.021, "note": 82, "inst": "organ_v0_additive_1", "vel": 0.654, "bend": 0.0, "ch": 2}, {"t": 48.077, "dur": 0.05, "note": 87, "inst": "piano_v0_additive_0", "vel": 0.583, "bend": 0.0, "ch": 7}, {"t": 48.105, "dur": 0.023, "note": 89, "inst": "celesta_v0_additive_3", "vel": 0.567, "bend": 0.0, "ch": 9}, {"t": 48.155, "dur": 0.025, "note": 63, "inst": "piano_v0_additive_0", "vel": 0.654, "bend": 0.0, "ch": 15}, {"t": 48.161, "dur": 0.04, "note": 70, "inst": "organ_v0_additive_1", "vel": 0.685, "bend": 0.0, "ch": 6}, {"t": 48.161, "dur": 0.045, "note": 99, "inst": "piano_v0_additive_0", "vel": 0.882, "bend": 0.0, "ch": 3}, {"t": 48.163, "dur": 0.047, "note": 75, "inst": "piano_v0_additive_0", "vel": 0.803, "bend": 0.0, "ch": 11}, {"t": 48.168, "dur": 0.028, "note": 65, "inst": "celesta_v0_additive_3", "vel": 0.638, "bend": 0.0, "ch": 1}, {"t": 48.708, "dur": 0.086, "note": 77, "inst": "celesta_v0_additive_3", "vel": 0.63, "bend": 0.0, "ch": 13}, {"t": 48.784, "dur": 0.079, "note": 82, "inst": "organ_v0_additive_1", "vel": 0.685, "bend": 0.0, "ch": 2}, {"t": 48.849, "dur": 0.052, "note": 82, "inst": "organ_v0_additive_1", "vel": 0.685, "bend": 0.0, "ch": 2}, {"t": 48.918, "dur": 0.08, "note": 77, "inst": "celesta_v0_additive_3", "vel": 0.669, "bend": 0.0, "ch": 13}, {"t": 49.008, "dur": 0.094, "note": 87, "inst": "piano_v0_additive_0", "vel": 0.669, "bend": 0.0, "ch": 7}, {"t": 49.053, "dur": 0.317, "note": 63, "inst": "piano_v0_additive_0", "vel": 0.622, "bend": 0.0, "ch": 15}, {"t": 49.054, "dur": 0.284, "note": 70, "inst": "organ_v0_additive_1", "vel": 0.685, "bend": 0.0, "ch": 6}, {"t": 49.074, "dur": 0.055, "note": 89, "inst": "celesta_v0_additive_3", "vel": 0.693, "bend": 0.0, "ch": 9}, {"t": 49.15, "dur": 0.108, "note": 77, "inst": "celesta_v0_additive_3", "vel": 0.677, "bend": 0.0, "ch": 13}, {"t": 49.223, "dur": 0.108, "note": 82, "inst": "organ_v0_additive_1", "vel": 0.724, "bend": 0.0, "ch": 2}, {"t": 49.294, "dur": 0.162, "note": 70, "inst": "organ_v0_additive_1", "vel": 0.803, "bend": 0.0, "ch": 6}, {"t": 49.306, "dur": 0.156, "note": 82, "inst": "organ_v0_additive_1", "vel": 0.701, "bend": 0.0, "ch": 2}, {"t": 49.39, "dur": 0.076, "note": 77, "inst": "celesta_v0_additive_3", "vel": 0.622, "bend": 0.0, "ch": 13}, {"t": 49.469, "dur": 0.119, "note": 80, "inst": "celesta_v0_additive_3", "vel": 0.614, "bend": 0.0, "ch": 0}, {"t": 49.588, "dur": 0.07, "note": 82, "inst": "organ_v0_additive_1", "vel": 0.551, "bend": 0.0, "ch": 2}, {"t": 49.598, "dur": 0.234, "note": 60, "inst": "piano_v0_additive_0", "vel": 0.465, "bend": 0.0, "ch": 12}, {"t": 49.601, "dur": 0.259, "note": 70, "inst": "organ_v0_additive_1", "vel": 0.496, "bend": 0.0, "ch": 6}, {"t": 49.691, "dur": 0.07, "note": 77, "inst": "celesta_v0_additive_3", "vel": 0.528, "bend": 0.0, "ch": 13}, {"t": 49.757, "dur": 0.092, "note": 82, "inst": "organ_v0_additive_1", "vel": 0.63, "bend": 0.0, "ch": 2}, {"t": 49.827, "dur": 0.062, "note": 82, "inst": "organ_v0_additive_1", "vel": 0.701, "bend": 0.0, "ch": 2}, {"t": 49.905, "dur": 0.064, "note": 77, "inst": "celesta_v0_additive_3", "vel": 0.669, "bend": 0.0, "ch": 13}, {"t": 49.971, "dur": 0.099, "note": 87, "inst": "piano_v0_additive_0", "vel": 0.693, "bend": 0.0, "ch": 7}, {"t": 50.038, "dur": 0.059, "note": 89, "inst": "celesta_v0_additive_3", "vel": 0.622, "bend": 0.0, "ch": 9}, {"t": 50.051, "dur": 0.296, "note": 70, "inst": "organ_v0_additive_1", "vel": 0.709, "bend": 0.0, "ch": 6}, {"t": 50.054, "dur": 0.36, "note": 63, "inst": "piano_v0_additive_0", "vel": 0.677, "bend": 0.0, "ch": 15}, {"t": 50.122, "dur": 0.184, "note": 77, "inst": "celesta_v0_additive_3", "vel": 0.646, "bend": 0.0, "ch": 13}, {"t": 50.205, "dur": 0.151, "note": 82, "inst": "organ_v0_additive_1", "vel": 0.709, "bend": 0.0, "ch": 2}, {"t": 50.301, "dur": 0.296, "note": 70, "inst": "organ_v0_additive_1", "vel": 0.772, "bend": 0.0, "ch": 6}, {"t": 50.32, "dur": 0.189, "note": 82, "inst": "organ_v0_additive_1", "vel": 0.638, "bend": 0.0, "ch": 2}, {"t": 50.403, "dur": 0.12, "note": 77, "inst": "celesta_v0_additive_3", "vel": 0.685, "bend": 0.0, "ch": 13}, {"t": 50.485, "dur": 0.11, "note": 80, "inst": "celesta_v0_additive_3", "vel": 0.685, "bend": 0.0, "ch": 0}, {"t": 50.576, "dur": 0.108, "note": 82, "inst": "organ_v0_additive_1", "vel": 0.724, "bend": 0.0, "ch": 2}, {"t": 50.595, "dur": 0.601, "note": 70, "inst": "organ_v0_additive_1", "vel": 0.567, "bend": 0.0, "ch": 6}, {"t": 50.611, "dur": 0.133, "note": 60, "inst": "piano_v0_additive_0", "vel": 0.488, "bend": 0.0, "ch": 12}, {"t": 50.683, "dur": 0.347, "note": 77, "inst": "celesta_v0_additive_3", "vel": 0.693, "bend": 0.0, "ch": 13}, {"t": 50.77, "dur": 0.385, "note": 82, "inst": "organ_v0_additive_1", "vel": 0.748, "bend": 0.0, "ch": 2}, {"t": 50.906, "dur": 0.774, "note": 58, "inst": "organ_v0_additive_1", "vel": 0.551, "bend": 0.0, "ch": 10}, {"t": 50.991, "dur": 0.31, "note": 87, "inst": "piano_v0_additive_0", "vel": 0.717, "bend": 0.0, "ch": 7}, {"t": 51.145, "dur": 0.12, "note": 75, "inst": "piano_v0_additive_0", "vel": 0.701, "bend": 0.0, "ch": 11}, {"t": 51.248, "dur": 0.182, "note": 80, "inst": "celesta_v0_additive_3", "vel": 0.677, "bend": 0.0, "ch": 0}, {"t": 51.353, "dur": 0.447, "note": 68, "inst": "celesta_v0_additive_3", "vel": 0.709, "bend": 0.0, "ch": 4}, {"t": 51.417, "dur": 0.134, "note": 82, "inst": "organ_v0_additive_1", "vel": 0.661, "bend": 0.0, "ch": 2}, {"t": 51.523, "dur": 0.118, "note": 75, "inst": "piano_v0_additive_0", "vel": 0.669, "bend": 0.0, "ch": 11}, {"t": 51.604, "dur": 0.079, "note": 80, "inst": "celesta_v0_additive_3", "vel": 0.63, "bend": 0.0, "ch": 0}, {"t": 51.664, "dur": 0.186, "note": 84, "inst": "piano_v0_additive_0", "vel": 0.661, "bend": 0.0, "ch": 4}, {"t": 51.67, "dur": 0.461, "note": 58, "inst": "organ_v0_additive_1", "vel": 0.591, "bend": 0.0, "ch": 10}, {"t": 51.748, "dur": 0.074, "note": 72, "inst": "piano_v0_additive_0", "vel": 0.63, "bend": 0.0, "ch": 8}, {"t": 51.813, "dur": 0.089, "note": 77, "inst": "celesta_v0_additive_3", "vel": 0.661, "bend": 0.0, "ch": 13}, {"t": 51.888, "dur": 0.072, "note": 80, "inst": "celesta_v0_additive_3", "vel": 0.63, "bend": 0.0, "ch": 0}, {"t": 51.889, "dur": 0.294, "note": 65, "inst": "celesta_v0_additive_3", "vel": 0.709, "bend": 0.0, "ch": 1}, {"t": 51.965, "dur": 0.079, "note": 72, "inst": "piano_v0_additive_0", "vel": 0.567, "bend": 0.0, "ch": 8}, {"t": 52.048, "dur": 0.099, "note": 77, "inst": "celesta_v0_additive_3", "vel": 0.622, "bend": 0.0, "ch": 13}, {"t": 52.113, "dur": 0.438, "note": 56, "inst": "celesta_v0_additive_3", "vel": 0.591, "bend": 0.0, "ch": 8}, {"t": 52.118, "dur": 0.176, "note": 82, "inst": "organ_v0_additive_1", "vel": 0.614, "bend": 0.0, "ch": 2}, {"t": 52.184, "dur": 0.082, "note": 70, "inst": "organ_v0_additive_1", "vel": 0.622, "bend": 0.0, "ch": 6}, {"t": 52.26, "dur": 0.113, "note": 77, "inst": "celesta_v0_additive_3", "vel": 0.622, "bend": 0.0, "ch": 13}, {"t": 52.317, "dur": 0.325, "note": 65, "inst": "celesta_v0_additive_3", "vel": 0.717, "bend": 0.0, "ch": 1}, {"t": 52.344, "dur": 0.104, "note": 77, "inst": "celesta_v0_additive_3", "vel": 0.63, "bend": 0.0, "ch": 13}, {"t": 52.423, "dur": 0.058, "note": 70, "inst": "organ_v0_additive_1", "vel": 0.606, "bend": 0.0, "ch": 6}, {"t": 52.492, "dur": 0.069, "note": 77, "inst": "celesta_v0_additive_3", "vel": 0.598, "bend": 0.0, "ch": 13}, {"t": 52.551, "dur": 0.143, "note": 82, "inst": "organ_v0_additive_1", "vel": 0.63, "bend": 0.0, "ch": 2}, {"t": 52.554, "dur": 0.278, "note": 53, "inst": "celesta_v0_additive_3", "vel": 0.567, "bend": 0.0, "ch": 5}, {"t": 52.631, "dur": 0.117, "note": 70, "inst": "organ_v0_additive_1", "vel": 0.606, "bend": 0.0, "ch": 6}, {"t": 52.699, "dur": 0.106, "note": 75, "inst": "piano_v0_additive_0", "vel": 0.638, "bend": 0.0, "ch": 11}, {"t": 52.759, "dur": 0.319, "note": 63, "inst": "piano_v0_additive_0", "vel": 0.598, "bend": 0.0, "ch": 15}, {"t": 52.769, "dur": 0.084, "note": 77, "inst": "celesta_v0_additive_3", "vel": 0.654, "bend": 0.0, "ch": 13}, {"t": 52.852, "dur": 0.125, "note": 70, "inst": "organ_v0_additive_1", "vel": 0.638, "bend": 0.0, "ch": 6}, {"t": 52.919, "dur": 0.367, "note": 75, "inst": "piano_v0_additive_0", "vel": 0.685, "bend": 0.0, "ch": 11}, {"t": 53.049, "dur": 0.089, "note": 75, "inst": "piano_v0_additive_0", "vel": 0.693, "bend": 0.0, "ch": 11}, {"t": 53.145, "dur": 0.08, "note": 70, "inst": "organ_v0_additive_1", "vel": 0.559, "bend": 0.0, "ch": 6}, {"t": 53.208, "dur": 0.142, "note": 80, "inst": "celesta_v0_additive_3", "vel": 0.575, "bend": 0.0, "ch": 0}, {"t": 53.273, "dur": 0.095, "note": 63, "inst": "piano_v0_additive_0", "vel": 0.654, "bend": 0.0, "ch": 15}, {"t": 53.276, "dur": 0.063, "note": 56, "inst": "celesta_v0_additive_3", "vel": 0.606, "bend": 0.0, "ch": 8}, {"t": 53.279, "dur": 0.342, "note": 82, "inst": "organ_v0_additive_1", "vel": 0.701, "bend": 0.0, "ch": 2}, {"t": 53.28, "dur": 0.17, "note": 58, "inst": "organ_v0_additive_1", "vel": 0.575, "bend": 0.0, "ch": 10}, {"t": 53.341, "dur": 0.13, "note": 70, "inst": "organ_v0_additive_1", "vel": 0.693, "bend": 0.0, "ch": 6}, {"t": 53.424, "dur": 0.157, "note": 75, "inst": "piano_v0_additive_0", "vel": 0.575, "bend": 0.0, "ch": 11}, {"t": 53.526, "dur": 0.102, "note": 63, "inst": "piano_v0_additive_0", "vel": 0.512, "bend": 0.0, "ch": 15}, {"t": 53.53, "dur": 0.164, "note": 56, "inst": "celesta_v0_additive_3", "vel": 0.701, "bend": 0.0, "ch": 8}, {"t": 53.53, "dur": 0.35, "note": 68, "inst": "celesta_v0_additive_3", "vel": 0.764, "bend": 0.0, "ch": 4}, {"t": 53.554, "dur": 0.301, "note": 58, "inst": "organ_v0_additive_1", "vel": 0.591, "bend": 0.0, "ch": 10}, {"t": 53.573, "dur": 0.153, "note": 80, "inst": "celesta_v0_additive_3", "vel": 0.52, "bend": 0.0, "ch": 0}, {"t": 53.667, "dur": 0.09, "note": 70, "inst": "organ_v0_additive_1", "vel": 0.559, "bend": 0.0, "ch": 6}, {"t": 53.769, "dur": 0.139, "note": 75, "inst": "piano_v0_additive_0", "vel": 0.528, "bend": 0.0, "ch": 11}, {"t": 53.878, "dur": 0.22, "note": 58, "inst": "organ_v0_additive_1", "vel": 0.276, "bend": 0.0, "ch": 10}, {"t": 53.889, "dur": 0.233, "note": 63, "inst": "piano_v0_additive_0", "vel": 0.551, "bend": 0.0, "ch": 15}, {"t": 53.891, "dur": 0.17, "note": 56, "inst": "celesta_v0_additive_3", "vel": 0.512, "bend": 0.0, "ch": 8}, {"t": 53.891, "dur": 0.104, "note": 75, "inst": "piano_v0_additive_0", "vel": 0.598, "bend": 0.0, "ch": 11}, {"t": 53.98, "dur": 0.099, "note": 70, "inst": "organ_v0_additive_1", "vel": 0.598, "bend": 0.0, "ch": 6}, {"t": 54.054, "dur": 0.259, "note": 75, "inst": "piano_v0_additive_0", "vel": 0.591, "bend": 0.0, "ch": 11}, {"t": 54.108, "dur": 0.081, "note": 75, "inst": "piano_v0_additive_0", "vel": 0.709, "bend": 0.0, "ch": 11}, {"t": 54.18, "dur": 0.085, "note": 70, "inst": "organ_v0_additive_1", "vel": 0.669, "bend": 0.0, "ch": 6}, {"t": 54.249, "dur": 0.132, "note": 80, "inst": "celesta_v0_additive_3", "vel": 0.598, "bend": 0.0, "ch": 0}, {"t": 54.268, "dur": 0.144, "note": 63, "inst": "piano_v0_additive_0", "vel": 0.661, "bend": 0.0, "ch": 15}, {"t": 54.279, "dur": 0.072, "note": 56, "inst": "celesta_v0_additive_3", "vel": 0.606, "bend": 0.0, "ch": 8}, {"t": 54.28, "dur": 0.21, "note": 58, "inst": "organ_v0_additive_1", "vel": 0.606, "bend": 0.0, "ch": 10}, {"t": 54.305, "dur": 0.281, "note": 82, "inst": "organ_v0_additive_1", "vel": 0.685, "bend": 0.0, "ch": 2}, {"t": 54.375, "dur": 0.138, "note": 70, "inst": "organ_v0_additive_1", "vel": 0.709, "bend": 0.0, "ch": 6}, {"t": 54.457, "dur": 0.118, "note": 75, "inst": "piano_v0_additive_0", "vel": 0.614, "bend": 0.0, "ch": 11}, {"t": 54.531, "dur": 0.084, "note": 63, "inst": "piano_v0_additive_0", "vel": 0.496, "bend": 0.0, "ch": 15}, {"t": 54.532, "dur": 0.154, "note": 56, "inst": "celesta_v0_additive_3", "vel": 0.732, "bend": 0.0, "ch": 8}, {"t": 54.532, "dur": 0.213, "note": 68, "inst": "celesta_v0_additive_3", "vel": 0.772, "bend": 0.0, "ch": 4}, {"t": 54.544, "dur": 0.201, "note": 58, "inst": "organ_v0_additive_1", "vel": 0.528, "bend": 0.0, "ch": 10}, {"t": 54.549, "dur": 0.138, "note": 80, "inst": "celesta_v0_additive_3", "vel": 0.551, "bend": 0.0, "ch": 0}, {"t": 54.622, "dur": 0.085, "note": 70, "inst": "organ_v0_additive_1", "vel": 0.606, "bend": 0.0, "ch": 6}, {"t": 54.702, "dur": 0.073, "note": 75, "inst": "piano_v0_additive_0", "vel": 0.614, "bend": 0.0, "ch": 11}, {"t": 54.769, "dur": 0.208, "note": 58, "inst": "organ_v0_additive_1", "vel": 0.283, "bend": 0.0, "ch": 10}, {"t": 54.773, "dur": 0.179, "note": 63, "inst": "piano_v0_additive_0", "vel": 0.661, "bend": 0.0, "ch": 15}, {"t": 54.773, "dur": 0.085, "note": 75, "inst": "piano_v0_additive_0", "vel": 0.646, "bend": 0.0, "ch": 11}, {"t": 54.776, "dur": 0.062, "note": 56, "inst": "celesta_v0_additive_3", "vel": 0.591, "bend": 0.0, "ch": 8}, {"t": 54.866, "dur": 0.084, "note": 72, "inst": "piano_v0_additive_0", "vel": 0.654, "bend": 0.0, "ch": 8}, {"t": 54.934, "dur": 0.081, "note": 75, "inst": "piano_v0_additive_0", "vel": 0.559, "bend": 0.0, "ch": 11}, {"t": 54.993, "dur": 0.024, "note": 56, "inst": "celesta_v0_additive_3", "vel": 0.85, "bend": 0.0, "ch": 8}, {"t": 54.998, "dur": 0.021, "note": 44, "inst": "celesta_v0_additive_3", "vel": 0.693, "bend": 0.0, "ch": 12}, {"t": 55.002, "dur": 0.066, "note": 68, "inst": "celesta_v0_additive_3", "vel": 0.661, "bend": 0.0, "ch": 4}, {"t": 55.096, "dur": 0.087, "note": 56, "inst": "celesta_v0_additive_3", "vel": 0.614, "bend": 0.0, "ch": 8}, {"t": 55.173, "dur": 0.075, "note": 72, "inst": "piano_v0_additive_0", "vel": 0.512, "bend": 0.0, "ch": 8}, {"t": 55.239, "dur": 0.761, "note": 51, "inst": "piano_v0_additive_0", "vel": 0.606, "bend": 0.0, "ch": 3}, {"t": 55.242, "dur": 0.054, "note": 75, "inst": "piano_v0_additive_0", "vel": 0.591, "bend": 0.0, "ch": 11}, {"t": 55.316, "dur": 0.084, "note": 63, "inst": "piano_v0_additive_0", "vel": 0.598, "bend": 0.0, "ch": 15}, {"t": 55.384, "dur": 0.089, "note": 56, "inst": "celesta_v0_additive_3", "vel": 0.583, "bend": 0.0, "ch": 8}, {"t": 55.459, "dur": 0.137, "note": 72, "inst": "piano_v0_additive_0", "vel": 0.559, "bend": 0.0, "ch": 8}, {"t": 55.547, "dur": 0.137, "note": 63, "inst": "piano_v0_additive_0", "vel": 0.52, "bend": 0.0, "ch": 15}, {"t": 55.612, "dur": 0.101, "note": 68, "inst": "celesta_v0_additive_3", "vel": 0.52, "bend": 0.0, "ch": 4}, {"t": 55.681, "dur": 0.274, "note": 53, "inst": "celesta_v0_additive_3", "vel": 0.551, "bend": 0.0, "ch": 5}, {"t": 55.712, "dur": 0.071, "note": 70, "inst": "organ_v0_additive_1", "vel": 0.583, "bend": 0.0, "ch": 6}, {"t": 55.785, "dur": 0.082, "note": 60, "inst": "piano_v0_additive_0", "vel": 0.504, "bend": 0.0, "ch": 12}, {"t": 55.851, "dur": 0.074, "note": 63, "inst": "piano_v0_additive_0", "vel": 0.598, "bend": 0.0, "ch": 15}, {"t": 55.925, "dur": 0.091, "note": 70, "inst": "organ_v0_additive_1", "vel": 0.591, "bend": 0.0, "ch": 6}, {"t": 55.933, "dur": 0.303, "note": 44, "inst": "celesta_v0_additive_3", "vel": 0.646, "bend": 0.0, "ch": 12}, {"t": 55.997, "dur": 0.064, "note": 58, "inst": "organ_v0_additive_1", "vel": 0.543, "bend": 0.0, "ch": 10}, {"t": 56.064, "dur": 0.078, "note": 63, "inst": "piano_v0_additive_0", "vel": 0.583, "bend": 0.0, "ch": 15}, {"t": 56.136, "dur": 0.104, "note": 68, "inst": "celesta_v0_additive_3", "vel": 0.63, "bend": 0.0, "ch": 4}, {"t": 56.156, "dur": 0.199, "note": 56, "inst": "celesta_v0_additive_3", "vel": 0.717, "bend": 0.0, "ch": 8}, {"t": 56.211, "dur": 0.127, "note": 60, "inst": "piano_v0_additive_0", "vel": 0.567, "bend": 0.0, "ch": 12}, {"t": 56.263, "dur": 0.106, "note": 44, "inst": "celesta_v0_additive_3", "vel": 0.118, "bend": 0.0, "ch": 12}, {"t": 56.281, "dur": 0.091, "note": 63, "inst": "piano_v0_additive_0", "vel": 0.614, "bend": 0.0, "ch": 15}, {"t": 56.364, "dur": 0.17, "note": 65, "inst": "celesta_v0_additive_3", "vel": 0.669, "bend": 0.0, "ch": 1}, {"t": 56.381, "dur": 0.215, "note": 56, "inst": "celesta_v0_additive_3", "vel": 0.835, "bend": 0.0, "ch": 8}, {"t": 56.395, "dur": 0.028, "note": 44, "inst": "celesta_v0_additive_3", "vel": 0.189, "bend": 0.0, "ch": 12}, {"t": 56.462, "dur": 0.134, "note": 58, "inst": "organ_v0_additive_1", "vel": 0.646, "bend": 0.0, "ch": 10}, {"t": 56.549, "dur": 0.114, "note": 63, "inst": "piano_v0_additive_0", "vel": 0.646, "bend": 0.0, "ch": 15}, {"t": 56.631, "dur": 0.043, "note": 58, "inst": "organ_v0_additive_1", "vel": 0.724, "bend": 0.0, "ch": 10}, {"t": 56.647, "dur": 0.243, "note": 65, "inst": "celesta_v0_additive_3", "vel": 0.606, "bend": 0.0, "ch": 1}, {"t": 56.733, "dur": 0.229, "note": 56, "inst": "celesta_v0_additive_3", "vel": 0.669, "bend": 0.0, "ch": 8}, {"t": 56.843, "dur": 0.149, "note": 58, "inst": "organ_v0_additive_1", "vel": 0.661, "bend": 0.0, "ch": 10}, {"t": 56.846, "dur": 0.04, "note": 63, "inst": "piano_v0_additive_0", "vel": 0.299, "bend": 0.0, "ch": 15}, {"t": 56.953, "dur": 0.232, "note": 58, "inst": "organ_v0_additive_1", "vel": 0.732, "bend": 0.0, "ch": 10}, {"t": 57.12, "dur": 0.055, "note": 53, "inst": "celesta_v0_additive_3", "vel": 0.425, "bend": 0.0, "ch": 5}, {"t": 57.228, "dur": 0.25, "note": 63, "inst": "piano_v0_additive_0", "vel": 0.567, "bend": 0.0, "ch": 15}, {"t": 57.371, "dur": 0.234, "note": 65, "inst": "celesta_v0_additive_3", "vel": 0.543, "bend": 0.0, "ch": 1}, {"t": 57.378, "dur": 0.263, "note": 34, "inst": "organ_v0_additive_1", "vel": 0.732, "bend": 0.0, "ch": 2}, {"t": 57.384, "dur": 0.341, "note": 46, "inst": "organ_v0_additive_1", "vel": 0.669, "bend": 0.0, "ch": 14}, {"t": 57.495, "dur": 0.093, "note": 56, "inst": "celesta_v0_additive_3", "vel": 0.472, "bend": 0.0, "ch": 8}, {"t": 57.589, "dur": 0.081, "note": 58, "inst": "organ_v0_additive_1", "vel": 0.535, "bend": 0.0, "ch": 10}, {"t": 57.662, "dur": 0.079, "note": 58, "inst": "organ_v0_additive_1", "vel": 0.638, "bend": 0.0, "ch": 10}, {"t": 57.751, "dur": 0.058, "note": 53, "inst": "celesta_v0_additive_3", "vel": 0.583, "bend": 0.0, "ch": 5}, {"t": 57.835, "dur": 0.101, "note": 63, "inst": "piano_v0_additive_0", "vel": 0.606, "bend": 0.0, "ch": 15}, {"t": 57.915, "dur": 0.167, "note": 65, "inst": "celesta_v0_additive_3", "vel": 0.614, "bend": 0.0, "ch": 1}, {"t": 57.923, "dur": 0.392, "note": 51, "inst": "piano_v0_additive_0", "vel": 0.63, "bend": 0.0, "ch": 3}, {"t": 57.924, "dur": 0.339, "note": 39, "inst": "piano_v0_additive_0", "vel": 0.622, "bend": 0.0, "ch": 7}, {"t": 58.014, "dur": 0.091, "note": 58, "inst": "organ_v0_additive_1", "vel": 0.528, "bend": 0.0, "ch": 10}, {"t": 58.096, "dur": 0.113, "note": 60, "inst": "piano_v0_additive_0", "vel": 0.606, "bend": 0.0, "ch": 12}, {"t": 58.18, "dur": 0.076, "note": 63, "inst": "piano_v0_additive_0", "vel": 0.693, "bend": 0.0, "ch": 15}, {"t": 58.266, "dur": 0.055, "note": 56, "inst": "celesta_v0_additive_3", "vel": 0.583, "bend": 0.0, "ch": 8}, {"t": 58.347, "dur": 0.101, "note": 65, "inst": "celesta_v0_additive_3", "vel": 0.622, "bend": 0.0, "ch": 1}, {"t": 58.421, "dur": 0.144, "note": 68, "inst": "celesta_v0_additive_3", "vel": 0.646, "bend": 0.0, "ch": 4}, {"t": 58.426, "dur": 0.255, "note": 53, "inst": "celesta_v0_additive_3", "vel": 0.756, "bend": 0.0, "ch": 5}, {"t": 58.432, "dur": 0.192, "note": 41, "inst": "celesta_v0_additive_3", "vel": 0.638, "bend": 0.0, "ch": 9}, {"t": 58.515, "dur": 0.037, "note": 58, "inst": "organ_v0_additive_1", "vel": 0.496, "bend": 0.0, "ch": 10}, {"t": 58.576, "dur": 0.09, "note": 63, "inst": "piano_v0_additive_0", "vel": 0.614, "bend": 0.0, "ch": 15}, {"t": 58.645, "dur": 0.08, "note": 63, "inst": "piano_v0_additive_0", "vel": 0.693, "bend": 0.0, "ch": 15}, {"t": 58.743, "dur": 0.045, "note": 58, "inst": "organ_v0_additive_1", "vel": 0.63, "bend": 0.0, "ch": 10}, {"t": 58.823, "dur": 0.083, "note": 70, "inst": "organ_v0_additive_1", "vel": 0.717, "bend": 0.0, "ch": 6}, {"t": 58.892, "dur": 0.343, "note": 44, "inst": "celesta_v0_additive_3", "vel": 0.724, "bend": 0.0, "ch": 12}, {"t": 58.893, "dur": 0.34, "note": 32, "inst": "celesta_v0_additive_3", "vel": 0.693, "bend": 0.0, "ch": 0}, {"t": 58.903, "dur": 0.052, "note": 72, "inst": "piano_v0_additive_0", "vel": 0.622, "bend": 0.0, "ch": 8}, {"t": 59.002, "dur": 0.08, "note": 60, "inst": "piano_v0_additive_0", "vel": 0.583, "bend": 0.0, "ch": 12}, {"t": 59.073, "dur": 0.079, "note": 63, "inst": "piano_v0_additive_0", "vel": 0.646, "bend": 0.0, "ch": 15}, {"t": 59.147, "dur": 0.068, "note": 63, "inst": "piano_v0_additive_0", "vel": 0.654, "bend": 0.0, "ch": 15}, {"t": 59.237, "dur": 0.103, "note": 58, "inst": "organ_v0_additive_1", "vel": 0.638, "bend": 0.0, "ch": 10}, {"t": 59.341, "dur": 0.132, "note": 68, "inst": "celesta_v0_additive_3", "vel": 0.63, "bend": 0.0, "ch": 4}, {"t": 59.423, "dur": 0.246, "note": 56, "inst": "celesta_v0_additive_3", "vel": 0.717, "bend": 0.0, "ch": 8}, {"t": 59.429, "dur": 0.203, "note": 44, "inst": "celesta_v0_additive_3", "vel": 0.614, "bend": 0.0, "ch": 12}, {"t": 59.434, "dur": 0.099, "note": 70, "inst": "organ_v0_additive_1", "vel": 0.614, "bend": 0.0, "ch": 6}, {"t": 59.538, "dur": 0.063, "note": 63, "inst": "piano_v0_additive_0", "vel": 0.512, "bend": 0.0, "ch": 15}, {"t": 59.599, "dur": 0.08, "note": 65, "inst": "celesta_v0_additive_3", "vel": 0.638, "bend": 0.0, "ch": 1}, {"t": 59.662, "dur": 0.066, "note": 65, "inst": "celesta_v0_additive_3", "vel": 0.63, "bend": 0.0, "ch": 1}, {"t": 59.744, "dur": 0.035, "note": 60, "inst": "piano_v0_additive_0", "vel": 0.583, "bend": 0.0, "ch": 12}, {"t": 59.841, "dur": 0.092, "note": 72, "inst": "piano_v0_additive_0", "vel": 0.685, "bend": 0.0, "ch": 8}, {"t": 59.92, "dur": 0.305, "note": 56, "inst": "celesta_v0_additive_3", "vel": 0.701, "bend": 0.0, "ch": 8}, {"t": 59.922, "dur": 0.314, "note": 44, "inst": "celesta_v0_additive_3", "vel": 0.638, "bend": 0.0, "ch": 12}, {"t": 59.923, "dur": 0.062, "note": 75, "inst": "piano_v0_additive_0", "vel": 0.646, "bend": 0.0, "ch": 11}, {"t": 60.002, "dur": 0.09, "note": 65, "inst": "celesta_v0_additive_3", "vel": 0.551, "bend": 0.0, "ch": 1}, {"t": 60.075, "dur": 0.076, "note": 68, "inst": "celesta_v0_additive_3", "vel": 0.654, "bend": 0.0, "ch": 4}, {"t": 60.138, "dur": 0.079, "note": 68, "inst": "celesta_v0_additive_3", "vel": 0.677, "bend": 0.0, "ch": 4}, {"t": 60.221, "dur": 0.045, "note": 63, "inst": "piano_v0_additive_0", "vel": 0.654, "bend": 0.0, "ch": 15}, {"t": 60.31, "dur": 0.105, "note": 75, "inst": "piano_v0_additive_0", "vel": 0.717, "bend": 0.0, "ch": 11}, {"t": 60.388, "dur": 0.061, "note": 77, "inst": "celesta_v0_additive_3", "vel": 0.685, "bend": 0.0, "ch": 13}, {"t": 60.389, "dur": 0.443, "note": 58, "inst": "organ_v0_additive_1", "vel": 0.669, "bend": 0.0, "ch": 10}, {"t": 60.395, "dur": 0.16, "note": 46, "inst": "organ_v0_additive_1", "vel": 0.583, "bend": 0.0, "ch": 14}, {"t": 84.112, "dur": 0.147, "note": 72, "inst": "piano_v0_additive_0", "vel": 0.417, "bend": 0.0, "ch": 8}, {"t": 84.284, "dur": 0.13, "note": 71, "inst": "celesta_v0_additive_3", "vel": 0.48, "bend": 0.0, "ch": 7}, {"t": 84.435, "dur": 0.16, "note": 72, "inst": "piano_v0_additive_0", "vel": 0.457, "bend": 0.0, "ch": 8}, {"t": 84.559, "dur": 0.43, "note": 65, "inst": "celesta_v0_additive_3", "vel": 0.26, "bend": 0.0, "ch": 1}, {"t": 84.574, "dur": 0.362, "note": 53, "inst": "celesta_v0_additive_3", "vel": 0.315, "bend": 0.0, "ch": 5}, {"t": 84.577, "dur": 0.192, "note": 72, "inst": "piano_v0_additive_0", "vel": 0.543, "bend": 0.0, "ch": 8}, {"t": 84.729, "dur": 0.138, "note": 74, "inst": "celesta_v0_additive_3", "vel": 0.472, "bend": 0.0, "ch": 10}, {"t": 84.878, "dur": 0.451, "note": 57, "inst": "piano_v0_additive_0", "vel": 0.205, "bend": 0.0, "ch": 9}, {"t": 84.878, "dur": 0.137, "note": 76, "inst": "organ_v0_additive_1", "vel": 0.465, "bend": 0.0, "ch": 12}, {"t": 84.881, "dur": 0.424, "note": 60, "inst": "piano_v0_additive_0", "vel": 0.244, "bend": 0.0, "ch": 12}, {"t": 85.04, "dur": 0.241, "note": 77, "inst": "celesta_v0_additive_3", "vel": 0.457, "bend": 0.0, "ch": 13}, {"t": 85.255, "dur": 0.092, "note": 53, "inst": "celesta_v0_additive_3", "vel": 0.323, "bend": 0.0, "ch": 5}, {"t": 85.299, "dur": 0.228, "note": 81, "inst": "piano_v0_additive_0", "vel": 0.37, "bend": 0.0, "ch": 1}, {"t": 85.51, "dur": 0.173, "note": 81, "inst": "piano_v0_additive_0", "vel": 0.441, "bend": 0.0, "ch": 1}, {"t": 85.664, "dur": 0.062, "note": 29, "inst": "celesta_v0_additive_3", "vel": 0.394, "bend": 0.0, "ch": 13}, {"t": 85.686, "dur": 0.162, "note": 80, "inst": "celesta_v0_additive_3", "vel": 0.465, "bend": 0.0, "ch": 0}, {"t": 85.86, "dur": 0.141, "note": 80, "inst": "celesta_v0_additive_3", "vel": 0.402, "bend": 0.0, "ch": 0}, {"t": 86.01, "dur": 0.393, "note": 65, "inst": "celesta_v0_additive_3", "vel": 0.488, "bend": 0.0, "ch": 1}, {"t": 86.034, "dur": 0.404, "note": 53, "inst": "celesta_v0_additive_3", "vel": 0.346, "bend": 0.0, "ch": 5}, {"t": 86.036, "dur": 0.147, "note": 77, "inst": "celesta_v0_additive_3", "vel": 0.488, "bend": 0.0, "ch": 13}, {"t": 86.173, "dur": 0.118, "note": 77, "inst": "celesta_v0_additive_3", "vel": 0.512, "bend": 0.0, "ch": 13}, {"t": 86.31, "dur": 0.146, "note": 76, "inst": "organ_v0_additive_1", "vel": 0.449, "bend": 0.0, "ch": 12}, {"t": 86.322, "dur": 0.311, "note": 62, "inst": "celesta_v0_additive_3", "vel": 0.409, "bend": 0.0, "ch": 14}, {"t": 86.334, "dur": 0.687, "note": 57, "inst": "piano_v0_additive_0", "vel": 0.378, "bend": 0.0, "ch": 9}, {"t": 86.468, "dur": 0.16, "note": 74, "inst": "celesta_v0_additive_3", "vel": 0.433, "bend": 0.0, "ch": 10}, {"t": 86.621, "dur": 0.07, "note": 72, "inst": "piano_v0_additive_0", "vel": 0.488, "bend": 0.0, "ch": 8}, {"t": 86.627, "dur": 0.354, "note": 53, "inst": "celesta_v0_additive_3", "vel": 0.37, "bend": 0.0, "ch": 5}, {"t": 86.628, "dur": 0.332, "note": 65, "inst": "celesta_v0_additive_3", "vel": 0.362, "bend": 0.0, "ch": 1}, {"t": 86.72, "dur": 0.051, "note": 72, "inst": "piano_v0_additive_0", "vel": 0.441, "bend": 0.0, "ch": 8}, {"t": 86.91, "dur": 0.025, "note": 69, "inst": "piano_v0_additive_0", "vel": 0.496, "bend": 0.0, "ch": 5}, {"t": 86.914, "dur": 0.365, "note": 60, "inst": "piano_v0_additive_0", "vel": 0.346, "bend": 0.0, "ch": 12}, {"t": 86.923, "dur": 0.393, "note": 57, "inst": "piano_v0_additive_0", "vel": 0.299, "bend": 0.0, "ch": 9}, {"t": 86.979, "dur": 0.035, "note": 72, "inst": "piano_v0_additive_0", "vel": 0.417, "bend": 0.0, "ch": 8}, {"t": 87.021, "dur": 0.089, "note": 69, "inst": "piano_v0_additive_0", "vel": 0.504, "bend": 0.0, "ch": 5}, {"t": 87.102, "dur": 0.145, "note": 69, "inst": "piano_v0_additive_0", "vel": 0.551, "bend": 0.0, "ch": 5}, {"t": 87.208, "dur": 0.178, "note": 69, "inst": "piano_v0_additive_0", "vel": 0.535, "bend": 0.0, "ch": 5}, {"t": 87.215, "dur": 0.285, "note": 53, "inst": "celesta_v0_additive_3", "vel": 0.386, "bend": 0.0, "ch": 5}, {"t": 87.218, "dur": 0.358, "note": 65, "inst": "celesta_v0_additive_3", "vel": 0.409, "bend": 0.0, "ch": 1}, {"t": 87.353, "dur": 0.067, "note": 72, "inst": "piano_v0_additive_0", "vel": 0.567, "bend": 0.0, "ch": 8}, {"t": 87.517, "dur": 1.149, "note": 57, "inst": "piano_v0_additive_0", "vel": 0.315, "bend": 0.0, "ch": 9}, {"t": 87.518, "dur": 1.117, "note": 60, "inst": "piano_v0_additive_0", "vel": 0.378, "bend": 0.0, "ch": 12}, {"t": 87.535, "dur": 0.605, "note": 72, "inst": "piano_v0_additive_0", "vel": 0.496, "bend": 0.0, "ch": 8}, {"t": 87.731, "dur": 0.227, "note": 84, "inst": "piano_v0_additive_0", "vel": 0.449, "bend": 0.0, "ch": 4}, {"t": 87.933, "dur": 0.411, "note": 65, "inst": "celesta_v0_additive_3", "vel": 0.465, "bend": 0.0, "ch": 1}, {"t": 87.941, "dur": 0.176, "note": 84, "inst": "piano_v0_additive_0", "vel": 0.472, "bend": 0.0, "ch": 4}, {"t": 87.958, "dur": 0.345, "note": 53, "inst": "celesta_v0_additive_3", "vel": 0.283, "bend": 0.0, "ch": 5}, {"t": 88.116, "dur": 0.179, "note": 81, "inst": "piano_v0_additive_0", "vel": 0.465, "bend": 0.0, "ch": 1}, {"t": 88.268, "dur": 0.226, "note": 84, "inst": "piano_v0_additive_0", "vel": 0.52, "bend": 0.0, "ch": 4}, {"t": 88.41, "dur": 0.23, "note": 81, "inst": "piano_v0_additive_0", "vel": 0.543, "bend": 0.0, "ch": 1}, {"t": 126.045, "dur": 0.311, "note": 36, "inst": "piano_v0_additive_0", "vel": 1.0, "bend": 0.0, "ch": 4}, {"t": 126.045, "dur": 0.311, "note": 48, "inst": "piano_v0_additive_0", "vel": 1.0, "bend": 0.0, "ch": 0}, {"t": 126.045, "dur": 0.311, "note": 53, "inst": "celesta_v0_additive_3", "vel": 1.0, "bend": 0.0, "ch": 5}, {"t": 126.045, "dur": 0.311, "note": 65, "inst": "celesta_v0_additive_3", "vel": 1.0, "bend": 0.0, "ch": 1}, {"t": 126.357, "dur": 0.311, "note": 38, "inst": "celesta_v0_additive_3", "vel": 1.0, "bend": 0.0, "ch": 6}, {"t": 126.357, "dur": 0.311, "note": 50, "inst": "celesta_v0_additive_3", "vel": 1.0, "bend": 0.0, "ch": 2}, {"t": 126.357, "dur": 0.311, "note": 53, "inst": "celesta_v0_additive_3", "vel": 1.0, "bend": 0.0, "ch": 5}, {"t": 126.357, "dur": 0.311, "note": 65, "inst": "celesta_v0_additive_3", "vel": 1.0, "bend": 0.0, "ch": 1}, {"t": 126.668, "dur": 0.311, "note": 34, "inst": "organ_v0_additive_1", "vel": 1.0, "bend": 0.0, "ch": 2}, {"t": 126.668, "dur": 0.311, "note": 46, "inst": "organ_v0_additive_1", "vel": 1.0, "bend": 0.0, "ch": 14}, {"t": 126.668, "dur": 0.311, "note": 50, "inst": "celesta_v0_additive_3", "vel": 1.0, "bend": 0.0, "ch": 2}, {"t": 126.668, "dur": 0.311, "note": 62, "inst": "celesta_v0_additive_3", "vel": 1.0, "bend": 0.0, "ch": 14}, {"t": 126.98, "dur": 0.311, "note": 36, "inst": "piano_v0_additive_0", "vel": 1.0, "bend": 0.0, "ch": 4}, {"t": 126.98, "dur": 0.311, "note": 48, "inst": "piano_v0_additive_0", "vel": 1.0, "bend": 0.0, "ch": 0}, {"t": 126.98, "dur": 0.311, "note": 53, "inst": "celesta_v0_additive_3", "vel": 1.0, "bend": 0.0, "ch": 5}, {"t": 126.98, "dur": 0.311, "note": 65, "inst": "celesta_v0_additive_3", "vel": 1.0, "bend": 0.0, "ch": 1}, {"t": 127.291, "dur": 0.311, "note": 34, "inst": "organ_v0_additive_1", "vel": 1.0, "bend": 0.0, "ch": 2}, {"t": 127.291, "dur": 0.311, "note": 46, "inst": "organ_v0_additive_1", "vel": 1.0, "bend": 0.0, "ch": 14}, {"t": 127.291, "dur": 0.311, "note": 48, "inst": "piano_v0_additive_0", "vel": 1.0, "bend": 0.0, "ch": 0}, {"t": 127.291, "dur": 0.311, "note": 60, "inst": "piano_v0_additive_0", "vel": 1.0, "bend": 0.0, "ch": 12}, {"t": 127.602, "dur": 0.311, "note": 34, "inst": "organ_v0_additive_1", "vel": 1.0, "bend": 0.0, "ch": 2}, {"t": 127.602, "dur": 0.311, "note": 46, "inst": "organ_v0_additive_1", "vel": 1.0, "bend": 0.0, "ch": 14}, {"t": 127.602, "dur": 0.311, "note": 50, "inst": "celesta_v0_additive_3", "vel": 1.0, "bend": 0.0, "ch": 2}, {"t": 127.602, "dur": 0.311, "note": 62, "inst": "celesta_v0_additive_3", "vel": 1.0, "bend": 0.0, "ch": 14}, {"t": 127.914, "dur": 0.311, "note": 31, "inst": "organ_v0_additive_1", "vel": 1.0, "bend": 0.0, "ch": 15}, {"t": 127.914, "dur": 0.311, "note": 43, "inst": "organ_v0_additive_1", "vel": 1.0, "bend": 0.0, "ch": 11}, {"t": 127.914, "dur": 0.311, "note": 46, "inst": "organ_v0_additive_1", "vel": 1.0, "bend": 0.0, "ch": 14}, {"t": 127.914, "dur": 0.311, "note": 58, "inst": "organ_v0_additive_1", "vel": 1.0, "bend": 0.0, "ch": 10}, {"t": 128.225, "dur": 0.311, "note": 34, "inst": "organ_v0_additive_1", "vel": 1.0, "bend": 0.0, "ch": 2}, {"t": 128.225, "dur": 0.311, "note": 46, "inst": "organ_v0_additive_1", "vel": 1.0, "bend": 0.0, "ch": 14}, {"t": 128.225, "dur": 0.311, "note": 48, "inst": "piano_v0_additive_0", "vel": 1.0, "bend": 0.0, "ch": 0}, {"t": 128.225, "dur": 0.311, "note": 60, "inst": "piano_v0_additive_0", "vel": 1.0, "bend": 0.0, "ch": 12}, {"t": 128.537, "dur": 0.311, "note": 29, "inst": "celesta_v0_additive_3", "vel": 1.0, "bend": 0.0, "ch": 13}, {"t": 128.537, "dur": 0.311, "note": 41, "inst": "celesta_v0_additive_3", "vel": 1.0, "bend": 0.0, "ch": 9}, {"t": 128.537, "dur": 0.311, "note": 43, "inst": "organ_v0_additive_1", "vel": 1.0, "bend": 0.0, "ch": 11}, {"t": 128.537, "dur": 0.311, "note": 55, "inst": "organ_v0_additive_1", "vel": 1.0, "bend": 0.0, "ch": 7}, {"t": 128.848, "dur": 0.311, "note": 29, "inst": "celesta_v0_additive_3", "vel": 1.0, "bend": 0.0, "ch": 13}, {"t": 128.848, "dur": 0.311, "note": 41, "inst": "celesta_v0_additive_3", "vel": 1.0, "bend": 0.0, "ch": 9}, {"t": 128.848, "dur": 0.311, "note": 46, "inst": "organ_v0_additive_1", "vel": 1.0, "bend": 0.0, "ch": 14}, {"t": 128.848, "dur": 0.311, "note": 58, "inst": "organ_v0_additive_1", "vel": 1.0, "bend": 0.0, "ch": 10}, {"t": 129.159, "dur": 0.311, "note": 24, "inst": "piano_v0_additive_0", "vel": 1.0, "bend": 0.0, "ch": 8}, {"t": 129.159, "dur": 0.311, "note": 36, "inst": "piano_v0_additive_0", "vel": 1.0, "bend": 0.0, "ch": 4}, {"t": 129.159, "dur": 0.311, "note": 41, "inst": "celesta_v0_additive_3", "vel": 1.0, "bend": 0.0, "ch": 9}, {"t": 129.159, "dur": 0.311, "note": 53, "inst": "celesta_v0_additive_3", "vel": 1.0, "bend": 0.0, "ch": 5}, {"t": 129.471, "dur": 0.623, "note": 26, "inst": "celesta_v0_additive_3", "vel": 1.0, "bend": 0.0, "ch": 10}, {"t": 129.471, "dur": 0.623, "note": 38, "inst": "celesta_v0_additive_3", "vel": 1.0, "bend": 0.0, "ch": 6}, {"t": 129.471, "dur": 0.623, "note": 41, "inst": "celesta_v0_additive_3", "vel": 1.0, "bend": 0.0, "ch": 9}, {"t": 129.471, "dur": 0.623, "note": 53, "inst": "celesta_v0_additive_3", "vel": 1.0, "bend": 0.0, "ch": 5}, {"t": 130.094, "dur": 0.311, "note": 29, "inst": "celesta_v0_additive_3", "vel": 1.0, "bend": 0.0, "ch": 13}, {"t": 130.094, "dur": 0.311, "note": 41, "inst": "celesta_v0_additive_3", "vel": 1.0, "bend": 0.0, "ch": 9}, {"t": 130.094, "dur": 0.311, "note": 46, "inst": "organ_v0_additive_1", "vel": 1.0, "bend": 0.0, "ch": 14}, {"t": 130.094, "dur": 0.311, "note": 50, "inst": "celesta_v0_additive_3", "vel": 1.0, "bend": 0.0, "ch": 2}, {"t": 130.094, "dur": 0.311, "note": 55, "inst": "organ_v0_additive_1", "vel": 1.0, "bend": 0.0, "ch": 7}, {"t": 130.405, "dur": 0.311, "note": 34, "inst": "organ_v0_additive_1", "vel": 1.0, "bend": 0.0, "ch": 2}, {"t": 130.405, "dur": 0.934, "note": 48, "inst": "piano_v0_additive_0", "vel": 1.0, "bend": 0.0, "ch": 0}, {"t": 130.405, "dur": 0.934, "note": 53, "inst": "celesta_v0_additive_3", "vel": 1.0, "bend": 0.0, "ch": 5}, {"t": 130.405, "dur": 0.934, "note": 58, "inst": "organ_v0_additive_1", "vel": 1.0, "bend": 0.0, "ch": 10}, {"t": 130.716, "dur": 0.311, "note": 38, "inst": "celesta_v0_additive_3", "vel": 1.0, "bend": 0.0, "ch": 6}, {"t": 131.028, "dur": 0.311, "note": 41, "inst": "celesta_v0_additive_3", "vel": 1.0, "bend": 0.0, "ch": 9}, {"t": 131.339, "dur": 1.246, "note": 41, "inst": "celesta_v0_additive_3", "vel": 1.0, "bend": 0.0, "ch": 9}, {"t": 131.65, "dur": 0.311, "note": 46, "inst": "organ_v0_additive_1", "vel": 1.0, "bend": 0.0, "ch": 14}, {"t": 131.65, "dur": 0.311, "note": 58, "inst": "organ_v0_additive_1", "vel": 1.0, "bend": 0.0, "ch": 10}, {"t": 131.65, "dur": 0.311, "note": 58, "inst": "organ_v0_additive_1", "vel": 1.0, "bend": 0.0, "ch": 10}, {"t": 131.962, "dur": 0.311, "note": 48, "inst": "piano_v0_additive_0", "vel": 1.0, "bend": 0.0, "ch": 0}, {"t": 131.962, "dur": 0.311, "note": 58, "inst": "organ_v0_additive_1", "vel": 1.0, "bend": 0.0, "ch": 10}, {"t": 131.962, "dur": 0.311, "note": 58, "inst": "organ_v0_additive_1", "vel": 1.0, "bend": 0.0, "ch": 10}, {"t": 132.273, "dur": 0.934, "note": 50, "inst": "celesta_v0_additive_3", "vel": 1.0, "bend": 0.0, "ch": 2}, {"t": 132.273, "dur": 0.934, "note": 58, "inst": "organ_v0_additive_1", "vel": 1.0, "bend": 0.0, "ch": 10}, {"t": 132.273, "dur": 0.934, "note": 58, "inst": "organ_v0_additive_1", "vel": 1.0, "bend": 0.0, "ch": 10}, {"t": 132.585, "dur": 0.311, "note": 31, "inst": "organ_v0_additive_1", "vel": 1.0, "bend": 0.0, "ch": 15}, {"t": 132.896, "dur": 0.311, "note": 29, "inst": "celesta_v0_additive_3", "vel": 1.0, "bend": 0.0, "ch": 13}, {"t": 133.207, "dur": 0.934, "note": 29, "inst": "celesta_v0_additive_3", "vel": 1.0, "bend": 0.0, "ch": 13}, {"t": 133.519, "dur": 0.311, "note": 31, "inst": "organ_v0_additive_1", "vel": 1.0, "bend": 0.0, "ch": 15}, {"t": 133.519, "dur": 0.311, "note": 46, "inst": "organ_v0_additive_1", "vel": 1.0, "bend": 0.0, "ch": 14}, {"t": 133.519, "dur": 0.311, "note": 53, "inst": "celesta_v0_additive_3", "vel": 1.0, "bend": 0.0, "ch": 5}, {"t": 133.83, "dur": 0.311, "note": 43, "inst": "organ_v0_additive_1", "vel": 1.0, "bend": 0.0, "ch": 11}, {"t": 133.83, "dur": 0.311, "note": 46, "inst": "organ_v0_additive_1", "vel": 1.0, "bend": 0.0, "ch": 14}, {"t": 133.83, "dur": 0.311, "note": 53, "inst": "celesta_v0_additive_3", "vel": 1.0, "bend": 0.0, "ch": 5}, {"t": 134.142, "dur": 0.311, "note": 34, "inst": "organ_v0_additive_1", "vel": 1.0, "bend": 0.0, "ch": 2}, {"t": 134.142, "dur": 0.934, "note": 46, "inst": "organ_v0_additive_1", "vel": 1.0, "bend": 0.0, "ch": 14}, {"t": 134.142, "dur": 0.934, "note": 48, "inst": "piano_v0_additive_0", "vel": 1.0, "bend": 0.0, "ch": 0}, {"t": 134.142, "dur": 0.934, "note": 53, "inst": "celesta_v0_additive_3", "vel": 1.0, "bend": 0.0, "ch": 5}, {"t": 134.453, "dur": 0.311, "note": 38, "inst": "celesta_v0_additive_3", "vel": 1.0, "bend": 0.0, "ch": 6}, {"t": 134.764, "dur": 0.311, "note": 41, "inst": "celesta_v0_additive_3", "vel": 1.0, "bend": 0.0, "ch": 9}, {"t": 135.076, "dur": 1.246, "note": 41, "inst": "celesta_v0_additive_3", "vel": 1.0, "bend": 0.0, "ch": 9}, {"t": 135.387, "dur": 0.311, "note": 46, "inst": "organ_v0_additive_1", "vel": 1.0, "bend": 0.0, "ch": 14}, {"t": 135.387, "dur": 0.311, "note": 58, "inst": "organ_v0_additive_1", "vel": 1.0, "bend": 0.0, "ch": 10}, {"t": 135.387, "dur": 0.311, "note": 58, "inst": "organ_v0_additive_1", "vel": 1.0, "bend": 0.0, "ch": 10}, {"t": 135.699, "dur": 0.311, "note": 48, "inst": "piano_v0_additive_0", "vel": 1.0, "bend": 0.0, "ch": 0}, {"t": 135.699, "dur": 0.311, "note": 58, "inst": "organ_v0_additive_1", "vel": 1.0, "bend": 0.0, "ch": 10}, {"t": 135.699, "dur": 0.311, "note": 58, "inst": "organ_v0_additive_1", "vel": 1.0, "bend": 0.0, "ch": 10}, {"t": 136.01, "dur": 0.934, "note": 50, "inst": "celesta_v0_additive_3", "vel": 1.0, "bend": 0.0, "ch": 2}, {"t": 136.01, "dur": 0.934, "note": 58, "inst": "organ_v0_additive_1", "vel": 1.0, "bend": 0.0, "ch": 10}, {"t": 136.01, "dur": 0.934, "note": 58, "inst": "organ_v0_additive_1", "vel": 1.0, "bend": 0.0, "ch": 10}, {"t": 136.321, "dur": 0.311, "note": 31, "inst": "organ_v0_additive_1", "vel": 1.0, "bend": 0.0, "ch": 15}, {"t": 136.633, "dur": 0.311, "note": 29, "inst": "celesta_v0_additive_3", "vel": 1.0, "bend": 0.0, "ch": 13}, {"t": 136.944, "dur": 0.934, "note": 29, "inst": "celesta_v0_additive_3", "vel": 1.0, "bend": 0.0, "ch": 13}, {"t": 137.256, "dur": 0.311, "note": 31, "inst": "organ_v0_additive_1", "vel": 1.0, "bend": 0.0, "ch": 15}, {"t": 137.256, "dur": 0.311, "note": 46, "inst": "organ_v0_additive_1", "vel": 1.0, "bend": 0.0, "ch": 14}, {"t": 137.256, "dur": 0.311, "note": 53, "inst": "celesta_v0_additive_3", "vel": 1.0, "bend": 0.0, "ch": 5}, {"t": 137.567, "dur": 0.311, "note": 43, "inst": "organ_v0_additive_1", "vel": 1.0, "bend": 0.0, "ch": 11}, {"t": 137.567, "dur": 0.311, "note": 46, "inst": "organ_v0_additive_1", "vel": 1.0, "bend": 0.0, "ch": 14}, {"t": 137.567, "dur": 0.311, "note": 53, "inst": "celesta_v0_additive_3", "vel": 1.0, "bend": 0.0, "ch": 5}, {"t": 137.878, "dur": 0.311, "note": 34, "inst": "organ_v0_additive_1", "vel": 1.0, "bend": 0.0, "ch": 2}, {"t": 137.878, "dur": 0.311, "note": 46, "inst": "organ_v0_additive_1", "vel": 1.0, "bend": 0.0, "ch": 14}, {"t": 137.878, "dur": 0.311, "note": 48, "inst": "piano_v0_additive_0", "vel": 1.0, "bend": 0.0, "ch": 0}, {"t": 137.878, "dur": 0.311, "note": 53, "inst": "celesta_v0_additive_3", "vel": 1.0, "bend": 0.0, "ch": 5}, {"t": 138.19, "dur": 0.311, "note": 36, "inst": "piano_v0_additive_0", "vel": 1.0, "bend": 0.0, "ch": 4}, {"t": 138.19, "dur": 0.311, "note": 41, "inst": "celesta_v0_additive_3", "vel": 1.0, "bend": 0.0, "ch": 9}, {"t": 138.19, "dur": 0.311, "note": 46, "inst": "organ_v0_additive_1", "vel": 1.0, "bend": 0.0, "ch": 14}, {"t": 138.19, "dur": 0.311, "note": 48, "inst": "piano_v0_additive_0", "vel": 1.0, "bend": 0.0, "ch": 0}, {"t": 138.19, "dur": 0.311, "note": 53, "inst": "celesta_v0_additive_3", "vel": 1.0, "bend": 0.0, "ch": 5}, {"t": 138.19, "dur": 0.311, "note": 58, "inst": "organ_v0_additive_1", "vel": 1.0, "bend": 0.0, "ch": 10}, {"t": 138.501, "dur": 0.311, "note": 36, "inst": "piano_v0_additive_0", "vel": 1.0, "bend": 0.0, "ch": 4}, {"t": 138.501, "dur": 0.311, "note": 41, "inst": "celesta_v0_additive_3", "vel": 1.0, "bend": 0.0, "ch": 9}, {"t": 138.501, "dur": 0.311, "note": 43, "inst": "organ_v0_additive_1", "vel": 1.0, "bend": 0.0, "ch": 11}, {"t": 138.501, "dur": 0.311, "note": 48, "inst": "piano_v0_additive_0", "vel": 1.0, "bend": 0.0, "ch": 0}, {"t": 138.501, "dur": 0.311, "note": 53, "inst": "celesta_v0_additive_3", "vel": 1.0, "bend": 0.0, "ch": 5}, {"t": 138.501, "dur": 0.311, "note": 55, "inst": "organ_v0_additive_1", "vel": 1.0, "bend": 0.0, "ch": 7}, {"t": 138.813, "dur": 0.311, "note": 36, "inst": "piano_v0_additive_0", "vel": 1.0, "bend": 0.0, "ch": 4}, {"t": 138.813, "dur": 0.311, "note": 41, "inst": "celesta_v0_additive_3", "vel": 1.0, "bend": 0.0, "ch": 9}, {"t": 138.813, "dur": 0.311, "note": 46, "inst": "organ_v0_additive_1", "vel": 1.0, "bend": 0.0, "ch": 14}, {"t": 138.813, "dur": 0.311, "note": 48, "inst": "piano_v0_additive_0", "vel": 1.0, "bend": 0.0, "ch": 0}, {"t": 138.813, "dur": 0.311, "note": 53, "inst": "celesta_v0_additive_3", "vel": 1.0, "bend": 0.0, "ch": 5}, {"t": 138.813, "dur": 0.311, "note": 58, "inst": "organ_v0_additive_1", "vel": 1.0, "bend": 0.0, "ch": 10}, {"t": 139.124, "dur": 0.311, "note": 41, "inst": "celesta_v0_additive_3", "vel": 1.0, "bend": 0.0, "ch": 9}, {"t": 139.124, "dur": 0.311, "note": 46, "inst": "organ_v0_additive_1", "vel": 1.0, "bend": 0.0, "ch": 14}, {"t": 139.124, "dur": 0.311, "note": 48, "inst": "piano_v0_additive_0", "vel": 1.0, "bend": 0.0, "ch": 0}, {"t": 139.124, "dur": 0.311, "note": 53, "inst": "celesta_v0_additive_3", "vel": 1.0, "bend": 0.0, "ch": 5}, {"t": 139.124, "dur": 0.311, "note": 58, "inst": "organ_v0_additive_1", "vel": 1.0, "bend": 0.0, "ch": 10}, {"t": 139.124, "dur": 0.311, "note": 60, "inst": "piano_v0_additive_0", "vel": 1.0, "bend": 0.0, "ch": 12}, {"t": 139.435, "dur": 0.311, "note": 41, "inst": "celesta_v0_additive_3", "vel": 1.0, "bend": 0.0, "ch": 9}, {"t": 139.435, "dur": 0.311, "note": 46, "inst": "organ_v0_additive_1", "vel": 1.0, "bend": 0.0, "ch": 14}, {"t": 139.435, "dur": 0.311, "note": 46, "inst": "organ_v0_additive_1", "vel": 1.0, "bend": 0.0, "ch": 14}, {"t": 139.435, "dur": 0.311, "note": 53, "inst": "celesta_v0_additive_3", "vel": 1.0, "bend": 0.0, "ch": 5}, {"t": 139.435, "dur": 0.311, "note": 58, "inst": "organ_v0_additive_1", "vel": 1.0, "bend": 0.0, "ch": 10}, {"t": 139.435, "dur": 0.311, "note": 58, "inst": "organ_v0_additive_1", "vel": 1.0, "bend": 0.0, "ch": 10}, {"t": 139.747, "dur": 0.311, "note": 41, "inst": "celesta_v0_additive_3", "vel": 1.0, "bend": 0.0, "ch": 9}, {"t": 139.747, "dur": 0.311, "note": 46, "inst": "organ_v0_additive_1", "vel": 1.0, "bend": 0.0, "ch": 14}, {"t": 139.747, "dur": 0.311, "note": 48, "inst": "piano_v0_additive_0", "vel": 1.0, "bend": 0.0, "ch": 0}, {"t": 139.747, "dur": 0.311, "note": 53, "inst": "celesta_v0_additive_3", "vel": 1.0, "bend": 0.0, "ch": 5}, {"t": 139.747, "dur": 0.311, "note": 58, "inst": "organ_v0_additive_1", "vel": 1.0, "bend": 0.0, "ch": 10}, {"t": 139.747, "dur": 0.311, "note": 60, "inst": "piano_v0_additive_0", "vel": 1.0, "bend": 0.0, "ch": 12}, {"t": 140.058, "dur": 0.311, "note": 46, "inst": "organ_v0_additive_1", "vel": 1.0, "bend": 0.0, "ch": 14}, {"t": 140.058, "dur": 0.311, "note": 48, "inst": "piano_v0_additive_0", "vel": 1.0, "bend": 0.0, "ch": 0}, {"t": 140.058, "dur": 0.311, "note": 53, "inst": "celesta_v0_additive_3", "vel": 1.0, "bend": 0.0, "ch": 5}, {"t": 140.058, "dur": 0.311, "note": 58, "inst": "organ_v0_additive_1", "vel": 1.0, "bend": 0.0, "ch": 10}, {"t": 140.058, "dur": 0.311, "note": 60, "inst": "piano_v0_additive_0", "vel": 1.0, "bend": 0.0, "ch": 12}, {"t": 140.058, "dur": 0.311, "note": 65, "inst": "celesta_v0_additive_3", "vel": 1.0, "bend": 0.0, "ch": 1}, {"t": 140.37, "dur": 0.311, "note": 46, "inst": "organ_v0_additive_1", "vel": 1.0, "bend": 0.0, "ch": 14}, {"t": 140.37, "dur": 0.311, "note": 48, "inst": "piano_v0_additive_0", "vel": 1.0, "bend": 0.0, "ch": 0}, {"t": 140.37, "dur": 0.311, "note": 50, "inst": "celesta_v0_additive_3", "vel": 1.0, "bend": 0.0, "ch": 2}, {"t": 140.37, "dur": 0.311, "note": 58, "inst": "organ_v0_additive_1", "vel": 1.0, "bend": 0.0, "ch": 10}, {"t": 140.37, "dur": 0.311, "note": 60, "inst": "piano_v0_additive_0", "vel": 1.0, "bend": 0.0, "ch": 12}, {"t": 140.37, "dur": 0.311, "note": 62, "inst": "celesta_v0_additive_3", "vel": 1.0, "bend": 0.0, "ch": 14}, {"t": 140.681, "dur": 0.311, "note": 46, "inst": "organ_v0_additive_1", "vel": 1.0, "bend": 0.0, "ch": 14}, {"t": 140.681, "dur": 0.311, "note": 48, "inst": "piano_v0_additive_0", "vel": 1.0, "bend": 0.0, "ch": 0}, {"t": 140.681, "dur": 0.311, "note": 53, "inst": "celesta_v0_additive_3", "vel": 1.0, "bend": 0.0, "ch": 5}, {"t": 140.681, "dur": 0.311, "note": 58, "inst": "organ_v0_additive_1", "vel": 1.0, "bend": 0.0, "ch": 10}, {"t": 140.681, "dur": 0.311, "note": 60, "inst": "piano_v0_additive_0", "vel": 1.0, "bend": 0.0, "ch": 12}, {"t": 140.681, "dur": 0.311, "note": 65, "inst": "celesta_v0_additive_3", "vel": 1.0, "bend": 0.0, "ch": 1}, {"t": 140.992, "dur": 0.311, "note": 48, "inst": "piano_v0_additive_0", "vel": 1.0, "bend": 0.0, "ch": 0}, {"t": 140.992, "dur": 0.311, "note": 53, "inst": "celesta_v0_additive_3", "vel": 1.0, "bend": 0.0, "ch": 5}, {"t": 140.992, "dur": 0.311, "note": 58, "inst": "organ_v0_additive_1", "vel": 1.0, "bend": 0.0, "ch": 10}, {"t": 140.992, "dur": 0.311, "note": 60, "inst": "piano_v0_additive_0", "vel": 1.0, "bend": 0.0, "ch": 12}, {"t": 140.992, "dur": 0.311, "note": 65, "inst": "celesta_v0_additive_3", "vel": 1.0, "bend": 0.0, "ch": 1}, {"t": 140.992, "dur": 0.311, "note": 70, "inst": "organ_v0_additive_1", "vel": 1.0, "bend": 0.0, "ch": 6}, {"t": 141.304, "dur": 0.311, "note": 48, "inst": "piano_v0_additive_0", "vel": 1.0, "bend": 0.0, "ch": 0}, {"t": 141.304, "dur": 0.311, "note": 53, "inst": "celesta_v0_additive_3", "vel": 1.0, "bend": 0.0, "ch": 5}, {"t": 141.304, "dur": 0.311, "note": 55, "inst": "organ_v0_additive_1", "vel": 1.0, "bend": 0.0, "ch": 7}, {"t": 141.304, "dur": 0.311, "note": 60, "inst": "piano_v0_additive_0", "vel": 1.0, "bend": 0.0, "ch": 12}, {"t": 141.304, "dur": 0.311, "note": 65, "inst": "celesta_v0_additive_3", "vel": 1.0, "bend": 0.0, "ch": 1}, {"t": 141.304, "dur": 0.311, "note": 67, "inst": "organ_v0_additive_1", "vel": 1.0, "bend": 0.0, "ch": 3}, {"t": 141.615, "dur": 0.311, "note": 48, "inst": "piano_v0_additive_0", "vel": 1.0, "bend": 0.0, "ch": 0}, {"t": 141.615, "dur": 0.311, "note": 53, "inst": "celesta_v0_additive_3", "vel": 1.0, "bend": 0.0, "ch": 5}, {"t": 141.615, "dur": 0.311, "note": 58, "inst": "organ_v0_additive_1", "vel": 1.0, "bend": 0.0, "ch": 10}, {"t": 141.615, "dur": 0.311, "note": 60, "inst": "piano_v0_additive_0", "vel": 1.0, "bend": 0.0, "ch": 12}, {"t": 141.615, "dur": 0.311, "note": 65, "inst": "celesta_v0_additive_3", "vel": 1.0, "bend": 0.0, "ch": 1}, {"t": 141.615, "dur": 0.311, "note": 70, "inst": "organ_v0_additive_1", "vel": 1.0, "bend": 0.0, "ch": 6}, {"t": 141.926, "dur": 0.311, "note": 53, "inst": "celesta_v0_additive_3", "vel": 1.0, "bend": 0.0, "ch": 5}, {"t": 141.926, "dur": 0.311, "note": 58, "inst": "organ_v0_additive_1", "vel": 1.0, "bend": 0.0, "ch": 10}, {"t": 141.926, "dur": 0.311, "note": 60, "inst": "piano_v0_additive_0", "vel": 1.0, "bend": 0.0, "ch": 12}, {"t": 141.926, "dur": 0.311, "note": 65, "inst": "celesta_v0_additive_3", "vel": 1.0, "bend": 0.0, "ch": 1}, {"t": 141.926, "dur": 0.311, "note": 70, "inst": "organ_v0_additive_1", "vel": 1.0, "bend": 0.0, "ch": 6}, {"t": 141.926, "dur": 0.311, "note": 72, "inst": "piano_v0_additive_0", "vel": 1.0, "bend": 0.0, "ch": 8}, {"t": 142.238, "dur": 0.311, "note": 53, "inst": "celesta_v0_additive_3", "vel": 1.0, "bend": 0.0, "ch": 5}, {"t": 142.238, "dur": 0.311, "note": 58, "inst": "organ_v0_additive_1", "vel": 1.0, "bend": 0.0, "ch": 10}, {"t": 142.238, "dur": 0.311, "note": 58, "inst": "organ_v0_additive_1", "vel": 1.0, "bend": 0.0, "ch": 10}, {"t": 142.238, "dur": 0.311, "note": 65, "inst": "celesta_v0_additive_3", "vel": 1.0, "bend": 0.0, "ch": 1}, {"t": 142.238, "dur": 0.311, "note": 70, "inst": "organ_v0_additive_1", "vel": 1.0, "bend": 0.0, "ch": 6}, {"t": 142.238, "dur": 0.311, "note": 70, "inst": "organ_v0_additive_1", "vel": 1.0, "bend": 0.0, "ch": 6}, {"t": 142.549, "dur": 0.311, "note": 53, "inst": "celesta_v0_additive_3", "vel": 1.0, "bend": 0.0, "ch": 5}, {"t": 142.549, "dur": 0.311, "note": 58, "inst": "organ_v0_additive_1", "vel": 1.0, "bend": 0.0, "ch": 10}, {"t": 142.549, "dur": 0.311, "note": 60, "inst": "piano_v0_additive_0", "vel": 1.0, "bend": 0.0, "ch": 12}, {"t": 142.549, "dur": 0.311, "note": 65, "inst": "celesta_v0_additive_3", "vel": 1.0, "bend": 0.0, "ch": 1}, {"t": 142.549, "dur": 0.311, "note": 70, "inst": "organ_v0_additive_1", "vel": 1.0, "bend": 0.0, "ch": 6}, {"t": 142.549, "dur": 0.311, "note": 72, "inst": "piano_v0_additive_0", "vel": 1.0, "bend": 0.0, "ch": 8}, {"t": 142.861, "dur": 0.311, "note": 58, "inst": "organ_v0_additive_1", "vel": 1.0, "bend": 0.0, "ch": 10}, {"t": 142.861, "dur": 0.311, "note": 60, "inst": "piano_v0_additive_0", "vel": 1.0, "bend": 0.0, "ch": 12}, {"t": 142.861, "dur": 0.311, "note": 65, "inst": "celesta_v0_additive_3", "vel": 1.0, "bend": 0.0, "ch": 1}, {"t": 142.861, "dur": 0.311, "note": 70, "inst": "organ_v0_additive_1", "vel": 1.0, "bend": 0.0, "ch": 6}, {"t": 142.861, "dur": 0.311, "note": 72, "inst": "piano_v0_additive_0", "vel": 1.0, "bend": 0.0, "ch": 8}, {"t": 142.861, "dur": 0.311, "note": 77, "inst": "celesta_v0_additive_3", "vel": 1.0, "bend": 0.0, "ch": 13}, {"t": 143.172, "dur": 0.311, "note": 58, "inst": "organ_v0_additive_1", "vel": 1.0, "bend": 0.0, "ch": 10}, {"t": 143.172, "dur": 0.311, "note": 60, "inst": "piano_v0_additive_0", "vel": 1.0, "bend": 0.0, "ch": 12}, {"t": 143.172, "dur": 0.311, "note": 62, "inst": "celesta_v0_additive_3", "vel": 1.0, "bend": 0.0, "ch": 14}, {"t": 143.172, "dur": 0.311, "note": 70, "inst": "organ_v0_additive_1", "vel": 1.0, "bend": 0.0, "ch": 6}, {"t": 143.172, "dur": 0.311, "note": 72, "inst": "piano_v0_additive_0", "vel": 1.0, "bend": 0.0, "ch": 8}, {"t": 143.172, "dur": 0.311, "note": 74, "inst": "celesta_v0_additive_3", "vel": 1.0, "bend": 0.0, "ch": 10}, {"t": 143.483, "dur": 0.311, "note": 58, "inst": "organ_v0_additive_1", "vel": 1.0, "bend": 0.0, "ch": 10}, {"t": 143.483, "dur": 0.311, "note": 60, "inst": "piano_v0_additive_0", "vel": 1.0, "bend": 0.0, "ch": 12}, {"t": 143.483, "dur": 0.311, "note": 65, "inst": "celesta_v0_additive_3", "vel": 1.0, "bend": 0.0, "ch": 1}, {"t": 143.483, "dur": 0.311, "note": 70, "inst": "organ_v0_additive_1", "vel": 1.0, "bend": 0.0, "ch": 6}, {"t": 143.483, "dur": 0.311, "note": 72, "inst": "piano_v0_additive_0", "vel": 1.0, "bend": 0.0, "ch": 8}, {"t": 143.483, "dur": 0.311, "note": 77, "inst": "celesta_v0_additive_3", "vel": 1.0, "bend": 0.0, "ch": 13}, {"t": 143.795, "dur": 0.311, "note": 58, "inst": "organ_v0_additive_1", "vel": 1.0, "bend": 0.0, "ch": 10}, {"t": 143.795, "dur": 0.311, "note": 60, "inst": "piano_v0_additive_0", "vel": 1.0, "bend": 0.0, "ch": 12}, {"t": 143.795, "dur": 0.311, "note": 65, "inst": "celesta_v0_additive_3", "vel": 1.0, "bend": 0.0, "ch": 1}, {"t": 143.795, "dur": 0.311, "note": 70, "inst": "organ_v0_additive_1", "vel": 1.0, "bend": 0.0, "ch": 6}, {"t": 143.795, "dur": 0.311, "note": 72, "inst": "piano_v0_additive_0", "vel": 1.0, "bend": 0.0, "ch": 8}, {"t": 143.795, "dur": 0.311, "note": 77, "inst": "celesta_v0_additive_3", "vel": 1.0, "bend": 0.0, "ch": 13}, {"t": 143.795, "dur": 0.311, "note": 82, "inst": "organ_v0_additive_1", "vel": 1.0, "bend": 0.0, "ch": 2}, {"t": 144.106, "dur": 0.311, "note": 58, "inst": "organ_v0_additive_1", "vel": 1.0, "bend": 0.0, "ch": 10}, {"t": 144.106, "dur": 0.311, "note": 60, "inst": "piano_v0_additive_0", "vel": 1.0, "bend": 0.0, "ch": 12}, {"t": 144.106, "dur": 0.311, "note": 65, "inst": "celesta_v0_additive_3", "vel": 1.0, "bend": 0.0, "ch": 1}, {"t": 144.106, "dur": 0.311, "note": 67, "inst": "organ_v0_additive_1", "vel": 1.0, "bend": 0.0, "ch": 3}, {"t": 144.106, "dur": 0.311, "note": 72, "inst": "piano_v0_additive_0", "vel": 1.0, "bend": 0.0, "ch": 8}, {"t": 144.106, "dur": 0.311, "note": 77, "inst": "celesta_v0_additive_3", "vel": 1.0, "bend": 0.0, "ch": 13}, {"t": 144.106, "dur": 0.311, "note": 79, "inst": "organ_v0_additive_1", "vel": 1.0, "bend": 0.0, "ch": 15}, {"t": 144.418, "dur": 0.311, "note": 58, "inst": "organ_v0_additive_1", "vel": 1.0, "bend": 0.0, "ch": 10}, {"t": 144.418, "dur": 0.311, "note": 60, "inst": "piano_v0_additive_0", "vel": 1.0, "bend": 0.0, "ch": 12}, {"t": 144.418, "dur": 0.311, "note": 65, "inst": "celesta_v0_additive_3", "vel": 1.0, "bend": 0.0, "ch": 1}, {"t": 144.418, "dur": 0.311, "note": 70, "inst": "organ_v0_additive_1", "vel": 1.0, "bend": 0.0, "ch": 6}, {"t": 144.418, "dur": 0.311, "note": 72, "inst": "piano_v0_additive_0", "vel": 1.0, "bend": 0.0, "ch": 8}, {"t": 144.418, "dur": 0.311, "note": 77, "inst": "celesta_v0_additive_3", "vel": 1.0, "bend": 0.0, "ch": 13}, {"t": 144.418, "dur": 0.311, "note": 82, "inst": "organ_v0_additive_1", "vel": 1.0, "bend": 0.0, "ch": 2}, {"t": 144.729, "dur": 0.311, "note": 58, "inst": "organ_v0_additive_1", "vel": 1.0, "bend": 0.0, "ch": 10}, {"t": 144.729, "dur": 0.311, "note": 60, "inst": "piano_v0_additive_0", "vel": 1.0, "bend": 0.0, "ch": 12}, {"t": 144.729, "dur": 0.311, "note": 65, "inst": "celesta_v0_additive_3", "vel": 1.0, "bend": 0.0, "ch": 1}, {"t": 144.729, "dur": 0.311, "note": 70, "inst": "organ_v0_additive_1", "vel": 1.0, "bend": 0.0, "ch": 6}, {"t": 144.729, "dur": 0.311, "note": 72, "inst": "piano_v0_additive_0", "vel": 1.0, "bend": 0.0, "ch": 8}, {"t": 144.729, "dur": 0.311, "note": 77, "inst": "celesta_v0_additive_3", "vel": 1.0, "bend": 0.0, "ch": 13}, {"t": 144.729, "dur": 0.311, "note": 82, "inst": "organ_v0_additive_1", "vel": 1.0, "bend": 0.0, "ch": 2}, {"t": 145.04, "dur": 0.311, "note": 58, "inst": "organ_v0_additive_1", "vel": 1.0, "bend": 0.0, "ch": 10}, {"t": 145.04, "dur": 0.311, "note": 60, "inst": "piano_v0_additive_0", "vel": 1.0, "bend": 0.0, "ch": 12}, {"t": 145.04, "dur": 0.311, "note": 65, "inst": "celesta_v0_additive_3", "vel": 1.0, "bend": 0.0, "ch": 1}, {"t": 145.04, "dur": 0.311, "note": 67, "inst": "organ_v0_additive_1", "vel": 1.0, "bend": 0.0, "ch": 3}, {"t": 145.04, "dur": 0.311, "note": 72, "inst": "piano_v0_additive_0", "vel": 1.0, "bend": 0.0, "ch": 8}, {"t": 145.04, "dur": 0.311, "note": 77, "inst": "celesta_v0_additive_3", "vel": 1.0, "bend": 0.0, "ch": 13}, {"t": 145.04, "dur": 0.311, "note": 79, "inst": "organ_v0_additive_1", "vel": 1.0, "bend": 0.0, "ch": 15}, {"t": 145.352, "dur": 0.934, "note": 58, "inst": "organ_v0_additive_1", "vel": 1.0, "bend": 0.0, "ch": 10}, {"t": 145.352, "dur": 0.934, "note": 60, "inst": "piano_v0_additive_0", "vel": 1.0, "bend": 0.0, "ch": 12}, {"t": 145.352, "dur": 0.934, "note": 65, "inst": "celesta_v0_additive_3", "vel": 1.0, "bend": 0.0, "ch": 1}, {"t": 145.352, "dur": 0.934, "note": 70, "inst": "organ_v0_additive_1", "vel": 1.0, "bend": 0.0, "ch": 6}, {"t": 145.352, "dur": 0.934, "note": 72, "inst": "piano_v0_additive_0", "vel": 1.0, "bend": 0.0, "ch": 8}, {"t": 145.352, "dur": 0.934, "note": 77, "inst": "celesta_v0_additive_3", "vel": 1.0, "bend": 0.0, "ch": 13}, {"t": 145.352, "dur": 0.934, "note": 82, "inst": "organ_v0_additive_1", "vel": 1.0, "bend": 0.0, "ch": 2}, {"t": 146.286, "dur": 0.934, "note": 46, "inst": "organ_v0_additive_1", "vel": 1.0, "bend": 0.0, "ch": 14}, {"t": 146.286, "dur": 0.934, "note": 53, "inst": "celesta_v0_additive_3", "vel": 1.0, "bend": 0.0, "ch": 5}, {"t": 146.286, "dur": 0.934, "note": 58, "inst": "organ_v0_additive_1", "vel": 1.0, "bend": 0.0, "ch": 10}, {"t": 146.286, "dur": 0.934, "note": 60, "inst": "piano_v0_additive_0", "vel": 1.0, "bend": 0.0, "ch": 12}, {"t": 146.286, "dur": 0.934, "note": 65, "inst": "celesta_v0_additive_3", "vel": 1.0, "bend": 0.0, "ch": 1}, {"t": 146.286, "dur": 0.934, "note": 70, "inst": "organ_v0_additive_1", "vel": 1.0, "bend": 0.0, "ch": 6}, {"t": 168.113, "dur": 0.247, "note": 75, "inst": "piano_v0_additive_0", "vel": 0.465, "bend": 0.0, "ch": 11}, {"t": 168.298, "dur": 0.347, "note": 83, "inst": "celesta_v0_additive_3", "vel": 0.52, "bend": 0.0, "ch": 3}, {"t": 168.316, "dur": 0.401, "note": 56, "inst": "celesta_v0_additive_3", "vel": 0.283, "bend": 0.0, "ch": 8}, {"t": 168.514, "dur": 0.082, "note": 71, "inst": "celesta_v0_additive_3", "vel": 0.339, "bend": 0.0, "ch": 7}, {"t": 168.661, "dur": 0.153, "note": 73, "inst": "organ_v0_additive_1", "vel": 0.409, "bend": 0.0, "ch": 9}, {"t": 168.777, "dur": 0.283, "note": 75, "inst": "piano_v0_additive_0", "vel": 0.465, "bend": 0.0, "ch": 11}, {"t": 168.949, "dur": 0.107, "note": 68, "inst": "celesta_v0_additive_3", "vel": 0.433, "bend": 0.0, "ch": 4}, {"t": 168.995, "dur": 0.785, "note": 77, "inst": "celesta_v0_additive_3", "vel": 0.465, "bend": 0.0, "ch": 13}, {"t": 169.009, "dur": 0.263, "note": 56, "inst": "celesta_v0_additive_3", "vel": 0.26, "bend": 0.0, "ch": 8}, {"t": 169.015, "dur": 0.339, "note": 63, "inst": "piano_v0_additive_0", "vel": 0.291, "bend": 0.0, "ch": 15}, {"t": 169.171, "dur": 0.13, "note": 68, "inst": "celesta_v0_additive_3", "vel": 0.323, "bend": 0.0, "ch": 4}, {"t": 169.343, "dur": 0.087, "note": 71, "inst": "celesta_v0_additive_3", "vel": 0.362, "bend": 0.0, "ch": 7}, {"t": 169.477, "dur": 0.303, "note": 75, "inst": "piano_v0_additive_0", "vel": 0.409, "bend": 0.0, "ch": 11}, {"t": 169.713, "dur": 0.429, "note": 80, "inst": "celesta_v0_additive_3", "vel": 0.409, "bend": 0.0, "ch": 0}, {"t": 169.772, "dur": 0.397, "note": 44, "inst": "celesta_v0_additive_3", "vel": 0.236, "bend": 0.0, "ch": 12}, {"t": 169.781, "dur": 0.357, "note": 59, "inst": "celesta_v0_additive_3", "vel": 0.252, "bend": 0.0, "ch": 11}, {"t": 169.999, "dur": 0.147, "note": 63, "inst": "piano_v0_additive_0", "vel": 0.307, "bend": 0.0, "ch": 15}, {"t": 170.182, "dur": 0.314, "note": 68, "inst": "celesta_v0_additive_3", "vel": 0.323, "bend": 0.0, "ch": 4}, {"t": 170.344, "dur": 0.45, "note": 71, "inst": "celesta_v0_additive_3", "vel": 0.362, "bend": 0.0, "ch": 7}, {"t": 170.596, "dur": 0.169, "note": 75, "inst": "piano_v0_additive_0", "vel": 0.331, "bend": 0.0, "ch": 11}, {"t": 170.654, "dur": 0.768, "note": 73, "inst": "organ_v0_additive_1", "vel": 0.362, "bend": 0.0, "ch": 9}, {"t": 170.688, "dur": 0.432, "note": 54, "inst": "piano_v0_additive_0", "vel": 0.283, "bend": 0.0, "ch": 6}, {"t": 170.705, "dur": 1.264, "note": 59, "inst": "celesta_v0_additive_3", "vel": 0.252, "bend": 0.0, "ch": 11}, {"t": 170.987, "dur": 0.081, "note": 61, "inst": "organ_v0_additive_1", "vel": 0.307, "bend": 0.0, "ch": 13}, {"t": 171.143, "dur": 0.299, "note": 68, "inst": "celesta_v0_additive_3", "vel": 0.37, "bend": 0.0, "ch": 4}, {"t": 171.28, "dur": 0.393, "note": 71, "inst": "celesta_v0_additive_3", "vel": 0.472, "bend": 0.0, "ch": 7}, {"t": 171.544, "dur": 0.37, "note": 75, "inst": "piano_v0_additive_0", "vel": 0.433, "bend": 0.0, "ch": 11}, {"t": 171.589, "dur": 0.367, "note": 44, "inst": "celesta_v0_additive_3", "vel": 0.236, "bend": 0.0, "ch": 12}, {"t": 171.818, "dur": 0.193, "note": 65, "inst": "celesta_v0_additive_3", "vel": 0.291, "bend": 0.0, "ch": 1}, {"t": 171.958, "dur": 0.269, "note": 56, "inst": "celesta_v0_additive_3", "vel": 0.457, "bend": 0.0, "ch": 8}, {"t": 172.069, "dur": 0.267, "note": 75, "inst": "piano_v0_additive_0", "vel": 0.457, "bend": 0.0, "ch": 11}, {"t": 172.228, "dur": 0.326, "note": 73, "inst": "organ_v0_additive_1", "vel": 0.496, "bend": 0.0, "ch": 9}, {"t": 172.246, "dur": 0.249, "note": 44, "inst": "celesta_v0_additive_3", "vel": 0.268, "bend": 0.0, "ch": 12}, {"t": 172.252, "dur": 0.246, "note": 59, "inst": "celesta_v0_additive_3", "vel": 0.315, "bend": 0.0, "ch": 11}, {"t": 172.448, "dur": 0.21, "note": 65, "inst": "celesta_v0_additive_3", "vel": 0.331, "bend": 0.0, "ch": 1}, {"t": 172.582, "dur": 0.21, "note": 56, "inst": "celesta_v0_additive_3", "vel": 0.465, "bend": 0.0, "ch": 8}, {"t": 172.711, "dur": 0.368, "note": 73, "inst": "organ_v0_additive_1", "vel": 0.457, "bend": 0.0, "ch": 9}, {"t": 172.962, "dur": 0.45, "note": 71, "inst": "celesta_v0_additive_3", "vel": 0.465, "bend": 0.0, "ch": 7}, {"t": 173.022, "dur": 0.274, "note": 47, "inst": "celesta_v0_additive_3", "vel": 0.268, "bend": 0.0, "ch": 15}, {"t": 173.047, "dur": 0.285, "note": 44, "inst": "celesta_v0_additive_3", "vel": 0.244, "bend": 0.0, "ch": 12}, {"t": 173.255, "dur": 0.285, "note": 63, "inst": "piano_v0_additive_0", "vel": 0.323, "bend": 0.0, "ch": 15}, {"t": 173.427, "dur": 0.247, "note": 56, "inst": "celesta_v0_additive_3", "vel": 0.409, "bend": 0.0, "ch": 8}, {"t": 173.563, "dur": 0.451, "note": 71, "inst": "celesta_v0_additive_3", "vel": 0.488, "bend": 0.0, "ch": 7}, {"t": 173.846, "dur": 0.139, "note": 75, "inst": "piano_v0_additive_0", "vel": 0.346, "bend": 0.0, "ch": 11}, {"t": 173.905, "dur": 0.869, "note": 73, "inst": "organ_v0_additive_1", "vel": 0.402, "bend": 0.0, "ch": 9}, {"t": 173.955, "dur": 0.361, "note": 44, "inst": "celesta_v0_additive_3", "vel": 0.22, "bend": 0.0, "ch": 12}, {"t": 173.962, "dur": 1.12, "note": 59, "inst": "celesta_v0_additive_3", "vel": 0.213, "bend": 0.0, "ch": 11}, {"t": 174.179, "dur": 0.138, "note": 63, "inst": "piano_v0_additive_0", "vel": 0.26, "bend": 0.0, "ch": 15}, {"t": 174.337, "dur": 0.203, "note": 70, "inst": "organ_v0_additive_1", "vel": 0.307, "bend": 0.0, "ch": 6}, {"t": 174.483, "dur": 0.292, "note": 71, "inst": "celesta_v0_additive_3", "vel": 0.402, "bend": 0.0, "ch": 7}, {"t": 174.701, "dur": 0.337, "note": 77, "inst": "celesta_v0_additive_3", "vel": 0.417, "bend": 0.0, "ch": 13}, {"t": 174.736, "dur": 0.35, "note": 53, "inst": "celesta_v0_additive_3", "vel": 0.276, "bend": 0.0, "ch": 5}, {"t": 174.937, "dur": 0.128, "note": 65, "inst": "celesta_v0_additive_3", "vel": 0.291, "bend": 0.0, "ch": 1}, {"t": 175.089, "dur": 0.204, "note": 68, "inst": "celesta_v0_additive_3", "vel": 0.346, "bend": 0.0, "ch": 4}, {"t": 175.185, "dur": 0.291, "note": 71, "inst": "celesta_v0_additive_3", "vel": 0.48, "bend": 0.0, "ch": 7}, {"t": 175.338, "dur": 0.113, "note": 75, "inst": "piano_v0_additive_0", "vel": 0.441, "bend": 0.0, "ch": 11}, {"t": 175.385, "dur": 0.626, "note": 73, "inst": "organ_v0_additive_1", "vel": 0.465, "bend": 0.0, "ch": 9}, {"t": 175.395, "dur": 0.726, "note": 59, "inst": "celesta_v0_additive_3", "vel": 0.252, "bend": 0.0, "ch": 11}, {"t": 175.405, "dur": 0.236, "note": 44, "inst": "celesta_v0_additive_3", "vel": 0.307, "bend": 0.0, "ch": 12}, {"t": 175.584, "dur": 0.089, "note": 63, "inst": "piano_v0_additive_0", "vel": 0.354, "bend": 0.0, "ch": 15}, {"t": 175.698, "dur": 0.194, "note": 70, "inst": "organ_v0_additive_1", "vel": 0.441, "bend": 0.0, "ch": 6}, {"t": 175.804, "dur": 0.263, "note": 71, "inst": "celesta_v0_additive_3", "vel": 0.535, "bend": 0.0, "ch": 7}, {"t": 175.958, "dur": 0.222, "note": 77, "inst": "celesta_v0_additive_3", "vel": 0.551, "bend": 0.0, "ch": 13}, {"t": 175.968, "dur": 0.15, "note": 53, "inst": "celesta_v0_additive_3", "vel": 0.323, "bend": 0.0, "ch": 5}, {"t": 176.137, "dur": 0.055, "note": 65, "inst": "celesta_v0_additive_3", "vel": 0.37, "bend": 0.0, "ch": 1}, {"t": 176.265, "dur": 0.214, "note": 68, "inst": "celesta_v0_additive_3", "vel": 0.441, "bend": 0.0, "ch": 4}, {"t": 176.369, "dur": 0.25, "note": 77, "inst": "celesta_v0_additive_3", "vel": 0.591, "bend": 0.0, "ch": 13}, {"t": 176.545, "dur": 0.29, "note": 78, "inst": "piano_v0_additive_0", "vel": 0.551, "bend": 0.0, "ch": 14}, {"t": 176.594, "dur": 0.855, "note": 61, "inst": "organ_v0_additive_1", "vel": 0.315, "bend": 0.0, "ch": 13}, {"t": 176.595, "dur": 0.217, "note": 59, "inst": "celesta_v0_additive_3", "vel": 0.331, "bend": 0.0, "ch": 11}, {"t": 176.779, "dur": 0.115, "note": 66, "inst": "piano_v0_additive_0", "vel": 0.378, "bend": 0.0, "ch": 2}, {"t": 176.873, "dur": 0.209, "note": 68, "inst": "celesta_v0_additive_3", "vel": 0.417, "bend": 0.0, "ch": 4}, {"t": 176.978, "dur": 0.203, "note": 78, "inst": "piano_v0_additive_0", "vel": 0.528, "bend": 0.0, "ch": 14}, {"t": 177.132, "dur": 0.28, "note": 68, "inst": "celesta_v0_additive_3", "vel": 0.598, "bend": 0.0, "ch": 4}, {"t": 177.15, "dur": 0.227, "note": 58, "inst": "organ_v0_additive_1", "vel": 0.378, "bend": 0.0, "ch": 10}, {"t": 177.32, "dur": 0.141, "note": 56, "inst": "celesta_v0_additive_3", "vel": 0.417, "bend": 0.0, "ch": 8}, {"t": 177.439, "dur": 0.332, "note": 70, "inst": "organ_v0_additive_1", "vel": 0.449, "bend": 0.0, "ch": 6}, {"t": 177.548, "dur": 0.211, "note": 68, "inst": "celesta_v0_additive_3", "vel": 0.535, "bend": 0.0, "ch": 4}, {"t": 177.702, "dur": 0.258, "note": 80, "inst": "celesta_v0_additive_3", "vel": 0.551, "bend": 0.0, "ch": 0}, {"t": 177.718, "dur": 1.015, "note": 61, "inst": "organ_v0_additive_1", "vel": 0.315, "bend": 0.0, "ch": 13}, {"t": 177.723, "dur": 0.164, "note": 56, "inst": "celesta_v0_additive_3", "vel": 0.323, "bend": 0.0, "ch": 8}], "instruments": ["celesta_v0_additive_3", "organ_v0_additive_1", "piano_v0_additive_0"], "duration": 178.73299999999998, "n_events": 822}