{"events": [{"t": 0.069, "dur": 0.266, "note": 66, "inst": "harpsichord_v0_additive_2", "vel": 1.0, "bend": 0.0, "ch": 2}, {"t": 0.336, "dur": 0.089, "note": 66, "inst": "harpsichord_v0_additive_2", "vel": 1.0, "bend": 0.0, "ch": 2}, {"t": 0.424, "dur": 0.089, "note": 66, "inst": "harpsichord_v0_additive_2", "vel": 1.0, "bend": 0.0, "ch": 2}, {"t": 0.513, "dur": 0.089, "note": 66, "inst": "harpsichord_v0_additive_2", "vel": 1.0, "bend": 0.0, "ch": 2}, {"t": 0.602, "dur": 0.533, "note": 25, "inst": "organ_v0_additive_1", "vel": 1.0, "bend": 0.0, "ch": 9}, {"t": 0.602, "dur": 0.266, "note": 66, "inst": "harpsichord_v0_additive_2", "vel": 1.0, "bend": 0.0, "ch": 2}, {"t": 0.868, "dur": 0.266, "note": 73, "inst": "organ_v0_additive_1", "vel": 1.0, "bend": 0.0, "ch": 9}, {"t": 1.135, "dur": 0.533, "note": 24, "inst": "piano_v0_additive_0", "vel": 1.0, "bend": 0.0, "ch": 8}, {"t": 1.135, "dur": 0.266, "note": 66, "inst": "harpsichord_v0_additive_2", "vel": 1.0, "bend": 0.0, "ch": 2}, {"t": 1.401, "dur": 0.089, "note": 54, "inst": "harpsichord_v0_additive_2", "vel": 1.0, "bend": 0.0, "ch": 6}, {"t": 1.49, "dur": 0.089, "note": 66, "inst": "harpsichord_v0_additive_2", "vel": 1.0, "bend": 0.0, "ch": 2}, {"t": 1.578, "dur": 0.089, "note": 54, "inst": "harpsichord_v0_additive_2", "vel": 1.0, "bend": 0.0, "ch": 6}, {"t": 1.667, "dur": 0.533, "note": 25, "inst": "organ_v0_additive_1", "vel": 1.0, "bend": 0.0, "ch": 9}, {"t": 1.667, "dur": 0.266, "note": 61, "inst": "organ_v0_additive_1", "vel": 1.0, "bend": 0.0, "ch": 13}, {"t": 1.933, "dur": 0.266, "note": 66, "inst": "harpsichord_v0_additive_2", "vel": 1.0, "bend": 0.0, "ch": 2}, {"t": 2.2, "dur": 0.533, "note": 24, "inst": "piano_v0_additive_0", "vel": 1.0, "bend": 0.0, "ch": 8}, {"t": 2.2, "dur": 0.266, "note": 66, "inst": "harpsichord_v0_additive_2", "vel": 1.0, "bend": 0.0, "ch": 2}, {"t": 2.466, "dur": 0.266, "note": 61, "inst": "organ_v0_additive_1", "vel": 1.0, "bend": 0.0, "ch": 13}, {"t": 2.732, "dur": 0.533, "note": 25, "inst": "organ_v0_additive_1", "vel": 1.0, "bend": 0.0, "ch": 9}, {"t": 2.732, "dur": 0.133, "note": 54, "inst": "harpsichord_v0_additive_2", "vel": 1.0, "bend": 0.0, "ch": 6}, {"t": 2.865, "dur": 0.133, "note": 54, "inst": "harpsichord_v0_additive_2", "vel": 1.0, "bend": 0.0, "ch": 6}, {"t": 2.999, "dur": 0.133, "note": 54, "inst": "harpsichord_v0_additive_2", "vel": 1.0, "bend": 0.0, "ch": 6}, {"t": 3.132, "dur": 0.133, "note": 61, "inst": "organ_v0_additive_1", "vel": 1.0, "bend": 0.0, "ch": 13}, {"t": 3.265, "dur": 0.533, "note": 24, "inst": "piano_v0_additive_0", "vel": 1.0, "bend": 0.0, "ch": 8}, {"t": 3.265, "dur": 0.133, "note": 61, "inst": "organ_v0_additive_1", "vel": 1.0, "bend": 0.0, "ch": 13}, {"t": 3.398, "dur": 0.133, "note": 61, "inst": "organ_v0_additive_1", "vel": 1.0, "bend": 0.0, "ch": 13}, {"t": 3.531, "dur": 0.133, "note": 54, "inst": "harpsichord_v0_additive_2", "vel": 1.0, "bend": 0.0, "ch": 6}, {"t": 3.664, "dur": 0.133, "note": 66, "inst": "harpsichord_v0_additive_2", "vel": 1.0, "bend": 0.0, "ch": 2}, {"t": 3.797, "dur": 0.533, "note": 24, "inst": "piano_v0_additive_0", "vel": 1.0, "bend": 0.0, "ch": 8}, {"t": 3.797, "dur": 0.533, "note": 66, "inst": "harpsichord_v0_additive_2", "vel": 1.0, "bend": 0.0, "ch": 2}, {"t": 4.33, "dur": 0.533, "note": 24, "inst": "piano_v0_additive_0", "vel": 1.0, "bend": 0.0, "ch": 8}, {"t": 4.596, "dur": 0.089, "note": 66, "inst": "harpsichord_v0_additive_2", "vel": 1.0, "bend": 0.0, "ch": 2}, {"t": 4.685, "dur": 0.089, "note": 66, "inst": "harpsichord_v0_additive_2", "vel": 1.0, "bend": 0.0, "ch": 2}, {"t": 4.774, "dur": 0.089, "note": 66, "inst": "harpsichord_v0_additive_2", "vel": 1.0, "bend": 0.0, "ch": 2}, {"t": 4.863, "dur": 0.533, "note": 24, "inst": "piano_v0_additive_0", "vel": 1.0, "bend": 0.0, "ch": 8}, {"t": 4.863, "dur": 0.266, "note": 54, "inst": "harpsichord_v0_additive_2", "vel": 1.0, "bend": 0.0, "ch": 6}, {"t": 5.129, "dur": 0.266, "note": 73, "inst": "organ_v0_additive_1", "vel": 1.0, "bend": 0.0, "ch": 9}, {"t": 5.395, "dur": 0.533, "note": 24, "inst": "piano_v0_additive_0", "vel": 1.0, "bend": 0.0, "ch": 8}, {"t": 5.395, "dur": 0.266, "note": 66, "inst": "harpsichord_v0_additive_2", "vel": 1.0, "bend": 0.0, "ch": 2}, {"t": 5.662, "dur": 0.089, "note": 54, "inst": "harpsichord_v0_additive_2", "vel": 1.0, "bend": 0.0, "ch": 6}, {"t": 5.75, "dur": 0.089, "note": 66, "inst": "harpsichord_v0_additive_2", "vel": 1.0, "bend": 0.0, "ch": 2}, {"t": 5.839, "dur": 0.089, "note": 54, "inst": "harpsichord_v0_additive_2", "vel": 1.0, "bend": 0.0, "ch": 6}, {"t": 5.928, "dur": 0.533, "note": 24, "inst": "piano_v0_additive_0", "vel": 1.0, "bend": 0.0, "ch": 8}, {"t": 5.928, "dur": 0.266, "note": 61, "inst": "organ_v0_additive_1", "vel": 1.0, "bend": 0.0, "ch": 13}, {"t": 6.194, "dur": 0.266, "note": 66, "inst": "harpsichord_v0_additive_2", "vel": 1.0, "bend": 0.0, "ch": 2}, {"t": 6.46, "dur": 0.533, "note": 24, "inst": "piano_v0_additive_0", "vel": 1.0, "bend": 0.0, "ch": 8}, {"t": 6.46, "dur": 0.266, "note": 54, "inst": "harpsichord_v0_additive_2", "vel": 1.0, "bend": 0.0, "ch": 6}, {"t": 6.727, "dur": 0.266, "note": 61, "inst": "organ_v0_additive_1", "vel": 1.0, "bend": 0.0, "ch": 13}, {"t": 6.993, "dur": 0.533, "note": 25, "inst": "organ_v0_additive_1", "vel": 1.0, "bend": 0.0, "ch": 9}, {"t": 6.993, "dur": 0.133, "note": 54, "inst": "harpsichord_v0_additive_2", "vel": 1.0, "bend": 0.0, "ch": 6}, {"t": 7.126, "dur": 0.133, "note": 54, "inst": "harpsichord_v0_additive_2", "vel": 1.0, "bend": 0.0, "ch": 6}, {"t": 7.259, "dur": 0.133, "note": 54, "inst": "harpsichord_v0_additive_2", "vel": 1.0, "bend": 0.0, "ch": 6}, {"t": 7.392, "dur": 0.133, "note": 61, "inst": "organ_v0_additive_1", "vel": 1.0, "bend": 0.0, "ch": 13}, {"t": 7.526, "dur": 0.533, "note": 24, "inst": "piano_v0_additive_0", "vel": 1.0, "bend": 0.0, "ch": 8}, {"t": 7.526, "dur": 0.133, "note": 61, "inst": "organ_v0_additive_1", "vel": 1.0, "bend": 0.0, "ch": 13}, {"t": 7.659, "dur": 0.133, "note": 61, "inst": "organ_v0_additive_1", "vel": 1.0, "bend": 0.0, "ch": 13}, {"t": 7.792, "dur": 0.133, "note": 54, "inst": "harpsichord_v0_additive_2", "vel": 1.0, "bend": 0.0, "ch": 6}, {"t": 7.925, "dur": 0.133, "note": 54, "inst": "harpsichord_v0_additive_2", "vel": 1.0, "bend": 0.0, "ch": 6}, {"t": 8.058, "dur": 0.533, "note": 25, "inst": "organ_v0_additive_1", "vel": 1.0, "bend": 0.0, "ch": 9}, {"t": 8.058, "dur": 0.533, "note": 66, "inst": "harpsichord_v0_additive_2", "vel": 1.0, "bend": 0.0, "ch": 2}, {"t": 8.591, "dur": 0.533, "note": 24, "inst": "piano_v0_additive_0", "vel": 1.0, "bend": 0.0, "ch": 8}, {"t": 9.123, "dur": 0.533, "note": 25, "inst": "organ_v0_additive_1", "vel": 1.0, "bend": 0.0, "ch": 9}, {"t": 9.123, "dur": 0.266, "note": 66, "inst": "harpsichord_v0_additive_2", "vel": 1.0, "bend": 0.0, "ch": 2}, {"t": 9.39, "dur": 0.266, "note": 73, "inst": "organ_v0_additive_1", "vel": 1.0, "bend": 0.0, "ch": 9}, {"t": 9.656, "dur": 0.533, "note": 24, "inst": "piano_v0_additive_0", "vel": 1.0, "bend": 0.0, "ch": 8}, {"t": 9.656, "dur": 0.266, "note": 66, "inst": "harpsichord_v0_additive_2", "vel": 1.0, "bend": 0.0, "ch": 2}, {"t": 9.922, "dur": 0.089, "note": 54, "inst": "harpsichord_v0_additive_2", "vel": 1.0, "bend": 0.0, "ch": 6}, {"t": 10.011, "dur": 0.089, "note": 66, "inst": "harpsichord_v0_additive_2", "vel": 1.0, "bend": 0.0, "ch": 2}, {"t": 10.1, "dur": 0.089, "note": 54, "inst": "harpsichord_v0_additive_2", "vel": 1.0, "bend": 0.0, "ch": 6}, {"t": 10.189, "dur": 0.533, "note": 25, "inst": "organ_v0_additive_1", "vel": 1.0, "bend": 0.0, "ch": 9}, {"t": 10.189, "dur": 0.266, "note": 61, "inst": "organ_v0_additive_1", "vel": 1.0, "bend": 0.0, "ch": 13}, {"t": 10.455, "dur": 0.266, "note": 66, "inst": "harpsichord_v0_additive_2", "vel": 1.0, "bend": 0.0, "ch": 2}, {"t": 10.721, "dur": 0.533, "note": 24, "inst": "piano_v0_additive_0", "vel": 1.0, "bend": 0.0, "ch": 8}, {"t": 10.721, "dur": 0.266, "note": 66, "inst": "harpsichord_v0_additive_2", "vel": 1.0, "bend": 0.0, "ch": 2}, {"t": 10.987, "dur": 0.266, "note": 61, "inst": "organ_v0_additive_1", "vel": 1.0, "bend": 0.0, "ch": 13}, {"t": 11.254, "dur": 0.533, "note": 25, "inst": "organ_v0_additive_1", "vel": 1.0, "bend": 0.0, "ch": 9}, {"t": 11.254, "dur": 0.133, "note": 54, "inst": "harpsichord_v0_additive_2", "vel": 1.0, "bend": 0.0, "ch": 6}, {"t": 11.387, "dur": 0.133, "note": 61, "inst": "organ_v0_additive_1", "vel": 1.0, "bend": 0.0, "ch": 13}, {"t": 11.52, "dur": 0.133, "note": 61, "inst": "organ_v0_additive_1", "vel": 1.0, "bend": 0.0, "ch": 13}, {"t": 11.653, "dur": 0.133, "note": 61, "inst": "organ_v0_additive_1", "vel": 1.0, "bend": 0.0, "ch": 13}, {"t": 11.786, "dur": 0.533, "note": 24, "inst": "piano_v0_additive_0", "vel": 1.0, "bend": 0.0, "ch": 8}, {"t": 11.786, "dur": 0.133, "note": 54, "inst": "harpsichord_v0_additive_2", "vel": 1.0, "bend": 0.0, "ch": 6}, {"t": 11.92, "dur": 0.133, "note": 66, "inst": "harpsichord_v0_additive_2", "vel": 1.0, "bend": 0.0, "ch": 2}, {"t": 12.053, "dur": 0.133, "note": 66, "inst": "harpsichord_v0_additive_2", "vel": 1.0, "bend": 0.0, "ch": 2}, {"t": 12.186, "dur": 0.133, "note": 66, "inst": "harpsichord_v0_additive_2", "vel": 1.0, "bend": 0.0, "ch": 2}, {"t": 12.319, "dur": 0.533, "note": 30, "inst": "harpsichord_v0_additive_2", "vel": 1.0, "bend": 0.0, "ch": 14}, {"t": 12.319, "dur": 0.533, "note": 73, "inst": "organ_v0_additive_1", "vel": 1.0, "bend": 0.0, "ch": 9}, {"t": 42.078, "dur": 0.083, "note": 60, "inst": "piano_v0_additive_0", "vel": 1.0, "bend": 0.0, "ch": 12}, {"t": 42.16, "dur": 0.083, "note": 58, "inst": "harpsichord_v0_additive_2", "vel": 1.0, "bend": 0.0, "ch": 10}, {"t": 42.243, "dur": 0.083, "note": 58, "inst": "harpsichord_v0_additive_2", "vel": 1.0, "bend": 0.0, "ch": 10}, {"t": 42.326, "dur": 0.994, "note": 58, "inst": "harpsichord_v0_additive_2", "vel": 1.0, "bend": 0.0, "ch": 10}, {"t": 42.326, "dur": 0.083, "note": 80, "inst": "piano_v0_additive_0", "vel": 1.0, "bend": 0.0, "ch": 0}, {"t": 42.409, "dur": 0.083, "note": 75, "inst": "celesta_v0_additive_3", "vel": 1.0, "bend": 0.0, "ch": 11}, {"t": 42.492, "dur": 0.083, "note": 70, "inst": "harpsichord_v0_additive_2", "vel": 1.0, "bend": 0.0, "ch": 6}, {"t": 42.574, "dur": 0.083, "note": 70, "inst": "harpsichord_v0_additive_2", "vel": 1.0, "bend": 0.0, "ch": 6}, {"t": 42.657, "dur": 0.083, "note": 70, "inst": "harpsichord_v0_additive_2", "vel": 1.0, "bend": 0.0, "ch": 6}, {"t": 42.74, "dur": 0.083, "note": 75, "inst": "celesta_v0_additive_3", "vel": 1.0, "bend": 0.0, "ch": 11}, {"t": 42.823, "dur": 0.083, "note": 68, "inst": "piano_v0_additive_0", "vel": 1.0, "bend": 0.0, "ch": 4}, {"t": 42.906, "dur": 0.083, "note": 70, "inst": "harpsichord_v0_additive_2", "vel": 1.0, "bend": 0.0, "ch": 6}, {"t": 42.988, "dur": 0.083, "note": 75, "inst": "celesta_v0_additive_3", "vel": 1.0, "bend": 0.0, "ch": 11}, {"t": 43.071, "dur": 0.083, "note": 77, "inst": "organ_v0_additive_1", "vel": 1.0, "bend": 0.0, "ch": 13}, {"t": 43.154, "dur": 0.083, "note": 75, "inst": "celesta_v0_additive_3", "vel": 1.0, "bend": 0.0, "ch": 11}, {"t": 43.237, "dur": 0.083, "note": 75, "inst": "celesta_v0_additive_3", "vel": 1.0, "bend": 0.0, "ch": 11}, {"t": 43.32, "dur": 0.166, "note": 60, "inst": "piano_v0_additive_0", "vel": 1.0, "bend": 0.0, "ch": 12}, {"t": 43.32, "dur": 0.083, "note": 75, "inst": "celesta_v0_additive_3", "vel": 1.0, "bend": 0.0, "ch": 11}, {"t": 43.403, "dur": 0.083, "note": 72, "inst": "piano_v0_additive_0", "vel": 1.0, "bend": 0.0, "ch": 8}, {"t": 43.485, "dur": 0.166, "note": 63, "inst": "celesta_v0_additive_3", "vel": 1.0, "bend": 0.0, "ch": 15}, {"t": 43.485, "dur": 0.083, "note": 70, "inst": "harpsichord_v0_additive_2", "vel": 1.0, "bend": 0.0, "ch": 6}, {"t": 43.568, "dur": 0.083, "note": 68, "inst": "piano_v0_additive_0", "vel": 1.0, "bend": 0.0, "ch": 4}, {"t": 43.651, "dur": 0.166, "note": 60, "inst": "piano_v0_additive_0", "vel": 1.0, "bend": 0.0, "ch": 12}, {"t": 43.651, "dur": 0.083, "note": 70, "inst": "harpsichord_v0_additive_2", "vel": 1.0, "bend": 0.0, "ch": 6}, {"t": 43.734, "dur": 0.083, "note": 72, "inst": "piano_v0_additive_0", "vel": 1.0, "bend": 0.0, "ch": 8}, {"t": 43.817, "dur": 0.166, "note": 58, "inst": "harpsichord_v0_additive_2", "vel": 1.0, "bend": 0.0, "ch": 10}, {"t": 43.817, "dur": 0.083, "note": 65, "inst": "organ_v0_additive_1", "vel": 1.0, "bend": 0.0, "ch": 1}, {"t": 43.899, "dur": 0.083, "note": 70, "inst": "harpsichord_v0_additive_2", "vel": 1.0, "bend": 0.0, "ch": 6}, {"t": 43.982, "dur": 0.166, "note": 53, "inst": "organ_v0_additive_1", "vel": 1.0, "bend": 0.0, "ch": 5}, {"t": 43.982, "dur": 0.083, "note": 72, "inst": "piano_v0_additive_0", "vel": 1.0, "bend": 0.0, "ch": 8}, {"t": 44.065, "dur": 0.083, "note": 75, "inst": "celesta_v0_additive_3", "vel": 1.0, "bend": 0.0, "ch": 11}, {"t": 44.148, "dur": 0.166, "note": 58, "inst": "harpsichord_v0_additive_2", "vel": 1.0, "bend": 0.0, "ch": 10}, {"t": 44.148, "dur": 0.083, "note": 75, "inst": "celesta_v0_additive_3", "vel": 1.0, "bend": 0.0, "ch": 11}, {"t": 44.231, "dur": 0.083, "note": 72, "inst": "piano_v0_additive_0", "vel": 1.0, "bend": 0.0, "ch": 8}, {"t": 44.313, "dur": 0.166, "note": 58, "inst": "harpsichord_v0_additive_2", "vel": 1.0, "bend": 0.0, "ch": 10}, {"t": 44.313, "dur": 0.083, "note": 75, "inst": "celesta_v0_additive_3", "vel": 1.0, "bend": 0.0, "ch": 11}, {"t": 44.396, "dur": 0.083, "note": 70, "inst": "harpsichord_v0_additive_2", "vel": 1.0, "bend": 0.0, "ch": 6}, {"t": 44.479, "dur": 0.166, "note": 63, "inst": "celesta_v0_additive_3", "vel": 1.0, "bend": 0.0, "ch": 15}, {"t": 44.479, "dur": 0.083, "note": 68, "inst": "piano_v0_additive_0", "vel": 1.0, "bend": 0.0, "ch": 4}, {"t": 44.562, "dur": 0.083, "note": 56, "inst": "piano_v0_additive_0", "vel": 1.0, "bend": 0.0, "ch": 8}, {"t": 44.645, "dur": 0.166, "note": 58, "inst": "harpsichord_v0_additive_2", "vel": 1.0, "bend": 0.0, "ch": 10}, {"t": 44.645, "dur": 0.083, "note": 68, "inst": "piano_v0_additive_0", "vel": 1.0, "bend": 0.0, "ch": 4}, {"t": 44.727, "dur": 0.083, "note": 70, "inst": "harpsichord_v0_additive_2", "vel": 1.0, "bend": 0.0, "ch": 6}, {"t": 44.81, "dur": 0.166, "note": 56, "inst": "piano_v0_additive_0", "vel": 1.0, "bend": 0.0, "ch": 8}, {"t": 44.81, "dur": 0.083, "note": 63, "inst": "celesta_v0_additive_3", "vel": 1.0, "bend": 0.0, "ch": 15}, {"t": 44.893, "dur": 0.083, "note": 68, "inst": "piano_v0_additive_0", "vel": 1.0, "bend": 0.0, "ch": 4}, {"t": 44.976, "dur": 0.166, "note": 51, "inst": "celesta_v0_additive_3", "vel": 1.0, "bend": 0.0, "ch": 3}, {"t": 44.976, "dur": 0.083, "note": 70, "inst": "harpsichord_v0_additive_2", "vel": 1.0, "bend": 0.0, "ch": 6}, {"t": 45.059, "dur": 0.083, "note": 75, "inst": "celesta_v0_additive_3", "vel": 1.0, "bend": 0.0, "ch": 11}, {"t": 45.141, "dur": 0.166, "note": 56, "inst": "piano_v0_additive_0", "vel": 1.0, "bend": 0.0, "ch": 8}, {"t": 45.141, "dur": 0.083, "note": 72, "inst": "piano_v0_additive_0", "vel": 1.0, "bend": 0.0, "ch": 8}, {"t": 45.224, "dur": 0.083, "note": 70, "inst": "harpsichord_v0_additive_2", "vel": 1.0, "bend": 0.0, "ch": 6}, {"t": 45.307, "dur": 0.166, "note": 58, "inst": "harpsichord_v0_additive_2", "vel": 1.0, "bend": 0.0, "ch": 10}, {"t": 45.307, "dur": 0.083, "note": 72, "inst": "piano_v0_additive_0", "vel": 1.0, "bend": 0.0, "ch": 8}, {"t": 45.39, "dur": 0.083, "note": 70, "inst": "harpsichord_v0_additive_2", "vel": 1.0, "bend": 0.0, "ch": 6}, {"t": 45.473, "dur": 0.166, "note": 60, "inst": "piano_v0_additive_0", "vel": 1.0, "bend": 0.0, "ch": 12}, {"t": 45.473, "dur": 0.083, "note": 56, "inst": "piano_v0_additive_0", "vel": 1.0, "bend": 0.0, "ch": 8}, {"t": 45.555, "dur": 0.083, "note": 65, "inst": "organ_v0_additive_1", "vel": 1.0, "bend": 0.0, "ch": 1}, {"t": 45.638, "dur": 0.166, "note": 58, "inst": "harpsichord_v0_additive_2", "vel": 1.0, "bend": 0.0, "ch": 10}, {"t": 45.638, "dur": 0.083, "note": 56, "inst": "piano_v0_additive_0", "vel": 1.0, "bend": 0.0, "ch": 8}, {"t": 45.721, "dur": 0.083, "note": 70, "inst": "harpsichord_v0_additive_2", "vel": 1.0, "bend": 0.0, "ch": 6}, {"t": 45.804, "dur": 0.166, "note": 44, "inst": "piano_v0_additive_0", "vel": 1.0, "bend": 0.0, "ch": 12}, {"t": 45.804, "dur": 0.083, "note": 63, "inst": "celesta_v0_additive_3", "vel": 1.0, "bend": 0.0, "ch": 15}, {"t": 45.887, "dur": 0.083, "note": 56, "inst": "piano_v0_additive_0", "vel": 1.0, "bend": 0.0, "ch": 8}, {"t": 45.97, "dur": 0.166, "note": 51, "inst": "celesta_v0_additive_3", "vel": 1.0, "bend": 0.0, "ch": 3}, {"t": 45.97, "dur": 0.083, "note": 70, "inst": "harpsichord_v0_additive_2", "vel": 1.0, "bend": 0.0, "ch": 6}, {"t": 46.052, "dur": 0.083, "note": 72, "inst": "piano_v0_additive_0", "vel": 1.0, "bend": 0.0, "ch": 8}, {"t": 46.135, "dur": 0.166, "note": 44, "inst": "piano_v0_additive_0", "vel": 1.0, "bend": 0.0, "ch": 12}, {"t": 46.135, "dur": 0.083, "note": 70, "inst": "harpsichord_v0_additive_2", "vel": 1.0, "bend": 0.0, "ch": 6}, {"t": 46.218, "dur": 0.083, "note": 70, "inst": "harpsichord_v0_additive_2", "vel": 1.0, "bend": 0.0, "ch": 6}, {"t": 46.301, "dur": 0.083, "note": 56, "inst": "piano_v0_additive_0", "vel": 1.0, "bend": 0.0, "ch": 8}, {"t": 46.301, "dur": 0.166, "note": 70, "inst": "harpsichord_v0_additive_2", "vel": 1.0, "bend": 0.0, "ch": 6}, {"t": 46.384, "dur": 0.083, "note": 51, "inst": "celesta_v0_additive_3", "vel": 1.0, "bend": 0.0, "ch": 3}, {"t": 46.466, "dur": 0.083, "note": 46, "inst": "harpsichord_v0_additive_2", "vel": 1.0, "bend": 0.0, "ch": 14}, {"t": 46.466, "dur": 0.166, "note": 75, "inst": "celesta_v0_additive_3", "vel": 1.0, "bend": 0.0, "ch": 11}, {"t": 46.549, "dur": 0.083, "note": 46, "inst": "harpsichord_v0_additive_2", "vel": 1.0, "bend": 0.0, "ch": 14}, {"t": 46.632, "dur": 0.083, "note": 46, "inst": "harpsichord_v0_additive_2", "vel": 1.0, "bend": 0.0, "ch": 14}, {"t": 46.632, "dur": 0.166, "note": 80, "inst": "piano_v0_additive_0", "vel": 1.0, "bend": 0.0, "ch": 0}, {"t": 46.715, "dur": 0.083, "note": 51, "inst": "celesta_v0_additive_3", "vel": 1.0, "bend": 0.0, "ch": 3}, {"t": 46.798, "dur": 0.083, "note": 44, "inst": "piano_v0_additive_0", "vel": 1.0, "bend": 0.0, "ch": 12}, {"t": 46.798, "dur": 0.166, "note": 75, "inst": "celesta_v0_additive_3", "vel": 1.0, "bend": 0.0, "ch": 11}, {"t": 46.88, "dur": 0.083, "note": 46, "inst": "harpsichord_v0_additive_2", "vel": 1.0, "bend": 0.0, "ch": 14}, {"t": 46.963, "dur": 0.083, "note": 51, "inst": "celesta_v0_additive_3", "vel": 1.0, "bend": 0.0, "ch": 3}, {"t": 46.963, "dur": 0.166, "note": 70, "inst": "harpsichord_v0_additive_2", "vel": 1.0, "bend": 0.0, "ch": 6}, {"t": 47.046, "dur": 0.083, "note": 53, "inst": "organ_v0_additive_1", "vel": 1.0, "bend": 0.0, "ch": 5}, {"t": 47.129, "dur": 0.083, "note": 51, "inst": "celesta_v0_additive_3", "vel": 1.0, "bend": 0.0, "ch": 3}, {"t": 47.129, "dur": 0.166, "note": 68, "inst": "piano_v0_additive_0", "vel": 1.0, "bend": 0.0, "ch": 4}, {"t": 47.212, "dur": 0.083, "note": 51, "inst": "celesta_v0_additive_3", "vel": 1.0, "bend": 0.0, "ch": 3}, {"t": 47.294, "dur": 0.083, "note": 56, "inst": "piano_v0_additive_0", "vel": 1.0, "bend": 0.0, "ch": 8}, {"t": 47.294, "dur": 0.166, "note": 72, "inst": "piano_v0_additive_0", "vel": 1.0, "bend": 0.0, "ch": 8}, {"t": 47.377, "dur": 0.083, "note": 51, "inst": "celesta_v0_additive_3", "vel": 1.0, "bend": 0.0, "ch": 3}, {"t": 47.46, "dur": 0.083, "note": 48, "inst": "piano_v0_additive_0", "vel": 1.0, "bend": 0.0, "ch": 0}, {"t": 47.46, "dur": 0.166, "note": 75, "inst": "celesta_v0_additive_3", "vel": 1.0, "bend": 0.0, "ch": 11}, {"t": 47.543, "dur": 0.083, "note": 48, "inst": "piano_v0_additive_0", "vel": 1.0, "bend": 0.0, "ch": 0}, {"t": 47.626, "dur": 0.083, "note": 48, "inst": "piano_v0_additive_0", "vel": 1.0, "bend": 0.0, "ch": 0}, {"t": 47.626, "dur": 0.166, "note": 80, "inst": "piano_v0_additive_0", "vel": 1.0, "bend": 0.0, "ch": 0}, {"t": 47.708, "dur": 0.083, "note": 51, "inst": "celesta_v0_additive_3", "vel": 1.0, "bend": 0.0, "ch": 3}, {"t": 47.791, "dur": 0.083, "note": 44, "inst": "piano_v0_additive_0", "vel": 1.0, "bend": 0.0, "ch": 12}, {"t": 47.791, "dur": 0.166, "note": 75, "inst": "celesta_v0_additive_3", "vel": 1.0, "bend": 0.0, "ch": 11}, {"t": 47.874, "dur": 0.083, "note": 48, "inst": "piano_v0_additive_0", "vel": 1.0, "bend": 0.0, "ch": 0}, {"t": 47.957, "dur": 0.083, "note": 51, "inst": "celesta_v0_additive_3", "vel": 1.0, "bend": 0.0, "ch": 3}, {"t": 47.957, "dur": 0.166, "note": 72, "inst": "piano_v0_additive_0", "vel": 1.0, "bend": 0.0, "ch": 8}, {"t": 48.04, "dur": 0.083, "note": 56, "inst": "piano_v0_additive_0", "vel": 1.0, "bend": 0.0, "ch": 8}, {"t": 48.122, "dur": 0.083, "note": 44, "inst": "piano_v0_additive_0", "vel": 1.0, "bend": 0.0, "ch": 12}, {"t": 48.122, "dur": 0.166, "note": 68, "inst": "piano_v0_additive_0", "vel": 1.0, "bend": 0.0, "ch": 4}, {"t": 48.205, "dur": 0.083, "note": 53, "inst": "organ_v0_additive_1", "vel": 1.0, "bend": 0.0, "ch": 5}, {"t": 48.288, "dur": 0.083, "note": 44, "inst": "piano_v0_additive_0", "vel": 1.0, "bend": 0.0, "ch": 12}, {"t": 48.288, "dur": 0.166, "note": 72, "inst": "piano_v0_additive_0", "vel": 1.0, "bend": 0.0, "ch": 8}, {"t": 48.371, "dur": 0.083, "note": 51, "inst": "celesta_v0_additive_3", "vel": 1.0, "bend": 0.0, "ch": 3}, {"t": 48.454, "dur": 0.083, "note": 48, "inst": "piano_v0_additive_0", "vel": 1.0, "bend": 0.0, "ch": 0}, {"t": 48.454, "dur": 0.166, "note": 68, "inst": "piano_v0_additive_0", "vel": 1.0, "bend": 0.0, "ch": 4}, {"t": 48.537, "dur": 0.083, "note": 48, "inst": "piano_v0_additive_0", "vel": 1.0, "bend": 0.0, "ch": 0}, {"t": 48.619, "dur": 0.083, "note": 48, "inst": "piano_v0_additive_0", "vel": 1.0, "bend": 0.0, "ch": 0}, {"t": 48.619, "dur": 0.166, "note": 82, "inst": "harpsichord_v0_additive_2", "vel": 1.0, "bend": 0.0, "ch": 2}, {"t": 48.702, "dur": 0.083, "note": 51, "inst": "celesta_v0_additive_3", "vel": 1.0, "bend": 0.0, "ch": 3}, {"t": 48.785, "dur": 0.083, "note": 44, "inst": "piano_v0_additive_0", "vel": 1.0, "bend": 0.0, "ch": 12}, {"t": 48.785, "dur": 0.166, "note": 68, "inst": "piano_v0_additive_0", "vel": 1.0, "bend": 0.0, "ch": 4}, {"t": 48.868, "dur": 0.083, "note": 48, "inst": "piano_v0_additive_0", "vel": 1.0, "bend": 0.0, "ch": 0}, {"t": 48.951, "dur": 0.083, "note": 44, "inst": "piano_v0_additive_0", "vel": 1.0, "bend": 0.0, "ch": 12}, {"t": 48.951, "dur": 0.166, "note": 72, "inst": "piano_v0_additive_0", "vel": 1.0, "bend": 0.0, "ch": 8}, {"t": 49.033, "dur": 0.083, "note": 58, "inst": "harpsichord_v0_additive_2", "vel": 1.0, "bend": 0.0, "ch": 10}, {"t": 49.116, "dur": 0.083, "note": 56, "inst": "piano_v0_additive_0", "vel": 1.0, "bend": 0.0, "ch": 8}, {"t": 49.116, "dur": 0.166, "note": 70, "inst": "harpsichord_v0_additive_2", "vel": 1.0, "bend": 0.0, "ch": 6}, {"t": 49.199, "dur": 0.083, "note": 44, "inst": "piano_v0_additive_0", "vel": 1.0, "bend": 0.0, "ch": 12}, {"t": 49.282, "dur": 0.166, "note": 56, "inst": "piano_v0_additive_0", "vel": 1.0, "bend": 0.0, "ch": 8}, {"t": 49.282, "dur": 0.083, "note": 80, "inst": "piano_v0_additive_0", "vel": 1.0, "bend": 0.0, "ch": 0}, {"t": 49.365, "dur": 0.083, "note": 75, "inst": "celesta_v0_additive_3", "vel": 1.0, "bend": 0.0, "ch": 11}, {"t": 49.447, "dur": 0.166, "note": 58, "inst": "harpsichord_v0_additive_2", "vel": 1.0, "bend": 0.0, "ch": 10}, {"t": 49.447, "dur": 0.083, "note": 70, "inst": "harpsichord_v0_additive_2", "vel": 1.0, "bend": 0.0, "ch": 6}, {"t": 49.53, "dur": 0.083, "note": 70, "inst": "harpsichord_v0_additive_2", "vel": 1.0, "bend": 0.0, "ch": 6}, {"t": 49.613, "dur": 0.166, "note": 63, "inst": "celesta_v0_additive_3", "vel": 1.0, "bend": 0.0, "ch": 15}, {"t": 49.613, "dur": 0.083, "note": 70, "inst": "harpsichord_v0_additive_2", "vel": 1.0, "bend": 0.0, "ch": 6}, {"t": 49.696, "dur": 0.083, "note": 75, "inst": "celesta_v0_additive_3", "vel": 1.0, "bend": 0.0, "ch": 11}, {"t": 49.779, "dur": 0.166, "note": 58, "inst": "harpsichord_v0_additive_2", "vel": 1.0, "bend": 0.0, "ch": 10}, {"t": 49.779, "dur": 0.083, "note": 68, "inst": "piano_v0_additive_0", "vel": 1.0, "bend": 0.0, "ch": 4}, {"t": 49.861, "dur": 0.083, "note": 70, "inst": "harpsichord_v0_additive_2", "vel": 1.0, "bend": 0.0, "ch": 6}, {"t": 49.944, "dur": 0.166, "note": 56, "inst": "piano_v0_additive_0", "vel": 1.0, "bend": 0.0, "ch": 8}, {"t": 49.944, "dur": 0.083, "note": 75, "inst": "celesta_v0_additive_3", "vel": 1.0, "bend": 0.0, "ch": 11}, {"t": 50.027, "dur": 0.083, "note": 77, "inst": "organ_v0_additive_1", "vel": 1.0, "bend": 0.0, "ch": 13}, {"t": 50.11, "dur": 0.166, "note": 58, "inst": "harpsichord_v0_additive_2", "vel": 1.0, "bend": 0.0, "ch": 10}, {"t": 50.11, "dur": 0.083, "note": 75, "inst": "celesta_v0_additive_3", "vel": 1.0, "bend": 0.0, "ch": 11}, {"t": 50.193, "dur": 0.083, "note": 75, "inst": "celesta_v0_additive_3", "vel": 1.0, "bend": 0.0, "ch": 11}, {"t": 50.275, "dur": 0.166, "note": 44, "inst": "piano_v0_additive_0", "vel": 1.0, "bend": 0.0, "ch": 12}, {"t": 50.275, "dur": 0.083, "note": 82, "inst": "harpsichord_v0_additive_2", "vel": 1.0, "bend": 0.0, "ch": 2}, {"t": 50.358, "dur": 0.083, "note": 80, "inst": "piano_v0_additive_0", "vel": 1.0, "bend": 0.0, "ch": 0}, {"t": 50.441, "dur": 0.166, "note": 46, "inst": "harpsichord_v0_additive_2", "vel": 1.0, "bend": 0.0, "ch": 14}, {"t": 50.441, "dur": 0.083, "note": 75, "inst": "celesta_v0_additive_3", "vel": 1.0, "bend": 0.0, "ch": 11}, {"t": 50.524, "dur": 0.083, "note": 75, "inst": "celesta_v0_additive_3", "vel": 1.0, "bend": 0.0, "ch": 11}, {"t": 50.607, "dur": 0.166, "note": 51, "inst": "celesta_v0_additive_3", "vel": 1.0, "bend": 0.0, "ch": 3}, {"t": 50.607, "dur": 0.083, "note": 75, "inst": "celesta_v0_additive_3", "vel": 1.0, "bend": 0.0, "ch": 11}, {"t": 50.689, "dur": 0.083, "note": 80, "inst": "piano_v0_additive_0", "vel": 1.0, "bend": 0.0, "ch": 0}, {"t": 50.772, "dur": 0.497, "note": 56, "inst": "piano_v0_additive_0", "vel": 1.0, "bend": 0.0, "ch": 8}, {"t": 50.772, "dur": 0.083, "note": 70, "inst": "harpsichord_v0_additive_2", "vel": 1.0, "bend": 0.0, "ch": 6}, {"t": 50.855, "dur": 0.083, "note": 75, "inst": "celesta_v0_additive_3", "vel": 1.0, "bend": 0.0, "ch": 11}, {"t": 50.938, "dur": 0.083, "note": 80, "inst": "piano_v0_additive_0", "vel": 1.0, "bend": 0.0, "ch": 0}, {"t": 51.021, "dur": 0.083, "note": 82, "inst": "harpsichord_v0_additive_2", "vel": 1.0, "bend": 0.0, "ch": 2}, {"t": 51.104, "dur": 0.083, "note": 82, "inst": "harpsichord_v0_additive_2", "vel": 1.0, "bend": 0.0, "ch": 2}, {"t": 51.186, "dur": 0.083, "note": 80, "inst": "piano_v0_additive_0", "vel": 1.0, "bend": 0.0, "ch": 0}, {"t": 51.269, "dur": 0.083, "note": 68, "inst": "piano_v0_additive_0", "vel": 1.0, "bend": 0.0, "ch": 4}, {"t": 51.269, "dur": 0.994, "note": 87, "inst": "celesta_v0_additive_3", "vel": 1.0, "bend": 0.0, "ch": 7}, {"t": 51.352, "dur": 0.083, "note": 65, "inst": "organ_v0_additive_1", "vel": 1.0, "bend": 0.0, "ch": 1}, {"t": 51.435, "dur": 0.083, "note": 63, "inst": "celesta_v0_additive_3", "vel": 1.0, "bend": 0.0, "ch": 15}, {"t": 51.518, "dur": 0.083, "note": 60, "inst": "piano_v0_additive_0", "vel": 1.0, "bend": 0.0, "ch": 12}, {"t": 51.6, "dur": 0.083, "note": 63, "inst": "celesta_v0_additive_3", "vel": 1.0, "bend": 0.0, "ch": 15}, {"t": 51.683, "dur": 0.083, "note": 65, "inst": "organ_v0_additive_1", "vel": 1.0, "bend": 0.0, "ch": 1}, {"t": 51.766, "dur": 0.083, "note": 58, "inst": "harpsichord_v0_additive_2", "vel": 1.0, "bend": 0.0, "ch": 10}, {"t": 51.849, "dur": 0.083, "note": 63, "inst": "celesta_v0_additive_3", "vel": 1.0, "bend": 0.0, "ch": 15}, {"t": 51.932, "dur": 0.083, "note": 65, "inst": "organ_v0_additive_1", "vel": 1.0, "bend": 0.0, "ch": 1}, {"t": 52.014, "dur": 0.083, "note": 68, "inst": "piano_v0_additive_0", "vel": 1.0, "bend": 0.0, "ch": 4}, {"t": 52.097, "dur": 0.083, "note": 56, "inst": "piano_v0_additive_0", "vel": 1.0, "bend": 0.0, "ch": 8}, {"t": 52.18, "dur": 0.083, "note": 65, "inst": "organ_v0_additive_1", "vel": 1.0, "bend": 0.0, "ch": 1}, {"t": 52.263, "dur": 0.994, "note": 56, "inst": "piano_v0_additive_0", "vel": 1.0, "bend": 0.0, "ch": 8}, {"t": 52.263, "dur": 0.083, "note": 87, "inst": "celesta_v0_additive_3", "vel": 1.0, "bend": 0.0, "ch": 7}, {"t": 52.346, "dur": 0.083, "note": 82, "inst": "harpsichord_v0_additive_2", "vel": 1.0, "bend": 0.0, "ch": 2}, {"t": 52.428, "dur": 0.083, "note": 68, "inst": "piano_v0_additive_0", "vel": 1.0, "bend": 0.0, "ch": 4}, {"t": 52.511, "dur": 0.083, "note": 77, "inst": "organ_v0_additive_1", "vel": 1.0, "bend": 0.0, "ch": 13}, {"t": 52.594, "dur": 0.083, "note": 68, "inst": "piano_v0_additive_0", "vel": 1.0, "bend": 0.0, "ch": 4}, {"t": 52.677, "dur": 0.083, "note": 82, "inst": "harpsichord_v0_additive_2", "vel": 1.0, "bend": 0.0, "ch": 2}, {"t": 52.76, "dur": 0.083, "note": 75, "inst": "celesta_v0_additive_3", "vel": 1.0, "bend": 0.0, "ch": 11}, {"t": 52.842, "dur": 0.083, "note": 68, "inst": "piano_v0_additive_0", "vel": 1.0, "bend": 0.0, "ch": 4}, {"t": 52.925, "dur": 0.083, "note": 82, "inst": "harpsichord_v0_additive_2", "vel": 1.0, "bend": 0.0, "ch": 2}, {"t": 53.008, "dur": 0.083, "note": 84, "inst": "piano_v0_additive_0", "vel": 1.0, "bend": 0.0, "ch": 4}, {"t": 53.091, "dur": 0.083, "note": 84, "inst": "piano_v0_additive_0", "vel": 1.0, "bend": 0.0, "ch": 4}, {"t": 53.174, "dur": 0.083, "note": 82, "inst": "harpsichord_v0_additive_2", "vel": 1.0, "bend": 0.0, "ch": 2}, {"t": 53.256, "dur": 0.083, "note": 65, "inst": "organ_v0_additive_1", "vel": 1.0, "bend": 0.0, "ch": 1}, {"t": 53.256, "dur": 0.994, "note": 84, "inst": "piano_v0_additive_0", "vel": 1.0, "bend": 0.0, "ch": 4}, {"t": 53.339, "dur": 0.083, "note": 63, "inst": "celesta_v0_additive_3", "vel": 1.0, "bend": 0.0, "ch": 15}, {"t": 53.422, "dur": 0.083, "note": 60, "inst": "piano_v0_additive_0", "vel": 1.0, "bend": 0.0, "ch": 12}, {"t": 53.505, "dur": 0.083, "note": 58, "inst": "harpsichord_v0_additive_2", "vel": 1.0, "bend": 0.0, "ch": 10}, {"t": 53.588, "dur": 0.083, "note": 60, "inst": "piano_v0_additive_0", "vel": 1.0, "bend": 0.0, "ch": 12}, {"t": 53.671, "dur": 0.083, "note": 63, "inst": "celesta_v0_additive_3", "vel": 1.0, "bend": 0.0, "ch": 15}, {"t": 53.753, "dur": 0.083, "note": 56, "inst": "piano_v0_additive_0", "vel": 1.0, "bend": 0.0, "ch": 8}, {"t": 53.836, "dur": 0.083, "note": 60, "inst": "piano_v0_additive_0", "vel": 1.0, "bend": 0.0, "ch": 12}, {"t": 53.919, "dur": 0.083, "note": 63, "inst": "celesta_v0_additive_3", "vel": 1.0, "bend": 0.0, "ch": 15}, {"t": 54.002, "dur": 0.083, "note": 65, "inst": "organ_v0_additive_1", "vel": 1.0, "bend": 0.0, "ch": 1}, {"t": 54.085, "dur": 0.083, "note": 65, "inst": "organ_v0_additive_1", "vel": 1.0, "bend": 0.0, "ch": 1}, {"t": 54.167, "dur": 0.083, "note": 63, "inst": "celesta_v0_additive_3", "vel": 1.0, "bend": 0.0, "ch": 15}, {"t": 54.25, "dur": 0.994, "note": 65, "inst": "organ_v0_additive_1", "vel": 1.0, "bend": 0.0, "ch": 1}, {"t": 54.25, "dur": 0.083, "note": 84, "inst": "piano_v0_additive_0", "vel": 1.0, "bend": 0.0, "ch": 4}, {"t": 54.333, "dur": 0.083, "note": 80, "inst": "piano_v0_additive_0", "vel": 1.0, "bend": 0.0, "ch": 0}, {"t": 54.416, "dur": 0.083, "note": 77, "inst": "organ_v0_additive_1", "vel": 1.0, "bend": 0.0, "ch": 13}, {"t": 54.499, "dur": 0.083, "note": 75, "inst": "celesta_v0_additive_3", "vel": 1.0, "bend": 0.0, "ch": 11}, {"t": 54.581, "dur": 0.083, "note": 77, "inst": "organ_v0_additive_1", "vel": 1.0, "bend": 0.0, "ch": 13}, {"t": 54.664, "dur": 0.083, "note": 80, "inst": "piano_v0_additive_0", "vel": 1.0, "bend": 0.0, "ch": 0}, {"t": 54.747, "dur": 0.083, "note": 72, "inst": "piano_v0_additive_0", "vel": 1.0, "bend": 0.0, "ch": 8}, {"t": 54.83, "dur": 0.083, "note": 77, "inst": "organ_v0_additive_1", "vel": 1.0, "bend": 0.0, "ch": 13}, {"t": 54.913, "dur": 0.083, "note": 80, "inst": "piano_v0_additive_0", "vel": 1.0, "bend": 0.0, "ch": 0}, {"t": 54.995, "dur": 0.083, "note": 82, "inst": "harpsichord_v0_additive_2", "vel": 1.0, "bend": 0.0, "ch": 2}, {"t": 55.078, "dur": 0.083, "note": 80, "inst": "piano_v0_additive_0", "vel": 1.0, "bend": 0.0, "ch": 0}, {"t": 55.161, "dur": 0.083, "note": 80, "inst": "piano_v0_additive_0", "vel": 1.0, "bend": 0.0, "ch": 0}, {"t": 55.244, "dur": 0.166, "note": 65, "inst": "organ_v0_additive_1", "vel": 1.0, "bend": 0.0, "ch": 1}, {"t": 55.244, "dur": 0.083, "note": 80, "inst": "piano_v0_additive_0", "vel": 1.0, "bend": 0.0, "ch": 0}, {"t": 55.327, "dur": 0.083, "note": 77, "inst": "organ_v0_additive_1", "vel": 1.0, "bend": 0.0, "ch": 13}, {"t": 55.409, "dur": 0.166, "note": 68, "inst": "piano_v0_additive_0", "vel": 1.0, "bend": 0.0, "ch": 4}, {"t": 55.409, "dur": 0.083, "note": 75, "inst": "celesta_v0_additive_3", "vel": 1.0, "bend": 0.0, "ch": 11}, {"t": 55.492, "dur": 0.083, "note": 72, "inst": "piano_v0_additive_0", "vel": 1.0, "bend": 0.0, "ch": 8}, {"t": 55.575, "dur": 0.166, "note": 65, "inst": "organ_v0_additive_1", "vel": 1.0, "bend": 0.0, "ch": 1}, {"t": 55.575, "dur": 0.083, "note": 75, "inst": "celesta_v0_additive_3", "vel": 1.0, "bend": 0.0, "ch": 11}, {"t": 55.658, "dur": 0.083, "note": 77, "inst": "organ_v0_additive_1", "vel": 1.0, "bend": 0.0, "ch": 13}, {"t": 55.741, "dur": 0.166, "note": 63, "inst": "celesta_v0_additive_3", "vel": 1.0, "bend": 0.0, "ch": 15}, {"t": 55.741, "dur": 0.083, "note": 70, "inst": "harpsichord_v0_additive_2", "vel": 1.0, "bend": 0.0, "ch": 6}, {"t": 55.823, "dur": 0.083, "note": 75, "inst": "celesta_v0_additive_3", "vel": 1.0, "bend": 0.0, "ch": 11}, {"t": 55.906, "dur": 0.166, "note": 58, "inst": "harpsichord_v0_additive_2", "vel": 1.0, "bend": 0.0, "ch": 10}, {"t": 55.906, "dur": 0.083, "note": 77, "inst": "organ_v0_additive_1", "vel": 1.0, "bend": 0.0, "ch": 13}, {"t": 55.989, "dur": 0.083, "note": 80, "inst": "piano_v0_additive_0", "vel": 1.0, "bend": 0.0, "ch": 0}, {"t": 56.072, "dur": 0.166, "note": 63, "inst": "celesta_v0_additive_3", "vel": 1.0, "bend": 0.0, "ch": 15}, {"t": 56.072, "dur": 0.083, "note": 80, "inst": "piano_v0_additive_0", "vel": 1.0, "bend": 0.0, "ch": 0}, {"t": 56.155, "dur": 0.083, "note": 77, "inst": "organ_v0_additive_1", "vel": 1.0, "bend": 0.0, "ch": 13}, {"t": 56.237, "dur": 0.166, "note": 63, "inst": "celesta_v0_additive_3", "vel": 1.0, "bend": 0.0, "ch": 15}, {"t": 56.237, "dur": 0.083, "note": 80, "inst": "piano_v0_additive_0", "vel": 1.0, "bend": 0.0, "ch": 0}, {"t": 56.32, "dur": 0.083, "note": 75, "inst": "celesta_v0_additive_3", "vel": 1.0, "bend": 0.0, "ch": 11}, {"t": 56.403, "dur": 0.166, "note": 68, "inst": "piano_v0_additive_0", "vel": 1.0, "bend": 0.0, "ch": 4}, {"t": 56.403, "dur": 0.083, "note": 72, "inst": "piano_v0_additive_0", "vel": 1.0, "bend": 0.0, "ch": 8}, {"t": 56.486, "dur": 0.083, "note": 72, "inst": "piano_v0_additive_0", "vel": 1.0, "bend": 0.0, "ch": 8}, {"t": 56.569, "dur": 0.166, "note": 63, "inst": "celesta_v0_additive_3", "vel": 1.0, "bend": 0.0, "ch": 15}, {"t": 56.569, "dur": 0.083, "note": 72, "inst": "piano_v0_additive_0", "vel": 1.0, "bend": 0.0, "ch": 8}, {"t": 56.652, "dur": 0.083, "note": 75, "inst": "celesta_v0_additive_3", "vel": 1.0, "bend": 0.0, "ch": 11}, {"t": 56.734, "dur": 0.166, "note": 60, "inst": "piano_v0_additive_0", "vel": 1.0, "bend": 0.0, "ch": 12}, {"t": 56.734, "dur": 0.083, "note": 68, "inst": "piano_v0_additive_0", "vel": 1.0, "bend": 0.0, "ch": 4}, {"t": 56.817, "dur": 0.083, "note": 72, "inst": "piano_v0_additive_0", "vel": 1.0, "bend": 0.0, "ch": 8}, {"t": 56.9, "dur": 0.166, "note": 56, "inst": "piano_v0_additive_0", "vel": 1.0, "bend": 0.0, "ch": 8}, {"t": 56.9, "dur": 0.083, "note": 75, "inst": "celesta_v0_additive_3", "vel": 1.0, "bend": 0.0, "ch": 11}, {"t": 56.983, "dur": 0.083, "note": 80, "inst": "piano_v0_additive_0", "vel": 1.0, "bend": 0.0, "ch": 0}, {"t": 57.066, "dur": 0.166, "note": 60, "inst": "piano_v0_additive_0", "vel": 1.0, "bend": 0.0, "ch": 12}, {"t": 57.066, "dur": 0.083, "note": 77, "inst": "organ_v0_additive_1", "vel": 1.0, "bend": 0.0, "ch": 13}, {"t": 57.148, "dur": 0.083, "note": 75, "inst": "celesta_v0_additive_3", "vel": 1.0, "bend": 0.0, "ch": 11}, {"t": 57.231, "dur": 0.166, "note": 63, "inst": "celesta_v0_additive_3", "vel": 1.0, "bend": 0.0, "ch": 15}, {"t": 57.231, "dur": 0.083, "note": 77, "inst": "organ_v0_additive_1", "vel": 1.0, "bend": 0.0, "ch": 13}, {"t": 57.314, "dur": 0.083, "note": 75, "inst": "celesta_v0_additive_3", "vel": 1.0, "bend": 0.0, "ch": 11}, {"t": 57.397, "dur": 0.166, "note": 65, "inst": "organ_v0_additive_1", "vel": 1.0, "bend": 0.0, "ch": 1}, {"t": 57.397, "dur": 0.083, "note": 72, "inst": "piano_v0_additive_0", "vel": 1.0, "bend": 0.0, "ch": 8}, {"t": 57.48, "dur": 0.083, "note": 70, "inst": "harpsichord_v0_additive_2", "vel": 1.0, "bend": 0.0, "ch": 6}, {"t": 57.562, "dur": 0.166, "note": 63, "inst": "celesta_v0_additive_3", "vel": 1.0, "bend": 0.0, "ch": 15}, {"t": 57.562, "dur": 0.083, "note": 72, "inst": "piano_v0_additive_0", "vel": 1.0, "bend": 0.0, "ch": 8}, {"t": 57.645, "dur": 0.083, "note": 75, "inst": "celesta_v0_additive_3", "vel": 1.0, "bend": 0.0, "ch": 11}, {"t": 57.728, "dur": 0.166, "note": 60, "inst": "piano_v0_additive_0", "vel": 1.0, "bend": 0.0, "ch": 12}, {"t": 57.728, "dur": 0.083, "note": 68, "inst": "piano_v0_additive_0", "vel": 1.0, "bend": 0.0, "ch": 4}, {"t": 57.811, "dur": 0.083, "note": 72, "inst": "piano_v0_additive_0", "vel": 1.0, "bend": 0.0, "ch": 8}, {"t": 57.894, "dur": 0.166, "note": 56, "inst": "piano_v0_additive_0", "vel": 1.0, "bend": 0.0, "ch": 8}, {"t": 57.894, "dur": 0.083, "note": 75, "inst": "celesta_v0_additive_3", "vel": 1.0, "bend": 0.0, "ch": 11}, {"t": 57.976, "dur": 0.083, "note": 77, "inst": "organ_v0_additive_1", "vel": 1.0, "bend": 0.0, "ch": 13}, {"t": 58.059, "dur": 0.166, "note": 60, "inst": "piano_v0_additive_0", "vel": 1.0, "bend": 0.0, "ch": 12}, {"t": 58.059, "dur": 0.083, "note": 75, "inst": "celesta_v0_additive_3", "vel": 1.0, "bend": 0.0, "ch": 11}, {"t": 58.142, "dur": 0.083, "note": 75, "inst": "celesta_v0_additive_3", "vel": 1.0, "bend": 0.0, "ch": 11}, {"t": 58.225, "dur": 0.083, "note": 60, "inst": "piano_v0_additive_0", "vel": 1.0, "bend": 0.0, "ch": 12}, {"t": 58.225, "dur": 0.994, "note": 75, "inst": "celesta_v0_additive_3", "vel": 1.0, "bend": 0.0, "ch": 11}, {"t": 58.308, "dur": 0.083, "note": 56, "inst": "piano_v0_additive_0", "vel": 1.0, "bend": 0.0, "ch": 8}, {"t": 58.39, "dur": 0.083, "note": 51, "inst": "celesta_v0_additive_3", "vel": 1.0, "bend": 0.0, "ch": 3}, {"t": 58.473, "dur": 0.083, "note": 51, "inst": "celesta_v0_additive_3", "vel": 1.0, "bend": 0.0, "ch": 3}, {"t": 58.556, "dur": 0.083, "note": 51, "inst": "celesta_v0_additive_3", "vel": 1.0, "bend": 0.0, "ch": 3}, {"t": 58.639, "dur": 0.083, "note": 56, "inst": "piano_v0_additive_0", "vel": 1.0, "bend": 0.0, "ch": 8}, {"t": 58.722, "dur": 0.083, "note": 48, "inst": "piano_v0_additive_0", "vel": 1.0, "bend": 0.0, "ch": 0}, {"t": 58.804, "dur": 0.083, "note": 51, "inst": "celesta_v0_additive_3", "vel": 1.0, "bend": 0.0, "ch": 3}, {"t": 58.887, "dur": 0.083, "note": 56, "inst": "piano_v0_additive_0", "vel": 1.0, "bend": 0.0, "ch": 8}, {"t": 58.97, "dur": 0.083, "note": 58, "inst": "harpsichord_v0_additive_2", "vel": 1.0, "bend": 0.0, "ch": 10}, {"t": 59.053, "dur": 0.083, "note": 58, "inst": "harpsichord_v0_additive_2", "vel": 1.0, "bend": 0.0, "ch": 10}, {"t": 59.136, "dur": 0.083, "note": 56, "inst": "piano_v0_additive_0", "vel": 1.0, "bend": 0.0, "ch": 8}, {"t": 59.219, "dur": 0.083, "note": 53, "inst": "organ_v0_additive_1", "vel": 1.0, "bend": 0.0, "ch": 5}, {"t": 59.219, "dur": 0.994, "note": 70, "inst": "harpsichord_v0_additive_2", "vel": 1.0, "bend": 0.0, "ch": 6}, {"t": 59.301, "dur": 0.083, "note": 48, "inst": "piano_v0_additive_0", "vel": 1.0, "bend": 0.0, "ch": 0}, {"t": 59.384, "dur": 0.083, "note": 46, "inst": "harpsichord_v0_additive_2", "vel": 1.0, "bend": 0.0, "ch": 14}, {"t": 59.467, "dur": 0.083, "note": 44, "inst": "piano_v0_additive_0", "vel": 1.0, "bend": 0.0, "ch": 12}, {"t": 59.55, "dur": 0.083, "note": 46, "inst": "harpsichord_v0_additive_2", "vel": 1.0, "bend": 0.0, "ch": 14}, {"t": 59.633, "dur": 0.083, "note": 48, "inst": "piano_v0_additive_0", "vel": 1.0, "bend": 0.0, "ch": 0}, {"t": 59.715, "dur": 0.083, "note": 41, "inst": "organ_v0_additive_1", "vel": 1.0, "bend": 0.0, "ch": 9}, {"t": 59.798, "dur": 0.083, "note": 48, "inst": "piano_v0_additive_0", "vel": 1.0, "bend": 0.0, "ch": 0}, {"t": 59.881, "dur": 0.083, "note": 53, "inst": "organ_v0_additive_1", "vel": 1.0, "bend": 0.0, "ch": 5}, {"t": 59.964, "dur": 0.083, "note": 58, "inst": "harpsichord_v0_additive_2", "vel": 1.0, "bend": 0.0, "ch": 10}, {"t": 60.047, "dur": 0.083, "note": 56, "inst": "piano_v0_additive_0", "vel": 1.0, "bend": 0.0, "ch": 8}, {"t": 60.129, "dur": 0.083, "note": 53, "inst": "organ_v0_additive_1", "vel": 1.0, "bend": 0.0, "ch": 5}, {"t": 60.212, "dur": 0.083, "note": 58, "inst": "harpsichord_v0_additive_2", "vel": 1.0, "bend": 0.0, "ch": 10}, {"t": 60.212, "dur": 0.994, "note": 68, "inst": "piano_v0_additive_0", "vel": 1.0, "bend": 0.0, "ch": 4}, {"t": 60.212, "dur": 0.994, "note": 75, "inst": "celesta_v0_additive_3", "vel": 1.0, "bend": 0.0, "ch": 11}, {"t": 60.295, "dur": 0.083, "note": 53, "inst": "organ_v0_additive_1", "vel": 1.0, "bend": 0.0, "ch": 5}, {"t": 60.378, "dur": 0.083, "note": 51, "inst": "celesta_v0_additive_3", "vel": 1.0, "bend": 0.0, "ch": 3}, {"t": 60.461, "dur": 0.083, "note": 48, "inst": "piano_v0_additive_0", "vel": 1.0, "bend": 0.0, "ch": 0}, {"t": 60.543, "dur": 0.083, "note": 51, "inst": "celesta_v0_additive_3", "vel": 1.0, "bend": 0.0, "ch": 3}, {"t": 60.626, "dur": 0.083, "note": 53, "inst": "organ_v0_additive_1", "vel": 1.0, "bend": 0.0, "ch": 5}, {"t": 60.709, "dur": 0.083, "note": 46, "inst": "harpsichord_v0_additive_2", "vel": 1.0, "bend": 0.0, "ch": 14}, {"t": 60.792, "dur": 0.083, "note": 53, "inst": "organ_v0_additive_1", "vel": 1.0, "bend": 0.0, "ch": 5}, {"t": 60.875, "dur": 0.083, "note": 58, "inst": "harpsichord_v0_additive_2", "vel": 1.0, "bend": 0.0, "ch": 10}, {"t": 60.957, "dur": 0.083, "note": 63, "inst": "celesta_v0_additive_3", "vel": 1.0, "bend": 0.0, "ch": 15}, {"t": 61.04, "dur": 0.083, "note": 60, "inst": "piano_v0_additive_0", "vel": 1.0, "bend": 0.0, "ch": 12}, {"t": 61.123, "dur": 0.083, "note": 58, "inst": "harpsichord_v0_additive_2", "vel": 1.0, "bend": 0.0, "ch": 10}, {"t": 61.206, "dur": 2.65, "note": 63, "inst": "celesta_v0_additive_3", "vel": 1.0, "bend": 0.0, "ch": 15}, {"t": 61.206, "dur": 0.083, "note": 68, "inst": "piano_v0_additive_0", "vel": 1.0, "bend": 0.0, "ch": 4}, {"t": 61.289, "dur": 0.083, "note": 75, "inst": "celesta_v0_additive_3", "vel": 1.0, "bend": 0.0, "ch": 11}, {"t": 61.371, "dur": 0.083, "note": 70, "inst": "harpsichord_v0_additive_2", "vel": 1.0, "bend": 0.0, "ch": 6}, {"t": 61.454, "dur": 0.083, "note": 70, "inst": "harpsichord_v0_additive_2", "vel": 1.0, "bend": 0.0, "ch": 6}, {"t": 61.537, "dur": 0.083, "note": 70, "inst": "harpsichord_v0_additive_2", "vel": 1.0, "bend": 0.0, "ch": 6}, {"t": 61.62, "dur": 0.083, "note": 75, "inst": "celesta_v0_additive_3", "vel": 1.0, "bend": 0.0, "ch": 11}, {"t": 61.703, "dur": 0.083, "note": 68, "inst": "piano_v0_additive_0", "vel": 1.0, "bend": 0.0, "ch": 4}, {"t": 61.786, "dur": 0.083, "note": 70, "inst": "harpsichord_v0_additive_2", "vel": 1.0, "bend": 0.0, "ch": 6}, {"t": 61.868, "dur": 0.083, "note": 75, "inst": "celesta_v0_additive_3", "vel": 1.0, "bend": 0.0, "ch": 11}, {"t": 61.951, "dur": 0.083, "note": 77, "inst": "organ_v0_additive_1", "vel": 1.0, "bend": 0.0, "ch": 13}, {"t": 62.034, "dur": 0.083, "note": 75, "inst": "celesta_v0_additive_3", "vel": 1.0, "bend": 0.0, "ch": 11}, {"t": 62.117, "dur": 0.083, "note": 75, "inst": "celesta_v0_additive_3", "vel": 1.0, "bend": 0.0, "ch": 11}, {"t": 62.2, "dur": 0.083, "note": 72, "inst": "piano_v0_additive_0", "vel": 1.0, "bend": 0.0, "ch": 8}, {"t": 62.282, "dur": 0.083, "note": 80, "inst": "piano_v0_additive_0", "vel": 1.0, "bend": 0.0, "ch": 0}, {"t": 62.365, "dur": 0.083, "note": 75, "inst": "celesta_v0_additive_3", "vel": 1.0, "bend": 0.0, "ch": 11}, {"t": 62.448, "dur": 0.083, "note": 75, "inst": "celesta_v0_additive_3", "vel": 1.0, "bend": 0.0, "ch": 11}, {"t": 62.531, "dur": 0.083, "note": 75, "inst": "celesta_v0_additive_3", "vel": 1.0, "bend": 0.0, "ch": 11}, {"t": 62.614, "dur": 0.083, "note": 80, "inst": "piano_v0_additive_0", "vel": 1.0, "bend": 0.0, "ch": 0}, {"t": 62.696, "dur": 0.083, "note": 72, "inst": "piano_v0_additive_0", "vel": 1.0, "bend": 0.0, "ch": 8}, {"t": 62.779, "dur": 0.083, "note": 75, "inst": "celesta_v0_additive_3", "vel": 1.0, "bend": 0.0, "ch": 11}, {"t": 62.862, "dur": 0.083, "note": 80, "inst": "piano_v0_additive_0", "vel": 1.0, "bend": 0.0, "ch": 0}, {"t": 62.945, "dur": 0.083, "note": 82, "inst": "harpsichord_v0_additive_2", "vel": 1.0, "bend": 0.0, "ch": 2}, {"t": 63.028, "dur": 0.083, "note": 82, "inst": "harpsichord_v0_additive_2", "vel": 1.0, "bend": 0.0, "ch": 2}, {"t": 63.11, "dur": 0.083, "note": 80, "inst": "piano_v0_additive_0", "vel": 1.0, "bend": 0.0, "ch": 0}, {"t": 63.193, "dur": 0.083, "note": 82, "inst": "harpsichord_v0_additive_2", "vel": 1.0, "bend": 0.0, "ch": 2}, {"t": 63.276, "dur": 0.083, "note": 84, "inst": "piano_v0_additive_0", "vel": 1.0, "bend": 0.0, "ch": 4}, {"t": 63.359, "dur": 0.083, "note": 82, "inst": "harpsichord_v0_additive_2", "vel": 1.0, "bend": 0.0, "ch": 2}, {"t": 63.442, "dur": 0.083, "note": 80, "inst": "piano_v0_additive_0", "vel": 1.0, "bend": 0.0, "ch": 0}, {"t": 63.524, "dur": 0.083, "note": 82, "inst": "harpsichord_v0_additive_2", "vel": 1.0, "bend": 0.0, "ch": 2}, {"t": 63.607, "dur": 0.083, "note": 84, "inst": "piano_v0_additive_0", "vel": 1.0, "bend": 0.0, "ch": 4}, {"t": 63.69, "dur": 0.083, "note": 77, "inst": "organ_v0_additive_1", "vel": 1.0, "bend": 0.0, "ch": 13}, {"t": 63.773, "dur": 0.083, "note": 82, "inst": "harpsichord_v0_additive_2", "vel": 1.0, "bend": 0.0, "ch": 2}, {"t": 63.856, "dur": 0.083, "note": 84, "inst": "piano_v0_additive_0", "vel": 1.0, "bend": 0.0, "ch": 4}, {"t": 63.938, "dur": 0.083, "note": 87, "inst": "celesta_v0_additive_3", "vel": 1.0, "bend": 0.0, "ch": 7}, {"t": 64.021, "dur": 0.083, "note": 87, "inst": "celesta_v0_additive_3", "vel": 1.0, "bend": 0.0, "ch": 7}, {"t": 64.104, "dur": 0.083, "note": 84, "inst": "piano_v0_additive_0", "vel": 1.0, "bend": 0.0, "ch": 4}, {"t": 64.187, "dur": 0.166, "note": 63, "inst": "celesta_v0_additive_3", "vel": 1.0, "bend": 0.0, "ch": 15}, {"t": 64.187, "dur": 0.083, "note": 89, "inst": "organ_v0_additive_1", "vel": 1.0, "bend": 0.0, "ch": 9}, {"t": 64.27, "dur": 0.083, "note": 87, "inst": "celesta_v0_additive_3", "vel": 1.0, "bend": 0.0, "ch": 7}, {"t": 64.353, "dur": 0.166, "note": 65, "inst": "organ_v0_additive_1", "vel": 1.0, "bend": 0.0, "ch": 1}, {"t": 64.353, "dur": 0.083, "note": 82, "inst": "harpsichord_v0_additive_2", "vel": 1.0, "bend": 0.0, "ch": 2}, {"t": 64.435, "dur": 0.083, "note": 82, "inst": "harpsichord_v0_additive_2", "vel": 1.0, "bend": 0.0, "ch": 2}, {"t": 64.518, "dur": 0.166, "note": 63, "inst": "celesta_v0_additive_3", "vel": 1.0, "bend": 0.0, "ch": 15}, {"t": 64.518, "dur": 0.083, "note": 82, "inst": "harpsichord_v0_additive_2", "vel": 1.0, "bend": 0.0, "ch": 2}, {"t": 64.601, "dur": 0.083, "note": 87, "inst": "celesta_v0_additive_3", "vel": 1.0, "bend": 0.0, "ch": 7}, {"t": 64.684, "dur": 0.166, "note": 58, "inst": "harpsichord_v0_additive_2", "vel": 1.0, "bend": 0.0, "ch": 10}, {"t": 64.684, "dur": 0.083, "note": 80, "inst": "piano_v0_additive_0", "vel": 1.0, "bend": 0.0, "ch": 0}, {"t": 64.767, "dur": 0.083, "note": 82, "inst": "harpsichord_v0_additive_2", "vel": 1.0, "bend": 0.0, "ch": 2}, {"t": 64.849, "dur": 0.166, "note": 56, "inst": "piano_v0_additive_0", "vel": 1.0, "bend": 0.0, "ch": 8}, {"t": 64.849, "dur": 0.083, "note": 87, "inst": "celesta_v0_additive_3", "vel": 1.0, "bend": 0.0, "ch": 7}, {"t": 64.932, "dur": 0.083, "note": 89, "inst": "organ_v0_additive_1", "vel": 1.0, "bend": 0.0, "ch": 9}, {"t": 65.015, "dur": 0.166, "note": 58, "inst": "harpsichord_v0_additive_2", "vel": 1.0, "bend": 0.0, "ch": 10}, {"t": 65.015, "dur": 0.083, "note": 87, "inst": "celesta_v0_additive_3", "vel": 1.0, "bend": 0.0, "ch": 7}, {"t": 65.098, "dur": 0.083, "note": 87, "inst": "celesta_v0_additive_3", "vel": 1.0, "bend": 0.0, "ch": 7}, {"t": 65.181, "dur": 0.166, "note": 60, "inst": "piano_v0_additive_0", "vel": 1.0, "bend": 0.0, "ch": 12}, {"t": 65.181, "dur": 0.083, "note": 87, "inst": "celesta_v0_additive_3", "vel": 1.0, "bend": 0.0, "ch": 7}, {"t": 84.039, "dur": 0.208, "note": 73, "inst": "organ_v0_additive_1", "vel": 1.0, "bend": 0.0, "ch": 9}, {"t": 84.143, "dur": 0.104, "note": 56, "inst": "piano_v0_additive_0", "vel": 1.0, "bend": 0.0, "ch": 8}, {"t": 84.247, "dur": 0.104, "note": 51, "inst": "celesta_v0_additive_3", "vel": 1.0, "bend": 0.0, "ch": 3}, {"t": 84.247, "dur": 0.208, "note": 68, "inst": "piano_v0_additive_0", "vel": 1.0, "bend": 0.0, "ch": 4}, {"t": 84.352, "dur": 0.104, "note": 54, "inst": "harpsichord_v0_additive_2", "vel": 1.0, "bend": 0.0, "ch": 6}, {"t": 84.456, "dur": 0.104, "note": 51, "inst": "celesta_v0_additive_3", "vel": 1.0, "bend": 0.0, "ch": 3}, {"t": 84.56, "dur": 0.104, "note": 73, "inst": "organ_v0_additive_1", "vel": 1.0, "bend": 0.0, "ch": 9}, {"t": 84.664, "dur": 0.208, "note": 49, "inst": "organ_v0_additive_1", "vel": 1.0, "bend": 0.0, "ch": 1}, {"t": 84.664, "dur": 0.104, "note": 68, "inst": "piano_v0_additive_0", "vel": 1.0, "bend": 0.0, "ch": 4}, {"t": 84.768, "dur": 0.104, "note": 70, "inst": "harpsichord_v0_additive_2", "vel": 1.0, "bend": 0.0, "ch": 6}, {"t": 84.872, "dur": 0.208, "note": 54, "inst": "harpsichord_v0_additive_2", "vel": 1.0, "bend": 0.0, "ch": 6}, {"t": 84.872, "dur": 0.104, "note": 68, "inst": "piano_v0_additive_0", "vel": 1.0, "bend": 0.0, "ch": 4}, {"t": 84.976, "dur": 0.104, "note": 73, "inst": "organ_v0_additive_1", "vel": 1.0, "bend": 0.0, "ch": 9}, {"t": 85.081, "dur": 0.208, "note": 51, "inst": "celesta_v0_additive_3", "vel": 1.0, "bend": 0.0, "ch": 3}, {"t": 85.081, "dur": 0.104, "note": 66, "inst": "harpsichord_v0_additive_2", "vel": 1.0, "bend": 0.0, "ch": 2}, {"t": 85.185, "dur": 0.104, "note": 68, "inst": "piano_v0_additive_0", "vel": 1.0, "bend": 0.0, "ch": 4}, {"t": 85.289, "dur": 0.208, "note": 51, "inst": "celesta_v0_additive_3", "vel": 1.0, "bend": 0.0, "ch": 3}, {"t": 85.289, "dur": 0.104, "note": 68, "inst": "piano_v0_additive_0", "vel": 1.0, "bend": 0.0, "ch": 4}, {"t": 85.393, "dur": 0.104, "note": 73, "inst": "organ_v0_additive_1", "vel": 1.0, "bend": 0.0, "ch": 9}, {"t": 85.497, "dur": 0.208, "note": 49, "inst": "organ_v0_additive_1", "vel": 1.0, "bend": 0.0, "ch": 1}, {"t": 85.497, "dur": 0.104, "note": 63, "inst": "celesta_v0_additive_3", "vel": 1.0, "bend": 0.0, "ch": 15}, {"t": 85.601, "dur": 0.104, "note": 68, "inst": "piano_v0_additive_0", "vel": 1.0, "bend": 0.0, "ch": 4}, {"t": 85.705, "dur": 0.208, "note": 56, "inst": "piano_v0_additive_0", "vel": 1.0, "bend": 0.0, "ch": 8}, {"t": 85.705, "dur": 0.104, "note": 66, "inst": "harpsichord_v0_additive_2", "vel": 1.0, "bend": 0.0, "ch": 2}, {"t": 85.81, "dur": 0.104, "note": 73, "inst": "organ_v0_additive_1", "vel": 1.0, "bend": 0.0, "ch": 9}, {"t": 85.914, "dur": 0.208, "note": 54, "inst": "harpsichord_v0_additive_2", "vel": 1.0, "bend": 0.0, "ch": 6}, {"t": 85.914, "dur": 0.104, "note": 63, "inst": "celesta_v0_additive_3", "vel": 1.0, "bend": 0.0, "ch": 15}, {"t": 86.018, "dur": 0.104, "note": 66, "inst": "harpsichord_v0_additive_2", "vel": 1.0, "bend": 0.0, "ch": 2}, {"t": 86.122, "dur": 0.104, "note": 56, "inst": "piano_v0_additive_0", "vel": 1.0, "bend": 0.0, "ch": 8}, {"t": 86.122, "dur": 0.104, "note": 63, "inst": "celesta_v0_additive_3", "vel": 1.0, "bend": 0.0, "ch": 15}, {"t": 86.226, "dur": 0.104, "note": 73, "inst": "organ_v0_additive_1", "vel": 1.0, "bend": 0.0, "ch": 9}, {"t": 86.33, "dur": 0.208, "note": 51, "inst": "celesta_v0_additive_3", "vel": 1.0, "bend": 0.0, "ch": 3}, {"t": 86.33, "dur": 0.104, "note": 61, "inst": "organ_v0_additive_1", "vel": 1.0, "bend": 0.0, "ch": 13}, {"t": 86.434, "dur": 0.104, "note": 63, "inst": "celesta_v0_additive_3", "vel": 1.0, "bend": 0.0, "ch": 15}, {"t": 86.539, "dur": 0.208, "note": 54, "inst": "harpsichord_v0_additive_2", "vel": 1.0, "bend": 0.0, "ch": 6}, {"t": 86.539, "dur": 0.104, "note": 63, "inst": "celesta_v0_additive_3", "vel": 1.0, "bend": 0.0, "ch": 15}, {"t": 86.643, "dur": 0.104, "note": 73, "inst": "organ_v0_additive_1", "vel": 1.0, "bend": 0.0, "ch": 9}, {"t": 86.747, "dur": 0.208, "note": 51, "inst": "celesta_v0_additive_3", "vel": 1.0, "bend": 0.0, "ch": 3}, {"t": 86.747, "dur": 0.104, "note": 73, "inst": "organ_v0_additive_1", "vel": 1.0, "bend": 0.0, "ch": 9}, {"t": 86.851, "dur": 0.104, "note": 78, "inst": "harpsichord_v0_additive_2", "vel": 1.0, "bend": 0.0, "ch": 14}, {"t": 86.955, "dur": 0.104, "note": 44, "inst": "piano_v0_additive_0", "vel": 1.0, "bend": 0.0, "ch": 12}, {"t": 86.955, "dur": 0.312, "note": 75, "inst": "celesta_v0_additive_3", "vel": 1.0, "bend": 0.0, "ch": 11}, {"t": 87.059, "dur": 0.104, "note": 56, "inst": "piano_v0_additive_0", "vel": 1.0, "bend": 0.0, "ch": 8}, {"t": 87.164, "dur": 0.104, "note": 51, "inst": "celesta_v0_additive_3", "vel": 1.0, "bend": 0.0, "ch": 3}, {"t": 87.268, "dur": 0.104, "note": 54, "inst": "harpsichord_v0_additive_2", "vel": 1.0, "bend": 0.0, "ch": 6}, {"t": 87.268, "dur": 0.104, "note": 73, "inst": "organ_v0_additive_1", "vel": 1.0, "bend": 0.0, "ch": 9}, {"t": 87.372, "dur": 0.104, "note": 51, "inst": "celesta_v0_additive_3", "vel": 1.0, "bend": 0.0, "ch": 3}, {"t": 87.372, "dur": 0.417, "note": 73, "inst": "organ_v0_additive_1", "vel": 1.0, "bend": 0.0, "ch": 9}, {"t": 87.476, "dur": 0.104, "note": 56, "inst": "piano_v0_additive_0", "vel": 1.0, "bend": 0.0, "ch": 8}, {"t": 87.58, "dur": 0.104, "note": 49, "inst": "organ_v0_additive_1", "vel": 1.0, "bend": 0.0, "ch": 1}, {"t": 87.684, "dur": 0.104, "note": 51, "inst": "celesta_v0_additive_3", "vel": 1.0, "bend": 0.0, "ch": 3}, {"t": 87.788, "dur": 0.104, "note": 49, "inst": "organ_v0_additive_1", "vel": 1.0, "bend": 0.0, "ch": 1}, {"t": 87.893, "dur": 0.104, "note": 75, "inst": "celesta_v0_additive_3", "vel": 1.0, "bend": 0.0, "ch": 11}, {"t": 87.997, "dur": 0.208, "note": 51, "inst": "celesta_v0_additive_3", "vel": 1.0, "bend": 0.0, "ch": 3}, {"t": 87.997, "dur": 0.104, "note": 68, "inst": "piano_v0_additive_0", "vel": 1.0, "bend": 0.0, "ch": 4}, {"t": 88.101, "dur": 0.104, "note": 70, "inst": "harpsichord_v0_additive_2", "vel": 1.0, "bend": 0.0, "ch": 6}, {"t": 88.205, "dur": 0.104, "note": 54, "inst": "harpsichord_v0_additive_2", "vel": 1.0, "bend": 0.0, "ch": 6}, {"t": 88.205, "dur": 0.312, "note": 70, "inst": "harpsichord_v0_additive_2", "vel": 1.0, "bend": 0.0, "ch": 6}, {"t": 88.309, "dur": 0.104, "note": 66, "inst": "harpsichord_v0_additive_2", "vel": 1.0, "bend": 0.0, "ch": 2}, {"t": 88.413, "dur": 0.104, "note": 61, "inst": "organ_v0_additive_1", "vel": 1.0, "bend": 0.0, "ch": 13}, {"t": 88.517, "dur": 0.104, "note": 63, "inst": "celesta_v0_additive_3", "vel": 1.0, "bend": 0.0, "ch": 15}, {"t": 88.517, "dur": 0.104, "note": 73, "inst": "organ_v0_additive_1", "vel": 1.0, "bend": 0.0, "ch": 9}, {"t": 88.622, "dur": 0.208, "note": 63, "inst": "celesta_v0_additive_3", "vel": 1.0, "bend": 0.0, "ch": 15}, {"t": 88.622, "dur": 0.104, "note": 66, "inst": "harpsichord_v0_additive_2", "vel": 1.0, "bend": 0.0, "ch": 2}, {"t": 88.726, "dur": 0.104, "note": 78, "inst": "harpsichord_v0_additive_2", "vel": 1.0, "bend": 0.0, "ch": 14}, {"t": 88.83, "dur": 0.208, "note": 58, "inst": "harpsichord_v0_additive_2", "vel": 1.0, "bend": 0.0, "ch": 10}, {"t": 88.83, "dur": 0.104, "note": 73, "inst": "organ_v0_additive_1", "vel": 1.0, "bend": 0.0, "ch": 9}, {"t": 88.934, "dur": 0.104, "note": 75, "inst": "celesta_v0_additive_3", "vel": 1.0, "bend": 0.0, "ch": 11}, {"t": 89.038, "dur": 0.417, "note": 75, "inst": "celesta_v0_additive_3", "vel": 1.0, "bend": 0.0, "ch": 11}, {"t": 89.142, "dur": 0.104, "note": 58, "inst": "harpsichord_v0_additive_2", "vel": 1.0, "bend": 0.0, "ch": 10}, {"t": 89.246, "dur": 0.104, "note": 54, "inst": "harpsichord_v0_additive_2", "vel": 1.0, "bend": 0.0, "ch": 6}, {"t": 89.351, "dur": 0.104, "note": 58, "inst": "harpsichord_v0_additive_2", "vel": 1.0, "bend": 0.0, "ch": 10}, {"t": 89.455, "dur": 0.104, "note": 56, "inst": "piano_v0_additive_0", "vel": 1.0, "bend": 0.0, "ch": 8}, {"t": 89.559, "dur": 0.104, "note": 70, "inst": "harpsichord_v0_additive_2", "vel": 1.0, "bend": 0.0, "ch": 6}, {"t": 89.663, "dur": 0.208, "note": 51, "inst": "celesta_v0_additive_3", "vel": 1.0, "bend": 0.0, "ch": 3}, {"t": 89.663, "dur": 0.104, "note": 66, "inst": "harpsichord_v0_additive_2", "vel": 1.0, "bend": 0.0, "ch": 2}, {"t": 89.767, "dur": 0.104, "note": 70, "inst": "harpsichord_v0_additive_2", "vel": 1.0, "bend": 0.0, "ch": 6}, {"t": 89.871, "dur": 0.104, "note": 51, "inst": "celesta_v0_additive_3", "vel": 1.0, "bend": 0.0, "ch": 3}, {"t": 89.871, "dur": 0.312, "note": 68, "inst": "piano_v0_additive_0", "vel": 1.0, "bend": 0.0, "ch": 4}, {"t": 89.976, "dur": 0.104, "note": 63, "inst": "celesta_v0_additive_3", "vel": 1.0, "bend": 0.0, "ch": 15}, {"t": 90.08, "dur": 0.104, "note": 58, "inst": "harpsichord_v0_additive_2", "vel": 1.0, "bend": 0.0, "ch": 10}, {"t": 90.184, "dur": 0.104, "note": 63, "inst": "celesta_v0_additive_3", "vel": 1.0, "bend": 0.0, "ch": 15}, {"t": 90.184, "dur": 0.104, "note": 70, "inst": "harpsichord_v0_additive_2", "vel": 1.0, "bend": 0.0, "ch": 6}, {"t": 90.288, "dur": 0.208, "note": 61, "inst": "organ_v0_additive_1", "vel": 1.0, "bend": 0.0, "ch": 13}, {"t": 90.288, "dur": 0.104, "note": 63, "inst": "celesta_v0_additive_3", "vel": 1.0, "bend": 0.0, "ch": 15}, {"t": 90.392, "dur": 0.104, "note": 75, "inst": "celesta_v0_additive_3", "vel": 1.0, "bend": 0.0, "ch": 11}, {"t": 90.496, "dur": 0.208, "note": 56, "inst": "piano_v0_additive_0", "vel": 1.0, "bend": 0.0, "ch": 8}, {"t": 90.496, "dur": 0.104, "note": 70, "inst": "harpsichord_v0_additive_2", "vel": 1.0, "bend": 0.0, "ch": 6}, {"t": 90.6, "dur": 0.104, "note": 75, "inst": "celesta_v0_additive_3", "vel": 1.0, "bend": 0.0, "ch": 11}, {"t": 90.705, "dur": 0.417, "note": 73, "inst": "organ_v0_additive_1", "vel": 1.0, "bend": 0.0, "ch": 9}, {"t": 90.809, "dur": 0.104, "note": 58, "inst": "harpsichord_v0_additive_2", "vel": 1.0, "bend": 0.0, "ch": 10}, {"t": 90.913, "dur": 0.104, "note": 54, "inst": "harpsichord_v0_additive_2", "vel": 1.0, "bend": 0.0, "ch": 6}, {"t": 91.017, "dur": 0.104, "note": 56, "inst": "piano_v0_additive_0", "vel": 1.0, "bend": 0.0, "ch": 8}, {"t": 91.121, "dur": 0.104, "note": 54, "inst": "harpsichord_v0_additive_2", "vel": 1.0, "bend": 0.0, "ch": 6}, {"t": 91.225, "dur": 0.104, "note": 70, "inst": "harpsichord_v0_additive_2", "vel": 1.0, "bend": 0.0, "ch": 6}, {"t": 91.329, "dur": 0.208, "note": 39, "inst": "celesta_v0_additive_3", "vel": 1.0, "bend": 0.0, "ch": 7}, {"t": 91.329, "dur": 0.104, "note": 66, "inst": "harpsichord_v0_additive_2", "vel": 1.0, "bend": 0.0, "ch": 2}, {"t": 91.434, "dur": 0.104, "note": 68, "inst": "piano_v0_additive_0", "vel": 1.0, "bend": 0.0, "ch": 4}, {"t": 91.538, "dur": 0.104, "note": 51, "inst": "celesta_v0_additive_3", "vel": 1.0, "bend": 0.0, "ch": 3}, {"t": 91.538, "dur": 0.312, "note": 66, "inst": "harpsichord_v0_additive_2", "vel": 1.0, "bend": 0.0, "ch": 2}, {"t": 91.642, "dur": 0.104, "note": 63, "inst": "celesta_v0_additive_3", "vel": 1.0, "bend": 0.0, "ch": 15}, {"t": 91.746, "dur": 0.104, "note": 58, "inst": "harpsichord_v0_additive_2", "vel": 1.0, "bend": 0.0, "ch": 10}, {"t": 91.85, "dur": 0.104, "note": 61, "inst": "organ_v0_additive_1", "vel": 1.0, "bend": 0.0, "ch": 13}, {"t": 91.85, "dur": 0.104, "note": 70, "inst": "harpsichord_v0_additive_2", "vel": 1.0, "bend": 0.0, "ch": 6}, {"t": 91.954, "dur": 0.208, "note": 58, "inst": "harpsichord_v0_additive_2", "vel": 1.0, "bend": 0.0, "ch": 10}, {"t": 91.954, "dur": 0.104, "note": 63, "inst": "celesta_v0_additive_3", "vel": 1.0, "bend": 0.0, "ch": 15}, {"t": 92.058, "dur": 0.104, "note": 75, "inst": "celesta_v0_additive_3", "vel": 1.0, "bend": 0.0, "ch": 11}, {"t": 92.163, "dur": 0.208, "note": 54, "inst": "harpsichord_v0_additive_2", "vel": 1.0, "bend": 0.0, "ch": 6}, {"t": 92.163, "dur": 0.104, "note": 70, "inst": "harpsichord_v0_additive_2", "vel": 1.0, "bend": 0.0, "ch": 6}, {"t": 92.267, "dur": 0.104, "note": 73, "inst": "organ_v0_additive_1", "vel": 1.0, "bend": 0.0, "ch": 9}, {"t": 92.371, "dur": 0.417, "note": 70, "inst": "harpsichord_v0_additive_2", "vel": 1.0, "bend": 0.0, "ch": 6}, {"t": 92.475, "dur": 0.104, "note": 56, "inst": "piano_v0_additive_0", "vel": 1.0, "bend": 0.0, "ch": 8}, {"t": 92.579, "dur": 0.104, "note": 51, "inst": "celesta_v0_additive_3", "vel": 1.0, "bend": 0.0, "ch": 3}, {"t": 92.683, "dur": 0.104, "note": 54, "inst": "harpsichord_v0_additive_2", "vel": 1.0, "bend": 0.0, "ch": 6}, {"t": 92.788, "dur": 0.104, "note": 51, "inst": "celesta_v0_additive_3", "vel": 1.0, "bend": 0.0, "ch": 3}, {"t": 92.892, "dur": 0.104, "note": 68, "inst": "piano_v0_additive_0", "vel": 1.0, "bend": 0.0, "ch": 4}, {"t": 92.996, "dur": 0.208, "note": 49, "inst": "organ_v0_additive_1", "vel": 1.0, "bend": 0.0, "ch": 1}, {"t": 92.996, "dur": 0.104, "note": 63, "inst": "celesta_v0_additive_3", "vel": 1.0, "bend": 0.0, "ch": 15}, {"t": 93.1, "dur": 0.104, "note": 66, "inst": "harpsichord_v0_additive_2", "vel": 1.0, "bend": 0.0, "ch": 2}, {"t": 93.204, "dur": 0.208, "note": 49, "inst": "organ_v0_additive_1", "vel": 1.0, "bend": 0.0, "ch": 1}, {"t": 93.204, "dur": 0.104, "note": 63, "inst": "celesta_v0_additive_3", "vel": 1.0, "bend": 0.0, "ch": 15}, {"t": 93.308, "dur": 0.104, "note": 68, "inst": "piano_v0_additive_0", "vel": 1.0, "bend": 0.0, "ch": 4}, {"t": 93.412, "dur": 0.208, "note": 46, "inst": "harpsichord_v0_additive_2", "vel": 1.0, "bend": 0.0, "ch": 14}, {"t": 93.412, "dur": 0.208, "note": 51, "inst": "celesta_v0_additive_3", "vel": 1.0, "bend": 0.0, "ch": 3}, {"t": 93.412, "dur": 0.104, "note": 61, "inst": "organ_v0_additive_1", "vel": 1.0, "bend": 0.0, "ch": 13}, {"t": 93.517, "dur": 0.104, "note": 70, "inst": "harpsichord_v0_additive_2", "vel": 1.0, "bend": 0.0, "ch": 6}, {"t": 93.621, "dur": 0.208, "note": 49, "inst": "organ_v0_additive_1", "vel": 1.0, "bend": 0.0, "ch": 1}, {"t": 93.621, "dur": 0.104, "note": 70, "inst": "harpsichord_v0_additive_2", "vel": 1.0, "bend": 0.0, "ch": 6}, {"t": 93.725, "dur": 0.104, "note": 73, "inst": "organ_v0_additive_1", "vel": 1.0, "bend": 0.0, "ch": 9}, {"t": 93.829, "dur": 0.208, "note": 46, "inst": "harpsichord_v0_additive_2", "vel": 1.0, "bend": 0.0, "ch": 14}, {"t": 93.829, "dur": 0.104, "note": 75, "inst": "celesta_v0_additive_3", "vel": 1.0, "bend": 0.0, "ch": 11}, {"t": 93.933, "dur": 0.104, "note": 68, "inst": "piano_v0_additive_0", "vel": 1.0, "bend": 0.0, "ch": 4}, {"t": 126.189, "dur": 0.362, "note": 60, "inst": "piano_v0_additive_0", "vel": 0.709, "bend": 0.0, "ch": 12}, {"t": 126.551, "dur": 0.362, "note": 60, "inst": "piano_v0_additive_0", "vel": 0.709, "bend": 0.0, "ch": 12}, {"t": 126.913, "dur": 0.362, "note": 60, "inst": "piano_v0_additive_0", "vel": 0.709, "bend": 0.0, "ch": 12}, {"t": 127.274, "dur": 0.362, "note": 55, "inst": "celesta_v0_additive_3", "vel": 0.709, "bend": 0.0, "ch": 7}, {"t": 127.636, "dur": 0.362, "note": 41, "inst": "organ_v0_additive_1", "vel": 0.709, "bend": 0.0, "ch": 9}, {"t": 127.998, "dur": 2.171, "note": 29, "inst": "organ_v0_additive_1", "vel": 0.709, "bend": 0.0, "ch": 13}, {"t": 127.998, "dur": 2.171, "note": 33, "inst": "organ_v0_additive_1", "vel": 0.709, "bend": 0.0, "ch": 1}, {"t": 127.998, "dur": 2.171, "note": 36, "inst": "piano_v0_additive_0", "vel": 0.709, "bend": 0.0, "ch": 4}, {"t": 127.998, "dur": 0.362, "note": 53, "inst": "organ_v0_additive_1", "vel": 0.709, "bend": 0.0, "ch": 5}, {"t": 128.36, "dur": 0.362, "note": 55, "inst": "celesta_v0_additive_3", "vel": 0.709, "bend": 0.0, "ch": 7}, {"t": 128.722, "dur": 0.362, "note": 53, "inst": "organ_v0_additive_1", "vel": 0.709, "bend": 0.0, "ch": 5}, {"t": 129.084, "dur": 0.724, "note": 57, "inst": "organ_v0_additive_1", "vel": 0.709, "bend": 0.0, "ch": 9}, {"t": 129.808, "dur": 0.362, "note": 60, "inst": "piano_v0_additive_0", "vel": 0.709, "bend": 0.0, "ch": 12}, {"t": 130.17, "dur": 2.171, "note": 29, "inst": "organ_v0_additive_1", "vel": 0.709, "bend": 0.0, "ch": 13}, {"t": 130.17, "dur": 2.171, "note": 33, "inst": "organ_v0_additive_1", "vel": 0.709, "bend": 0.0, "ch": 1}, {"t": 130.17, "dur": 2.171, "note": 36, "inst": "piano_v0_additive_0", "vel": 0.709, "bend": 0.0, "ch": 4}, {"t": 130.17, "dur": 0.724, "note": 60, "inst": "piano_v0_additive_0", "vel": 0.709, "bend": 0.0, "ch": 12}, {"t": 130.894, "dur": 0.362, "note": 60, "inst": "piano_v0_additive_0", "vel": 0.709, "bend": 0.0, "ch": 12}, {"t": 131.256, "dur": 0.362, "note": 60, "inst": "piano_v0_additive_0", "vel": 0.709, "bend": 0.0, "ch": 12}, {"t": 131.617, "dur": 0.362, "note": 62, "inst": "harpsichord_v0_additive_2", "vel": 0.709, "bend": 0.0, "ch": 14}, {"t": 131.979, "dur": 0.362, "note": 53, "inst": "organ_v0_additive_1", "vel": 0.709, "bend": 0.0, "ch": 5}, {"t": 132.341, "dur": 1.086, "note": 33, "inst": "organ_v0_additive_1", "vel": 0.709, "bend": 0.0, "ch": 1}, {"t": 132.341, "dur": 1.086, "note": 36, "inst": "piano_v0_additive_0", "vel": 0.709, "bend": 0.0, "ch": 4}, {"t": 132.341, "dur": 1.086, "note": 29, "inst": "organ_v0_additive_1", "vel": 0.709, "bend": 0.0, "ch": 13}, {"t": 132.341, "dur": 0.362, "note": 65, "inst": "organ_v0_additive_1", "vel": 0.709, "bend": 0.0, "ch": 1}, {"t": 132.703, "dur": 0.362, "note": 53, "inst": "organ_v0_additive_1", "vel": 0.709, "bend": 0.0, "ch": 5}, {"t": 133.065, "dur": 0.362, "note": 60, "inst": "piano_v0_additive_0", "vel": 0.709, "bend": 0.0, "ch": 12}, {"t": 133.427, "dur": 1.086, "note": 36, "inst": "piano_v0_additive_0", "vel": 0.709, "bend": 0.0, "ch": 4}, {"t": 133.427, "dur": 1.086, "note": 38, "inst": "harpsichord_v0_additive_2", "vel": 0.709, "bend": 0.0, "ch": 6}, {"t": 133.427, "dur": 1.086, "note": 41, "inst": "organ_v0_additive_1", "vel": 0.709, "bend": 0.0, "ch": 9}, {"t": 133.427, "dur": 0.362, "note": 62, "inst": "harpsichord_v0_additive_2", "vel": 0.709, "bend": 0.0, "ch": 14}, {"t": 133.789, "dur": 0.362, "note": 60, "inst": "piano_v0_additive_0", "vel": 0.709, "bend": 0.0, "ch": 12}, {"t": 134.151, "dur": 0.362, "note": 60, "inst": "piano_v0_additive_0", "vel": 0.709, "bend": 0.0, "ch": 12}, {"t": 134.513, "dur": 2.171, "note": 29, "inst": "organ_v0_additive_1", "vel": 0.709, "bend": 0.0, "ch": 13}, {"t": 134.513, "dur": 2.171, "note": 33, "inst": "organ_v0_additive_1", "vel": 0.709, "bend": 0.0, "ch": 1}, {"t": 134.513, "dur": 2.171, "note": 36, "inst": "piano_v0_additive_0", "vel": 0.709, "bend": 0.0, "ch": 4}, {"t": 134.513, "dur": 0.362, "note": 60, "inst": "piano_v0_additive_0", "vel": 0.709, "bend": 0.0, "ch": 12}, {"t": 134.875, "dur": 0.362, "note": 57, "inst": "organ_v0_additive_1", "vel": 0.709, "bend": 0.0, "ch": 9}, {"t": 135.237, "dur": 0.362, "note": 53, "inst": "organ_v0_additive_1", "vel": 0.709, "bend": 0.0, "ch": 5}, {"t": 135.598, "dur": 0.724, "note": 53, "inst": "organ_v0_additive_1", "vel": 0.709, "bend": 0.0, "ch": 5}, {"t": 136.322, "dur": 0.362, "note": 53, "inst": "organ_v0_additive_1", "vel": 0.709, "bend": 0.0, "ch": 5}, {"t": 136.684, "dur": 2.171, "note": 29, "inst": "organ_v0_additive_1", "vel": 0.709, "bend": 0.0, "ch": 13}, {"t": 136.684, "dur": 2.171, "note": 33, "inst": "organ_v0_additive_1", "vel": 0.709, "bend": 0.0, "ch": 1}, {"t": 136.684, "dur": 2.171, "note": 36, "inst": "piano_v0_additive_0", "vel": 0.709, "bend": 0.0, "ch": 4}, {"t": 136.684, "dur": 0.724, "note": 65, "inst": "organ_v0_additive_1", "vel": 0.709, "bend": 0.0, "ch": 1}, {"t": 137.408, "dur": 0.362, "note": 67, "inst": "celesta_v0_additive_3", "vel": 0.709, "bend": 0.0, "ch": 3}, {"t": 137.77, "dur": 0.362, "note": 69, "inst": "organ_v0_additive_1", "vel": 0.709, "bend": 0.0, "ch": 5}, {"t": 138.132, "dur": 0.362, "note": 67, "inst": "celesta_v0_additive_3", "vel": 0.709, "bend": 0.0, "ch": 3}, {"t": 138.494, "dur": 0.362, "note": 65, "inst": "organ_v0_additive_1", "vel": 0.709, "bend": 0.0, "ch": 1}, {"t": 138.856, "dur": 2.171, "note": 24, "inst": "piano_v0_additive_0", "vel": 0.709, "bend": 0.0, "ch": 8}, {"t": 138.856, "dur": 2.171, "note": 31, "inst": "celesta_v0_additive_3", "vel": 0.709, "bend": 0.0, "ch": 15}, {"t": 138.856, "dur": 2.171, "note": 36, "inst": "piano_v0_additive_0", "vel": 0.709, "bend": 0.0, "ch": 4}, {"t": 138.856, "dur": 0.362, "note": 67, "inst": "celesta_v0_additive_3", "vel": 0.709, "bend": 0.0, "ch": 3}, {"t": 139.218, "dur": 0.362, "note": 72, "inst": "piano_v0_additive_0", "vel": 0.709, "bend": 0.0, "ch": 8}, {"t": 139.58, "dur": 0.362, "note": 69, "inst": "organ_v0_additive_1", "vel": 0.709, "bend": 0.0, "ch": 5}, {"t": 139.941, "dur": 0.362, "note": 67, "inst": "celesta_v0_additive_3", "vel": 0.709, "bend": 0.0, "ch": 3}, {"t": 140.303, "dur": 0.362, "note": 65, "inst": "organ_v0_additive_1", "vel": 0.709, "bend": 0.0, "ch": 1}, {"t": 140.665, "dur": 0.362, "note": 53, "inst": "organ_v0_additive_1", "vel": 0.709, "bend": 0.0, "ch": 5}, {"t": 141.027, "dur": 2.171, "note": 29, "inst": "organ_v0_additive_1", "vel": 0.709, "bend": 0.0, "ch": 13}, {"t": 141.027, "dur": 2.171, "note": 33, "inst": "organ_v0_additive_1", "vel": 0.709, "bend": 0.0, "ch": 1}, {"t": 141.027, "dur": 2.171, "note": 36, "inst": "piano_v0_additive_0", "vel": 0.709, "bend": 0.0, "ch": 4}, {"t": 141.027, "dur": 0.724, "note": 65, "inst": "organ_v0_additive_1", "vel": 0.709, "bend": 0.0, "ch": 1}, {"t": 141.751, "dur": 0.362, "note": 67, "inst": "celesta_v0_additive_3", "vel": 0.709, "bend": 0.0, "ch": 3}, {"t": 142.113, "dur": 0.362, "note": 69, "inst": "organ_v0_additive_1", "vel": 0.709, "bend": 0.0, "ch": 5}, {"t": 142.475, "dur": 0.362, "note": 67, "inst": "celesta_v0_additive_3", "vel": 0.709, "bend": 0.0, "ch": 3}, {"t": 142.837, "dur": 0.362, "note": 65, "inst": "organ_v0_additive_1", "vel": 0.709, "bend": 0.0, "ch": 1}, {"t": 143.199, "dur": 2.171, "note": 36, "inst": "piano_v0_additive_0", "vel": 0.709, "bend": 0.0, "ch": 4}, {"t": 143.199, "dur": 2.171, "note": 29, "inst": "organ_v0_additive_1", "vel": 0.709, "bend": 0.0, "ch": 13}, {"t": 143.199, "dur": 2.171, "note": 43, "inst": "celesta_v0_additive_3", "vel": 0.709, "bend": 0.0, "ch": 11}, {"t": 143.199, "dur": 0.362, "note": 67, "inst": "celesta_v0_additive_3", "vel": 0.709, "bend": 0.0, "ch": 3}, {"t": 143.561, "dur": 0.362, "note": 53, "inst": "organ_v0_additive_1", "vel": 0.709, "bend": 0.0, "ch": 5}, {"t": 143.923, "dur": 0.362, "note": 60, "inst": "piano_v0_additive_0", "vel": 0.709, "bend": 0.0, "ch": 12}, {"t": 144.284, "dur": 0.724, "note": 60, "inst": "piano_v0_additive_0", "vel": 0.709, "bend": 0.0, "ch": 12}, {"t": 145.008, "dur": 0.362, "note": 53, "inst": "organ_v0_additive_1", "vel": 0.709, "bend": 0.0, "ch": 5}, {"t": 145.37, "dur": 2.171, "note": 29, "inst": "organ_v0_additive_1", "vel": 0.709, "bend": 0.0, "ch": 13}, {"t": 145.37, "dur": 2.171, "note": 33, "inst": "organ_v0_additive_1", "vel": 0.709, "bend": 0.0, "ch": 1}, {"t": 145.37, "dur": 2.171, "note": 36, "inst": "piano_v0_additive_0", "vel": 0.709, "bend": 0.0, "ch": 4}, {"t": 145.37, "dur": 0.724, "note": 65, "inst": "organ_v0_additive_1", "vel": 0.709, "bend": 0.0, "ch": 1}, {"t": 146.094, "dur": 0.362, "note": 67, "inst": "celesta_v0_additive_3", "vel": 0.709, "bend": 0.0, "ch": 3}, {"t": 146.456, "dur": 0.362, "note": 69, "inst": "organ_v0_additive_1", "vel": 0.709, "bend": 0.0, "ch": 5}, {"t": 146.818, "dur": 0.362, "note": 67, "inst": "celesta_v0_additive_3", "vel": 0.709, "bend": 0.0, "ch": 3}, {"t": 147.18, "dur": 0.362, "note": 65, "inst": "organ_v0_additive_1", "vel": 0.709, "bend": 0.0, "ch": 1}, {"t": 147.542, "dur": 2.171, "note": 24, "inst": "piano_v0_additive_0", "vel": 0.709, "bend": 0.0, "ch": 8}, {"t": 147.542, "dur": 2.171, "note": 31, "inst": "celesta_v0_additive_3", "vel": 0.709, "bend": 0.0, "ch": 15}, {"t": 147.542, "dur": 2.171, "note": 36, "inst": "piano_v0_additive_0", "vel": 0.709, "bend": 0.0, "ch": 4}, {"t": 147.542, "dur": 0.362, "note": 67, "inst": "celesta_v0_additive_3", "vel": 0.709, "bend": 0.0, "ch": 3}, {"t": 147.904, "dur": 0.362, "note": 72, "inst": "piano_v0_additive_0", "vel": 0.709, "bend": 0.0, "ch": 8}, {"t": 148.265, "dur": 0.362, "note": 69, "inst": "organ_v0_additive_1", "vel": 0.709, "bend": 0.0, "ch": 5}, {"t": 148.627, "dur": 0.362, "note": 67, "inst": "celesta_v0_additive_3", "vel": 0.709, "bend": 0.0, "ch": 3}, {"t": 148.989, "dur": 0.362, "note": 65, "inst": "organ_v0_additive_1", "vel": 0.709, "bend": 0.0, "ch": 1}, {"t": 149.351, "dur": 0.362, "note": 53, "inst": "organ_v0_additive_1", "vel": 0.709, "bend": 0.0, "ch": 5}, {"t": 149.713, "dur": 1.086, "note": 33, "inst": "organ_v0_additive_1", "vel": 0.709, "bend": 0.0, "ch": 1}, {"t": 149.713, "dur": 1.086, "note": 36, "inst": "piano_v0_additive_0", "vel": 0.709, "bend": 0.0, "ch": 4}, {"t": 149.713, "dur": 1.086, "note": 29, "inst": "organ_v0_additive_1", "vel": 0.709, "bend": 0.0, "ch": 13}, {"t": 149.713, "dur": 0.362, "note": 65, "inst": "organ_v0_additive_1", "vel": 0.709, "bend": 0.0, "ch": 1}, {"t": 150.075, "dur": 0.362, "note": 53, "inst": "organ_v0_additive_1", "vel": 0.709, "bend": 0.0, "ch": 5}, {"t": 150.437, "dur": 0.362, "note": 60, "inst": "piano_v0_additive_0", "vel": 0.709, "bend": 0.0, "ch": 12}, {"t": 150.799, "dur": 1.086, "note": 36, "inst": "piano_v0_additive_0", "vel": 0.709, "bend": 0.0, "ch": 4}, {"t": 150.799, "dur": 1.086, "note": 38, "inst": "harpsichord_v0_additive_2", "vel": 0.709, "bend": 0.0, "ch": 6}, {"t": 150.799, "dur": 1.086, "note": 41, "inst": "organ_v0_additive_1", "vel": 0.709, "bend": 0.0, "ch": 9}, {"t": 150.799, "dur": 0.362, "note": 62, "inst": "harpsichord_v0_additive_2", "vel": 0.709, "bend": 0.0, "ch": 14}, {"t": 151.161, "dur": 0.362, "note": 60, "inst": "piano_v0_additive_0", "vel": 0.709, "bend": 0.0, "ch": 12}, {"t": 151.523, "dur": 0.362, "note": 60, "inst": "piano_v0_additive_0", "vel": 0.709, "bend": 0.0, "ch": 12}, {"t": 151.885, "dur": 2.171, "note": 29, "inst": "organ_v0_additive_1", "vel": 0.709, "bend": 0.0, "ch": 13}, {"t": 151.885, "dur": 2.171, "note": 33, "inst": "organ_v0_additive_1", "vel": 0.709, "bend": 0.0, "ch": 1}, {"t": 151.885, "dur": 2.171, "note": 36, "inst": "piano_v0_additive_0", "vel": 0.709, "bend": 0.0, "ch": 4}, {"t": 151.885, "dur": 0.362, "note": 60, "inst": "piano_v0_additive_0", "vel": 0.709, "bend": 0.0, "ch": 12}, {"t": 152.247, "dur": 0.362, "note": 57, "inst": "organ_v0_additive_1", "vel": 0.709, "bend": 0.0, "ch": 9}, {"t": 152.608, "dur": 0.362, "note": 53, "inst": "organ_v0_additive_1", "vel": 0.709, "bend": 0.0, "ch": 5}, {"t": 152.97, "dur": 0.724, "note": 53, "inst": "organ_v0_additive_1", "vel": 0.709, "bend": 0.0, "ch": 5}, {"t": 153.694, "dur": 0.362, "note": 53, "inst": "organ_v0_additive_1", "vel": 0.709, "bend": 0.0, "ch": 5}, {"t": 154.056, "dur": 2.171, "note": 29, "inst": "organ_v0_additive_1", "vel": 0.709, "bend": 0.0, "ch": 13}, {"t": 154.056, "dur": 2.171, "note": 33, "inst": "organ_v0_additive_1", "vel": 0.709, "bend": 0.0, "ch": 1}, {"t": 154.056, "dur": 2.171, "note": 36, "inst": "piano_v0_additive_0", "vel": 0.709, "bend": 0.0, "ch": 4}, {"t": 154.056, "dur": 0.724, "note": 65, "inst": "organ_v0_additive_1", "vel": 0.709, "bend": 0.0, "ch": 1}, {"t": 154.78, "dur": 0.362, "note": 67, "inst": "celesta_v0_additive_3", "vel": 0.709, "bend": 0.0, "ch": 3}, {"t": 155.142, "dur": 0.362, "note": 69, "inst": "organ_v0_additive_1", "vel": 0.709, "bend": 0.0, "ch": 5}, {"t": 155.504, "dur": 0.362, "note": 67, "inst": "celesta_v0_additive_3", "vel": 0.709, "bend": 0.0, "ch": 3}, {"t": 155.866, "dur": 0.362, "note": 65, "inst": "organ_v0_additive_1", "vel": 0.709, "bend": 0.0, "ch": 1}, {"t": 156.228, "dur": 2.171, "note": 24, "inst": "piano_v0_additive_0", "vel": 0.709, "bend": 0.0, "ch": 8}, {"t": 156.228, "dur": 2.171, "note": 31, "inst": "celesta_v0_additive_3", "vel": 0.709, "bend": 0.0, "ch": 15}, {"t": 156.228, "dur": 2.171, "note": 36, "inst": "piano_v0_additive_0", "vel": 0.709, "bend": 0.0, "ch": 4}, {"t": 156.228, "dur": 0.362, "note": 67, "inst": "celesta_v0_additive_3", "vel": 0.709, "bend": 0.0, "ch": 3}, {"t": 156.59, "dur": 0.362, "note": 72, "inst": "piano_v0_additive_0", "vel": 0.709, "bend": 0.0, "ch": 8}, {"t": 156.951, "dur": 0.362, "note": 69, "inst": "organ_v0_additive_1", "vel": 0.709, "bend": 0.0, "ch": 5}, {"t": 157.313, "dur": 0.362, "note": 67, "inst": "celesta_v0_additive_3", "vel": 0.709, "bend": 0.0, "ch": 3}, {"t": 157.675, "dur": 0.362, "note": 65, "inst": "organ_v0_additive_1", "vel": 0.709, "bend": 0.0, "ch": 1}, {"t": 160.0, "dur": 5.66, "note": 0, "inst": "voice_vocoder", "vel": 0.8, "bend": 0.0, "ch": 63, "text": "Restore HAS_NUMPY to its original value.. for i in"}, {"t": 160.0, "dur": 1.415, "note": 56, "inst": "voice_vocoder", "vel": 0.65, "bend": 0.0, "ch": 63}, {"t": 161.415, "dur": 1.415, "note": 53, "inst": "voice_vocoder", "vel": 0.65, "bend": -3.0, "ch": 63}, {"t": 162.83, "dur": 1.415, "note": 50, "inst": "voice_vocoder", "vel": 0.65, "bend": -3.0, "ch": 63}, {"t": 164.245, "dur": 1.415, "note": 56, "inst": "voice_vocoder", "vel": 0.65, "bend": 6.0, "ch": 63}, {"t": 168.01, "dur": 0.458, "note": 76, "inst": "piano_v0_additive_0", "vel": 0.787, "bend": 0.0, "ch": 12}, {"t": 168.468, "dur": 0.917, "note": 59, "inst": "celesta_v0_additive_3", "vel": 0.787, "bend": 0.0, "ch": 11}, {"t": 168.468, "dur": 0.458, "note": 76, "inst": "piano_v0_additive_0", "vel": 0.787, "bend": 0.0, "ch": 12}, {"t": 168.926, "dur": 0.458, "note": 76, "inst": "piano_v0_additive_0", "vel": 0.787, "bend": 0.0, "ch": 12}, {"t": 169.384, "dur": 0.917, "note": 52, "inst": "piano_v0_additive_0", "vel": 0.787, "bend": 0.0, "ch": 4}, {"t": 169.384, "dur": 0.458, "note": 79, "inst": "celesta_v0_additive_3", "vel": 0.787, "bend": 0.0, "ch": 15}, {"t": 169.843, "dur": 0.458, "note": 76, "inst": "piano_v0_additive_0", "vel": 0.787, "bend": 0.0, "ch": 12}, {"t": 170.301, "dur": 0.917, "note": 56, "inst": "piano_v0_additive_0", "vel": 0.787, "bend": 0.0, "ch": 8}, {"t": 170.301, "dur": 0.917, "note": 59, "inst": "celesta_v0_additive_3", "vel": 0.787, "bend": 0.0, "ch": 11}, {"t": 170.301, "dur": 0.458, "note": 76, "inst": "piano_v0_additive_0", "vel": 0.787, "bend": 0.0, "ch": 12}, {"t": 170.759, "dur": 0.458, "note": 76, "inst": "piano_v0_additive_0", "vel": 0.787, "bend": 0.0, "ch": 12}, {"t": 171.218, "dur": 0.917, "note": 55, "inst": "celesta_v0_additive_3", "vel": 0.787, "bend": 0.0, "ch": 7}, {"t": 171.218, "dur": 0.458, "note": 76, "inst": "piano_v0_additive_0", "vel": 0.787, "bend": 0.0, "ch": 12}, {"t": 171.676, "dur": 0.458, "note": 73, "inst": "organ_v0_additive_1", "vel": 0.787, "bend": 0.0, "ch": 9}, {"t": 172.134, "dur": 0.917, "note": 58, "inst": "harpsichord_v0_additive_2", "vel": 0.787, "bend": 0.0, "ch": 10}, {"t": 172.134, "dur": 0.917, "note": 59, "inst": "celesta_v0_additive_3", "vel": 0.787, "bend": 0.0, "ch": 11}, {"t": 172.134, "dur": 0.458, "note": 73, "inst": "organ_v0_additive_1", "vel": 0.787, "bend": 0.0, "ch": 9}, {"t": 172.593, "dur": 0.458, "note": 73, "inst": "organ_v0_additive_1", "vel": 0.787, "bend": 0.0, "ch": 9}, {"t": 173.051, "dur": 0.917, "note": 55, "inst": "celesta_v0_additive_3", "vel": 0.787, "bend": 0.0, "ch": 7}, {"t": 173.051, "dur": 0.458, "note": 76, "inst": "piano_v0_additive_0", "vel": 0.787, "bend": 0.0, "ch": 12}, {"t": 173.509, "dur": 0.458, "note": 76, "inst": "piano_v0_additive_0", "vel": 0.787, "bend": 0.0, "ch": 12}, {"t": 173.968, "dur": 0.917, "note": 58, "inst": "harpsichord_v0_additive_2", "vel": 0.787, "bend": 0.0, "ch": 10}, {"t": 173.968, "dur": 0.917, "note": 59, "inst": "celesta_v0_additive_3", "vel": 0.787, "bend": 0.0, "ch": 11}, {"t": 173.968, "dur": 0.458, "note": 75, "inst": "celesta_v0_additive_3", "vel": 0.787, "bend": 0.0, "ch": 11}, {"t": 174.426, "dur": 0.458, "note": 76, "inst": "piano_v0_additive_0", "vel": 0.787, "bend": 0.0, "ch": 12}, {"t": 174.884, "dur": 0.917, "note": 52, "inst": "piano_v0_additive_0", "vel": 0.787, "bend": 0.0, "ch": 4}, {"t": 174.884, "dur": 0.458, "note": 73, "inst": "organ_v0_additive_1", "vel": 0.787, "bend": 0.0, "ch": 9}, {"t": 175.342, "dur": 0.458, "note": 71, "inst": "celesta_v0_additive_3", "vel": 0.787, "bend": 0.0, "ch": 7}, {"t": 175.801, "dur": 0.917, "note": 56, "inst": "piano_v0_additive_0", "vel": 0.787, "bend": 0.0, "ch": 8}, {"t": 175.801, "dur": 0.917, "note": 59, "inst": "celesta_v0_additive_3", "vel": 0.787, "bend": 0.0, "ch": 11}, {"t": 175.801, "dur": 0.458, "note": 71, "inst": "celesta_v0_additive_3", "vel": 0.787, "bend": 0.0, "ch": 7}, {"t": 176.259, "dur": 0.458, "note": 71, "inst": "celesta_v0_additive_3", "vel": 0.787, "bend": 0.0, "ch": 7}, {"t": 176.717, "dur": 0.917, "note": 52, "inst": "piano_v0_additive_0", "vel": 0.787, "bend": 0.0, "ch": 4}, {"t": 176.717, "dur": 0.458, "note": 73, "inst": "organ_v0_additive_1", "vel": 0.787, "bend": 0.0, "ch": 9}, {"t": 177.176, "dur": 0.229, "note": 71, "inst": "celesta_v0_additive_3", "vel": 0.787, "bend": 0.0, "ch": 7}, {"t": 177.405, "dur": 0.229, "note": 71, "inst": "celesta_v0_additive_3", "vel": 0.787, "bend": 0.0, "ch": 7}, {"t": 177.634, "dur": 0.917, "note": 59, "inst": "celesta_v0_additive_3", "vel": 0.787, "bend": 0.0, "ch": 11}, {"t": 177.634, "dur": 0.458, "note": 71, "inst": "celesta_v0_additive_3", "vel": 0.787, "bend": 0.0, "ch": 7}, {"t": 178.092, "dur": 0.458, "note": 71, "inst": "celesta_v0_additive_3", "vel": 0.787, "bend": 0.0, "ch": 7}, {"t": 178.551, "dur": 0.917, "note": 55, "inst": "celesta_v0_additive_3", "vel": 0.787, "bend": 0.0, "ch": 7}, {"t": 178.551, "dur": 0.458, "note": 73, "inst": "organ_v0_additive_1", "vel": 0.787, "bend": 0.0, "ch": 9}, {"t": 179.009, "dur": 0.458, "note": 73, "inst": "organ_v0_additive_1", "vel": 0.787, "bend": 0.0, "ch": 9}, {"t": 179.467, "dur": 0.917, "note": 58, "inst": "harpsichord_v0_additive_2", "vel": 0.787, "bend": 0.0, "ch": 10}, {"t": 179.467, "dur": 0.917, "note": 59, "inst": "celesta_v0_additive_3", "vel": 0.787, "bend": 0.0, "ch": 11}, {"t": 179.467, "dur": 0.458, "note": 73, "inst": "organ_v0_additive_1", "vel": 0.787, "bend": 0.0, "ch": 9}, {"t": 179.926, "dur": 0.458, "note": 73, "inst": "organ_v0_additive_1", "vel": 0.787, "bend": 0.0, "ch": 9}, {"t": 180.384, "dur": 0.917, "note": 55, "inst": "celesta_v0_additive_3", "vel": 0.787, "bend": 0.0, "ch": 7}, {"t": 180.384, "dur": 0.458, "note": 76, "inst": "piano_v0_additive_0", "vel": 0.787, "bend": 0.0, "ch": 12}, {"t": 180.842, "dur": 0.229, "note": 73, "inst": "organ_v0_additive_1", "vel": 0.787, "bend": 0.0, "ch": 9}, {"t": 181.071, "dur": 0.229, "note": 73, "inst": "organ_v0_additive_1", "vel": 0.787, "bend": 0.0, "ch": 9}, {"t": 181.3, "dur": 0.917, "note": 58, "inst": "harpsichord_v0_additive_2", "vel": 0.787, "bend": 0.0, "ch": 10}, {"t": 181.3, "dur": 0.917, "note": 59, "inst": "celesta_v0_additive_3", "vel": 0.787, "bend": 0.0, "ch": 11}, {"t": 181.3, "dur": 0.458, "note": 73, "inst": "organ_v0_additive_1", "vel": 0.787, "bend": 0.0, "ch": 9}, {"t": 181.759, "dur": 0.458, "note": 73, "inst": "organ_v0_additive_1", "vel": 0.787, "bend": 0.0, "ch": 9}, {"t": 182.217, "dur": 0.917, "note": 52, "inst": "piano_v0_additive_0", "vel": 0.787, "bend": 0.0, "ch": 4}, {"t": 182.217, "dur": 0.458, "note": 76, "inst": "piano_v0_additive_0", "vel": 0.787, "bend": 0.0, "ch": 12}, {"t": 182.675, "dur": 0.458, "note": 76, "inst": "piano_v0_additive_0", "vel": 0.787, "bend": 0.0, "ch": 12}, {"t": 183.134, "dur": 0.917, "note": 59, "inst": "celesta_v0_additive_3", "vel": 0.787, "bend": 0.0, "ch": 11}, {"t": 183.134, "dur": 0.458, "note": 76, "inst": "piano_v0_additive_0", "vel": 0.787, "bend": 0.0, "ch": 12}, {"t": 183.592, "dur": 0.458, "note": 76, "inst": "piano_v0_additive_0", "vel": 0.787, "bend": 0.0, "ch": 12}, {"t": 184.05, "dur": 0.917, "note": 52, "inst": "piano_v0_additive_0", "vel": 0.787, "bend": 0.0, "ch": 4}, {"t": 184.05, "dur": 0.458, "note": 79, "inst": "celesta_v0_additive_3", "vel": 0.787, "bend": 0.0, "ch": 15}, {"t": 184.509, "dur": 0.458, "note": 76, "inst": "piano_v0_additive_0", "vel": 0.787, "bend": 0.0, "ch": 12}, {"t": 184.967, "dur": 0.917, "note": 56, "inst": "piano_v0_additive_0", "vel": 0.787, "bend": 0.0, "ch": 8}, {"t": 184.967, "dur": 0.917, "note": 59, "inst": "celesta_v0_additive_3", "vel": 0.787, "bend": 0.0, "ch": 11}, {"t": 184.967, "dur": 0.458, "note": 76, "inst": "piano_v0_additive_0", "vel": 0.787, "bend": 0.0, "ch": 12}, {"t": 185.425, "dur": 0.458, "note": 76, "inst": "piano_v0_additive_0", "vel": 0.787, "bend": 0.0, "ch": 12}, {"t": 185.884, "dur": 0.458, "note": 52, "inst": "piano_v0_additive_0", "vel": 0.787, "bend": 0.0, "ch": 4}, {"t": 185.884, "dur": 0.458, "note": 76, "inst": "piano_v0_additive_0", "vel": 0.787, "bend": 0.0, "ch": 12}, {"t": 186.342, "dur": 0.458, "note": 58, "inst": "harpsichord_v0_additive_2", "vel": 0.787, "bend": 0.0, "ch": 10}, {"t": 186.342, "dur": 0.458, "note": 61, "inst": "organ_v0_additive_1", "vel": 0.787, "bend": 0.0, "ch": 13}, {"t": 186.342, "dur": 0.458, "note": 73, "inst": "organ_v0_additive_1", "vel": 0.787, "bend": 0.0, "ch": 9}, {"t": 186.8, "dur": 0.687, "note": 79, "inst": "celesta_v0_additive_3", "vel": 0.787, "bend": 0.0, "ch": 15}, {"t": 187.258, "dur": 0.458, "note": 58, "inst": "harpsichord_v0_additive_2", "vel": 0.787, "bend": 0.0, "ch": 10}, {"t": 187.258, "dur": 0.458, "note": 61, "inst": "organ_v0_additive_1", "vel": 0.787, "bend": 0.0, "ch": 13}, {"t": 187.488, "dur": 0.229, "note": 76, "inst": "piano_v0_additive_0", "vel": 0.787, "bend": 0.0, "ch": 12}, {"t": 187.717, "dur": 0.917, "note": 56, "inst": "piano_v0_additive_0", "vel": 0.787, "bend": 0.0, "ch": 8}, {"t": 187.717, "dur": 0.917, "note": 59, "inst": "celesta_v0_additive_3", "vel": 0.787, "bend": 0.0, "ch": 11}, {"t": 187.717, "dur": 1.375, "note": 76, "inst": "piano_v0_additive_0", "vel": 0.787, "bend": 0.0, "ch": 12}, {"t": 210.245, "dur": 0.091, "note": 78, "inst": "harpsichord_v0_additive_2", "vel": 0.756, "bend": 0.0, "ch": 14}, {"t": 210.248, "dur": 0.046, "note": 60, "inst": "piano_v0_additive_0", "vel": 0.748, "bend": 0.0, "ch": 12}, {"t": 210.249, "dur": 0.097, "note": 84, "inst": "piano_v0_additive_0", "vel": 0.787, "bend": 0.0, "ch": 4}, {"t": 210.251, "dur": 0.038, "note": 48, "inst": "piano_v0_additive_0", "vel": 0.677, "bend": 0.0, "ch": 0}, {"t": 210.253, "dur": 0.044, "note": 81, "inst": "organ_v0_additive_1", "vel": 0.685, "bend": 0.0, "ch": 1}, {"t": 210.738, "dur": 0.132, "note": 84, "inst": "piano_v0_additive_0", "vel": 0.748, "bend": 0.0, "ch": 4}, {"t": 210.741, "dur": 0.092, "note": 76, "inst": "piano_v0_additive_0", "vel": 0.693, "bend": 0.0, "ch": 12}, {"t": 210.745, "dur": 0.169, "note": 78, "inst": "harpsichord_v0_additive_2", "vel": 0.654, "bend": 0.0, "ch": 14}, {"t": 210.746, "dur": 0.053, "note": 60, "inst": "piano_v0_additive_0", "vel": 0.701, "bend": 0.0, "ch": 12}, {"t": 210.753, "dur": 0.04, "note": 48, "inst": "piano_v0_additive_0", "vel": 0.646, "bend": 0.0, "ch": 0}, {"t": 211.424, "dur": 0.434, "note": 30, "inst": "harpsichord_v0_additive_2", "vel": 0.575, "bend": 0.0, "ch": 14}, {"t": 211.429, "dur": 0.636, "note": 42, "inst": "harpsichord_v0_additive_2", "vel": 0.606, "bend": 0.0, "ch": 10}, {"t": 211.43, "dur": 0.448, "note": 72, "inst": "piano_v0_additive_0", "vel": 0.598, "bend": 0.0, "ch": 8}, {"t": 211.43, "dur": 0.406, "note": 66, "inst": "harpsichord_v0_additive_2", "vel": 0.638, "bend": 0.0, "ch": 2}, {"t": 211.431, "dur": 0.48, "note": 69, "inst": "organ_v0_additive_1", "vel": 0.63, "bend": 0.0, "ch": 5}, {"t": 213.154, "dur": 1.033, "note": 45, "inst": "organ_v0_additive_1", "vel": 0.236, "bend": 0.0, "ch": 13}, {"t": 213.181, "dur": 0.656, "note": 57, "inst": "organ_v0_additive_1", "vel": 0.15, "bend": 0.0, "ch": 9}, {"t": 213.197, "dur": 0.848, "note": 64, "inst": "piano_v0_additive_0", "vel": 0.307, "bend": 0.0, "ch": 0}, {"t": 213.53, "dur": 0.235, "note": 60, "inst": "piano_v0_additive_0", "vel": 0.252, "bend": 0.0, "ch": 12}, {"t": 213.769, "dur": 0.25, "note": 54, "inst": "harpsichord_v0_additive_2", "vel": 0.307, "bend": 0.0, "ch": 6}, {"t": 214.034, "dur": 0.131, "note": 66, "inst": "harpsichord_v0_additive_2", "vel": 0.402, "bend": 0.0, "ch": 2}, {"t": 214.28, "dur": 0.345, "note": 69, "inst": "organ_v0_additive_1", "vel": 0.433, "bend": 0.0, "ch": 5}, {"t": 214.481, "dur": 0.315, "note": 69, "inst": "organ_v0_additive_1", "vel": 0.504, "bend": 0.0, "ch": 5}, {"t": 214.602, "dur": 0.123, "note": 60, "inst": "piano_v0_additive_0", "vel": 0.457, "bend": 0.0, "ch": 12}, {"t": 214.706, "dur": 0.263, "note": 72, "inst": "piano_v0_additive_0", "vel": 0.551, "bend": 0.0, "ch": 8}, {"t": 214.749, "dur": 0.053, "note": 42, "inst": "harpsichord_v0_additive_2", "vel": 0.449, "bend": 0.0, "ch": 10}, {"t": 214.937, "dur": 0.299, "note": 73, "inst": "organ_v0_additive_1", "vel": 0.575, "bend": 0.0, "ch": 9}, {"t": 215.05, "dur": 0.042, "note": 60, "inst": "piano_v0_additive_0", "vel": 0.22, "bend": 0.0, "ch": 12}, {"t": 215.177, "dur": 0.516, "note": 76, "inst": "piano_v0_additive_0", "vel": 0.559, "bend": 0.0, "ch": 12}, {"t": 215.247, "dur": 0.098, "note": 30, "inst": "harpsichord_v0_additive_2", "vel": 0.402, "bend": 0.0, "ch": 14}, {"t": 215.474, "dur": 0.106, "note": 57, "inst": "organ_v0_additive_1", "vel": 0.354, "bend": 0.0, "ch": 9}, {"t": 215.533, "dur": 1.092, "note": 66, "inst": "harpsichord_v0_additive_2", "vel": 0.551, "bend": 0.0, "ch": 2}, {"t": 215.771, "dur": 0.157, "note": 60, "inst": "piano_v0_additive_0", "vel": 0.346, "bend": 0.0, "ch": 12}, {"t": 215.908, "dur": 0.584, "note": 76, "inst": "piano_v0_additive_0", "vel": 0.417, "bend": 0.0, "ch": 12}, {"t": 216.128, "dur": 0.188, "note": 73, "inst": "organ_v0_additive_1", "vel": 0.457, "bend": 0.0, "ch": 9}, {"t": 216.26, "dur": 0.059, "note": 60, "inst": "piano_v0_additive_0", "vel": 0.26, "bend": 0.0, "ch": 12}, {"t": 216.326, "dur": 0.226, "note": 72, "inst": "piano_v0_additive_0", "vel": 0.496, "bend": 0.0, "ch": 8}, {"t": 252.041, "dur": 0.181, "note": 63, "inst": "celesta_v0_additive_3", "vel": 0.496, "bend": 0.0, "ch": 15}, {"t": 252.041, "dur": 0.181, "note": 68, "inst": "piano_v0_additive_0", "vel": 0.496, "bend": 0.0, "ch": 4}, {"t": 252.132, "dur": 0.181, "note": 41, "inst": "organ_v0_additive_1", "vel": 0.992, "bend": 0.0, "ch": 9}, {"t": 252.132, "dur": 0.181, "note": 53, "inst": "organ_v0_additive_1", "vel": 0.992, "bend": 0.0, "ch": 5}, {"t": 252.223, "dur": 0.091, "note": 61, "inst": "organ_v0_additive_1", "vel": 0.496, "bend": 0.0, "ch": 13}, {"t": 252.223, "dur": 0.091, "note": 65, "inst": "organ_v0_additive_1", "vel": 0.496, "bend": 0.0, "ch": 1}, {"t": 252.313, "dur": 0.181, "note": 44, "inst": "piano_v0_additive_0", "vel": 0.992, "bend": 0.0, "ch": 12}, {"t": 252.313, "dur": 0.181, "note": 56, "inst": "piano_v0_additive_0", "vel": 0.992, "bend": 0.0, "ch": 8}, {"t": 252.313, "dur": 0.181, "note": 58, "inst": "harpsichord_v0_additive_2", "vel": 0.496, "bend": 0.0, "ch": 10}, {"t": 252.313, "dur": 0.181, "note": 70, "inst": "harpsichord_v0_additive_2", "vel": 0.496, "bend": 0.0, "ch": 6}, {"t": 252.495, "dur": 0.181, "note": 39, "inst": "celesta_v0_additive_3", "vel": 0.992, "bend": 0.0, "ch": 7}, {"t": 252.495, "dur": 0.181, "note": 51, "inst": "celesta_v0_additive_3", "vel": 0.992, "bend": 0.0, "ch": 3}, {"t": 252.495, "dur": 0.181, "note": 63, "inst": "celesta_v0_additive_3", "vel": 0.496, "bend": 0.0, "ch": 15}, {"t": 252.495, "dur": 0.181, "note": 68, "inst": "piano_v0_additive_0", "vel": 0.496, "bend": 0.0, "ch": 4}, {"t": 252.676, "dur": 0.181, "note": 56, "inst": "piano_v0_additive_0", "vel": 0.992, "bend": 0.0, "ch": 8}, {"t": 252.676, "dur": 0.726, "note": 61, "inst": "organ_v0_additive_1", "vel": 0.992, "bend": 0.0, "ch": 13}, {"t": 252.676, "dur": 0.726, "note": 65, "inst": "organ_v0_additive_1", "vel": 0.992, "bend": 0.0, "ch": 1}, {"t": 252.858, "dur": 0.181, "note": 46, "inst": "harpsichord_v0_additive_2", "vel": 0.992, "bend": 0.0, "ch": 14}, {"t": 253.039, "dur": 0.181, "note": 53, "inst": "organ_v0_additive_1", "vel": 0.992, "bend": 0.0, "ch": 5}, {"t": 253.221, "dur": 0.181, "note": 49, "inst": "organ_v0_additive_1", "vel": 0.992, "bend": 0.0, "ch": 1}, {"t": 253.402, "dur": 0.363, "note": 34, "inst": "harpsichord_v0_additive_2", "vel": 0.992, "bend": 0.0, "ch": 2}, {"t": 253.402, "dur": 0.363, "note": 61, "inst": "organ_v0_additive_1", "vel": 0.992, "bend": 0.0, "ch": 13}, {"t": 253.402, "dur": 0.181, "note": 63, "inst": "celesta_v0_additive_3", "vel": 0.992, "bend": 0.0, "ch": 15}, {"t": 253.584, "dur": 0.181, "note": 65, "inst": "organ_v0_additive_1", "vel": 0.543, "bend": 0.0, "ch": 1}, {"t": 253.765, "dur": 0.181, "note": 68, "inst": "piano_v0_additive_0", "vel": 0.543, "bend": 0.0, "ch": 4}, {"t": 253.947, "dur": 0.181, "note": 68, "inst": "piano_v0_additive_0", "vel": 0.543, "bend": 0.0, "ch": 4}, {"t": 254.128, "dur": 0.181, "note": 49, "inst": "organ_v0_additive_1", "vel": 0.992, "bend": 0.0, "ch": 1}, {"t": 254.128, "dur": 0.454, "note": 58, "inst": "harpsichord_v0_additive_2", "vel": 0.496, "bend": 0.0, "ch": 10}, {"t": 254.31, "dur": 0.181, "note": 53, "inst": "organ_v0_additive_1", "vel": 0.992, "bend": 0.0, "ch": 5}, {"t": 254.491, "dur": 0.181, "note": 46, "inst": "harpsichord_v0_additive_2", "vel": 0.992, "bend": 0.0, "ch": 14}, {"t": 254.582, "dur": 0.091, "note": 73, "inst": "organ_v0_additive_1", "vel": 0.496, "bend": 0.0, "ch": 9}, {"t": 254.673, "dur": 0.181, "note": 53, "inst": "organ_v0_additive_1", "vel": 0.992, "bend": 0.0, "ch": 5}, {"t": 254.673, "dur": 0.091, "note": 73, "inst": "organ_v0_additive_1", "vel": 0.496, "bend": 0.0, "ch": 9}, {"t": 254.763, "dur": 0.091, "note": 58, "inst": "harpsichord_v0_additive_2", "vel": 0.496, "bend": 0.0, "ch": 10}, {"t": 254.854, "dur": 0.181, "note": 49, "inst": "organ_v0_additive_1", "vel": 0.992, "bend": 0.0, "ch": 1}, {"t": 254.854, "dur": 0.181, "note": 65, "inst": "organ_v0_additive_1", "vel": 0.496, "bend": 0.0, "ch": 1}, {"t": 255.036, "dur": 0.181, "note": 53, "inst": "organ_v0_additive_1", "vel": 0.992, "bend": 0.0, "ch": 5}, {"t": 255.036, "dur": 0.181, "note": 65, "inst": "organ_v0_additive_1", "vel": 0.496, "bend": 0.0, "ch": 1}, {"t": 255.217, "dur": 0.181, "note": 46, "inst": "harpsichord_v0_additive_2", "vel": 0.992, "bend": 0.0, "ch": 14}, {"t": 255.217, "dur": 0.181, "note": 65, "inst": "organ_v0_additive_1", "vel": 0.496, "bend": 0.0, "ch": 1}, {"t": 255.398, "dur": 0.181, "note": 53, "inst": "organ_v0_additive_1", "vel": 0.992, "bend": 0.0, "ch": 5}, {"t": 255.398, "dur": 0.181, "note": 65, "inst": "organ_v0_additive_1", "vel": 0.496, "bend": 0.0, "ch": 1}, {"t": 255.58, "dur": 0.181, "note": 34, "inst": "harpsichord_v0_additive_2", "vel": 0.992, "bend": 0.0, "ch": 2}, {"t": 255.58, "dur": 0.726, "note": 61, "inst": "organ_v0_additive_1", "vel": 0.496, "bend": 0.0, "ch": 13}, {"t": 255.58, "dur": 0.635, "note": 65, "inst": "organ_v0_additive_1", "vel": 0.496, "bend": 0.0, "ch": 1}, {"t": 255.761, "dur": 0.181, "note": 49, "inst": "organ_v0_additive_1", "vel": 0.992, "bend": 0.0, "ch": 1}, {"t": 255.943, "dur": 0.181, "note": 53, "inst": "organ_v0_additive_1", "vel": 0.992, "bend": 0.0, "ch": 5}, {"t": 256.124, "dur": 0.181, "note": 49, "inst": "organ_v0_additive_1", "vel": 0.992, "bend": 0.0, "ch": 1}, {"t": 256.215, "dur": 0.091, "note": 68, "inst": "piano_v0_additive_0", "vel": 0.496, "bend": 0.0, "ch": 4}, {"t": 256.306, "dur": 0.181, "note": 34, "inst": "harpsichord_v0_additive_2", "vel": 0.992, "bend": 0.0, "ch": 2}, {"t": 256.306, "dur": 0.363, "note": 61, "inst": "organ_v0_additive_1", "vel": 0.496, "bend": 0.0, "ch": 13}, {"t": 256.306, "dur": 0.363, "note": 63, "inst": "celesta_v0_additive_3", "vel": 0.496, "bend": 0.0, "ch": 15}, {"t": 256.487, "dur": 0.181, "note": 49, "inst": "organ_v0_additive_1", "vel": 0.992, "bend": 0.0, "ch": 1}, {"t": 256.669, "dur": 0.181, "note": 51, "inst": "celesta_v0_additive_3", "vel": 0.992, "bend": 0.0, "ch": 3}, {"t": 256.76, "dur": 0.091, "note": 46, "inst": "harpsichord_v0_additive_2", "vel": 0.496, "bend": 0.0, "ch": 14}, {"t": 256.85, "dur": 0.181, "note": 34, "inst": "harpsichord_v0_additive_2", "vel": 0.992, "bend": 0.0, "ch": 2}, {"t": 256.85, "dur": 0.091, "note": 58, "inst": "harpsichord_v0_additive_2", "vel": 0.496, "bend": 0.0, "ch": 10}, {"t": 256.941, "dur": 0.091, "note": 61, "inst": "organ_v0_additive_1", "vel": 0.496, "bend": 0.0, "ch": 13}, {"t": 257.032, "dur": 0.726, "note": 49, "inst": "organ_v0_additive_1", "vel": 0.992, "bend": 0.0, "ch": 1}, {"t": 257.032, "dur": 0.726, "note": 61, "inst": "organ_v0_additive_1", "vel": 0.992, "bend": 0.0, "ch": 13}, {"t": 257.213, "dur": 0.181, "note": 46, "inst": "harpsichord_v0_additive_2", "vel": 0.992, "bend": 0.0, "ch": 14}, {"t": 257.395, "dur": 0.181, "note": 53, "inst": "organ_v0_additive_1", "vel": 0.992, "bend": 0.0, "ch": 5}, {"t": 257.576, "dur": 0.181, "note": 46, "inst": "harpsichord_v0_additive_2", "vel": 0.992, "bend": 0.0, "ch": 14}, {"t": 257.758, "dur": 0.726, "note": 34, "inst": "harpsichord_v0_additive_2", "vel": 0.992, "bend": 0.0, "ch": 2}, {"t": 257.758, "dur": 0.181, "note": 61, "inst": "organ_v0_additive_1", "vel": 0.992, "bend": 0.0, "ch": 13}, {"t": 257.758, "dur": 0.726, "note": 63, "inst": "celesta_v0_additive_3", "vel": 0.992, "bend": 0.0, "ch": 15}, {"t": 257.939, "dur": 0.181, "note": 46, "inst": "harpsichord_v0_additive_2", "vel": 0.992, "bend": 0.0, "ch": 14}, {"t": 258.121, "dur": 0.181, "note": 61, "inst": "organ_v0_additive_1", "vel": 0.992, "bend": 0.0, "ch": 13}, {"t": 258.302, "dur": 0.181, "note": 46, "inst": "harpsichord_v0_additive_2", "vel": 0.992, "bend": 0.0, "ch": 14}, {"t": 258.484, "dur": 0.726, "note": 37, "inst": "organ_v0_additive_1", "vel": 0.992, "bend": 0.0, "ch": 5}, {"t": 258.484, "dur": 0.363, "note": 61, "inst": "organ_v0_additive_1", "vel": 0.992, "bend": 0.0, "ch": 13}, {"t": 258.484, "dur": 0.272, "note": 65, "inst": "organ_v0_additive_1", "vel": 0.992, "bend": 0.0, "ch": 1}, {"t": 258.756, "dur": 0.091, "note": 68, "inst": "piano_v0_additive_0", "vel": 0.992, "bend": 0.0, "ch": 4}, {"t": 258.847, "dur": 0.091, "note": 58, "inst": "harpsichord_v0_additive_2", "vel": 0.496, "bend": 0.0, "ch": 10}, {"t": 258.937, "dur": 0.091, "note": 70, "inst": "harpsichord_v0_additive_2", "vel": 0.992, "bend": 0.0, "ch": 6}, {"t": 259.028, "dur": 0.091, "note": 73, "inst": "organ_v0_additive_1", "vel": 0.496, "bend": 0.0, "ch": 9}, {"t": 259.119, "dur": 0.091, "note": 73, "inst": "organ_v0_additive_1", "vel": 0.992, "bend": 0.0, "ch": 9}, {"t": 259.21, "dur": 0.181, "note": 58, "inst": "harpsichord_v0_additive_2", "vel": 0.992, "bend": 0.0, "ch": 10}, {"t": 259.572, "dur": 0.091, "note": 73, "inst": "organ_v0_additive_1", "vel": 1.0, "bend": 0.0, "ch": 9}, {"t": 259.663, "dur": 0.091, "note": 73, "inst": "organ_v0_additive_1", "vel": 1.0, "bend": 0.0, "ch": 9}, {"t": 259.754, "dur": 0.091, "note": 73, "inst": "organ_v0_additive_1", "vel": 1.0, "bend": 0.0, "ch": 9}, {"t": 259.845, "dur": 0.091, "note": 70, "inst": "harpsichord_v0_additive_2", "vel": 1.0, "bend": 0.0, "ch": 6}, {"t": 259.935, "dur": 0.181, "note": 70, "inst": "harpsichord_v0_additive_2", "vel": 0.992, "bend": 0.0, "ch": 6}, {"t": 260.117, "dur": 0.181, "note": 53, "inst": "organ_v0_additive_1", "vel": 0.992, "bend": 0.0, "ch": 5}, {"t": 260.117, "dur": 0.181, "note": 61, "inst": "organ_v0_additive_1", "vel": 0.992, "bend": 0.0, "ch": 13}, {"t": 260.298, "dur": 0.091, "note": 73, "inst": "organ_v0_additive_1", "vel": 1.0, "bend": 0.0, "ch": 9}, {"t": 260.389, "dur": 0.091, "note": 73, "inst": "organ_v0_additive_1", "vel": 1.0, "bend": 0.0, "ch": 9}, {"t": 260.48, "dur": 0.091, "note": 73, "inst": "organ_v0_additive_1", "vel": 1.0, "bend": 0.0, "ch": 9}, {"t": 260.571, "dur": 0.091, "note": 70, "inst": "harpsichord_v0_additive_2", "vel": 1.0, "bend": 0.0, "ch": 6}, {"t": 260.661, "dur": 0.181, "note": 70, "inst": "harpsichord_v0_additive_2", "vel": 0.992, "bend": 0.0, "ch": 6}, {"t": 260.843, "dur": 0.181, "note": 53, "inst": "organ_v0_additive_1", "vel": 0.992, "bend": 0.0, "ch": 5}, {"t": 260.843, "dur": 0.181, "note": 61, "inst": "organ_v0_additive_1", "vel": 0.992, "bend": 0.0, "ch": 13}, {"t": 261.024, "dur": 0.091, "note": 73, "inst": "organ_v0_additive_1", "vel": 1.0, "bend": 0.0, "ch": 9}, {"t": 261.115, "dur": 0.091, "note": 73, "inst": "organ_v0_additive_1", "vel": 1.0, "bend": 0.0, "ch": 9}, {"t": 261.206, "dur": 0.091, "note": 73, "inst": "organ_v0_additive_1", "vel": 1.0, "bend": 0.0, "ch": 9}, {"t": 261.296, "dur": 0.091, "note": 70, "inst": "harpsichord_v0_additive_2", "vel": 1.0, "bend": 0.0, "ch": 6}, {"t": 261.387, "dur": 0.726, "note": 53, "inst": "organ_v0_additive_1", "vel": 1.0, "bend": 0.0, "ch": 5}, {"t": 261.387, "dur": 0.726, "note": 61, "inst": "organ_v0_additive_1", "vel": 1.0, "bend": 0.0, "ch": 13}, {"t": 261.387, "dur": 0.726, "note": 61, "inst": "organ_v0_additive_1", "vel": 1.0, "bend": 0.0, "ch": 13}, {"t": 261.387, "dur": 0.726, "note": 70, "inst": "harpsichord_v0_additive_2", "vel": 1.0, "bend": 0.0, "ch": 6}, {"t": 262.113, "dur": 0.363, "note": 56, "inst": "piano_v0_additive_0", "vel": 1.0, "bend": 0.0, "ch": 8}, {"t": 262.113, "dur": 0.363, "note": 58, "inst": "harpsichord_v0_additive_2", "vel": 1.0, "bend": 0.0, "ch": 10}, {"t": 262.113, "dur": 0.363, "note": 61, "inst": "organ_v0_additive_1", "vel": 1.0, "bend": 0.0, "ch": 13}, {"t": 262.113, "dur": 0.181, "note": 70, "inst": "harpsichord_v0_additive_2", "vel": 1.0, "bend": 0.0, "ch": 6}, {"t": 262.476, "dur": 0.091, "note": 63, "inst": "celesta_v0_additive_3", "vel": 1.0, "bend": 0.0, "ch": 15}, {"t": 262.567, "dur": 0.091, "note": 65, "inst": "organ_v0_additive_1", "vel": 1.0, "bend": 0.0, "ch": 1}, {"t": 262.658, "dur": 0.091, "note": 68, "inst": "piano_v0_additive_0", "vel": 1.0, "bend": 0.0, "ch": 4}, {"t": 262.748, "dur": 0.091, "note": 68, "inst": "piano_v0_additive_0", "vel": 1.0, "bend": 0.0, "ch": 4}, {"t": 262.839, "dur": 0.454, "note": 58, "inst": "harpsichord_v0_additive_2", "vel": 1.0, "bend": 0.0, "ch": 10}, {"t": 263.202, "dur": 0.363, "note": 41, "inst": "organ_v0_additive_1", "vel": 1.0, "bend": 0.0, "ch": 9}, {"t": 263.202, "dur": 0.363, "note": 49, "inst": "organ_v0_additive_1", "vel": 1.0, "bend": 0.0, "ch": 1}, {"t": 263.293, "dur": 0.045, "note": 73, "inst": "organ_v0_additive_1", "vel": 1.0, "bend": 0.0, "ch": 9}, {"t": 263.338, "dur": 0.045, "note": 70, "inst": "harpsichord_v0_additive_2", "vel": 1.0, "bend": 0.0, "ch": 6}, {"t": 263.383, "dur": 0.045, "note": 73, "inst": "organ_v0_additive_1", "vel": 1.0, "bend": 0.0, "ch": 9}, {"t": 263.429, "dur": 0.045, "note": 73, "inst": "organ_v0_additive_1", "vel": 1.0, "bend": 0.0, "ch": 9}, {"t": 263.474, "dur": 0.045, "note": 75, "inst": "celesta_v0_additive_3", "vel": 1.0, "bend": 0.0, "ch": 11}, {"t": 263.52, "dur": 0.045, "note": 73, "inst": "organ_v0_additive_1", "vel": 1.0, "bend": 0.0, "ch": 9}, {"t": 263.565, "dur": 0.726, "note": 34, "inst": "harpsichord_v0_additive_2", "vel": 0.992, "bend": 0.0, "ch": 2}, {"t": 263.565, "dur": 0.363, "note": 53, "inst": "organ_v0_additive_1", "vel": 0.992, "bend": 0.0, "ch": 5}, {"t": 263.565, "dur": 0.544, "note": 46, "inst": "harpsichord_v0_additive_2", "vel": 0.992, "bend": 0.0, "ch": 14}, {"t": 263.565, "dur": 0.544, "note": 61, "inst": "organ_v0_additive_1", "vel": 0.992, "bend": 0.0, "ch": 13}, {"t": 263.928, "dur": 0.363, "note": 56, "inst": "piano_v0_additive_0", "vel": 0.992, "bend": 0.0, "ch": 8}, {"t": 264.109, "dur": 0.181, "note": 61, "inst": "organ_v0_additive_1", "vel": 0.992, "bend": 0.0, "ch": 13}, {"t": 264.109, "dur": 0.091, "note": 65, "inst": "organ_v0_additive_1", "vel": 0.992, "bend": 0.0, "ch": 1}, {"t": 264.2, "dur": 0.091, "note": 63, "inst": "celesta_v0_additive_3", "vel": 0.992, "bend": 0.0, "ch": 15}, {"t": 264.291, "dur": 0.363, "note": 49, "inst": "organ_v0_additive_1", "vel": 0.496, "bend": 0.0, "ch": 1}, {"t": 264.291, "dur": 0.363, "note": 53, "inst": "organ_v0_additive_1", "vel": 0.496, "bend": 0.0, "ch": 5}, {"t": 264.291, "dur": 0.363, "note": 61, "inst": "organ_v0_additive_1", "vel": 0.543, "bend": 0.0, "ch": 13}, {"t": 264.654, "dur": 0.363, "note": 49, "inst": "organ_v0_additive_1", "vel": 0.496, "bend": 0.0, "ch": 1}, {"t": 264.654, "dur": 0.363, "note": 53, "inst": "organ_v0_additive_1", "vel": 0.496, "bend": 0.0, "ch": 5}, {"t": 264.654, "dur": 0.363, "note": 61, "inst": "organ_v0_additive_1", "vel": 0.543, "bend": 0.0, "ch": 13}, {"t": 265.743, "dur": 0.181, "note": 32, "inst": "piano_v0_additive_0", "vel": 0.496, "bend": 0.0, "ch": 0}, {"t": 265.743, "dur": 0.726, "note": 49, "inst": "organ_v0_additive_1", "vel": 0.496, "bend": 0.0, "ch": 1}, {"t": 265.743, "dur": 0.726, "note": 58, "inst": "harpsichord_v0_additive_2", "vel": 0.496, "bend": 0.0, "ch": 10}, {"t": 265.924, "dur": 0.181, "note": 44, "inst": "piano_v0_additive_0", "vel": 0.496, "bend": 0.0, "ch": 12}, {"t": 266.106, "dur": 0.181, "note": 44, "inst": "piano_v0_additive_0", "vel": 0.496, "bend": 0.0, "ch": 12}, {"t": 266.287, "dur": 0.181, "note": 44, "inst": "piano_v0_additive_0", "vel": 0.496, "bend": 0.0, "ch": 12}, {"t": 266.469, "dur": 0.181, "note": 44, "inst": "piano_v0_additive_0", "vel": 0.496, "bend": 0.0, "ch": 12}, {"t": 266.469, "dur": 0.726, "note": 49, "inst": "organ_v0_additive_1", "vel": 0.496, "bend": 0.0, "ch": 1}, {"t": 266.469, "dur": 0.726, "note": 46, "inst": "harpsichord_v0_additive_2", "vel": 0.496, "bend": 0.0, "ch": 14}, {"t": 266.65, "dur": 0.181, "note": 44, "inst": "piano_v0_additive_0", "vel": 0.496, "bend": 0.0, "ch": 12}, {"t": 266.832, "dur": 0.181, "note": 44, "inst": "piano_v0_additive_0", "vel": 0.496, "bend": 0.0, "ch": 12}, {"t": 267.013, "dur": 0.181, "note": 44, "inst": "piano_v0_additive_0", "vel": 0.496, "bend": 0.0, "ch": 12}, {"t": 267.195, "dur": 0.181, "note": 44, "inst": "piano_v0_additive_0", "vel": 0.496, "bend": 0.0, "ch": 12}, {"t": 267.195, "dur": 0.726, "note": 46, "inst": "harpsichord_v0_additive_2", "vel": 0.496, "bend": 0.0, "ch": 14}, {"t": 267.195, "dur": 0.726, "note": 56, "inst": "piano_v0_additive_0", "vel": 0.496, "bend": 0.0, "ch": 8}, {"t": 267.195, "dur": 0.817, "note": 61, "inst": "organ_v0_additive_1", "vel": 0.496, "bend": 0.0, "ch": 13}, {"t": 267.376, "dur": 0.181, "note": 44, "inst": "piano_v0_additive_0", "vel": 0.496, "bend": 0.0, "ch": 12}, {"t": 267.557, "dur": 0.181, "note": 44, "inst": "piano_v0_additive_0", "vel": 0.496, "bend": 0.0, "ch": 12}, {"t": 267.739, "dur": 0.181, "note": 44, "inst": "piano_v0_additive_0", "vel": 0.496, "bend": 0.0, "ch": 12}, {"t": 267.92, "dur": 0.181, "note": 37, "inst": "organ_v0_additive_1", "vel": 0.496, "bend": 0.0, "ch": 5}, {"t": 267.92, "dur": 0.726, "note": 34, "inst": "harpsichord_v0_additive_2", "vel": 0.496, "bend": 0.0, "ch": 2}, {"t": 267.92, "dur": 0.091, "note": 49, "inst": "organ_v0_additive_1", "vel": 0.496, "bend": 0.0, "ch": 1}, {"t": 268.011, "dur": 0.091, "note": 63, "inst": "celesta_v0_additive_3", "vel": 0.496, "bend": 0.0, "ch": 15}, {"t": 268.102, "dur": 0.181, "note": 37, "inst": "organ_v0_additive_1", "vel": 0.496, "bend": 0.0, "ch": 5}, {"t": 268.102, "dur": 0.091, "note": 61, "inst": "organ_v0_additive_1", "vel": 0.496, "bend": 0.0, "ch": 13}, {"t": 268.193, "dur": 0.091, "note": 63, "inst": "celesta_v0_additive_3", "vel": 0.496, "bend": 0.0, "ch": 15}, {"t": 268.283, "dur": 0.181, "note": 37, "inst": "organ_v0_additive_1", "vel": 0.496, "bend": 0.0, "ch": 5}, {"t": 268.283, "dur": 0.091, "note": 61, "inst": "organ_v0_additive_1", "vel": 0.496, "bend": 0.0, "ch": 13}, {"t": 268.374, "dur": 0.091, "note": 61, "inst": "organ_v0_additive_1", "vel": 0.496, "bend": 0.0, "ch": 13}, {"t": 268.465, "dur": 0.181, "note": 37, "inst": "organ_v0_additive_1", "vel": 0.496, "bend": 0.0, "ch": 5}, {"t": 268.465, "dur": 0.091, "note": 61, "inst": "organ_v0_additive_1", "vel": 0.496, "bend": 0.0, "ch": 13}, {"t": 268.556, "dur": 0.091, "note": 61, "inst": "organ_v0_additive_1", "vel": 0.496, "bend": 0.0, "ch": 13}, {"t": 268.646, "dur": 0.181, "note": 32, "inst": "piano_v0_additive_0", "vel": 0.992, "bend": 0.0, "ch": 0}, {"t": 268.646, "dur": 0.726, "note": 49, "inst": "organ_v0_additive_1", "vel": 0.992, "bend": 0.0, "ch": 1}, {"t": 268.646, "dur": 0.726, "note": 58, "inst": "harpsichord_v0_additive_2", "vel": 0.992, "bend": 0.0, "ch": 10}, {"t": 268.828, "dur": 0.181, "note": 44, "inst": "piano_v0_additive_0", "vel": 0.992, "bend": 0.0, "ch": 12}, {"t": 269.009, "dur": 0.181, "note": 44, "inst": "piano_v0_additive_0", "vel": 0.992, "bend": 0.0, "ch": 12}, {"t": 269.191, "dur": 0.181, "note": 44, "inst": "piano_v0_additive_0", "vel": 0.992, "bend": 0.0, "ch": 12}, {"t": 269.372, "dur": 0.181, "note": 44, "inst": "piano_v0_additive_0", "vel": 0.992, "bend": 0.0, "ch": 12}, {"t": 269.372, "dur": 0.726, "note": 49, "inst": "organ_v0_additive_1", "vel": 0.992, "bend": 0.0, "ch": 1}, {"t": 269.372, "dur": 0.726, "note": 46, "inst": "harpsichord_v0_additive_2", "vel": 0.992, "bend": 0.0, "ch": 14}, {"t": 269.554, "dur": 0.181, "note": 44, "inst": "piano_v0_additive_0", "vel": 0.992, "bend": 0.0, "ch": 12}, {"t": 269.735, "dur": 0.181, "note": 44, "inst": "piano_v0_additive_0", "vel": 0.992, "bend": 0.0, "ch": 12}, {"t": 269.917, "dur": 0.181, "note": 44, "inst": "piano_v0_additive_0", "vel": 0.992, "bend": 0.0, "ch": 12}, {"t": 270.098, "dur": 0.181, "note": 44, "inst": "piano_v0_additive_0", "vel": 0.992, "bend": 0.0, "ch": 12}, {"t": 270.098, "dur": 0.726, "note": 46, "inst": "harpsichord_v0_additive_2", "vel": 0.992, "bend": 0.0, "ch": 14}, {"t": 270.098, "dur": 0.726, "note": 56, "inst": "piano_v0_additive_0", "vel": 0.992, "bend": 0.0, "ch": 8}, {"t": 270.098, "dur": 0.817, "note": 61, "inst": "organ_v0_additive_1", "vel": 0.992, "bend": 0.0, "ch": 13}, {"t": 270.28, "dur": 0.181, "note": 44, "inst": "piano_v0_additive_0", "vel": 0.992, "bend": 0.0, "ch": 12}, {"t": 270.461, "dur": 0.181, "note": 44, "inst": "piano_v0_additive_0", "vel": 0.992, "bend": 0.0, "ch": 12}, {"t": 270.643, "dur": 0.181, "note": 44, "inst": "piano_v0_additive_0", "vel": 0.992, "bend": 0.0, "ch": 12}, {"t": 270.824, "dur": 0.181, "note": 37, "inst": "organ_v0_additive_1", "vel": 0.992, "bend": 0.0, "ch": 5}, {"t": 270.824, "dur": 0.726, "note": 34, "inst": "harpsichord_v0_additive_2", "vel": 0.992, "bend": 0.0, "ch": 2}, {"t": 270.824, "dur": 0.091, "note": 53, "inst": "organ_v0_additive_1", "vel": 0.992, "bend": 0.0, "ch": 5}, {"t": 270.915, "dur": 0.091, "note": 63, "inst": "celesta_v0_additive_3", "vel": 0.992, "bend": 0.0, "ch": 15}, {"t": 271.006, "dur": 0.181, "note": 37, "inst": "organ_v0_additive_1", "vel": 0.992, "bend": 0.0, "ch": 5}, {"t": 271.006, "dur": 0.091, "note": 61, "inst": "organ_v0_additive_1", "vel": 0.992, "bend": 0.0, "ch": 13}, {"t": 271.096, "dur": 0.091, "note": 63, "inst": "celesta_v0_additive_3", "vel": 0.992, "bend": 0.0, "ch": 15}, {"t": 271.187, "dur": 0.181, "note": 37, "inst": "organ_v0_additive_1", "vel": 0.992, "bend": 0.0, "ch": 5}, {"t": 271.187, "dur": 0.091, "note": 61, "inst": "organ_v0_additive_1", "vel": 0.992, "bend": 0.0, "ch": 13}, {"t": 271.278, "dur": 0.091, "note": 61, "inst": "organ_v0_additive_1", "vel": 0.992, "bend": 0.0, "ch": 13}, {"t": 271.369, "dur": 0.181, "note": 37, "inst": "organ_v0_additive_1", "vel": 0.992, "bend": 0.0, "ch": 5}, {"t": 271.369, "dur": 0.091, "note": 61, "inst": "organ_v0_additive_1", "vel": 0.992, "bend": 0.0, "ch": 13}, {"t": 271.459, "dur": 0.091, "note": 61, "inst": "organ_v0_additive_1", "vel": 0.992, "bend": 0.0, "ch": 13}, {"t": 271.55, "dur": 0.181, "note": 44, "inst": "piano_v0_additive_0", "vel": 0.992, "bend": 0.0, "ch": 12}, {"t": 271.55, "dur": 0.363, "note": 56, "inst": "piano_v0_additive_0", "vel": 0.992, "bend": 0.0, "ch": 8}, {"t": 271.55, "dur": 0.363, "note": 58, "inst": "harpsichord_v0_additive_2", "vel": 0.992, "bend": 0.0, "ch": 10}], "instruments": ["celesta_v0_additive_3", "harpsichord_v0_additive_2", "organ_v0_additive_1", "piano_v0_additive_0", "voice_vocoder"], "duration": 271.913, "n_events": 1026}