{"events": [{"t": 0.119, "dur": 0.685, "note": 24, "inst": "organ_v0_additive_1", "vel": 1.0, "bend": 0.0, "ch": 8}, {"t": 0.119, "dur": 0.342, "note": 59, "inst": "celesta_v0_additive_3", "vel": 1.0, "bend": 0.0, "ch": 11}, {"t": 0.462, "dur": 0.342, "note": 59, "inst": "celesta_v0_additive_3", "vel": 1.0, "bend": 0.0, "ch": 11}, {"t": 0.804, "dur": 0.685, "note": 28, "inst": "harpsichord_v0_additive_2", "vel": 1.0, "bend": 0.0, "ch": 12}, {"t": 0.804, "dur": 0.342, "note": 59, "inst": "celesta_v0_additive_3", "vel": 1.0, "bend": 0.0, "ch": 11}, {"t": 1.147, "dur": 0.342, "note": 52, "inst": "harpsichord_v0_additive_2", "vel": 1.0, "bend": 0.0, "ch": 4}, {"t": 1.489, "dur": 0.685, "note": 24, "inst": "organ_v0_additive_1", "vel": 1.0, "bend": 0.0, "ch": 8}, {"t": 1.489, "dur": 0.342, "note": 52, "inst": "harpsichord_v0_additive_2", "vel": 1.0, "bend": 0.0, "ch": 4}, {"t": 1.831, "dur": 0.114, "note": 52, "inst": "harpsichord_v0_additive_2", "vel": 1.0, "bend": 0.0, "ch": 4}, {"t": 1.946, "dur": 0.114, "note": 59, "inst": "celesta_v0_additive_3", "vel": 1.0, "bend": 0.0, "ch": 11}, {"t": 2.06, "dur": 0.114, "note": 52, "inst": "harpsichord_v0_additive_2", "vel": 1.0, "bend": 0.0, "ch": 4}, {"t": 2.174, "dur": 0.685, "note": 24, "inst": "organ_v0_additive_1", "vel": 1.0, "bend": 0.0, "ch": 8}, {"t": 2.174, "dur": 0.342, "note": 52, "inst": "harpsichord_v0_additive_2", "vel": 1.0, "bend": 0.0, "ch": 4}, {"t": 2.516, "dur": 0.342, "note": 59, "inst": "celesta_v0_additive_3", "vel": 1.0, "bend": 0.0, "ch": 11}, {"t": 2.859, "dur": 0.685, "note": 24, "inst": "organ_v0_additive_1", "vel": 1.0, "bend": 0.0, "ch": 8}, {"t": 2.859, "dur": 0.342, "note": 52, "inst": "harpsichord_v0_additive_2", "vel": 1.0, "bend": 0.0, "ch": 4}, {"t": 3.201, "dur": 0.342, "note": 52, "inst": "harpsichord_v0_additive_2", "vel": 1.0, "bend": 0.0, "ch": 4}, {"t": 3.543, "dur": 0.685, "note": 24, "inst": "organ_v0_additive_1", "vel": 1.0, "bend": 0.0, "ch": 8}, {"t": 3.543, "dur": 0.342, "note": 40, "inst": "harpsichord_v0_additive_2", "vel": 1.0, "bend": 0.0, "ch": 8}, {"t": 3.886, "dur": 0.342, "note": 64, "inst": "harpsichord_v0_additive_2", "vel": 1.0, "bend": 0.0, "ch": 0}, {"t": 4.228, "dur": 0.685, "note": 24, "inst": "organ_v0_additive_1", "vel": 1.0, "bend": 0.0, "ch": 8}, {"t": 4.228, "dur": 0.342, "note": 52, "inst": "harpsichord_v0_additive_2", "vel": 1.0, "bend": 0.0, "ch": 4}, {"t": 4.57, "dur": 0.114, "note": 52, "inst": "harpsichord_v0_additive_2", "vel": 1.0, "bend": 0.0, "ch": 4}, {"t": 4.685, "dur": 0.114, "note": 52, "inst": "harpsichord_v0_additive_2", "vel": 1.0, "bend": 0.0, "ch": 4}, {"t": 4.799, "dur": 0.114, "note": 52, "inst": "harpsichord_v0_additive_2", "vel": 1.0, "bend": 0.0, "ch": 4}, {"t": 4.913, "dur": 0.685, "note": 24, "inst": "organ_v0_additive_1", "vel": 1.0, "bend": 0.0, "ch": 8}, {"t": 4.913, "dur": 0.342, "note": 40, "inst": "harpsichord_v0_additive_2", "vel": 1.0, "bend": 0.0, "ch": 8}, {"t": 5.255, "dur": 0.342, "note": 59, "inst": "celesta_v0_additive_3", "vel": 1.0, "bend": 0.0, "ch": 11}, {"t": 5.598, "dur": 0.685, "note": 24, "inst": "organ_v0_additive_1", "vel": 1.0, "bend": 0.0, "ch": 8}, {"t": 5.598, "dur": 0.342, "note": 59, "inst": "celesta_v0_additive_3", "vel": 1.0, "bend": 0.0, "ch": 11}, {"t": 5.94, "dur": 0.342, "note": 40, "inst": "harpsichord_v0_additive_2", "vel": 1.0, "bend": 0.0, "ch": 8}, {"t": 6.282, "dur": 0.685, "note": 28, "inst": "harpsichord_v0_additive_2", "vel": 1.0, "bend": 0.0, "ch": 12}, {"t": 6.282, "dur": 0.685, "note": 52, "inst": "harpsichord_v0_additive_2", "vel": 1.0, "bend": 0.0, "ch": 4}, {"t": 6.967, "dur": 0.342, "note": 64, "inst": "harpsichord_v0_additive_2", "vel": 1.0, "bend": 0.0, "ch": 0}, {"t": 7.309, "dur": 0.114, "note": 64, "inst": "harpsichord_v0_additive_2", "vel": 1.0, "bend": 0.0, "ch": 0}, {"t": 7.424, "dur": 0.114, "note": 71, "inst": "celesta_v0_additive_3", "vel": 1.0, "bend": 0.0, "ch": 7}, {"t": 7.538, "dur": 0.114, "note": 64, "inst": "harpsichord_v0_additive_2", "vel": 1.0, "bend": 0.0, "ch": 0}, {"t": 7.652, "dur": 0.685, "note": 24, "inst": "organ_v0_additive_1", "vel": 1.0, "bend": 0.0, "ch": 8}, {"t": 7.652, "dur": 0.342, "note": 64, "inst": "harpsichord_v0_additive_2", "vel": 1.0, "bend": 0.0, "ch": 0}, {"t": 7.994, "dur": 0.342, "note": 71, "inst": "celesta_v0_additive_3", "vel": 1.0, "bend": 0.0, "ch": 7}, {"t": 8.337, "dur": 0.685, "note": 24, "inst": "organ_v0_additive_1", "vel": 1.0, "bend": 0.0, "ch": 8}, {"t": 8.337, "dur": 0.342, "note": 71, "inst": "celesta_v0_additive_3", "vel": 1.0, "bend": 0.0, "ch": 7}, {"t": 8.679, "dur": 0.114, "note": 64, "inst": "harpsichord_v0_additive_2", "vel": 1.0, "bend": 0.0, "ch": 0}, {"t": 8.793, "dur": 0.114, "note": 64, "inst": "harpsichord_v0_additive_2", "vel": 1.0, "bend": 0.0, "ch": 0}, {"t": 8.907, "dur": 0.114, "note": 64, "inst": "harpsichord_v0_additive_2", "vel": 1.0, "bend": 0.0, "ch": 0}, {"t": 9.021, "dur": 0.685, "note": 24, "inst": "organ_v0_additive_1", "vel": 1.0, "bend": 0.0, "ch": 8}, {"t": 9.021, "dur": 0.342, "note": 52, "inst": "harpsichord_v0_additive_2", "vel": 1.0, "bend": 0.0, "ch": 4}, {"t": 9.364, "dur": 0.342, "note": 64, "inst": "harpsichord_v0_additive_2", "vel": 1.0, "bend": 0.0, "ch": 0}, {"t": 9.706, "dur": 0.685, "note": 24, "inst": "organ_v0_additive_1", "vel": 1.0, "bend": 0.0, "ch": 8}, {"t": 9.706, "dur": 0.342, "note": 64, "inst": "harpsichord_v0_additive_2", "vel": 1.0, "bend": 0.0, "ch": 0}, {"t": 10.049, "dur": 0.342, "note": 52, "inst": "harpsichord_v0_additive_2", "vel": 1.0, "bend": 0.0, "ch": 4}, {"t": 10.391, "dur": 0.685, "note": 24, "inst": "organ_v0_additive_1", "vel": 1.0, "bend": 0.0, "ch": 8}, {"t": 10.391, "dur": 0.171, "note": 59, "inst": "celesta_v0_additive_3", "vel": 1.0, "bend": 0.0, "ch": 11}, {"t": 10.562, "dur": 0.171, "note": 52, "inst": "harpsichord_v0_additive_2", "vel": 1.0, "bend": 0.0, "ch": 4}, {"t": 10.733, "dur": 0.171, "note": 59, "inst": "celesta_v0_additive_3", "vel": 1.0, "bend": 0.0, "ch": 11}, {"t": 10.904, "dur": 0.171, "note": 59, "inst": "celesta_v0_additive_3", "vel": 1.0, "bend": 0.0, "ch": 11}, {"t": 11.076, "dur": 0.685, "note": 24, "inst": "organ_v0_additive_1", "vel": 1.0, "bend": 0.0, "ch": 8}, {"t": 11.076, "dur": 0.171, "note": 59, "inst": "celesta_v0_additive_3", "vel": 1.0, "bend": 0.0, "ch": 11}, {"t": 11.247, "dur": 0.171, "note": 52, "inst": "harpsichord_v0_additive_2", "vel": 1.0, "bend": 0.0, "ch": 4}, {"t": 11.418, "dur": 0.171, "note": 64, "inst": "harpsichord_v0_additive_2", "vel": 1.0, "bend": 0.0, "ch": 0}, {"t": 11.589, "dur": 0.171, "note": 64, "inst": "harpsichord_v0_additive_2", "vel": 1.0, "bend": 0.0, "ch": 0}, {"t": 11.76, "dur": 0.685, "note": 28, "inst": "harpsichord_v0_additive_2", "vel": 1.0, "bend": 0.0, "ch": 12}, {"t": 11.76, "dur": 0.685, "note": 64, "inst": "harpsichord_v0_additive_2", "vel": 1.0, "bend": 0.0, "ch": 0}, {"t": 12.445, "dur": 0.685, "note": 24, "inst": "organ_v0_additive_1", "vel": 1.0, "bend": 0.0, "ch": 8}, {"t": 12.788, "dur": 0.114, "note": 64, "inst": "harpsichord_v0_additive_2", "vel": 1.0, "bend": 0.0, "ch": 0}, {"t": 12.902, "dur": 0.114, "note": 71, "inst": "celesta_v0_additive_3", "vel": 1.0, "bend": 0.0, "ch": 7}, {"t": 13.016, "dur": 0.114, "note": 64, "inst": "harpsichord_v0_additive_2", "vel": 1.0, "bend": 0.0, "ch": 0}, {"t": 13.13, "dur": 0.685, "note": 28, "inst": "harpsichord_v0_additive_2", "vel": 1.0, "bend": 0.0, "ch": 12}, {"t": 13.13, "dur": 0.342, "note": 64, "inst": "harpsichord_v0_additive_2", "vel": 1.0, "bend": 0.0, "ch": 0}, {"t": 13.472, "dur": 0.342, "note": 71, "inst": "celesta_v0_additive_3", "vel": 1.0, "bend": 0.0, "ch": 7}, {"t": 13.815, "dur": 0.685, "note": 24, "inst": "organ_v0_additive_1", "vel": 1.0, "bend": 0.0, "ch": 8}, {"t": 13.815, "dur": 0.342, "note": 71, "inst": "celesta_v0_additive_3", "vel": 1.0, "bend": 0.0, "ch": 7}, {"t": 14.157, "dur": 0.114, "note": 64, "inst": "harpsichord_v0_additive_2", "vel": 1.0, "bend": 0.0, "ch": 0}, {"t": 14.271, "dur": 0.114, "note": 64, "inst": "harpsichord_v0_additive_2", "vel": 1.0, "bend": 0.0, "ch": 0}, {"t": 42.098, "dur": 0.166, "note": 30, "inst": "organ_v0_additive_1", "vel": 1.0, "bend": 0.0, "ch": 14}, {"t": 42.264, "dur": 0.166, "note": 34, "inst": "harpsichord_v0_additive_2", "vel": 1.0, "bend": 0.0, "ch": 2}, {"t": 42.43, "dur": 0.166, "note": 36, "inst": "organ_v0_additive_1", "vel": 1.0, "bend": 0.0, "ch": 4}, {"t": 42.595, "dur": 0.166, "note": 36, "inst": "organ_v0_additive_1", "vel": 1.0, "bend": 0.0, "ch": 4}, {"t": 42.761, "dur": 0.166, "note": 34, "inst": "harpsichord_v0_additive_2", "vel": 1.0, "bend": 0.0, "ch": 2}, {"t": 42.926, "dur": 0.166, "note": 32, "inst": "celesta_v0_additive_3", "vel": 1.0, "bend": 0.0, "ch": 0}, {"t": 42.926, "dur": 1.987, "note": 48, "inst": "organ_v0_additive_1", "vel": 1.0, "bend": 0.0, "ch": 0}, {"t": 43.092, "dur": 0.166, "note": 26, "inst": "celesta_v0_additive_3", "vel": 1.0, "bend": 0.0, "ch": 10}, {"t": 43.258, "dur": 0.166, "note": 24, "inst": "organ_v0_additive_1", "vel": 1.0, "bend": 0.0, "ch": 8}, {"t": 43.423, "dur": 0.166, "note": 24, "inst": "organ_v0_additive_1", "vel": 1.0, "bend": 0.0, "ch": 8}, {"t": 43.589, "dur": 0.166, "note": 24, "inst": "organ_v0_additive_1", "vel": 1.0, "bend": 0.0, "ch": 8}, {"t": 43.754, "dur": 0.166, "note": 26, "inst": "celesta_v0_additive_3", "vel": 1.0, "bend": 0.0, "ch": 10}, {"t": 43.92, "dur": 0.166, "note": 24, "inst": "organ_v0_additive_1", "vel": 1.0, "bend": 0.0, "ch": 8}, {"t": 44.086, "dur": 0.166, "note": 26, "inst": "celesta_v0_additive_3", "vel": 1.0, "bend": 0.0, "ch": 10}, {"t": 44.251, "dur": 0.166, "note": 32, "inst": "celesta_v0_additive_3", "vel": 1.0, "bend": 0.0, "ch": 0}, {"t": 44.417, "dur": 0.166, "note": 36, "inst": "organ_v0_additive_1", "vel": 1.0, "bend": 0.0, "ch": 4}, {"t": 44.583, "dur": 0.166, "note": 34, "inst": "harpsichord_v0_additive_2", "vel": 1.0, "bend": 0.0, "ch": 2}, {"t": 44.748, "dur": 0.166, "note": 32, "inst": "celesta_v0_additive_3", "vel": 1.0, "bend": 0.0, "ch": 0}, {"t": 44.914, "dur": 0.166, "note": 36, "inst": "organ_v0_additive_1", "vel": 1.0, "bend": 0.0, "ch": 4}, {"t": 44.914, "dur": 1.987, "note": 46, "inst": "harpsichord_v0_additive_2", "vel": 1.0, "bend": 0.0, "ch": 14}, {"t": 44.914, "dur": 1.987, "note": 52, "inst": "harpsichord_v0_additive_2", "vel": 1.0, "bend": 0.0, "ch": 4}, {"t": 45.079, "dur": 0.166, "note": 32, "inst": "celesta_v0_additive_3", "vel": 1.0, "bend": 0.0, "ch": 0}, {"t": 45.245, "dur": 0.166, "note": 28, "inst": "harpsichord_v0_additive_2", "vel": 1.0, "bend": 0.0, "ch": 12}, {"t": 45.411, "dur": 0.166, "note": 26, "inst": "celesta_v0_additive_3", "vel": 1.0, "bend": 0.0, "ch": 10}, {"t": 45.576, "dur": 0.166, "note": 28, "inst": "harpsichord_v0_additive_2", "vel": 1.0, "bend": 0.0, "ch": 12}, {"t": 45.742, "dur": 0.166, "note": 32, "inst": "celesta_v0_additive_3", "vel": 1.0, "bend": 0.0, "ch": 0}, {"t": 45.907, "dur": 0.166, "note": 24, "inst": "organ_v0_additive_1", "vel": 1.0, "bend": 0.0, "ch": 8}, {"t": 46.073, "dur": 0.166, "note": 32, "inst": "celesta_v0_additive_3", "vel": 1.0, "bend": 0.0, "ch": 0}, {"t": 46.239, "dur": 0.166, "note": 36, "inst": "organ_v0_additive_1", "vel": 1.0, "bend": 0.0, "ch": 4}, {"t": 46.404, "dur": 0.166, "note": 40, "inst": "harpsichord_v0_additive_2", "vel": 1.0, "bend": 0.0, "ch": 8}, {"t": 46.57, "dur": 0.166, "note": 38, "inst": "celesta_v0_additive_3", "vel": 1.0, "bend": 0.0, "ch": 6}, {"t": 46.735, "dur": 0.166, "note": 36, "inst": "organ_v0_additive_1", "vel": 1.0, "bend": 0.0, "ch": 4}, {"t": 46.901, "dur": 5.3, "note": 42, "inst": "organ_v0_additive_1", "vel": 1.0, "bend": 0.0, "ch": 10}, {"t": 46.901, "dur": 0.166, "note": 46, "inst": "harpsichord_v0_additive_2", "vel": 1.0, "bend": 0.0, "ch": 14}, {"t": 47.067, "dur": 0.166, "note": 52, "inst": "harpsichord_v0_additive_2", "vel": 1.0, "bend": 0.0, "ch": 4}, {"t": 47.232, "dur": 0.166, "note": 48, "inst": "organ_v0_additive_1", "vel": 1.0, "bend": 0.0, "ch": 0}, {"t": 47.398, "dur": 0.166, "note": 48, "inst": "organ_v0_additive_1", "vel": 1.0, "bend": 0.0, "ch": 0}, {"t": 47.564, "dur": 0.166, "note": 48, "inst": "organ_v0_additive_1", "vel": 1.0, "bend": 0.0, "ch": 0}, {"t": 47.729, "dur": 0.166, "note": 52, "inst": "harpsichord_v0_additive_2", "vel": 1.0, "bend": 0.0, "ch": 4}, {"t": 47.895, "dur": 0.166, "note": 46, "inst": "harpsichord_v0_additive_2", "vel": 1.0, "bend": 0.0, "ch": 14}, {"t": 48.06, "dur": 0.166, "note": 48, "inst": "organ_v0_additive_1", "vel": 1.0, "bend": 0.0, "ch": 0}, {"t": 48.226, "dur": 0.166, "note": 52, "inst": "harpsichord_v0_additive_2", "vel": 1.0, "bend": 0.0, "ch": 4}, {"t": 48.392, "dur": 0.166, "note": 56, "inst": "celesta_v0_additive_3", "vel": 1.0, "bend": 0.0, "ch": 8}, {"t": 48.557, "dur": 0.166, "note": 54, "inst": "organ_v0_additive_1", "vel": 1.0, "bend": 0.0, "ch": 6}, {"t": 48.723, "dur": 0.166, "note": 52, "inst": "harpsichord_v0_additive_2", "vel": 1.0, "bend": 0.0, "ch": 4}, {"t": 48.888, "dur": 0.166, "note": 50, "inst": "celesta_v0_additive_3", "vel": 1.0, "bend": 0.0, "ch": 2}, {"t": 49.054, "dur": 0.166, "note": 58, "inst": "harpsichord_v0_additive_2", "vel": 1.0, "bend": 0.0, "ch": 10}, {"t": 49.22, "dur": 0.166, "note": 54, "inst": "organ_v0_additive_1", "vel": 1.0, "bend": 0.0, "ch": 6}, {"t": 49.385, "dur": 0.166, "note": 52, "inst": "harpsichord_v0_additive_2", "vel": 1.0, "bend": 0.0, "ch": 4}, {"t": 49.551, "dur": 0.166, "note": 54, "inst": "organ_v0_additive_1", "vel": 1.0, "bend": 0.0, "ch": 6}, {"t": 49.717, "dur": 0.166, "note": 58, "inst": "harpsichord_v0_additive_2", "vel": 1.0, "bend": 0.0, "ch": 10}, {"t": 49.882, "dur": 0.166, "note": 50, "inst": "celesta_v0_additive_3", "vel": 1.0, "bend": 0.0, "ch": 2}, {"t": 50.048, "dur": 0.166, "note": 54, "inst": "organ_v0_additive_1", "vel": 1.0, "bend": 0.0, "ch": 6}, {"t": 50.213, "dur": 0.166, "note": 58, "inst": "harpsichord_v0_additive_2", "vel": 1.0, "bend": 0.0, "ch": 10}, {"t": 50.379, "dur": 0.166, "note": 60, "inst": "organ_v0_additive_1", "vel": 1.0, "bend": 0.0, "ch": 12}, {"t": 50.545, "dur": 0.166, "note": 60, "inst": "organ_v0_additive_1", "vel": 1.0, "bend": 0.0, "ch": 12}, {"t": 50.71, "dur": 0.166, "note": 58, "inst": "harpsichord_v0_additive_2", "vel": 1.0, "bend": 0.0, "ch": 10}, {"t": 50.876, "dur": 0.166, "note": 60, "inst": "organ_v0_additive_1", "vel": 1.0, "bend": 0.0, "ch": 12}, {"t": 51.041, "dur": 0.166, "note": 62, "inst": "celesta_v0_additive_3", "vel": 1.0, "bend": 0.0, "ch": 14}, {"t": 51.207, "dur": 0.166, "note": 60, "inst": "organ_v0_additive_1", "vel": 1.0, "bend": 0.0, "ch": 12}, {"t": 51.373, "dur": 0.166, "note": 58, "inst": "harpsichord_v0_additive_2", "vel": 1.0, "bend": 0.0, "ch": 10}, {"t": 51.538, "dur": 0.166, "note": 60, "inst": "organ_v0_additive_1", "vel": 1.0, "bend": 0.0, "ch": 12}, {"t": 51.704, "dur": 0.166, "note": 62, "inst": "celesta_v0_additive_3", "vel": 1.0, "bend": 0.0, "ch": 14}, {"t": 51.869, "dur": 0.166, "note": 56, "inst": "celesta_v0_additive_3", "vel": 1.0, "bend": 0.0, "ch": 8}, {"t": 84.144, "dur": 0.15, "note": 47, "inst": "celesta_v0_additive_3", "vel": 1.0, "bend": 0.0, "ch": 15}, {"t": 84.294, "dur": 0.15, "note": 37, "inst": "harpsichord_v0_additive_2", "vel": 1.0, "bend": 0.0, "ch": 5}, {"t": 84.294, "dur": 0.15, "note": 45, "inst": "organ_v0_additive_1", "vel": 1.0, "bend": 0.0, "ch": 13}, {"t": 84.445, "dur": 0.15, "note": 54, "inst": "organ_v0_additive_1", "vel": 1.0, "bend": 0.0, "ch": 6}, {"t": 84.595, "dur": 0.301, "note": 33, "inst": "organ_v0_additive_1", "vel": 1.0, "bend": 0.0, "ch": 1}, {"t": 84.595, "dur": 0.15, "note": 42, "inst": "organ_v0_additive_1", "vel": 1.0, "bend": 0.0, "ch": 10}, {"t": 84.745, "dur": 0.15, "note": 45, "inst": "organ_v0_additive_1", "vel": 1.0, "bend": 0.0, "ch": 13}, {"t": 84.896, "dur": 0.301, "note": 35, "inst": "celesta_v0_additive_3", "vel": 1.0, "bend": 0.0, "ch": 3}, {"t": 84.896, "dur": 0.15, "note": 45, "inst": "organ_v0_additive_1", "vel": 1.0, "bend": 0.0, "ch": 13}, {"t": 85.046, "dur": 0.15, "note": 54, "inst": "organ_v0_additive_1", "vel": 1.0, "bend": 0.0, "ch": 6}, {"t": 85.196, "dur": 0.301, "note": 33, "inst": "organ_v0_additive_1", "vel": 1.0, "bend": 0.0, "ch": 1}, {"t": 85.196, "dur": 0.15, "note": 54, "inst": "organ_v0_additive_1", "vel": 1.0, "bend": 0.0, "ch": 6}, {"t": 85.347, "dur": 0.15, "note": 59, "inst": "celesta_v0_additive_3", "vel": 1.0, "bend": 0.0, "ch": 11}, {"t": 85.497, "dur": 0.15, "note": 25, "inst": "harpsichord_v0_additive_2", "vel": 1.0, "bend": 0.0, "ch": 9}, {"t": 85.497, "dur": 0.451, "note": 57, "inst": "organ_v0_additive_1", "vel": 1.0, "bend": 0.0, "ch": 9}, {"t": 85.647, "dur": 0.15, "note": 37, "inst": "harpsichord_v0_additive_2", "vel": 1.0, "bend": 0.0, "ch": 5}, {"t": 85.798, "dur": 0.15, "note": 33, "inst": "organ_v0_additive_1", "vel": 1.0, "bend": 0.0, "ch": 1}, {"t": 85.948, "dur": 0.15, "note": 35, "inst": "celesta_v0_additive_3", "vel": 1.0, "bend": 0.0, "ch": 3}, {"t": 85.948, "dur": 0.15, "note": 54, "inst": "organ_v0_additive_1", "vel": 1.0, "bend": 0.0, "ch": 6}, {"t": 86.098, "dur": 0.15, "note": 33, "inst": "organ_v0_additive_1", "vel": 1.0, "bend": 0.0, "ch": 1}, {"t": 86.098, "dur": 0.601, "note": 54, "inst": "organ_v0_additive_1", "vel": 1.0, "bend": 0.0, "ch": 6}, {"t": 86.248, "dur": 0.15, "note": 37, "inst": "harpsichord_v0_additive_2", "vel": 1.0, "bend": 0.0, "ch": 5}, {"t": 86.399, "dur": 0.15, "note": 30, "inst": "organ_v0_additive_1", "vel": 1.0, "bend": 0.0, "ch": 14}, {"t": 86.549, "dur": 0.15, "note": 33, "inst": "organ_v0_additive_1", "vel": 1.0, "bend": 0.0, "ch": 1}, {"t": 86.699, "dur": 0.15, "note": 30, "inst": "organ_v0_additive_1", "vel": 1.0, "bend": 0.0, "ch": 14}, {"t": 86.85, "dur": 0.15, "note": 57, "inst": "organ_v0_additive_1", "vel": 1.0, "bend": 0.0, "ch": 9}, {"t": 87.0, "dur": 0.301, "note": 33, "inst": "organ_v0_additive_1", "vel": 1.0, "bend": 0.0, "ch": 1}, {"t": 87.0, "dur": 0.15, "note": 49, "inst": "harpsichord_v0_additive_2", "vel": 1.0, "bend": 0.0, "ch": 1}, {"t": 87.15, "dur": 0.15, "note": 52, "inst": "harpsichord_v0_additive_2", "vel": 1.0, "bend": 0.0, "ch": 4}, {"t": 87.301, "dur": 0.15, "note": 35, "inst": "celesta_v0_additive_3", "vel": 1.0, "bend": 0.0, "ch": 3}, {"t": 87.301, "dur": 0.451, "note": 52, "inst": "harpsichord_v0_additive_2", "vel": 1.0, "bend": 0.0, "ch": 4}, {"t": 87.451, "dur": 0.15, "note": 47, "inst": "celesta_v0_additive_3", "vel": 1.0, "bend": 0.0, "ch": 15}, {"t": 87.601, "dur": 0.15, "note": 42, "inst": "organ_v0_additive_1", "vel": 1.0, "bend": 0.0, "ch": 10}, {"t": 87.752, "dur": 0.15, "note": 45, "inst": "organ_v0_additive_1", "vel": 1.0, "bend": 0.0, "ch": 13}, {"t": 87.752, "dur": 0.15, "note": 54, "inst": "organ_v0_additive_1", "vel": 1.0, "bend": 0.0, "ch": 6}, {"t": 87.902, "dur": 0.301, "note": 45, "inst": "organ_v0_additive_1", "vel": 1.0, "bend": 0.0, "ch": 13}, {"t": 87.902, "dur": 0.15, "note": 47, "inst": "celesta_v0_additive_3", "vel": 1.0, "bend": 0.0, "ch": 15}, {"t": 88.052, "dur": 0.15, "note": 59, "inst": "celesta_v0_additive_3", "vel": 1.0, "bend": 0.0, "ch": 11}, {"t": 88.203, "dur": 0.301, "note": 40, "inst": "harpsichord_v0_additive_2", "vel": 1.0, "bend": 0.0, "ch": 8}, {"t": 88.203, "dur": 0.15, "note": 54, "inst": "organ_v0_additive_1", "vel": 1.0, "bend": 0.0, "ch": 6}, {"t": 88.353, "dur": 0.15, "note": 57, "inst": "organ_v0_additive_1", "vel": 1.0, "bend": 0.0, "ch": 9}, {"t": 88.503, "dur": 0.601, "note": 57, "inst": "organ_v0_additive_1", "vel": 1.0, "bend": 0.0, "ch": 9}, {"t": 88.654, "dur": 0.15, "note": 40, "inst": "harpsichord_v0_additive_2", "vel": 1.0, "bend": 0.0, "ch": 8}, {"t": 88.804, "dur": 0.15, "note": 37, "inst": "harpsichord_v0_additive_2", "vel": 1.0, "bend": 0.0, "ch": 5}, {"t": 88.954, "dur": 0.15, "note": 40, "inst": "harpsichord_v0_additive_2", "vel": 1.0, "bend": 0.0, "ch": 8}, {"t": 89.104, "dur": 0.15, "note": 37, "inst": "harpsichord_v0_additive_2", "vel": 1.0, "bend": 0.0, "ch": 5}, {"t": 89.255, "dur": 0.15, "note": 52, "inst": "harpsichord_v0_additive_2", "vel": 1.0, "bend": 0.0, "ch": 4}, {"t": 89.405, "dur": 0.301, "note": 33, "inst": "organ_v0_additive_1", "vel": 1.0, "bend": 0.0, "ch": 1}, {"t": 89.405, "dur": 0.15, "note": 49, "inst": "harpsichord_v0_additive_2", "vel": 1.0, "bend": 0.0, "ch": 1}, {"t": 89.555, "dur": 0.15, "note": 52, "inst": "harpsichord_v0_additive_2", "vel": 1.0, "bend": 0.0, "ch": 4}, {"t": 89.706, "dur": 0.15, "note": 33, "inst": "organ_v0_additive_1", "vel": 1.0, "bend": 0.0, "ch": 1}, {"t": 89.706, "dur": 0.451, "note": 49, "inst": "harpsichord_v0_additive_2", "vel": 1.0, "bend": 0.0, "ch": 1}, {"t": 89.856, "dur": 0.15, "note": 45, "inst": "organ_v0_additive_1", "vel": 1.0, "bend": 0.0, "ch": 13}, {"t": 90.006, "dur": 0.15, "note": 40, "inst": "harpsichord_v0_additive_2", "vel": 1.0, "bend": 0.0, "ch": 8}, {"t": 90.157, "dur": 0.15, "note": 45, "inst": "organ_v0_additive_1", "vel": 1.0, "bend": 0.0, "ch": 13}, {"t": 90.157, "dur": 0.15, "note": 52, "inst": "harpsichord_v0_additive_2", "vel": 1.0, "bend": 0.0, "ch": 4}, {"t": 90.307, "dur": 0.301, "note": 42, "inst": "organ_v0_additive_1", "vel": 1.0, "bend": 0.0, "ch": 10}, {"t": 90.307, "dur": 0.15, "note": 45, "inst": "organ_v0_additive_1", "vel": 1.0, "bend": 0.0, "ch": 13}, {"t": 90.457, "dur": 0.15, "note": 57, "inst": "organ_v0_additive_1", "vel": 1.0, "bend": 0.0, "ch": 9}, {"t": 90.608, "dur": 0.301, "note": 37, "inst": "harpsichord_v0_additive_2", "vel": 1.0, "bend": 0.0, "ch": 5}, {"t": 90.608, "dur": 0.15, "note": 52, "inst": "harpsichord_v0_additive_2", "vel": 1.0, "bend": 0.0, "ch": 4}, {"t": 90.758, "dur": 0.15, "note": 57, "inst": "organ_v0_additive_1", "vel": 1.0, "bend": 0.0, "ch": 9}, {"t": 90.908, "dur": 0.601, "note": 54, "inst": "organ_v0_additive_1", "vel": 1.0, "bend": 0.0, "ch": 6}, {"t": 91.059, "dur": 0.15, "note": 40, "inst": "harpsichord_v0_additive_2", "vel": 1.0, "bend": 0.0, "ch": 8}, {"t": 91.209, "dur": 0.15, "note": 35, "inst": "celesta_v0_additive_3", "vel": 1.0, "bend": 0.0, "ch": 3}, {"t": 91.359, "dur": 0.15, "note": 37, "inst": "harpsichord_v0_additive_2", "vel": 1.0, "bend": 0.0, "ch": 5}, {"t": 91.51, "dur": 0.15, "note": 37, "inst": "harpsichord_v0_additive_2", "vel": 1.0, "bend": 0.0, "ch": 5}, {"t": 91.66, "dur": 0.15, "note": 52, "inst": "harpsichord_v0_additive_2", "vel": 1.0, "bend": 0.0, "ch": 4}, {"t": 91.81, "dur": 0.301, "note": 24, "inst": "organ_v0_additive_1", "vel": 1.0, "bend": 0.0, "ch": 8}, {"t": 91.81, "dur": 0.15, "note": 47, "inst": "celesta_v0_additive_3", "vel": 1.0, "bend": 0.0, "ch": 15}, {"t": 91.96, "dur": 0.15, "note": 49, "inst": "harpsichord_v0_additive_2", "vel": 1.0, "bend": 0.0, "ch": 1}, {"t": 92.111, "dur": 0.15, "note": 33, "inst": "organ_v0_additive_1", "vel": 1.0, "bend": 0.0, "ch": 1}, {"t": 92.111, "dur": 0.451, "note": 49, "inst": "harpsichord_v0_additive_2", "vel": 1.0, "bend": 0.0, "ch": 1}, {"t": 92.261, "dur": 0.15, "note": 45, "inst": "organ_v0_additive_1", "vel": 1.0, "bend": 0.0, "ch": 13}, {"t": 92.411, "dur": 0.15, "note": 40, "inst": "harpsichord_v0_additive_2", "vel": 1.0, "bend": 0.0, "ch": 8}, {"t": 92.562, "dur": 0.15, "note": 42, "inst": "organ_v0_additive_1", "vel": 1.0, "bend": 0.0, "ch": 10}, {"t": 92.562, "dur": 0.15, "note": 52, "inst": "harpsichord_v0_additive_2", "vel": 1.0, "bend": 0.0, "ch": 4}, {"t": 92.712, "dur": 0.301, "note": 40, "inst": "harpsichord_v0_additive_2", "vel": 1.0, "bend": 0.0, "ch": 8}, {"t": 92.712, "dur": 0.15, "note": 45, "inst": "organ_v0_additive_1", "vel": 1.0, "bend": 0.0, "ch": 13}, {"t": 92.862, "dur": 0.15, "note": 57, "inst": "organ_v0_additive_1", "vel": 1.0, "bend": 0.0, "ch": 9}, {"t": 93.013, "dur": 0.301, "note": 37, "inst": "harpsichord_v0_additive_2", "vel": 1.0, "bend": 0.0, "ch": 5}, {"t": 93.013, "dur": 0.15, "note": 52, "inst": "harpsichord_v0_additive_2", "vel": 1.0, "bend": 0.0, "ch": 4}, {"t": 93.163, "dur": 0.15, "note": 54, "inst": "organ_v0_additive_1", "vel": 1.0, "bend": 0.0, "ch": 6}, {"t": 93.313, "dur": 0.601, "note": 52, "inst": "harpsichord_v0_additive_2", "vel": 1.0, "bend": 0.0, "ch": 4}, {"t": 93.464, "dur": 0.15, "note": 37, "inst": "harpsichord_v0_additive_2", "vel": 1.0, "bend": 0.0, "ch": 5}, {"t": 93.614, "dur": 0.15, "note": 33, "inst": "organ_v0_additive_1", "vel": 1.0, "bend": 0.0, "ch": 1}, {"t": 126.165, "dur": 0.196, "note": 84, "inst": "organ_v0_additive_1", "vel": 0.709, "bend": 0.0, "ch": 4}, {"t": 126.361, "dur": 0.196, "note": 86, "inst": "celesta_v0_additive_3", "vel": 0.709, "bend": 0.0, "ch": 6}, {"t": 126.557, "dur": 0.196, "note": 87, "inst": "organ_v0_additive_1", "vel": 0.709, "bend": 0.0, "ch": 7}, {"t": 126.752, "dur": 1.174, "note": 51, "inst": "organ_v0_additive_1", "vel": 0.709, "bend": 0.0, "ch": 3}, {"t": 126.752, "dur": 1.174, "note": 55, "inst": "harpsichord_v0_additive_2", "vel": 0.709, "bend": 0.0, "ch": 7}, {"t": 126.752, "dur": 1.174, "note": 58, "inst": "harpsichord_v0_additive_2", "vel": 0.709, "bend": 0.0, "ch": 10}, {"t": 126.752, "dur": 0.196, "note": 75, "inst": "organ_v0_additive_1", "vel": 0.709, "bend": 0.0, "ch": 11}, {"t": 126.948, "dur": 0.196, "note": 77, "inst": "celesta_v0_additive_3", "vel": 0.709, "bend": 0.0, "ch": 13}, {"t": 127.144, "dur": 0.196, "note": 75, "inst": "organ_v0_additive_1", "vel": 0.709, "bend": 0.0, "ch": 11}, {"t": 127.339, "dur": 0.391, "note": 79, "inst": "harpsichord_v0_additive_2", "vel": 0.709, "bend": 0.0, "ch": 15}, {"t": 127.731, "dur": 0.196, "note": 80, "inst": "celesta_v0_additive_3", "vel": 0.709, "bend": 0.0, "ch": 0}, {"t": 127.927, "dur": 1.174, "note": 51, "inst": "organ_v0_additive_1", "vel": 0.709, "bend": 0.0, "ch": 3}, {"t": 127.927, "dur": 1.174, "note": 55, "inst": "harpsichord_v0_additive_2", "vel": 0.709, "bend": 0.0, "ch": 7}, {"t": 127.927, "dur": 1.174, "note": 58, "inst": "harpsichord_v0_additive_2", "vel": 0.709, "bend": 0.0, "ch": 10}, {"t": 127.927, "dur": 0.196, "note": 82, "inst": "harpsichord_v0_additive_2", "vel": 0.709, "bend": 0.0, "ch": 2}, {"t": 128.122, "dur": 0.196, "note": 84, "inst": "organ_v0_additive_1", "vel": 0.709, "bend": 0.0, "ch": 4}, {"t": 128.318, "dur": 0.196, "note": 82, "inst": "harpsichord_v0_additive_2", "vel": 0.709, "bend": 0.0, "ch": 2}, {"t": 128.514, "dur": 0.196, "note": 82, "inst": "harpsichord_v0_additive_2", "vel": 0.709, "bend": 0.0, "ch": 2}, {"t": 128.709, "dur": 0.196, "note": 79, "inst": "harpsichord_v0_additive_2", "vel": 0.709, "bend": 0.0, "ch": 15}, {"t": 128.905, "dur": 0.196, "note": 75, "inst": "organ_v0_additive_1", "vel": 0.709, "bend": 0.0, "ch": 11}, {"t": 129.101, "dur": 1.174, "note": 53, "inst": "celesta_v0_additive_3", "vel": 0.709, "bend": 0.0, "ch": 5}, {"t": 129.101, "dur": 1.174, "note": 56, "inst": "celesta_v0_additive_3", "vel": 0.709, "bend": 0.0, "ch": 8}, {"t": 129.101, "dur": 1.174, "note": 60, "inst": "organ_v0_additive_1", "vel": 0.709, "bend": 0.0, "ch": 12}, {"t": 129.101, "dur": 0.196, "note": 77, "inst": "celesta_v0_additive_3", "vel": 0.709, "bend": 0.0, "ch": 13}, {"t": 129.297, "dur": 0.196, "note": 79, "inst": "harpsichord_v0_additive_2", "vel": 0.709, "bend": 0.0, "ch": 15}, {"t": 129.492, "dur": 0.196, "note": 77, "inst": "celesta_v0_additive_3", "vel": 0.709, "bend": 0.0, "ch": 13}, {"t": 129.688, "dur": 0.391, "note": 80, "inst": "celesta_v0_additive_3", "vel": 0.709, "bend": 0.0, "ch": 0}, {"t": 130.079, "dur": 0.196, "note": 82, "inst": "harpsichord_v0_additive_2", "vel": 0.709, "bend": 0.0, "ch": 2}, {"t": 130.275, "dur": 1.174, "note": 53, "inst": "celesta_v0_additive_3", "vel": 0.709, "bend": 0.0, "ch": 5}, {"t": 130.275, "dur": 1.174, "note": 56, "inst": "celesta_v0_additive_3", "vel": 0.709, "bend": 0.0, "ch": 8}, {"t": 130.275, "dur": 1.174, "note": 60, "inst": "organ_v0_additive_1", "vel": 0.709, "bend": 0.0, "ch": 12}, {"t": 130.275, "dur": 0.391, "note": 84, "inst": "organ_v0_additive_1", "vel": 0.709, "bend": 0.0, "ch": 4}, {"t": 130.667, "dur": 0.196, "note": 82, "inst": "harpsichord_v0_additive_2", "vel": 0.709, "bend": 0.0, "ch": 2}, {"t": 130.862, "dur": 0.196, "note": 84, "inst": "organ_v0_additive_1", "vel": 0.709, "bend": 0.0, "ch": 4}, {"t": 131.058, "dur": 0.196, "note": 86, "inst": "celesta_v0_additive_3", "vel": 0.709, "bend": 0.0, "ch": 6}, {"t": 131.254, "dur": 0.196, "note": 87, "inst": "organ_v0_additive_1", "vel": 0.709, "bend": 0.0, "ch": 7}, {"t": 131.449, "dur": 0.587, "note": 56, "inst": "celesta_v0_additive_3", "vel": 0.709, "bend": 0.0, "ch": 8}, {"t": 131.449, "dur": 0.587, "note": 60, "inst": "organ_v0_additive_1", "vel": 0.709, "bend": 0.0, "ch": 12}, {"t": 131.449, "dur": 0.587, "note": 63, "inst": "organ_v0_additive_1", "vel": 0.709, "bend": 0.0, "ch": 15}, {"t": 131.449, "dur": 0.196, "note": 89, "inst": "celesta_v0_additive_3", "vel": 0.709, "bend": 0.0, "ch": 9}, {"t": 131.645, "dur": 0.196, "note": 87, "inst": "organ_v0_additive_1", "vel": 0.709, "bend": 0.0, "ch": 7}, {"t": 131.841, "dur": 0.196, "note": 84, "inst": "organ_v0_additive_1", "vel": 0.709, "bend": 0.0, "ch": 4}, {"t": 132.037, "dur": 0.587, "note": 58, "inst": "harpsichord_v0_additive_2", "vel": 0.709, "bend": 0.0, "ch": 10}, {"t": 132.037, "dur": 0.587, "note": 60, "inst": "organ_v0_additive_1", "vel": 0.709, "bend": 0.0, "ch": 12}, {"t": 132.037, "dur": 0.587, "note": 65, "inst": "celesta_v0_additive_3", "vel": 0.709, "bend": 0.0, "ch": 1}, {"t": 132.037, "dur": 0.196, "note": 84, "inst": "organ_v0_additive_1", "vel": 0.709, "bend": 0.0, "ch": 4}, {"t": 132.232, "dur": 0.196, "note": 84, "inst": "organ_v0_additive_1", "vel": 0.709, "bend": 0.0, "ch": 4}, {"t": 132.428, "dur": 0.196, "note": 82, "inst": "harpsichord_v0_additive_2", "vel": 0.709, "bend": 0.0, "ch": 2}, {"t": 132.624, "dur": 1.174, "note": 53, "inst": "celesta_v0_additive_3", "vel": 0.709, "bend": 0.0, "ch": 5}, {"t": 132.624, "dur": 1.174, "note": 56, "inst": "celesta_v0_additive_3", "vel": 0.709, "bend": 0.0, "ch": 8}, {"t": 132.624, "dur": 1.174, "note": 60, "inst": "organ_v0_additive_1", "vel": 0.709, "bend": 0.0, "ch": 12}, {"t": 132.624, "dur": 0.196, "note": 84, "inst": "organ_v0_additive_1", "vel": 0.709, "bend": 0.0, "ch": 4}, {"t": 132.819, "dur": 0.196, "note": 80, "inst": "celesta_v0_additive_3", "vel": 0.709, "bend": 0.0, "ch": 0}, {"t": 133.015, "dur": 0.196, "note": 77, "inst": "celesta_v0_additive_3", "vel": 0.709, "bend": 0.0, "ch": 13}, {"t": 133.211, "dur": 0.391, "note": 77, "inst": "celesta_v0_additive_3", "vel": 0.709, "bend": 0.0, "ch": 13}, {"t": 133.602, "dur": 0.196, "note": 87, "inst": "organ_v0_additive_1", "vel": 0.709, "bend": 0.0, "ch": 7}, {"t": 133.798, "dur": 1.174, "note": 53, "inst": "celesta_v0_additive_3", "vel": 0.709, "bend": 0.0, "ch": 5}, {"t": 133.798, "dur": 1.174, "note": 56, "inst": "celesta_v0_additive_3", "vel": 0.709, "bend": 0.0, "ch": 8}, {"t": 133.798, "dur": 1.174, "note": 60, "inst": "organ_v0_additive_1", "vel": 0.709, "bend": 0.0, "ch": 12}, {"t": 133.798, "dur": 0.391, "note": 89, "inst": "celesta_v0_additive_3", "vel": 0.709, "bend": 0.0, "ch": 9}, {"t": 134.189, "dur": 0.196, "note": 91, "inst": "harpsichord_v0_additive_2", "vel": 0.709, "bend": 0.0, "ch": 11}, {"t": 134.385, "dur": 0.196, "note": 92, "inst": "celesta_v0_additive_3", "vel": 0.709, "bend": 0.0, "ch": 12}, {"t": 134.581, "dur": 0.196, "note": 91, "inst": "harpsichord_v0_additive_2", "vel": 0.709, "bend": 0.0, "ch": 11}, {"t": 134.777, "dur": 0.196, "note": 89, "inst": "celesta_v0_additive_3", "vel": 0.709, "bend": 0.0, "ch": 9}, {"t": 134.972, "dur": 1.174, "note": 51, "inst": "organ_v0_additive_1", "vel": 0.709, "bend": 0.0, "ch": 3}, {"t": 134.972, "dur": 1.174, "note": 55, "inst": "harpsichord_v0_additive_2", "vel": 0.709, "bend": 0.0, "ch": 7}, {"t": 134.972, "dur": 1.174, "note": 58, "inst": "harpsichord_v0_additive_2", "vel": 0.709, "bend": 0.0, "ch": 10}, {"t": 134.972, "dur": 0.196, "note": 91, "inst": "harpsichord_v0_additive_2", "vel": 0.709, "bend": 0.0, "ch": 11}, {"t": 135.168, "dur": 0.196, "note": 94, "inst": "harpsichord_v0_additive_2", "vel": 0.709, "bend": 0.0, "ch": 14}, {"t": 135.364, "dur": 0.196, "note": 92, "inst": "celesta_v0_additive_3", "vel": 0.709, "bend": 0.0, "ch": 12}, {"t": 135.559, "dur": 0.196, "note": 91, "inst": "harpsichord_v0_additive_2", "vel": 0.709, "bend": 0.0, "ch": 11}, {"t": 135.755, "dur": 0.196, "note": 89, "inst": "celesta_v0_additive_3", "vel": 0.709, "bend": 0.0, "ch": 9}, {"t": 135.951, "dur": 0.196, "note": 87, "inst": "organ_v0_additive_1", "vel": 0.709, "bend": 0.0, "ch": 7}, {"t": 136.147, "dur": 1.174, "note": 53, "inst": "celesta_v0_additive_3", "vel": 0.709, "bend": 0.0, "ch": 5}, {"t": 136.147, "dur": 1.174, "note": 56, "inst": "celesta_v0_additive_3", "vel": 0.709, "bend": 0.0, "ch": 8}, {"t": 136.147, "dur": 1.174, "note": 60, "inst": "organ_v0_additive_1", "vel": 0.709, "bend": 0.0, "ch": 12}, {"t": 136.147, "dur": 0.391, "note": 89, "inst": "celesta_v0_additive_3", "vel": 0.709, "bend": 0.0, "ch": 9}, {"t": 136.538, "dur": 0.196, "note": 91, "inst": "harpsichord_v0_additive_2", "vel": 0.709, "bend": 0.0, "ch": 11}, {"t": 136.734, "dur": 0.196, "note": 92, "inst": "celesta_v0_additive_3", "vel": 0.709, "bend": 0.0, "ch": 12}, {"t": 136.929, "dur": 0.196, "note": 91, "inst": "harpsichord_v0_additive_2", "vel": 0.709, "bend": 0.0, "ch": 11}, {"t": 137.125, "dur": 0.196, "note": 89, "inst": "celesta_v0_additive_3", "vel": 0.709, "bend": 0.0, "ch": 9}, {"t": 137.321, "dur": 1.174, "note": 60, "inst": "organ_v0_additive_1", "vel": 0.709, "bend": 0.0, "ch": 12}, {"t": 137.321, "dur": 1.174, "note": 63, "inst": "organ_v0_additive_1", "vel": 0.709, "bend": 0.0, "ch": 15}, {"t": 137.321, "dur": 1.174, "note": 67, "inst": "harpsichord_v0_additive_2", "vel": 0.709, "bend": 0.0, "ch": 3}, {"t": 137.321, "dur": 0.196, "note": 91, "inst": "harpsichord_v0_additive_2", "vel": 0.709, "bend": 0.0, "ch": 11}, {"t": 137.517, "dur": 0.196, "note": 87, "inst": "organ_v0_additive_1", "vel": 0.709, "bend": 0.0, "ch": 7}, {"t": 137.712, "dur": 0.196, "note": 84, "inst": "organ_v0_additive_1", "vel": 0.709, "bend": 0.0, "ch": 4}, {"t": 137.908, "dur": 0.391, "note": 84, "inst": "organ_v0_additive_1", "vel": 0.709, "bend": 0.0, "ch": 4}, {"t": 138.299, "dur": 0.196, "note": 87, "inst": "organ_v0_additive_1", "vel": 0.709, "bend": 0.0, "ch": 7}, {"t": 138.495, "dur": 1.174, "note": 53, "inst": "celesta_v0_additive_3", "vel": 0.709, "bend": 0.0, "ch": 5}, {"t": 138.495, "dur": 1.174, "note": 56, "inst": "celesta_v0_additive_3", "vel": 0.709, "bend": 0.0, "ch": 8}, {"t": 138.495, "dur": 1.174, "note": 60, "inst": "organ_v0_additive_1", "vel": 0.709, "bend": 0.0, "ch": 12}, {"t": 138.495, "dur": 0.391, "note": 89, "inst": "celesta_v0_additive_3", "vel": 0.709, "bend": 0.0, "ch": 9}, {"t": 138.887, "dur": 0.196, "note": 91, "inst": "harpsichord_v0_additive_2", "vel": 0.709, "bend": 0.0, "ch": 11}, {"t": 139.082, "dur": 0.196, "note": 92, "inst": "celesta_v0_additive_3", "vel": 0.709, "bend": 0.0, "ch": 12}, {"t": 139.278, "dur": 0.196, "note": 91, "inst": "harpsichord_v0_additive_2", "vel": 0.709, "bend": 0.0, "ch": 11}, {"t": 139.474, "dur": 0.196, "note": 89, "inst": "celesta_v0_additive_3", "vel": 0.709, "bend": 0.0, "ch": 9}, {"t": 139.669, "dur": 1.174, "note": 51, "inst": "organ_v0_additive_1", "vel": 0.709, "bend": 0.0, "ch": 3}, {"t": 139.669, "dur": 1.174, "note": 55, "inst": "harpsichord_v0_additive_2", "vel": 0.709, "bend": 0.0, "ch": 7}, {"t": 139.669, "dur": 1.174, "note": 58, "inst": "harpsichord_v0_additive_2", "vel": 0.709, "bend": 0.0, "ch": 10}, {"t": 139.669, "dur": 0.196, "note": 91, "inst": "harpsichord_v0_additive_2", "vel": 0.709, "bend": 0.0, "ch": 11}, {"t": 139.865, "dur": 0.196, "note": 94, "inst": "harpsichord_v0_additive_2", "vel": 0.709, "bend": 0.0, "ch": 14}, {"t": 140.061, "dur": 0.196, "note": 92, "inst": "celesta_v0_additive_3", "vel": 0.709, "bend": 0.0, "ch": 12}, {"t": 140.257, "dur": 0.196, "note": 91, "inst": "harpsichord_v0_additive_2", "vel": 0.709, "bend": 0.0, "ch": 11}, {"t": 140.452, "dur": 0.196, "note": 89, "inst": "celesta_v0_additive_3", "vel": 0.709, "bend": 0.0, "ch": 9}, {"t": 140.648, "dur": 0.196, "note": 87, "inst": "organ_v0_additive_1", "vel": 0.709, "bend": 0.0, "ch": 7}, {"t": 140.844, "dur": 0.587, "note": 56, "inst": "celesta_v0_additive_3", "vel": 0.709, "bend": 0.0, "ch": 8}, {"t": 140.844, "dur": 0.587, "note": 60, "inst": "organ_v0_additive_1", "vel": 0.709, "bend": 0.0, "ch": 12}, {"t": 140.844, "dur": 0.587, "note": 63, "inst": "organ_v0_additive_1", "vel": 0.709, "bend": 0.0, "ch": 15}, {"t": 140.844, "dur": 0.196, "note": 89, "inst": "celesta_v0_additive_3", "vel": 0.709, "bend": 0.0, "ch": 9}, {"t": 141.039, "dur": 0.196, "note": 87, "inst": "organ_v0_additive_1", "vel": 0.709, "bend": 0.0, "ch": 7}, {"t": 141.235, "dur": 0.196, "note": 84, "inst": "organ_v0_additive_1", "vel": 0.709, "bend": 0.0, "ch": 4}, {"t": 141.431, "dur": 0.587, "note": 58, "inst": "harpsichord_v0_additive_2", "vel": 0.709, "bend": 0.0, "ch": 10}, {"t": 141.431, "dur": 0.587, "note": 60, "inst": "organ_v0_additive_1", "vel": 0.709, "bend": 0.0, "ch": 12}, {"t": 141.431, "dur": 0.587, "note": 65, "inst": "celesta_v0_additive_3", "vel": 0.709, "bend": 0.0, "ch": 1}, {"t": 141.431, "dur": 0.196, "note": 84, "inst": "organ_v0_additive_1", "vel": 0.709, "bend": 0.0, "ch": 4}, {"t": 141.627, "dur": 0.196, "note": 84, "inst": "organ_v0_additive_1", "vel": 0.709, "bend": 0.0, "ch": 4}, {"t": 141.822, "dur": 0.196, "note": 82, "inst": "harpsichord_v0_additive_2", "vel": 0.709, "bend": 0.0, "ch": 2}, {"t": 142.018, "dur": 1.174, "note": 53, "inst": "celesta_v0_additive_3", "vel": 0.709, "bend": 0.0, "ch": 5}, {"t": 142.018, "dur": 1.174, "note": 56, "inst": "celesta_v0_additive_3", "vel": 0.709, "bend": 0.0, "ch": 8}, {"t": 142.018, "dur": 1.174, "note": 60, "inst": "organ_v0_additive_1", "vel": 0.709, "bend": 0.0, "ch": 12}, {"t": 142.018, "dur": 0.196, "note": 84, "inst": "organ_v0_additive_1", "vel": 0.709, "bend": 0.0, "ch": 4}, {"t": 142.214, "dur": 0.196, "note": 80, "inst": "celesta_v0_additive_3", "vel": 0.709, "bend": 0.0, "ch": 0}, {"t": 142.409, "dur": 0.196, "note": 77, "inst": "celesta_v0_additive_3", "vel": 0.709, "bend": 0.0, "ch": 13}, {"t": 142.605, "dur": 0.391, "note": 77, "inst": "celesta_v0_additive_3", "vel": 0.709, "bend": 0.0, "ch": 13}, {"t": 142.996, "dur": 0.196, "note": 87, "inst": "organ_v0_additive_1", "vel": 0.709, "bend": 0.0, "ch": 7}, {"t": 143.192, "dur": 1.174, "note": 53, "inst": "celesta_v0_additive_3", "vel": 0.709, "bend": 0.0, "ch": 5}, {"t": 143.192, "dur": 1.174, "note": 56, "inst": "celesta_v0_additive_3", "vel": 0.709, "bend": 0.0, "ch": 8}, {"t": 143.192, "dur": 1.174, "note": 60, "inst": "organ_v0_additive_1", "vel": 0.709, "bend": 0.0, "ch": 12}, {"t": 143.192, "dur": 0.391, "note": 89, "inst": "celesta_v0_additive_3", "vel": 0.709, "bend": 0.0, "ch": 9}, {"t": 143.584, "dur": 0.196, "note": 91, "inst": "harpsichord_v0_additive_2", "vel": 0.709, "bend": 0.0, "ch": 11}, {"t": 168.246, "dur": 0.246, "note": 69, "inst": "organ_v0_additive_1", "vel": 0.787, "bend": 0.0, "ch": 5}, {"t": 168.492, "dur": 0.246, "note": 69, "inst": "organ_v0_additive_1", "vel": 0.787, "bend": 0.0, "ch": 5}, {"t": 168.737, "dur": 0.983, "note": 53, "inst": "celesta_v0_additive_3", "vel": 0.787, "bend": 0.0, "ch": 5}, {"t": 168.737, "dur": 0.983, "note": 56, "inst": "celesta_v0_additive_3", "vel": 0.787, "bend": 0.0, "ch": 8}, {"t": 168.737, "dur": 0.492, "note": 69, "inst": "organ_v0_additive_1", "vel": 0.787, "bend": 0.0, "ch": 5}, {"t": 169.229, "dur": 0.492, "note": 69, "inst": "organ_v0_additive_1", "vel": 0.787, "bend": 0.0, "ch": 5}, {"t": 169.721, "dur": 0.983, "note": 48, "inst": "organ_v0_additive_1", "vel": 0.787, "bend": 0.0, "ch": 0}, {"t": 169.721, "dur": 0.492, "note": 72, "inst": "organ_v0_additive_1", "vel": 0.787, "bend": 0.0, "ch": 8}, {"t": 170.212, "dur": 0.492, "note": 72, "inst": "organ_v0_additive_1", "vel": 0.787, "bend": 0.0, "ch": 8}, {"t": 170.704, "dur": 0.983, "note": 56, "inst": "celesta_v0_additive_3", "vel": 0.787, "bend": 0.0, "ch": 8}, {"t": 170.704, "dur": 0.492, "note": 72, "inst": "organ_v0_additive_1", "vel": 0.787, "bend": 0.0, "ch": 8}, {"t": 171.196, "dur": 0.492, "note": 72, "inst": "organ_v0_additive_1", "vel": 0.787, "bend": 0.0, "ch": 8}, {"t": 171.687, "dur": 0.983, "note": 48, "inst": "organ_v0_additive_1", "vel": 0.787, "bend": 0.0, "ch": 0}, {"t": 171.687, "dur": 0.492, "note": 75, "inst": "organ_v0_additive_1", "vel": 0.787, "bend": 0.0, "ch": 11}, {"t": 172.179, "dur": 0.492, "note": 72, "inst": "organ_v0_additive_1", "vel": 0.787, "bend": 0.0, "ch": 8}, {"t": 172.671, "dur": 0.983, "note": 53, "inst": "celesta_v0_additive_3", "vel": 0.787, "bend": 0.0, "ch": 5}, {"t": 172.671, "dur": 0.983, "note": 56, "inst": "celesta_v0_additive_3", "vel": 0.787, "bend": 0.0, "ch": 8}, {"t": 172.671, "dur": 0.492, "note": 72, "inst": "organ_v0_additive_1", "vel": 0.787, "bend": 0.0, "ch": 8}, {"t": 173.162, "dur": 0.492, "note": 72, "inst": "organ_v0_additive_1", "vel": 0.787, "bend": 0.0, "ch": 8}, {"t": 173.654, "dur": 0.983, "note": 51, "inst": "organ_v0_additive_1", "vel": 0.787, "bend": 0.0, "ch": 3}, {"t": 173.654, "dur": 0.492, "note": 72, "inst": "organ_v0_additive_1", "vel": 0.787, "bend": 0.0, "ch": 8}, {"t": 174.146, "dur": 0.492, "note": 69, "inst": "organ_v0_additive_1", "vel": 0.787, "bend": 0.0, "ch": 5}, {"t": 174.637, "dur": 0.983, "note": 53, "inst": "celesta_v0_additive_3", "vel": 0.787, "bend": 0.0, "ch": 5}, {"t": 174.637, "dur": 0.983, "note": 56, "inst": "celesta_v0_additive_3", "vel": 0.787, "bend": 0.0, "ch": 8}, {"t": 174.637, "dur": 0.492, "note": 69, "inst": "organ_v0_additive_1", "vel": 0.787, "bend": 0.0, "ch": 5}, {"t": 175.129, "dur": 0.492, "note": 69, "inst": "organ_v0_additive_1", "vel": 0.787, "bend": 0.0, "ch": 5}, {"t": 175.621, "dur": 0.983, "note": 51, "inst": "organ_v0_additive_1", "vel": 0.787, "bend": 0.0, "ch": 3}, {"t": 175.621, "dur": 0.492, "note": 72, "inst": "organ_v0_additive_1", "vel": 0.787, "bend": 0.0, "ch": 8}, {"t": 176.112, "dur": 0.492, "note": 72, "inst": "organ_v0_additive_1", "vel": 0.787, "bend": 0.0, "ch": 8}, {"t": 176.604, "dur": 0.983, "note": 53, "inst": "celesta_v0_additive_3", "vel": 0.787, "bend": 0.0, "ch": 5}, {"t": 176.604, "dur": 0.983, "note": 56, "inst": "celesta_v0_additive_3", "vel": 0.787, "bend": 0.0, "ch": 8}, {"t": 176.604, "dur": 0.492, "note": 71, "inst": "celesta_v0_additive_3", "vel": 0.787, "bend": 0.0, "ch": 7}, {"t": 177.096, "dur": 0.492, "note": 72, "inst": "organ_v0_additive_1", "vel": 0.787, "bend": 0.0, "ch": 8}, {"t": 177.587, "dur": 0.983, "note": 48, "inst": "organ_v0_additive_1", "vel": 0.787, "bend": 0.0, "ch": 0}, {"t": 177.587, "dur": 0.492, "note": 69, "inst": "organ_v0_additive_1", "vel": 0.787, "bend": 0.0, "ch": 5}, {"t": 178.079, "dur": 0.492, "note": 68, "inst": "celesta_v0_additive_3", "vel": 0.787, "bend": 0.0, "ch": 4}, {"t": 178.571, "dur": 0.983, "note": 53, "inst": "celesta_v0_additive_3", "vel": 0.787, "bend": 0.0, "ch": 5}, {"t": 178.571, "dur": 0.983, "note": 56, "inst": "celesta_v0_additive_3", "vel": 0.787, "bend": 0.0, "ch": 8}, {"t": 178.571, "dur": 0.492, "note": 68, "inst": "celesta_v0_additive_3", "vel": 0.787, "bend": 0.0, "ch": 4}, {"t": 179.062, "dur": 0.492, "note": 68, "inst": "celesta_v0_additive_3", "vel": 0.787, "bend": 0.0, "ch": 4}, {"t": 179.554, "dur": 0.983, "note": 48, "inst": "organ_v0_additive_1", "vel": 0.787, "bend": 0.0, "ch": 0}, {"t": 179.554, "dur": 0.492, "note": 69, "inst": "organ_v0_additive_1", "vel": 0.787, "bend": 0.0, "ch": 5}, {"t": 210.073, "dur": 0.191, "note": 52, "inst": "harpsichord_v0_additive_2", "vel": 0.606, "bend": 0.0, "ch": 4}, {"t": 210.214, "dur": 0.061, "note": 50, "inst": "celesta_v0_additive_3", "vel": 0.504, "bend": 0.0, "ch": 2}, {"t": 210.391, "dur": 0.16, "note": 58, "inst": "harpsichord_v0_additive_2", "vel": 0.732, "bend": 0.0, "ch": 10}, {"t": 210.459, "dur": 0.11, "note": 46, "inst": "harpsichord_v0_additive_2", "vel": 0.504, "bend": 0.0, "ch": 14}, {"t": 210.603, "dur": 0.117, "note": 58, "inst": "harpsichord_v0_additive_2", "vel": 0.575, "bend": 0.0, "ch": 10}, {"t": 210.664, "dur": 0.055, "note": 57, "inst": "organ_v0_additive_1", "vel": 0.559, "bend": 0.0, "ch": 9}, {"t": 210.832, "dur": 0.237, "note": 62, "inst": "celesta_v0_additive_3", "vel": 0.772, "bend": 0.0, "ch": 14}, {"t": 210.896, "dur": 0.146, "note": 50, "inst": "celesta_v0_additive_3", "vel": 0.583, "bend": 0.0, "ch": 2}, {"t": 210.972, "dur": 0.139, "note": 58, "inst": "harpsichord_v0_additive_2", "vel": 0.591, "bend": 0.0, "ch": 10}, {"t": 211.065, "dur": 0.052, "note": 50, "inst": "celesta_v0_additive_3", "vel": 0.433, "bend": 0.0, "ch": 2}, {"t": 211.073, "dur": 0.079, "note": 58, "inst": "harpsichord_v0_additive_2", "vel": 0.669, "bend": 0.0, "ch": 10}, {"t": 211.076, "dur": 0.038, "note": 38, "inst": "celesta_v0_additive_3", "vel": 0.724, "bend": 0.0, "ch": 6}, {"t": 211.079, "dur": 0.05, "note": 26, "inst": "celesta_v0_additive_3", "vel": 0.732, "bend": 0.0, "ch": 10}, {"t": 211.305, "dur": 0.191, "note": 69, "inst": "organ_v0_additive_1", "vel": 0.756, "bend": 0.0, "ch": 5}, {"t": 211.306, "dur": 1.328, "note": 33, "inst": "organ_v0_additive_1", "vel": 0.764, "bend": 0.0, "ch": 1}, {"t": 211.309, "dur": 1.234, "note": 24, "inst": "organ_v0_additive_1", "vel": 0.677, "bend": 0.0, "ch": 8}, {"t": 211.346, "dur": 0.177, "note": 57, "inst": "organ_v0_additive_1", "vel": 0.63, "bend": 0.0, "ch": 9}, {"t": 211.482, "dur": 0.143, "note": 64, "inst": "harpsichord_v0_additive_2", "vel": 0.63, "bend": 0.0, "ch": 0}, {"t": 211.602, "dur": 0.049, "note": 62, "inst": "celesta_v0_additive_3", "vel": 0.528, "bend": 0.0, "ch": 14}, {"t": 211.775, "dur": 0.151, "note": 70, "inst": "harpsichord_v0_additive_2", "vel": 0.764, "bend": 0.0, "ch": 6}, {"t": 211.816, "dur": 0.133, "note": 58, "inst": "harpsichord_v0_additive_2", "vel": 0.654, "bend": 0.0, "ch": 10}, {"t": 211.971, "dur": 0.127, "note": 70, "inst": "harpsichord_v0_additive_2", "vel": 0.567, "bend": 0.0, "ch": 6}, {"t": 212.045, "dur": 0.043, "note": 69, "inst": "organ_v0_additive_1", "vel": 0.535, "bend": 0.0, "ch": 5}, {"t": 212.216, "dur": 0.246, "note": 74, "inst": "celesta_v0_additive_3", "vel": 0.756, "bend": 0.0, "ch": 10}, {"t": 212.283, "dur": 0.177, "note": 62, "inst": "celesta_v0_additive_3", "vel": 0.646, "bend": 0.0, "ch": 14}, {"t": 212.397, "dur": 0.122, "note": 62, "inst": "celesta_v0_additive_3", "vel": 0.449, "bend": 0.0, "ch": 14}, {"t": 212.42, "dur": 0.052, "note": 62, "inst": "celesta_v0_additive_3", "vel": 0.465, "bend": 0.0, "ch": 14}, {"t": 212.449, "dur": 0.078, "note": 70, "inst": "harpsichord_v0_additive_2", "vel": 0.685, "bend": 0.0, "ch": 6}, {"t": 212.666, "dur": 0.223, "note": 81, "inst": "organ_v0_additive_1", "vel": 0.835, "bend": 0.0, "ch": 1}, {"t": 212.675, "dur": 0.211, "note": 69, "inst": "organ_v0_additive_1", "vel": 0.78, "bend": 0.0, "ch": 5}, {"t": 212.8, "dur": 0.156, "note": 76, "inst": "harpsichord_v0_additive_2", "vel": 0.669, "bend": 0.0, "ch": 12}, {"t": 212.884, "dur": 0.114, "note": 74, "inst": "celesta_v0_additive_3", "vel": 0.654, "bend": 0.0, "ch": 10}, {"t": 212.91, "dur": 0.038, "note": 38, "inst": "celesta_v0_additive_3", "vel": 0.74, "bend": 0.0, "ch": 6}, {"t": 212.914, "dur": 0.05, "note": 26, "inst": "celesta_v0_additive_3", "vel": 0.74, "bend": 0.0, "ch": 10}, {"t": 213.209, "dur": 0.069, "note": 82, "inst": "harpsichord_v0_additive_2", "vel": 0.858, "bend": 0.0, "ch": 2}, {"t": 213.214, "dur": 0.052, "note": 70, "inst": "harpsichord_v0_additive_2", "vel": 0.843, "bend": 0.0, "ch": 6}, {"t": 213.22, "dur": 0.053, "note": 33, "inst": "organ_v0_additive_1", "vel": 0.78, "bend": 0.0, "ch": 1}, {"t": 213.238, "dur": 0.047, "note": 24, "inst": "organ_v0_additive_1", "vel": 0.646, "bend": 0.0, "ch": 8}, {"t": 213.242, "dur": 0.047, "note": 29, "inst": "celesta_v0_additive_3", "vel": 0.622, "bend": 0.0, "ch": 13}, {"t": 214.044, "dur": 0.056, "note": 81, "inst": "organ_v0_additive_1", "vel": 0.827, "bend": 0.0, "ch": 1}, {"t": 214.045, "dur": 0.047, "note": 69, "inst": "organ_v0_additive_1", "vel": 0.795, "bend": 0.0, "ch": 5}, {"t": 214.536, "dur": 0.049, "note": 70, "inst": "harpsichord_v0_additive_2", "vel": 0.819, "bend": 0.0, "ch": 6}, {"t": 214.831, "dur": 0.032, "note": 62, "inst": "celesta_v0_additive_3", "vel": 0.756, "bend": 0.0, "ch": 14}, {"t": 214.832, "dur": 0.029, "note": 74, "inst": "celesta_v0_additive_3", "vel": 0.732, "bend": 0.0, "ch": 10}, {"t": 215.069, "dur": 0.067, "note": 69, "inst": "organ_v0_additive_1", "vel": 0.74, "bend": 0.0, "ch": 5}, {"t": 215.276, "dur": 0.128, "note": 70, "inst": "harpsichord_v0_additive_2", "vel": 0.732, "bend": 0.0, "ch": 6}, {"t": 215.281, "dur": 0.041, "note": 58, "inst": "harpsichord_v0_additive_2", "vel": 0.709, "bend": 0.0, "ch": 10}, {"t": 215.45, "dur": 0.066, "note": 62, "inst": "celesta_v0_additive_3", "vel": 0.701, "bend": 0.0, "ch": 14}, {"t": 215.626, "dur": 0.075, "note": 57, "inst": "organ_v0_additive_1", "vel": 0.701, "bend": 0.0, "ch": 9}, {"t": 215.627, "dur": 0.069, "note": 69, "inst": "organ_v0_additive_1", "vel": 0.646, "bend": 0.0, "ch": 5}, {"t": 215.78, "dur": 0.064, "note": 58, "inst": "harpsichord_v0_additive_2", "vel": 0.732, "bend": 0.0, "ch": 10}, {"t": 215.956, "dur": 0.041, "note": 50, "inst": "celesta_v0_additive_3", "vel": 0.638, "bend": 0.0, "ch": 2}, {"t": 215.956, "dur": 0.041, "note": 65, "inst": "celesta_v0_additive_3", "vel": 0.591, "bend": 0.0, "ch": 1}, {"t": 215.962, "dur": 0.047, "note": 62, "inst": "celesta_v0_additive_3", "vel": 0.606, "bend": 0.0, "ch": 14}, {"t": 215.974, "dur": 0.035, "note": 53, "inst": "celesta_v0_additive_3", "vel": 0.488, "bend": 0.0, "ch": 5}, {"t": 215.986, "dur": 0.038, "note": 62, "inst": "celesta_v0_additive_3", "vel": 0.441, "bend": 0.0, "ch": 14}, {"t": 216.073, "dur": 0.063, "note": 57, "inst": "organ_v0_additive_1", "vel": 0.756, "bend": 0.0, "ch": 9}, {"t": 216.226, "dur": 0.095, "note": 58, "inst": "harpsichord_v0_additive_2", "vel": 0.693, "bend": 0.0, "ch": 10}, {"t": 216.238, "dur": 0.041, "note": 46, "inst": "harpsichord_v0_additive_2", "vel": 0.669, "bend": 0.0, "ch": 14}, {"t": 216.355, "dur": 0.055, "note": 50, "inst": "celesta_v0_additive_3", "vel": 0.78, "bend": 0.0, "ch": 2}, {"t": 216.511, "dur": 0.082, "note": 45, "inst": "organ_v0_additive_1", "vel": 0.748, "bend": 0.0, "ch": 13}, {"t": 216.517, "dur": 0.22, "note": 57, "inst": "organ_v0_additive_1", "vel": 0.693, "bend": 0.0, "ch": 9}, {"t": 216.691, "dur": 0.046, "note": 46, "inst": "harpsichord_v0_additive_2", "vel": 0.661, "bend": 0.0, "ch": 14}, {"t": 216.96, "dur": 0.693, "note": 57, "inst": "organ_v0_additive_1", "vel": 0.748, "bend": 0.0, "ch": 9}, {"t": 216.961, "dur": 0.258, "note": 26, "inst": "celesta_v0_additive_3", "vel": 0.646, "bend": 0.0, "ch": 10}, {"t": 216.961, "dur": 1.042, "note": 52, "inst": "harpsichord_v0_additive_2", "vel": 0.74, "bend": 0.0, "ch": 4}, {"t": 216.966, "dur": 0.793, "note": 38, "inst": "celesta_v0_additive_3", "vel": 0.724, "bend": 0.0, "ch": 6}, {"t": 217.442, "dur": 0.151, "note": 45, "inst": "organ_v0_additive_1", "vel": 0.709, "bend": 0.0, "ch": 13}, {"t": 217.747, "dur": 0.319, "note": 41, "inst": "celesta_v0_additive_3", "vel": 0.669, "bend": 0.0, "ch": 9}, {"t": 218.008, "dur": 0.632, "note": 58, "inst": "harpsichord_v0_additive_2", "vel": 0.693, "bend": 0.0, "ch": 10}, {"t": 218.015, "dur": 0.356, "note": 46, "inst": "harpsichord_v0_additive_2", "vel": 0.677, "bend": 0.0, "ch": 14}, {"t": 218.121, "dur": 0.099, "note": 53, "inst": "celesta_v0_additive_3", "vel": 0.1, "bend": 0.0, "ch": 5}, {"t": 218.214, "dur": 0.14, "note": 40, "inst": "harpsichord_v0_additive_2", "vel": 0.717, "bend": 0.0, "ch": 8}, {"t": 218.377, "dur": 0.171, "note": 38, "inst": "celesta_v0_additive_3", "vel": 0.677, "bend": 0.0, "ch": 6}, {"t": 218.577, "dur": 0.102, "note": 26, "inst": "celesta_v0_additive_3", "vel": 0.685, "bend": 0.0, "ch": 10}, {"t": 218.588, "dur": 0.212, "note": 38, "inst": "celesta_v0_additive_3", "vel": 0.315, "bend": 0.0, "ch": 6}, {"t": 218.766, "dur": 0.134, "note": 52, "inst": "harpsichord_v0_additive_2", "vel": 0.717, "bend": 0.0, "ch": 4}, {"t": 218.919, "dur": 0.096, "note": 34, "inst": "harpsichord_v0_additive_2", "vel": 0.669, "bend": 0.0, "ch": 2}, {"t": 219.061, "dur": 0.084, "note": 53, "inst": "celesta_v0_additive_3", "vel": 0.764, "bend": 0.0, "ch": 5}, {"t": 219.216, "dur": 0.122, "note": 29, "inst": "celesta_v0_additive_3", "vel": 0.654, "bend": 0.0, "ch": 13}, {"t": 219.317, "dur": 0.084, "note": 58, "inst": "harpsichord_v0_additive_2", "vel": 0.772, "bend": 0.0, "ch": 10}, {"t": 219.483, "dur": 0.084, "note": 28, "inst": "harpsichord_v0_additive_2", "vel": 0.701, "bend": 0.0, "ch": 12}, {"t": 219.572, "dur": 0.43, "note": 50, "inst": "celesta_v0_additive_3", "vel": 0.772, "bend": 0.0, "ch": 2}, {"t": 219.752, "dur": 0.095, "note": 24, "inst": "organ_v0_additive_1", "vel": 0.669, "bend": 0.0, "ch": 8}, {"t": 219.953, "dur": 0.096, "note": 58, "inst": "harpsichord_v0_additive_2", "vel": 0.787, "bend": 0.0, "ch": 10}, {"t": 219.961, "dur": 0.056, "note": 33, "inst": "organ_v0_additive_1", "vel": 0.661, "bend": 0.0, "ch": 1}, {"t": 219.966, "dur": 0.041, "note": 24, "inst": "organ_v0_additive_1", "vel": 0.646, "bend": 0.0, "ch": 8}, {"t": 219.966, "dur": 0.038, "note": 50, "inst": "celesta_v0_additive_3", "vel": 0.669, "bend": 0.0, "ch": 2}, {"t": 220.59, "dur": 0.04, "note": 57, "inst": "organ_v0_additive_1", "vel": 0.724, "bend": 0.0, "ch": 9}, {"t": 220.591, "dur": 0.067, "note": 69, "inst": "organ_v0_additive_1", "vel": 0.63, "bend": 0.0, "ch": 5}, {"t": 220.602, "dur": 0.069, "note": 65, "inst": "celesta_v0_additive_3", "vel": 0.622, "bend": 0.0, "ch": 1}, {"t": 220.951, "dur": 0.114, "note": 58, "inst": "harpsichord_v0_additive_2", "vel": 0.693, "bend": 0.0, "ch": 10}, {"t": 221.195, "dur": 0.047, "note": 38, "inst": "celesta_v0_additive_3", "vel": 0.559, "bend": 0.0, "ch": 6}, {"t": 221.209, "dur": 0.069, "note": 50, "inst": "celesta_v0_additive_3", "vel": 0.472, "bend": 0.0, "ch": 2}, {"t": 221.211, "dur": 0.047, "note": 62, "inst": "celesta_v0_additive_3", "vel": 0.551, "bend": 0.0, "ch": 14}, {"t": 221.234, "dur": 0.055, "note": 50, "inst": "celesta_v0_additive_3", "vel": 0.394, "bend": 0.0, "ch": 2}, {"t": 221.398, "dur": 0.087, "note": 57, "inst": "organ_v0_additive_1", "vel": 0.661, "bend": 0.0, "ch": 9}, {"t": 221.568, "dur": 0.107, "note": 46, "inst": "harpsichord_v0_additive_2", "vel": 0.654, "bend": 0.0, "ch": 14}, {"t": 221.568, "dur": 0.108, "note": 58, "inst": "harpsichord_v0_additive_2", "vel": 0.646, "bend": 0.0, "ch": 10}, {"t": 221.745, "dur": 0.061, "note": 50, "inst": "celesta_v0_additive_3", "vel": 0.638, "bend": 0.0, "ch": 2}, {"t": 221.91, "dur": 0.093, "note": 45, "inst": "organ_v0_additive_1", "vel": 0.677, "bend": 0.0, "ch": 13}, {"t": 221.914, "dur": 0.087, "note": 57, "inst": "organ_v0_additive_1", "vel": 0.661, "bend": 0.0, "ch": 9}, {"t": 222.058, "dur": 0.078, "note": 46, "inst": "harpsichord_v0_additive_2", "vel": 0.701, "bend": 0.0, "ch": 14}, {"t": 222.215, "dur": 0.107, "note": 50, "inst": "celesta_v0_additive_3", "vel": 0.661, "bend": 0.0, "ch": 2}, {"t": 222.216, "dur": 0.075, "note": 38, "inst": "celesta_v0_additive_3", "vel": 0.661, "bend": 0.0, "ch": 6}, {"t": 222.352, "dur": 0.069, "note": 45, "inst": "organ_v0_additive_1", "vel": 0.693, "bend": 0.0, "ch": 13}, {"t": 222.508, "dur": 0.111, "note": 46, "inst": "harpsichord_v0_additive_2", "vel": 0.717, "bend": 0.0, "ch": 14}, {"t": 222.512, "dur": 0.095, "note": 34, "inst": "harpsichord_v0_additive_2", "vel": 0.685, "bend": 0.0, "ch": 2}, {"t": 222.637, "dur": 0.078, "note": 38, "inst": "celesta_v0_additive_3", "vel": 0.724, "bend": 0.0, "ch": 6}, {"t": 222.811, "dur": 0.189, "note": 33, "inst": "organ_v0_additive_1", "vel": 0.724, "bend": 0.0, "ch": 1}, {"t": 222.814, "dur": 0.272, "note": 45, "inst": "organ_v0_additive_1", "vel": 0.677, "bend": 0.0, "ch": 13}, {"t": 223.04, "dur": 0.067, "note": 33, "inst": "organ_v0_additive_1", "vel": 0.496, "bend": 0.0, "ch": 1}, {"t": 223.12, "dur": 0.073, "note": 34, "inst": "harpsichord_v0_additive_2", "vel": 0.276, "bend": 0.0, "ch": 2}, {"t": 223.283, "dur": 0.719, "note": 45, "inst": "organ_v0_additive_1", "vel": 0.732, "bend": 0.0, "ch": 13}, {"t": 223.286, "dur": 0.455, "note": 24, "inst": "organ_v0_additive_1", "vel": 0.496, "bend": 0.0, "ch": 8}, {"t": 223.287, "dur": 0.987, "note": 40, "inst": "harpsichord_v0_additive_2", "vel": 0.614, "bend": 0.0, "ch": 8}, {"t": 223.307, "dur": 0.87, "note": 26, "inst": "celesta_v0_additive_3", "vel": 0.598, "bend": 0.0, "ch": 10}, {"t": 223.733, "dur": 0.177, "note": 33, "inst": "organ_v0_additive_1", "vel": 0.622, "bend": 0.0, "ch": 1}, {"t": 223.947, "dur": 0.493, "note": 24, "inst": "organ_v0_additive_1", "vel": 0.291, "bend": 0.0, "ch": 8}, {"t": 223.962, "dur": 0.462, "note": 29, "inst": "celesta_v0_additive_3", "vel": 0.598, "bend": 0.0, "ch": 13}, {"t": 224.194, "dur": 0.661, "note": 46, "inst": "harpsichord_v0_additive_2", "vel": 0.654, "bend": 0.0, "ch": 14}, {"t": 224.2, "dur": 0.339, "note": 34, "inst": "harpsichord_v0_additive_2", "vel": 0.622, "bend": 0.0, "ch": 2}, {"t": 224.27, "dur": 0.085, "note": 41, "inst": "celesta_v0_additive_3", "vel": 0.228, "bend": 0.0, "ch": 9}, {"t": 224.429, "dur": 0.125, "note": 28, "inst": "harpsichord_v0_additive_2", "vel": 0.622, "bend": 0.0, "ch": 12}, {"t": 224.598, "dur": 0.131, "note": 26, "inst": "celesta_v0_additive_3", "vel": 0.63, "bend": 0.0, "ch": 10}, {"t": 224.78, "dur": 0.137, "note": 24, "inst": "organ_v0_additive_1", "vel": 0.677, "bend": 0.0, "ch": 8}, {"t": 224.961, "dur": 0.208, "note": 40, "inst": "harpsichord_v0_additive_2", "vel": 0.709, "bend": 0.0, "ch": 8}, {"t": 225.062, "dur": 0.09, "note": 41, "inst": "celesta_v0_additive_3", "vel": 0.331, "bend": 0.0, "ch": 9}, {"t": 225.125, "dur": 0.188, "note": 24, "inst": "organ_v0_additive_1", "vel": 0.709, "bend": 0.0, "ch": 8}, {"t": 225.308, "dur": 0.127, "note": 41, "inst": "celesta_v0_additive_3", "vel": 0.724, "bend": 0.0, "ch": 9}, {"t": 225.472, "dur": 0.163, "note": 24, "inst": "organ_v0_additive_1", "vel": 0.693, "bend": 0.0, "ch": 8}, {"t": 225.64, "dur": 0.134, "note": 46, "inst": "harpsichord_v0_additive_2", "vel": 0.787, "bend": 0.0, "ch": 14}, {"t": 225.855, "dur": 0.192, "note": 24, "inst": "organ_v0_additive_1", "vel": 0.756, "bend": 0.0, "ch": 8}, {"t": 226.037, "dur": 0.5, "note": 38, "inst": "celesta_v0_additive_3", "vel": 0.772, "bend": 0.0, "ch": 6}, {"t": 226.191, "dur": 0.212, "note": 24, "inst": "organ_v0_additive_1", "vel": 0.756, "bend": 0.0, "ch": 8}, {"t": 226.495, "dur": 0.116, "note": 24, "inst": "organ_v0_additive_1", "vel": 0.78, "bend": 0.0, "ch": 8}, {"t": 226.498, "dur": 0.531, "note": 46, "inst": "harpsichord_v0_additive_2", "vel": 0.677, "bend": 0.0, "ch": 14}, {"t": 226.527, "dur": 0.063, "note": 38, "inst": "celesta_v0_additive_3", "vel": 0.433, "bend": 0.0, "ch": 6}, {"t": 227.288, "dur": 0.117, "note": 34, "inst": "harpsichord_v0_additive_2", "vel": 0.772, "bend": 0.0, "ch": 2}, {"t": 227.749, "dur": 0.069, "note": 50, "inst": "celesta_v0_additive_3", "vel": 0.724, "bend": 0.0, "ch": 2}, {"t": 227.954, "dur": 0.072, "note": 38, "inst": "celesta_v0_additive_3", "vel": 0.795, "bend": 0.0, "ch": 6}, {"t": 228.185, "dur": 0.089, "note": 46, "inst": "harpsichord_v0_additive_2", "vel": 0.654, "bend": 0.0, "ch": 14}, {"t": 228.366, "dur": 0.07, "note": 45, "inst": "organ_v0_additive_1", "vel": 0.787, "bend": 0.0, "ch": 13}, {"t": 228.585, "dur": 0.05, "note": 45, "inst": "organ_v0_additive_1", "vel": 0.598, "bend": 0.0, "ch": 13}, {"t": 228.802, "dur": 0.084, "note": 46, "inst": "harpsichord_v0_additive_2", "vel": 0.819, "bend": 0.0, "ch": 14}, {"t": 229.061, "dur": 0.304, "note": 38, "inst": "celesta_v0_additive_3", "vel": 0.661, "bend": 0.0, "ch": 6}, {"t": 229.295, "dur": 0.058, "note": 50, "inst": "celesta_v0_additive_3", "vel": 0.85, "bend": 0.0, "ch": 2}, {"t": 229.547, "dur": 0.056, "note": 34, "inst": "harpsichord_v0_additive_2", "vel": 0.677, "bend": 0.0, "ch": 2}, {"t": 229.809, "dur": 0.069, "note": 57, "inst": "organ_v0_additive_1", "vel": 0.827, "bend": 0.0, "ch": 9}, {"t": 230.091, "dur": 6.79, "note": 33, "inst": "organ_v0_additive_1", "vel": 0.732, "bend": 0.0, "ch": 1}, {"t": 230.448, "dur": 0.055, "note": 58, "inst": "harpsichord_v0_additive_2", "vel": 0.929, "bend": 0.0, "ch": 10}, {"t": 252.014, "dur": 0.053, "note": 77, "inst": "celesta_v0_additive_3", "vel": 0.543, "bend": 0.0, "ch": 13}, {"t": 252.066, "dur": 0.053, "note": 77, "inst": "celesta_v0_additive_3", "vel": 0.543, "bend": 0.0, "ch": 13}, {"t": 252.119, "dur": 0.245, "note": 79, "inst": "harpsichord_v0_additive_2", "vel": 0.496, "bend": 0.0, "ch": 15}, {"t": 252.329, "dur": 0.21, "note": 52, "inst": "harpsichord_v0_additive_2", "vel": 0.496, "bend": 0.0, "ch": 4}, {"t": 252.329, "dur": 0.21, "note": 60, "inst": "organ_v0_additive_1", "vel": 0.496, "bend": 0.0, "ch": 12}, {"t": 252.364, "dur": 0.035, "note": 79, "inst": "harpsichord_v0_additive_2", "vel": 0.543, "bend": 0.0, "ch": 15}, {"t": 252.399, "dur": 0.035, "note": 81, "inst": "organ_v0_additive_1", "vel": 0.543, "bend": 0.0, "ch": 1}, {"t": 252.434, "dur": 0.035, "note": 81, "inst": "organ_v0_additive_1", "vel": 0.543, "bend": 0.0, "ch": 1}, {"t": 252.469, "dur": 0.035, "note": 83, "inst": "celesta_v0_additive_3", "vel": 0.543, "bend": 0.0, "ch": 3}, {"t": 252.504, "dur": 0.035, "note": 84, "inst": "organ_v0_additive_1", "vel": 0.543, "bend": 0.0, "ch": 4}, {"t": 252.539, "dur": 0.421, "note": 55, "inst": "harpsichord_v0_additive_2", "vel": 0.992, "bend": 0.0, "ch": 7}, {"t": 252.539, "dur": 0.21, "note": 64, "inst": "harpsichord_v0_additive_2", "vel": 0.992, "bend": 0.0, "ch": 0}, {"t": 252.539, "dur": 0.315, "note": 72, "inst": "organ_v0_additive_1", "vel": 0.992, "bend": 0.0, "ch": 8}, {"t": 252.749, "dur": 0.21, "note": 65, "inst": "celesta_v0_additive_3", "vel": 0.992, "bend": 0.0, "ch": 1}, {"t": 252.855, "dur": 0.105, "note": 71, "inst": "celesta_v0_additive_3", "vel": 0.992, "bend": 0.0, "ch": 7}, {"t": 252.855, "dur": 0.053, "note": 76, "inst": "harpsichord_v0_additive_2", "vel": 0.992, "bend": 0.0, "ch": 12}, {"t": 252.907, "dur": 0.053, "note": 74, "inst": "celesta_v0_additive_3", "vel": 0.992, "bend": 0.0, "ch": 10}, {"t": 252.96, "dur": 0.105, "note": 60, "inst": "organ_v0_additive_1", "vel": 0.496, "bend": 0.0, "ch": 12}, {"t": 252.96, "dur": 0.21, "note": 72, "inst": "organ_v0_additive_1", "vel": 0.496, "bend": 0.0, "ch": 8}, {"t": 253.065, "dur": 0.105, "note": 64, "inst": "harpsichord_v0_additive_2", "vel": 0.496, "bend": 0.0, "ch": 0}, {"t": 253.17, "dur": 0.105, "note": 67, "inst": "harpsichord_v0_additive_2", "vel": 0.496, "bend": 0.0, "ch": 3}, {"t": 253.275, "dur": 0.105, "note": 64, "inst": "harpsichord_v0_additive_2", "vel": 0.496, "bend": 0.0, "ch": 0}, {"t": 253.38, "dur": 0.105, "note": 60, "inst": "organ_v0_additive_1", "vel": 0.496, "bend": 0.0, "ch": 12}, {"t": 253.38, "dur": 0.315, "note": 81, "inst": "organ_v0_additive_1", "vel": 0.496, "bend": 0.0, "ch": 1}, {"t": 253.485, "dur": 0.105, "note": 65, "inst": "celesta_v0_additive_3", "vel": 0.496, "bend": 0.0, "ch": 1}, {"t": 253.59, "dur": 0.105, "note": 69, "inst": "organ_v0_additive_1", "vel": 0.496, "bend": 0.0, "ch": 5}, {"t": 253.696, "dur": 0.105, "note": 65, "inst": "celesta_v0_additive_3", "vel": 0.496, "bend": 0.0, "ch": 1}, {"t": 253.696, "dur": 0.053, "note": 84, "inst": "organ_v0_additive_1", "vel": 0.496, "bend": 0.0, "ch": 4}, {"t": 253.748, "dur": 0.053, "note": 81, "inst": "organ_v0_additive_1", "vel": 0.496, "bend": 0.0, "ch": 1}, {"t": 253.801, "dur": 0.105, "note": 60, "inst": "organ_v0_additive_1", "vel": 0.496, "bend": 0.0, "ch": 12}, {"t": 253.801, "dur": 0.053, "note": 79, "inst": "harpsichord_v0_additive_2", "vel": 0.496, "bend": 0.0, "ch": 15}, {"t": 253.853, "dur": 0.053, "note": 88, "inst": "harpsichord_v0_additive_2", "vel": 0.496, "bend": 0.0, "ch": 8}, {"t": 253.906, "dur": 0.105, "note": 64, "inst": "harpsichord_v0_additive_2", "vel": 0.496, "bend": 0.0, "ch": 0}, {"t": 253.906, "dur": 0.053, "note": 86, "inst": "celesta_v0_additive_3", "vel": 0.496, "bend": 0.0, "ch": 6}, {"t": 253.958, "dur": 0.053, "note": 84, "inst": "organ_v0_additive_1", "vel": 0.496, "bend": 0.0, "ch": 4}, {"t": 254.011, "dur": 0.105, "note": 67, "inst": "harpsichord_v0_additive_2", "vel": 0.496, "bend": 0.0, "ch": 3}, {"t": 254.011, "dur": 0.053, "note": 83, "inst": "celesta_v0_additive_3", "vel": 0.496, "bend": 0.0, "ch": 3}, {"t": 254.064, "dur": 0.053, "note": 84, "inst": "organ_v0_additive_1", "vel": 0.496, "bend": 0.0, "ch": 4}, {"t": 254.116, "dur": 0.105, "note": 64, "inst": "harpsichord_v0_additive_2", "vel": 0.496, "bend": 0.0, "ch": 0}, {"t": 254.116, "dur": 0.053, "note": 86, "inst": "celesta_v0_additive_3", "vel": 0.496, "bend": 0.0, "ch": 6}, {"t": 254.169, "dur": 0.053, "note": 84, "inst": "organ_v0_additive_1", "vel": 0.496, "bend": 0.0, "ch": 4}, {"t": 254.221, "dur": 0.105, "note": 60, "inst": "organ_v0_additive_1", "vel": 0.496, "bend": 0.0, "ch": 12}, {"t": 254.221, "dur": 0.105, "note": 83, "inst": "celesta_v0_additive_3", "vel": 0.496, "bend": 0.0, "ch": 3}, {"t": 254.326, "dur": 0.105, "note": 65, "inst": "celesta_v0_additive_3", "vel": 0.496, "bend": 0.0, "ch": 1}, {"t": 254.326, "dur": 0.21, "note": 81, "inst": "organ_v0_additive_1", "vel": 0.496, "bend": 0.0, "ch": 1}, {"t": 254.431, "dur": 0.105, "note": 69, "inst": "organ_v0_additive_1", "vel": 0.496, "bend": 0.0, "ch": 5}, {"t": 254.537, "dur": 0.105, "note": 65, "inst": "celesta_v0_additive_3", "vel": 0.496, "bend": 0.0, "ch": 1}, {"t": 254.537, "dur": 0.053, "note": 84, "inst": "organ_v0_additive_1", "vel": 0.496, "bend": 0.0, "ch": 4}, {"t": 254.589, "dur": 0.053, "note": 81, "inst": "organ_v0_additive_1", "vel": 0.496, "bend": 0.0, "ch": 1}, {"t": 254.642, "dur": 0.21, "note": 60, "inst": "organ_v0_additive_1", "vel": 1.0, "bend": 0.0, "ch": 12}, {"t": 254.642, "dur": 0.21, "note": 64, "inst": "harpsichord_v0_additive_2", "vel": 1.0, "bend": 0.0, "ch": 0}, {"t": 254.642, "dur": 0.21, "note": 67, "inst": "harpsichord_v0_additive_2", "vel": 1.0, "bend": 0.0, "ch": 3}, {"t": 254.642, "dur": 0.053, "note": 79, "inst": "harpsichord_v0_additive_2", "vel": 1.0, "bend": 0.0, "ch": 15}, {"t": 254.694, "dur": 0.053, "note": 88, "inst": "harpsichord_v0_additive_2", "vel": 1.0, "bend": 0.0, "ch": 8}, {"t": 254.747, "dur": 0.053, "note": 86, "inst": "celesta_v0_additive_3", "vel": 1.0, "bend": 0.0, "ch": 6}, {"t": 254.799, "dur": 0.053, "note": 84, "inst": "organ_v0_additive_1", "vel": 1.0, "bend": 0.0, "ch": 4}, {"t": 254.852, "dur": 0.053, "note": 83, "inst": "celesta_v0_additive_3", "vel": 1.0, "bend": 0.0, "ch": 3}, {"t": 254.905, "dur": 0.053, "note": 84, "inst": "organ_v0_additive_1", "vel": 1.0, "bend": 0.0, "ch": 4}, {"t": 254.957, "dur": 0.053, "note": 86, "inst": "celesta_v0_additive_3", "vel": 1.0, "bend": 0.0, "ch": 6}, {"t": 255.01, "dur": 0.053, "note": 84, "inst": "organ_v0_additive_1", "vel": 1.0, "bend": 0.0, "ch": 4}, {"t": 255.062, "dur": 0.21, "note": 53, "inst": "celesta_v0_additive_3", "vel": 1.0, "bend": 0.0, "ch": 5}, {"t": 255.062, "dur": 0.21, "note": 57, "inst": "organ_v0_additive_1", "vel": 1.0, "bend": 0.0, "ch": 9}, {"t": 255.062, "dur": 0.21, "note": 62, "inst": "celesta_v0_additive_3", "vel": 1.0, "bend": 0.0, "ch": 14}, {"t": 255.115, "dur": 0.053, "note": 84, "inst": "organ_v0_additive_1", "vel": 1.0, "bend": 0.0, "ch": 4}, {"t": 255.167, "dur": 0.053, "note": 83, "inst": "celesta_v0_additive_3", "vel": 1.0, "bend": 0.0, "ch": 3}, {"t": 255.22, "dur": 0.053, "note": 81, "inst": "organ_v0_additive_1", "vel": 1.0, "bend": 0.0, "ch": 1}, {"t": 255.273, "dur": 0.053, "note": 79, "inst": "harpsichord_v0_additive_2", "vel": 1.0, "bend": 0.0, "ch": 15}, {"t": 255.325, "dur": 0.053, "note": 81, "inst": "organ_v0_additive_1", "vel": 1.0, "bend": 0.0, "ch": 1}, {"t": 255.378, "dur": 0.053, "note": 83, "inst": "celesta_v0_additive_3", "vel": 1.0, "bend": 0.0, "ch": 3}, {"t": 255.43, "dur": 0.053, "note": 81, "inst": "organ_v0_additive_1", "vel": 1.0, "bend": 0.0, "ch": 1}, {"t": 255.483, "dur": 0.105, "note": 55, "inst": "harpsichord_v0_additive_2", "vel": 1.0, "bend": 0.0, "ch": 7}, {"t": 255.483, "dur": 0.105, "note": 64, "inst": "harpsichord_v0_additive_2", "vel": 1.0, "bend": 0.0, "ch": 0}, {"t": 255.535, "dur": 0.053, "note": 79, "inst": "harpsichord_v0_additive_2", "vel": 1.0, "bend": 0.0, "ch": 15}, {"t": 255.588, "dur": 0.053, "note": 84, "inst": "organ_v0_additive_1", "vel": 1.0, "bend": 0.0, "ch": 4}, {"t": 255.64, "dur": 0.053, "note": 79, "inst": "harpsichord_v0_additive_2", "vel": 1.0, "bend": 0.0, "ch": 15}, {"t": 255.693, "dur": 0.105, "note": 55, "inst": "harpsichord_v0_additive_2", "vel": 1.0, "bend": 0.0, "ch": 7}, {"t": 255.693, "dur": 0.105, "note": 60, "inst": "organ_v0_additive_1", "vel": 1.0, "bend": 0.0, "ch": 12}, {"t": 255.746, "dur": 0.053, "note": 76, "inst": "harpsichord_v0_additive_2", "vel": 1.0, "bend": 0.0, "ch": 12}, {"t": 255.798, "dur": 0.053, "note": 79, "inst": "harpsichord_v0_additive_2", "vel": 1.0, "bend": 0.0, "ch": 15}, {"t": 255.851, "dur": 0.053, "note": 76, "inst": "harpsichord_v0_additive_2", "vel": 1.0, "bend": 0.0, "ch": 12}, {"t": 255.903, "dur": 0.105, "note": 55, "inst": "harpsichord_v0_additive_2", "vel": 1.0, "bend": 0.0, "ch": 7}, {"t": 255.903, "dur": 0.105, "note": 62, "inst": "celesta_v0_additive_3", "vel": 1.0, "bend": 0.0, "ch": 14}, {"t": 255.956, "dur": 0.053, "note": 77, "inst": "celesta_v0_additive_3", "vel": 1.0, "bend": 0.0, "ch": 13}, {"t": 256.008, "dur": 0.053, "note": 81, "inst": "organ_v0_additive_1", "vel": 1.0, "bend": 0.0, "ch": 1}, {"t": 256.061, "dur": 0.053, "note": 77, "inst": "celesta_v0_additive_3", "vel": 1.0, "bend": 0.0, "ch": 13}, {"t": 256.114, "dur": 0.105, "note": 55, "inst": "harpsichord_v0_additive_2", "vel": 1.0, "bend": 0.0, "ch": 7}, {"t": 256.114, "dur": 0.105, "note": 65, "inst": "celesta_v0_additive_3", "vel": 1.0, "bend": 0.0, "ch": 1}, {"t": 256.166, "dur": 0.053, "note": 71, "inst": "celesta_v0_additive_3", "vel": 1.0, "bend": 0.0, "ch": 7}, {"t": 256.219, "dur": 0.053, "note": 74, "inst": "celesta_v0_additive_3", "vel": 1.0, "bend": 0.0, "ch": 10}, {"t": 256.271, "dur": 0.053, "note": 71, "inst": "celesta_v0_additive_3", "vel": 1.0, "bend": 0.0, "ch": 7}, {"t": 256.324, "dur": 0.105, "note": 60, "inst": "organ_v0_additive_1", "vel": 1.0, "bend": 0.0, "ch": 12}, {"t": 256.324, "dur": 0.21, "note": 72, "inst": "organ_v0_additive_1", "vel": 1.0, "bend": 0.0, "ch": 8}, {"t": 256.429, "dur": 0.105, "note": 64, "inst": "harpsichord_v0_additive_2", "vel": 1.0, "bend": 0.0, "ch": 0}, {"t": 256.534, "dur": 0.105, "note": 67, "inst": "harpsichord_v0_additive_2", "vel": 1.0, "bend": 0.0, "ch": 3}, {"t": 256.587, "dur": 0.053, "note": 84, "inst": "organ_v0_additive_1", "vel": 1.0, "bend": 0.0, "ch": 4}, {"t": 256.639, "dur": 0.105, "note": 64, "inst": "harpsichord_v0_additive_2", "vel": 1.0, "bend": 0.0, "ch": 0}, {"t": 256.639, "dur": 0.053, "note": 83, "inst": "celesta_v0_additive_3", "vel": 1.0, "bend": 0.0, "ch": 3}, {"t": 256.692, "dur": 0.053, "note": 81, "inst": "organ_v0_additive_1", "vel": 1.0, "bend": 0.0, "ch": 1}, {"t": 256.744, "dur": 0.105, "note": 60, "inst": "organ_v0_additive_1", "vel": 1.0, "bend": 0.0, "ch": 12}, {"t": 256.744, "dur": 0.105, "note": 79, "inst": "harpsichord_v0_additive_2", "vel": 1.0, "bend": 0.0, "ch": 15}, {"t": 256.849, "dur": 0.105, "note": 65, "inst": "celesta_v0_additive_3", "vel": 1.0, "bend": 0.0, "ch": 1}, {"t": 256.849, "dur": 0.158, "note": 81, "inst": "organ_v0_additive_1", "vel": 1.0, "bend": 0.0, "ch": 1}, {"t": 256.955, "dur": 0.105, "note": 69, "inst": "organ_v0_additive_1", "vel": 1.0, "bend": 0.0, "ch": 5}, {"t": 257.007, "dur": 0.026, "note": 84, "inst": "organ_v0_additive_1", "vel": 1.0, "bend": 0.0, "ch": 4}, {"t": 257.033, "dur": 0.026, "note": 83, "inst": "celesta_v0_additive_3", "vel": 1.0, "bend": 0.0, "ch": 3}, {"t": 257.06, "dur": 0.105, "note": 65, "inst": "celesta_v0_additive_3", "vel": 1.0, "bend": 0.0, "ch": 1}, {"t": 257.06, "dur": 0.026, "note": 86, "inst": "celesta_v0_additive_3", "vel": 1.0, "bend": 0.0, "ch": 6}, {"t": 257.086, "dur": 0.026, "note": 84, "inst": "organ_v0_additive_1", "vel": 1.0, "bend": 0.0, "ch": 4}, {"t": 257.112, "dur": 0.026, "note": 83, "inst": "celesta_v0_additive_3", "vel": 1.0, "bend": 0.0, "ch": 3}, {"t": 257.139, "dur": 0.026, "note": 81, "inst": "organ_v0_additive_1", "vel": 1.0, "bend": 0.0, "ch": 1}, {"t": 257.165, "dur": 0.105, "note": 60, "inst": "organ_v0_additive_1", "vel": 1.0, "bend": 0.0, "ch": 12}, {"t": 257.165, "dur": 0.053, "note": 79, "inst": "harpsichord_v0_additive_2", "vel": 1.0, "bend": 0.0, "ch": 15}, {"t": 257.217, "dur": 0.053, "note": 88, "inst": "harpsichord_v0_additive_2", "vel": 1.0, "bend": 0.0, "ch": 8}, {"t": 257.27, "dur": 0.105, "note": 64, "inst": "harpsichord_v0_additive_2", "vel": 1.0, "bend": 0.0, "ch": 0}, {"t": 257.27, "dur": 0.053, "note": 86, "inst": "celesta_v0_additive_3", "vel": 1.0, "bend": 0.0, "ch": 6}, {"t": 257.323, "dur": 0.053, "note": 84, "inst": "organ_v0_additive_1", "vel": 1.0, "bend": 0.0, "ch": 4}, {"t": 257.375, "dur": 0.105, "note": 67, "inst": "harpsichord_v0_additive_2", "vel": 1.0, "bend": 0.0, "ch": 3}, {"t": 257.375, "dur": 0.053, "note": 83, "inst": "celesta_v0_additive_3", "vel": 1.0, "bend": 0.0, "ch": 3}, {"t": 257.428, "dur": 0.053, "note": 84, "inst": "organ_v0_additive_1", "vel": 1.0, "bend": 0.0, "ch": 4}, {"t": 257.48, "dur": 0.105, "note": 64, "inst": "harpsichord_v0_additive_2", "vel": 1.0, "bend": 0.0, "ch": 0}, {"t": 257.48, "dur": 0.053, "note": 86, "inst": "celesta_v0_additive_3", "vel": 1.0, "bend": 0.0, "ch": 6}, {"t": 257.533, "dur": 0.053, "note": 84, "inst": "organ_v0_additive_1", "vel": 1.0, "bend": 0.0, "ch": 4}, {"t": 257.585, "dur": 0.105, "note": 60, "inst": "organ_v0_additive_1", "vel": 0.992, "bend": 0.0, "ch": 12}, {"t": 257.585, "dur": 0.079, "note": 83, "inst": "celesta_v0_additive_3", "vel": 0.992, "bend": 0.0, "ch": 3}, {"t": 257.664, "dur": 0.026, "note": 81, "inst": "organ_v0_additive_1", "vel": 0.992, "bend": 0.0, "ch": 1}, {"t": 257.69, "dur": 0.105, "note": 65, "inst": "celesta_v0_additive_3", "vel": 0.992, "bend": 0.0, "ch": 1}, {"t": 257.69, "dur": 0.131, "note": 93, "inst": "organ_v0_additive_1", "vel": 0.992, "bend": 0.0, "ch": 13}, {"t": 257.796, "dur": 0.105, "note": 69, "inst": "organ_v0_additive_1", "vel": 0.992, "bend": 0.0, "ch": 5}, {"t": 257.822, "dur": 0.026, "note": 91, "inst": "harpsichord_v0_additive_2", "vel": 1.0, "bend": 0.0, "ch": 11}, {"t": 257.848, "dur": 0.026, "note": 89, "inst": "celesta_v0_additive_3", "vel": 1.0, "bend": 0.0, "ch": 9}, {"t": 257.874, "dur": 0.026, "note": 88, "inst": "harpsichord_v0_additive_2", "vel": 1.0, "bend": 0.0, "ch": 8}, {"t": 257.901, "dur": 0.105, "note": 65, "inst": "celesta_v0_additive_3", "vel": 0.992, "bend": 0.0, "ch": 1}, {"t": 257.901, "dur": 0.026, "note": 86, "inst": "celesta_v0_additive_3", "vel": 1.0, "bend": 0.0, "ch": 6}, {"t": 257.927, "dur": 0.026, "note": 84, "inst": "organ_v0_additive_1", "vel": 1.0, "bend": 0.0, "ch": 4}, {"t": 257.953, "dur": 0.026, "note": 83, "inst": "celesta_v0_additive_3", "vel": 1.0, "bend": 0.0, "ch": 3}, {"t": 257.98, "dur": 0.026, "note": 81, "inst": "organ_v0_additive_1", "vel": 1.0, "bend": 0.0, "ch": 1}, {"t": 258.006, "dur": 0.21, "note": 60, "inst": "organ_v0_additive_1", "vel": 0.496, "bend": 0.0, "ch": 12}, {"t": 258.006, "dur": 0.21, "note": 64, "inst": "harpsichord_v0_additive_2", "vel": 0.496, "bend": 0.0, "ch": 0}, {"t": 258.006, "dur": 0.21, "note": 67, "inst": "harpsichord_v0_additive_2", "vel": 0.496, "bend": 0.0, "ch": 3}, {"t": 258.006, "dur": 0.053, "note": 79, "inst": "harpsichord_v0_additive_2", "vel": 0.543, "bend": 0.0, "ch": 15}, {"t": 258.058, "dur": 0.053, "note": 88, "inst": "harpsichord_v0_additive_2", "vel": 0.496, "bend": 0.0, "ch": 8}, {"t": 258.111, "dur": 0.053, "note": 86, "inst": "celesta_v0_additive_3", "vel": 0.496, "bend": 0.0, "ch": 6}, {"t": 258.164, "dur": 0.053, "note": 84, "inst": "organ_v0_additive_1", "vel": 0.496, "bend": 0.0, "ch": 4}, {"t": 258.216, "dur": 0.053, "note": 83, "inst": "celesta_v0_additive_3", "vel": 0.496, "bend": 0.0, "ch": 3}, {"t": 258.269, "dur": 0.053, "note": 84, "inst": "organ_v0_additive_1", "vel": 0.496, "bend": 0.0, "ch": 4}, {"t": 258.321, "dur": 0.053, "note": 86, "inst": "celesta_v0_additive_3", "vel": 0.496, "bend": 0.0, "ch": 6}, {"t": 258.374, "dur": 0.053, "note": 84, "inst": "organ_v0_additive_1", "vel": 0.496, "bend": 0.0, "ch": 4}, {"t": 258.426, "dur": 0.21, "note": 62, "inst": "celesta_v0_additive_3", "vel": 0.496, "bend": 0.0, "ch": 14}, {"t": 258.426, "dur": 0.21, "note": 65, "inst": "celesta_v0_additive_3", "vel": 0.496, "bend": 0.0, "ch": 1}, {"t": 258.426, "dur": 0.21, "note": 67, "inst": "harpsichord_v0_additive_2", "vel": 0.496, "bend": 0.0, "ch": 3}, {"t": 258.426, "dur": 0.21, "note": 71, "inst": "celesta_v0_additive_3", "vel": 0.496, "bend": 0.0, "ch": 7}, {"t": 258.479, "dur": 0.053, "note": 89, "inst": "celesta_v0_additive_3", "vel": 0.496, "bend": 0.0, "ch": 9}, {"t": 258.531, "dur": 0.053, "note": 88, "inst": "harpsichord_v0_additive_2", "vel": 0.496, "bend": 0.0, "ch": 8}, {"t": 258.584, "dur": 0.053, "note": 86, "inst": "celesta_v0_additive_3", "vel": 0.496, "bend": 0.0, "ch": 6}, {"t": 258.637, "dur": 0.053, "note": 74, "inst": "celesta_v0_additive_3", "vel": 0.496, "bend": 0.0, "ch": 10}, {"t": 258.689, "dur": 0.053, "note": 86, "inst": "celesta_v0_additive_3", "vel": 0.496, "bend": 0.0, "ch": 6}, {"t": 258.742, "dur": 0.053, "note": 88, "inst": "harpsichord_v0_additive_2", "vel": 0.496, "bend": 0.0, "ch": 8}, {"t": 258.794, "dur": 0.053, "note": 86, "inst": "celesta_v0_additive_3", "vel": 0.496, "bend": 0.0, "ch": 6}, {"t": 258.847, "dur": 0.421, "note": 91, "inst": "harpsichord_v0_additive_2", "vel": 0.496, "bend": 0.0, "ch": 11}, {"t": 258.952, "dur": 0.105, "note": 64, "inst": "harpsichord_v0_additive_2", "vel": 0.496, "bend": 0.0, "ch": 0}, {"t": 259.057, "dur": 0.105, "note": 67, "inst": "harpsichord_v0_additive_2", "vel": 0.496, "bend": 0.0, "ch": 3}, {"t": 259.162, "dur": 0.105, "note": 72, "inst": "organ_v0_additive_1", "vel": 0.496, "bend": 0.0, "ch": 8}, {"t": 259.267, "dur": 0.053, "note": 89, "inst": "celesta_v0_additive_3", "vel": 0.496, "bend": 0.0, "ch": 9}, {"t": 259.32, "dur": 0.053, "note": 88, "inst": "harpsichord_v0_additive_2", "vel": 0.496, "bend": 0.0, "ch": 8}, {"t": 259.373, "dur": 0.053, "note": 86, "inst": "celesta_v0_additive_3", "vel": 0.496, "bend": 0.0, "ch": 6}, {"t": 259.425, "dur": 0.026, "note": 84, "inst": "organ_v0_additive_1", "vel": 0.496, "bend": 0.0, "ch": 4}, {"t": 259.451, "dur": 0.026, "note": 83, "inst": "celesta_v0_additive_3", "vel": 0.496, "bend": 0.0, "ch": 3}, {"t": 259.478, "dur": 0.026, "note": 81, "inst": "organ_v0_additive_1", "vel": 0.496, "bend": 0.0, "ch": 1}, {"t": 259.504, "dur": 0.026, "note": 79, "inst": "harpsichord_v0_additive_2", "vel": 0.496, "bend": 0.0, "ch": 15}, {"t": 259.53, "dur": 0.026, "note": 77, "inst": "celesta_v0_additive_3", "vel": 0.496, "bend": 0.0, "ch": 13}, {"t": 259.556, "dur": 0.026, "note": 76, "inst": "harpsichord_v0_additive_2", "vel": 0.496, "bend": 0.0, "ch": 12}, {"t": 259.583, "dur": 0.026, "note": 74, "inst": "celesta_v0_additive_3", "vel": 0.496, "bend": 0.0, "ch": 10}, {"t": 259.609, "dur": 0.026, "note": 72, "inst": "organ_v0_additive_1", "vel": 0.496, "bend": 0.0, "ch": 8}, {"t": 259.635, "dur": 0.026, "note": 71, "inst": "celesta_v0_additive_3", "vel": 0.496, "bend": 0.0, "ch": 7}, {"t": 259.662, "dur": 0.026, "note": 69, "inst": "organ_v0_additive_1", "vel": 0.496, "bend": 0.0, "ch": 5}, {"t": 259.688, "dur": 0.026, "note": 67, "inst": "harpsichord_v0_additive_2", "vel": 0.496, "bend": 0.0, "ch": 3}, {"t": 259.714, "dur": 0.026, "note": 65, "inst": "celesta_v0_additive_3", "vel": 0.496, "bend": 0.0, "ch": 1}, {"t": 259.74, "dur": 0.421, "note": 64, "inst": "harpsichord_v0_additive_2", "vel": 0.496, "bend": 0.0, "ch": 0}, {"t": 259.846, "dur": 0.105, "note": 45, "inst": "organ_v0_additive_1", "vel": 0.496, "bend": 0.0, "ch": 13}, {"t": 259.951, "dur": 0.105, "note": 48, "inst": "organ_v0_additive_1", "vel": 0.496, "bend": 0.0, "ch": 0}, {"t": 260.056, "dur": 0.105, "note": 57, "inst": "organ_v0_additive_1", "vel": 0.496, "bend": 0.0, "ch": 9}, {"t": 260.161, "dur": 0.421, "note": 62, "inst": "celesta_v0_additive_3", "vel": 0.496, "bend": 0.0, "ch": 14}, {"t": 260.266, "dur": 0.105, "note": 41, "inst": "celesta_v0_additive_3", "vel": 0.496, "bend": 0.0, "ch": 9}, {"t": 260.371, "dur": 0.105, "note": 45, "inst": "organ_v0_additive_1", "vel": 0.496, "bend": 0.0, "ch": 13}, {"t": 260.476, "dur": 0.105, "note": 53, "inst": "celesta_v0_additive_3", "vel": 0.496, "bend": 0.0, "ch": 5}, {"t": 260.581, "dur": 0.526, "note": 60, "inst": "organ_v0_additive_1", "vel": 0.496, "bend": 0.0, "ch": 12}, {"t": 260.687, "dur": 0.105, "note": 41, "inst": "celesta_v0_additive_3", "vel": 0.496, "bend": 0.0, "ch": 9}, {"t": 260.792, "dur": 0.105, "note": 45, "inst": "organ_v0_additive_1", "vel": 0.496, "bend": 0.0, "ch": 13}, {"t": 260.897, "dur": 0.105, "note": 50, "inst": "celesta_v0_additive_3", "vel": 0.496, "bend": 0.0, "ch": 2}, {"t": 261.002, "dur": 0.21, "note": 43, "inst": "harpsichord_v0_additive_2", "vel": 0.496, "bend": 0.0, "ch": 11}, {"t": 261.107, "dur": 0.21, "note": 59, "inst": "celesta_v0_additive_3", "vel": 0.496, "bend": 0.0, "ch": 11}, {"t": 261.212, "dur": 0.21, "note": 48, "inst": "organ_v0_additive_1", "vel": 0.496, "bend": 0.0, "ch": 0}], "instruments": ["celesta_v0_additive_3", "harpsichord_v0_additive_2", "organ_v0_additive_1"], "duration": 261.42199999999997, "n_events": 740}