{"events": [{"t": 0.078, "dur": 0.228, "note": 67, "inst": "organ_v0_additive_1", "vel": 1.0, "bend": 0.0, "ch": 3}, {"t": 0.307, "dur": 0.457, "note": 38, "inst": "harpsichord_v0_additive_2", "vel": 1.0, "bend": 0.0, "ch": 6}, {"t": 0.307, "dur": 0.228, "note": 67, "inst": "organ_v0_additive_1", "vel": 1.0, "bend": 0.0, "ch": 3}, {"t": 0.535, "dur": 0.076, "note": 67, "inst": "organ_v0_additive_1", "vel": 1.0, "bend": 0.0, "ch": 3}, {"t": 0.611, "dur": 0.076, "note": 69, "inst": "piano_v0_additive_0", "vel": 1.0, "bend": 0.0, "ch": 5}, {"t": 0.687, "dur": 0.076, "note": 67, "inst": "organ_v0_additive_1", "vel": 1.0, "bend": 0.0, "ch": 3}, {"t": 0.763, "dur": 0.457, "note": 48, "inst": "piano_v0_additive_0", "vel": 1.0, "bend": 0.0, "ch": 0}, {"t": 0.763, "dur": 0.228, "note": 67, "inst": "organ_v0_additive_1", "vel": 1.0, "bend": 0.0, "ch": 3}, {"t": 0.991, "dur": 0.228, "note": 69, "inst": "piano_v0_additive_0", "vel": 1.0, "bend": 0.0, "ch": 5}, {"t": 1.22, "dur": 0.457, "note": 47, "inst": "harpsichord_v0_additive_2", "vel": 1.0, "bend": 0.0, "ch": 15}, {"t": 1.22, "dur": 0.228, "note": 67, "inst": "organ_v0_additive_1", "vel": 1.0, "bend": 0.0, "ch": 3}, {"t": 1.448, "dur": 0.228, "note": 64, "inst": "organ_v0_additive_1", "vel": 1.0, "bend": 0.0, "ch": 0}, {"t": 1.676, "dur": 0.457, "note": 45, "inst": "piano_v0_additive_0", "vel": 1.0, "bend": 0.0, "ch": 13}, {"t": 1.676, "dur": 0.228, "note": 62, "inst": "harpsichord_v0_additive_2", "vel": 1.0, "bend": 0.0, "ch": 14}, {"t": 1.904, "dur": 0.228, "note": 76, "inst": "organ_v0_additive_1", "vel": 1.0, "bend": 0.0, "ch": 12}, {"t": 2.133, "dur": 0.457, "note": 38, "inst": "harpsichord_v0_additive_2", "vel": 1.0, "bend": 0.0, "ch": 6}, {"t": 2.133, "dur": 0.228, "note": 74, "inst": "harpsichord_v0_additive_2", "vel": 1.0, "bend": 0.0, "ch": 10}, {"t": 2.361, "dur": 0.076, "note": 64, "inst": "organ_v0_additive_1", "vel": 1.0, "bend": 0.0, "ch": 0}, {"t": 2.437, "dur": 0.076, "note": 67, "inst": "organ_v0_additive_1", "vel": 1.0, "bend": 0.0, "ch": 3}, {"t": 2.513, "dur": 0.076, "note": 64, "inst": "organ_v0_additive_1", "vel": 1.0, "bend": 0.0, "ch": 0}, {"t": 2.589, "dur": 0.457, "note": 45, "inst": "piano_v0_additive_0", "vel": 1.0, "bend": 0.0, "ch": 13}, {"t": 2.589, "dur": 0.228, "note": 62, "inst": "harpsichord_v0_additive_2", "vel": 1.0, "bend": 0.0, "ch": 14}, {"t": 2.818, "dur": 0.228, "note": 74, "inst": "harpsichord_v0_additive_2", "vel": 1.0, "bend": 0.0, "ch": 10}, {"t": 3.046, "dur": 0.457, "note": 38, "inst": "harpsichord_v0_additive_2", "vel": 1.0, "bend": 0.0, "ch": 6}, {"t": 3.046, "dur": 0.228, "note": 62, "inst": "harpsichord_v0_additive_2", "vel": 1.0, "bend": 0.0, "ch": 14}, {"t": 3.274, "dur": 0.076, "note": 50, "inst": "harpsichord_v0_additive_2", "vel": 1.0, "bend": 0.0, "ch": 2}, {"t": 3.35, "dur": 0.076, "note": 62, "inst": "harpsichord_v0_additive_2", "vel": 1.0, "bend": 0.0, "ch": 14}, {"t": 3.426, "dur": 0.076, "note": 50, "inst": "harpsichord_v0_additive_2", "vel": 1.0, "bend": 0.0, "ch": 2}, {"t": 3.502, "dur": 0.457, "note": 43, "inst": "organ_v0_additive_1", "vel": 1.0, "bend": 0.0, "ch": 11}, {"t": 3.502, "dur": 0.228, "note": 60, "inst": "piano_v0_additive_0", "vel": 1.0, "bend": 0.0, "ch": 12}, {"t": 3.731, "dur": 0.228, "note": 62, "inst": "harpsichord_v0_additive_2", "vel": 1.0, "bend": 0.0, "ch": 14}, {"t": 3.959, "dur": 0.457, "note": 43, "inst": "organ_v0_additive_1", "vel": 1.0, "bend": 0.0, "ch": 11}, {"t": 3.959, "dur": 0.228, "note": 72, "inst": "piano_v0_additive_0", "vel": 1.0, "bend": 0.0, "ch": 8}, {"t": 4.187, "dur": 0.076, "note": 72, "inst": "piano_v0_additive_0", "vel": 1.0, "bend": 0.0, "ch": 8}, {"t": 4.263, "dur": 0.076, "note": 62, "inst": "harpsichord_v0_additive_2", "vel": 1.0, "bend": 0.0, "ch": 14}, {"t": 4.339, "dur": 0.076, "note": 72, "inst": "piano_v0_additive_0", "vel": 1.0, "bend": 0.0, "ch": 8}, {"t": 4.415, "dur": 0.457, "note": 43, "inst": "organ_v0_additive_1", "vel": 1.0, "bend": 0.0, "ch": 11}, {"t": 4.415, "dur": 0.228, "note": 71, "inst": "harpsichord_v0_additive_2", "vel": 1.0, "bend": 0.0, "ch": 7}, {"t": 4.644, "dur": 0.228, "note": 72, "inst": "piano_v0_additive_0", "vel": 1.0, "bend": 0.0, "ch": 8}, {"t": 4.872, "dur": 0.457, "note": 38, "inst": "harpsichord_v0_additive_2", "vel": 1.0, "bend": 0.0, "ch": 6}, {"t": 4.872, "dur": 0.228, "note": 74, "inst": "harpsichord_v0_additive_2", "vel": 1.0, "bend": 0.0, "ch": 10}, {"t": 5.1, "dur": 0.228, "note": 62, "inst": "harpsichord_v0_additive_2", "vel": 1.0, "bend": 0.0, "ch": 14}, {"t": 5.328, "dur": 0.457, "note": 45, "inst": "piano_v0_additive_0", "vel": 1.0, "bend": 0.0, "ch": 13}, {"t": 5.328, "dur": 0.228, "note": 72, "inst": "piano_v0_additive_0", "vel": 1.0, "bend": 0.0, "ch": 8}, {"t": 5.557, "dur": 0.228, "note": 69, "inst": "piano_v0_additive_0", "vel": 1.0, "bend": 0.0, "ch": 5}, {"t": 5.785, "dur": 0.457, "note": 38, "inst": "harpsichord_v0_additive_2", "vel": 1.0, "bend": 0.0, "ch": 6}, {"t": 5.785, "dur": 0.228, "note": 69, "inst": "piano_v0_additive_0", "vel": 1.0, "bend": 0.0, "ch": 5}, {"t": 6.013, "dur": 0.076, "note": 69, "inst": "piano_v0_additive_0", "vel": 1.0, "bend": 0.0, "ch": 5}, {"t": 6.089, "dur": 0.076, "note": 72, "inst": "piano_v0_additive_0", "vel": 1.0, "bend": 0.0, "ch": 8}, {"t": 6.165, "dur": 0.076, "note": 69, "inst": "piano_v0_additive_0", "vel": 1.0, "bend": 0.0, "ch": 5}, {"t": 6.241, "dur": 0.457, "note": 40, "inst": "organ_v0_additive_1", "vel": 1.0, "bend": 0.0, "ch": 8}, {"t": 6.241, "dur": 0.228, "note": 69, "inst": "piano_v0_additive_0", "vel": 1.0, "bend": 0.0, "ch": 5}, {"t": 6.47, "dur": 0.228, "note": 69, "inst": "piano_v0_additive_0", "vel": 1.0, "bend": 0.0, "ch": 5}, {"t": 6.698, "dur": 0.457, "note": 36, "inst": "piano_v0_additive_0", "vel": 1.0, "bend": 0.0, "ch": 4}, {"t": 6.698, "dur": 0.228, "note": 62, "inst": "harpsichord_v0_additive_2", "vel": 1.0, "bend": 0.0, "ch": 14}, {"t": 6.926, "dur": 0.228, "note": 72, "inst": "piano_v0_additive_0", "vel": 1.0, "bend": 0.0, "ch": 8}, {"t": 7.154, "dur": 0.457, "note": 40, "inst": "organ_v0_additive_1", "vel": 1.0, "bend": 0.0, "ch": 8}, {"t": 7.154, "dur": 0.228, "note": 69, "inst": "piano_v0_additive_0", "vel": 1.0, "bend": 0.0, "ch": 5}, {"t": 7.383, "dur": 0.228, "note": 67, "inst": "organ_v0_additive_1", "vel": 1.0, "bend": 0.0, "ch": 3}, {"t": 7.611, "dur": 0.457, "note": 38, "inst": "harpsichord_v0_additive_2", "vel": 1.0, "bend": 0.0, "ch": 6}, {"t": 7.611, "dur": 0.228, "note": 67, "inst": "organ_v0_additive_1", "vel": 1.0, "bend": 0.0, "ch": 3}, {"t": 7.839, "dur": 0.076, "note": 67, "inst": "organ_v0_additive_1", "vel": 1.0, "bend": 0.0, "ch": 3}, {"t": 7.915, "dur": 0.076, "note": 69, "inst": "piano_v0_additive_0", "vel": 1.0, "bend": 0.0, "ch": 5}, {"t": 7.991, "dur": 0.076, "note": 67, "inst": "organ_v0_additive_1", "vel": 1.0, "bend": 0.0, "ch": 3}, {"t": 8.067, "dur": 0.457, "note": 26, "inst": "harpsichord_v0_additive_2", "vel": 1.0, "bend": 0.0, "ch": 10}, {"t": 8.067, "dur": 0.228, "note": 67, "inst": "organ_v0_additive_1", "vel": 1.0, "bend": 0.0, "ch": 3}, {"t": 8.296, "dur": 0.228, "note": 69, "inst": "piano_v0_additive_0", "vel": 1.0, "bend": 0.0, "ch": 5}, {"t": 8.524, "dur": 0.457, "note": 38, "inst": "harpsichord_v0_additive_2", "vel": 1.0, "bend": 0.0, "ch": 6}, {"t": 8.524, "dur": 0.228, "note": 67, "inst": "organ_v0_additive_1", "vel": 1.0, "bend": 0.0, "ch": 3}, {"t": 8.752, "dur": 0.228, "note": 64, "inst": "organ_v0_additive_1", "vel": 1.0, "bend": 0.0, "ch": 0}, {"t": 8.98, "dur": 0.457, "note": 38, "inst": "harpsichord_v0_additive_2", "vel": 1.0, "bend": 0.0, "ch": 6}, {"t": 8.98, "dur": 0.228, "note": 62, "inst": "harpsichord_v0_additive_2", "vel": 1.0, "bend": 0.0, "ch": 14}, {"t": 42.058, "dur": 0.333, "note": 30, "inst": "piano_v0_additive_0", "vel": 0.709, "bend": 0.0, "ch": 14}, {"t": 42.058, "dur": 0.333, "note": 49, "inst": "organ_v0_additive_1", "vel": 0.709, "bend": 0.0, "ch": 1}, {"t": 42.058, "dur": 0.333, "note": 61, "inst": "organ_v0_additive_1", "vel": 0.709, "bend": 0.0, "ch": 13}, {"t": 42.391, "dur": 0.333, "note": 30, "inst": "piano_v0_additive_0", "vel": 0.709, "bend": 0.0, "ch": 14}, {"t": 42.724, "dur": 0.666, "note": 30, "inst": "piano_v0_additive_0", "vel": 0.709, "bend": 0.0, "ch": 14}, {"t": 43.39, "dur": 0.333, "note": 54, "inst": "piano_v0_additive_0", "vel": 0.709, "bend": 0.0, "ch": 6}, {"t": 43.39, "dur": 0.333, "note": 61, "inst": "organ_v0_additive_1", "vel": 0.709, "bend": 0.0, "ch": 13}, {"t": 43.723, "dur": 0.666, "note": 30, "inst": "piano_v0_additive_0", "vel": 0.709, "bend": 0.0, "ch": 14}, {"t": 43.723, "dur": 0.333, "note": 54, "inst": "piano_v0_additive_0", "vel": 0.709, "bend": 0.0, "ch": 6}, {"t": 43.723, "dur": 0.333, "note": 61, "inst": "organ_v0_additive_1", "vel": 0.709, "bend": 0.0, "ch": 13}, {"t": 44.056, "dur": 0.333, "note": 54, "inst": "piano_v0_additive_0", "vel": 0.709, "bend": 0.0, "ch": 6}, {"t": 44.056, "dur": 0.333, "note": 61, "inst": "organ_v0_additive_1", "vel": 0.709, "bend": 0.0, "ch": 13}, {"t": 44.39, "dur": 0.333, "note": 54, "inst": "piano_v0_additive_0", "vel": 0.709, "bend": 0.0, "ch": 6}, {"t": 44.39, "dur": 0.333, "note": 61, "inst": "organ_v0_additive_1", "vel": 0.709, "bend": 0.0, "ch": 13}, {"t": 44.723, "dur": 0.666, "note": 30, "inst": "piano_v0_additive_0", "vel": 0.709, "bend": 0.0, "ch": 14}, {"t": 44.723, "dur": 0.333, "note": 54, "inst": "piano_v0_additive_0", "vel": 0.709, "bend": 0.0, "ch": 6}, {"t": 44.723, "dur": 0.333, "note": 61, "inst": "organ_v0_additive_1", "vel": 0.709, "bend": 0.0, "ch": 13}, {"t": 45.056, "dur": 0.333, "note": 61, "inst": "organ_v0_additive_1", "vel": 0.709, "bend": 0.0, "ch": 13}, {"t": 45.056, "dur": 0.333, "note": 61, "inst": "organ_v0_additive_1", "vel": 0.709, "bend": 0.0, "ch": 13}, {"t": 45.389, "dur": 0.333, "note": 61, "inst": "organ_v0_additive_1", "vel": 0.709, "bend": 0.0, "ch": 13}, {"t": 45.389, "dur": 0.333, "note": 61, "inst": "organ_v0_additive_1", "vel": 0.709, "bend": 0.0, "ch": 13}, {"t": 45.722, "dur": 0.666, "note": 30, "inst": "piano_v0_additive_0", "vel": 0.709, "bend": 0.0, "ch": 14}, {"t": 45.722, "dur": 0.333, "note": 61, "inst": "organ_v0_additive_1", "vel": 0.709, "bend": 0.0, "ch": 13}, {"t": 45.722, "dur": 0.333, "note": 61, "inst": "organ_v0_additive_1", "vel": 0.709, "bend": 0.0, "ch": 13}, {"t": 46.055, "dur": 0.333, "note": 61, "inst": "organ_v0_additive_1", "vel": 0.709, "bend": 0.0, "ch": 13}, {"t": 46.055, "dur": 0.333, "note": 61, "inst": "organ_v0_additive_1", "vel": 0.709, "bend": 0.0, "ch": 13}, {"t": 46.388, "dur": 0.333, "note": 61, "inst": "organ_v0_additive_1", "vel": 0.709, "bend": 0.0, "ch": 13}, {"t": 46.388, "dur": 0.333, "note": 61, "inst": "organ_v0_additive_1", "vel": 0.709, "bend": 0.0, "ch": 13}, {"t": 46.721, "dur": 0.666, "note": 30, "inst": "piano_v0_additive_0", "vel": 0.709, "bend": 0.0, "ch": 14}, {"t": 46.721, "dur": 0.333, "note": 61, "inst": "organ_v0_additive_1", "vel": 0.709, "bend": 0.0, "ch": 13}, {"t": 46.721, "dur": 0.333, "note": 61, "inst": "organ_v0_additive_1", "vel": 0.709, "bend": 0.0, "ch": 13}, {"t": 47.054, "dur": 0.333, "note": 61, "inst": "organ_v0_additive_1", "vel": 0.709, "bend": 0.0, "ch": 13}, {"t": 47.054, "dur": 0.333, "note": 54, "inst": "piano_v0_additive_0", "vel": 0.709, "bend": 0.0, "ch": 6}, {"t": 47.387, "dur": 0.333, "note": 61, "inst": "organ_v0_additive_1", "vel": 0.709, "bend": 0.0, "ch": 13}, {"t": 47.387, "dur": 0.333, "note": 54, "inst": "piano_v0_additive_0", "vel": 0.709, "bend": 0.0, "ch": 6}, {"t": 47.721, "dur": 2.665, "note": 30, "inst": "piano_v0_additive_0", "vel": 0.709, "bend": 0.0, "ch": 14}, {"t": 47.721, "dur": 1.999, "note": 61, "inst": "organ_v0_additive_1", "vel": 0.709, "bend": 0.0, "ch": 13}, {"t": 47.721, "dur": 1.999, "note": 54, "inst": "piano_v0_additive_0", "vel": 0.709, "bend": 0.0, "ch": 6}, {"t": 49.719, "dur": 0.666, "note": 61, "inst": "organ_v0_additive_1", "vel": 0.709, "bend": 0.0, "ch": 13}, {"t": 49.719, "dur": 0.666, "note": 54, "inst": "piano_v0_additive_0", "vel": 0.709, "bend": 0.0, "ch": 6}, {"t": 51.385, "dur": 0.333, "note": 54, "inst": "piano_v0_additive_0", "vel": 0.709, "bend": 0.0, "ch": 6}, {"t": 51.718, "dur": 0.666, "note": 37, "inst": "organ_v0_additive_1", "vel": 0.709, "bend": 0.0, "ch": 5}, {"t": 51.718, "dur": 0.666, "note": 42, "inst": "piano_v0_additive_0", "vel": 0.709, "bend": 0.0, "ch": 10}, {"t": 51.718, "dur": 0.666, "note": 54, "inst": "piano_v0_additive_0", "vel": 0.709, "bend": 0.0, "ch": 6}, {"t": 51.718, "dur": 0.666, "note": 54, "inst": "piano_v0_additive_0", "vel": 0.709, "bend": 0.0, "ch": 6}, {"t": 84.148, "dur": 0.165, "note": 74, "inst": "harpsichord_v0_additive_2", "vel": 0.709, "bend": 0.0, "ch": 10}, {"t": 84.313, "dur": 0.497, "note": 38, "inst": "harpsichord_v0_additive_2", "vel": 0.709, "bend": 0.0, "ch": 6}, {"t": 84.313, "dur": 0.165, "note": 67, "inst": "organ_v0_additive_1", "vel": 0.709, "bend": 0.0, "ch": 3}, {"t": 84.479, "dur": 0.165, "note": 74, "inst": "harpsichord_v0_additive_2", "vel": 0.709, "bend": 0.0, "ch": 10}, {"t": 84.645, "dur": 0.165, "note": 74, "inst": "harpsichord_v0_additive_2", "vel": 0.709, "bend": 0.0, "ch": 10}, {"t": 84.81, "dur": 0.165, "note": 67, "inst": "organ_v0_additive_1", "vel": 0.709, "bend": 0.0, "ch": 3}, {"t": 84.976, "dur": 0.165, "note": 74, "inst": "harpsichord_v0_additive_2", "vel": 0.709, "bend": 0.0, "ch": 10}, {"t": 85.142, "dur": 0.165, "note": 74, "inst": "harpsichord_v0_additive_2", "vel": 0.709, "bend": 0.0, "ch": 10}, {"t": 85.307, "dur": 0.497, "note": 44, "inst": "harpsichord_v0_additive_2", "vel": 0.709, "bend": 0.0, "ch": 12}, {"t": 85.307, "dur": 0.165, "note": 68, "inst": "harpsichord_v0_additive_2", "vel": 0.709, "bend": 0.0, "ch": 4}, {"t": 85.473, "dur": 0.165, "note": 71, "inst": "harpsichord_v0_additive_2", "vel": 0.709, "bend": 0.0, "ch": 7}, {"t": 85.639, "dur": 0.165, "note": 71, "inst": "harpsichord_v0_additive_2", "vel": 0.709, "bend": 0.0, "ch": 7}, {"t": 85.804, "dur": 0.497, "note": 32, "inst": "harpsichord_v0_additive_2", "vel": 0.709, "bend": 0.0, "ch": 0}, {"t": 85.804, "dur": 0.165, "note": 68, "inst": "harpsichord_v0_additive_2", "vel": 0.709, "bend": 0.0, "ch": 4}, {"t": 85.97, "dur": 0.165, "note": 71, "inst": "harpsichord_v0_additive_2", "vel": 0.709, "bend": 0.0, "ch": 7}, {"t": 86.136, "dur": 0.165, "note": 71, "inst": "harpsichord_v0_additive_2", "vel": 0.709, "bend": 0.0, "ch": 7}, {"t": 86.301, "dur": 0.497, "note": 38, "inst": "harpsichord_v0_additive_2", "vel": 0.709, "bend": 0.0, "ch": 6}, {"t": 86.301, "dur": 0.165, "note": 64, "inst": "organ_v0_additive_1", "vel": 0.709, "bend": 0.0, "ch": 0}, {"t": 86.466, "dur": 0.165, "note": 71, "inst": "harpsichord_v0_additive_2", "vel": 0.709, "bend": 0.0, "ch": 7}, {"t": 86.632, "dur": 0.165, "note": 71, "inst": "harpsichord_v0_additive_2", "vel": 0.709, "bend": 0.0, "ch": 7}, {"t": 86.798, "dur": 0.165, "note": 64, "inst": "organ_v0_additive_1", "vel": 0.709, "bend": 0.0, "ch": 0}, {"t": 86.963, "dur": 0.165, "note": 71, "inst": "harpsichord_v0_additive_2", "vel": 0.709, "bend": 0.0, "ch": 7}, {"t": 87.129, "dur": 0.165, "note": 71, "inst": "harpsichord_v0_additive_2", "vel": 0.709, "bend": 0.0, "ch": 7}, {"t": 87.295, "dur": 0.497, "note": 43, "inst": "organ_v0_additive_1", "vel": 0.709, "bend": 0.0, "ch": 11}, {"t": 87.295, "dur": 0.165, "note": 67, "inst": "organ_v0_additive_1", "vel": 0.709, "bend": 0.0, "ch": 3}, {"t": 87.46, "dur": 0.165, "note": 68, "inst": "harpsichord_v0_additive_2", "vel": 0.709, "bend": 0.0, "ch": 4}, {"t": 87.626, "dur": 0.165, "note": 68, "inst": "harpsichord_v0_additive_2", "vel": 0.709, "bend": 0.0, "ch": 4}, {"t": 87.792, "dur": 0.497, "note": 31, "inst": "organ_v0_additive_1", "vel": 0.709, "bend": 0.0, "ch": 15}, {"t": 87.792, "dur": 0.165, "note": 67, "inst": "organ_v0_additive_1", "vel": 0.709, "bend": 0.0, "ch": 3}, {"t": 87.957, "dur": 0.165, "note": 68, "inst": "harpsichord_v0_additive_2", "vel": 0.709, "bend": 0.0, "ch": 4}, {"t": 88.123, "dur": 0.165, "note": 68, "inst": "harpsichord_v0_additive_2", "vel": 0.709, "bend": 0.0, "ch": 4}, {"t": 88.289, "dur": 0.497, "note": 35, "inst": "harpsichord_v0_additive_2", "vel": 0.709, "bend": 0.0, "ch": 3}, {"t": 88.289, "dur": 0.165, "note": 62, "inst": "harpsichord_v0_additive_2", "vel": 0.709, "bend": 0.0, "ch": 14}, {"t": 88.454, "dur": 0.165, "note": 67, "inst": "organ_v0_additive_1", "vel": 0.709, "bend": 0.0, "ch": 3}, {"t": 88.62, "dur": 0.165, "note": 67, "inst": "organ_v0_additive_1", "vel": 0.709, "bend": 0.0, "ch": 3}, {"t": 88.785, "dur": 0.165, "note": 62, "inst": "harpsichord_v0_additive_2", "vel": 0.709, "bend": 0.0, "ch": 14}, {"t": 88.951, "dur": 0.165, "note": 71, "inst": "harpsichord_v0_additive_2", "vel": 0.709, "bend": 0.0, "ch": 7}, {"t": 89.117, "dur": 0.165, "note": 71, "inst": "harpsichord_v0_additive_2", "vel": 0.709, "bend": 0.0, "ch": 7}, {"t": 89.282, "dur": 0.497, "note": 38, "inst": "harpsichord_v0_additive_2", "vel": 0.709, "bend": 0.0, "ch": 6}, {"t": 89.282, "dur": 0.165, "note": 64, "inst": "organ_v0_additive_1", "vel": 0.709, "bend": 0.0, "ch": 0}, {"t": 89.448, "dur": 0.165, "note": 71, "inst": "harpsichord_v0_additive_2", "vel": 0.709, "bend": 0.0, "ch": 7}, {"t": 89.614, "dur": 0.165, "note": 71, "inst": "harpsichord_v0_additive_2", "vel": 0.709, "bend": 0.0, "ch": 7}, {"t": 89.779, "dur": 0.497, "note": 38, "inst": "harpsichord_v0_additive_2", "vel": 0.709, "bend": 0.0, "ch": 6}, {"t": 89.779, "dur": 0.165, "note": 67, "inst": "organ_v0_additive_1", "vel": 0.709, "bend": 0.0, "ch": 3}, {"t": 89.945, "dur": 0.165, "note": 68, "inst": "harpsichord_v0_additive_2", "vel": 0.709, "bend": 0.0, "ch": 4}, {"t": 126.016, "dur": 0.23, "note": 56, "inst": "harpsichord_v0_additive_2", "vel": 1.0, "bend": 0.0, "ch": 8}, {"t": 126.016, "dur": 0.115, "note": 76, "inst": "organ_v0_additive_1", "vel": 1.0, "bend": 0.0, "ch": 12}, {"t": 126.131, "dur": 0.23, "note": 68, "inst": "harpsichord_v0_additive_2", "vel": 1.0, "bend": 0.0, "ch": 4}, {"t": 126.246, "dur": 0.23, "note": 58, "inst": "organ_v0_additive_1", "vel": 1.0, "bend": 0.0, "ch": 10}, {"t": 126.361, "dur": 0.115, "note": 67, "inst": "organ_v0_additive_1", "vel": 1.0, "bend": 0.0, "ch": 3}, {"t": 126.361, "dur": 0.115, "note": 68, "inst": "harpsichord_v0_additive_2", "vel": 1.0, "bend": 0.0, "ch": 4}, {"t": 126.475, "dur": 0.23, "note": 52, "inst": "organ_v0_additive_1", "vel": 1.0, "bend": 0.0, "ch": 4}, {"t": 126.475, "dur": 0.115, "note": 68, "inst": "harpsichord_v0_additive_2", "vel": 1.0, "bend": 0.0, "ch": 4}, {"t": 126.475, "dur": 0.115, "note": 70, "inst": "organ_v0_additive_1", "vel": 1.0, "bend": 0.0, "ch": 6}, {"t": 126.59, "dur": 0.115, "note": 67, "inst": "organ_v0_additive_1", "vel": 1.0, "bend": 0.0, "ch": 3}, {"t": 126.59, "dur": 0.115, "note": 68, "inst": "harpsichord_v0_additive_2", "vel": 1.0, "bend": 0.0, "ch": 4}, {"t": 126.705, "dur": 0.23, "note": 49, "inst": "organ_v0_additive_1", "vel": 1.0, "bend": 0.0, "ch": 1}, {"t": 126.705, "dur": 0.115, "note": 76, "inst": "organ_v0_additive_1", "vel": 1.0, "bend": 0.0, "ch": 12}, {"t": 126.705, "dur": 0.115, "note": 76, "inst": "organ_v0_additive_1", "vel": 1.0, "bend": 0.0, "ch": 12}, {"t": 126.82, "dur": 0.115, "note": 72, "inst": "piano_v0_additive_0", "vel": 1.0, "bend": 0.0, "ch": 8}, {"t": 126.82, "dur": 0.115, "note": 73, "inst": "organ_v0_additive_1", "vel": 1.0, "bend": 0.0, "ch": 9}, {"t": 126.935, "dur": 0.23, "note": 52, "inst": "organ_v0_additive_1", "vel": 1.0, "bend": 0.0, "ch": 4}, {"t": 126.935, "dur": 0.115, "note": 73, "inst": "organ_v0_additive_1", "vel": 1.0, "bend": 0.0, "ch": 9}, {"t": 127.05, "dur": 0.23, "note": 68, "inst": "harpsichord_v0_additive_2", "vel": 1.0, "bend": 0.0, "ch": 4}, {"t": 127.165, "dur": 0.23, "note": 52, "inst": "organ_v0_additive_1", "vel": 1.0, "bend": 0.0, "ch": 4}, {"t": 127.28, "dur": 0.115, "note": 68, "inst": "harpsichord_v0_additive_2", "vel": 1.0, "bend": 0.0, "ch": 4}, {"t": 127.28, "dur": 0.115, "note": 68, "inst": "harpsichord_v0_additive_2", "vel": 1.0, "bend": 0.0, "ch": 4}, {"t": 127.395, "dur": 0.23, "note": 49, "inst": "organ_v0_additive_1", "vel": 1.0, "bend": 0.0, "ch": 1}, {"t": 127.395, "dur": 0.115, "note": 68, "inst": "harpsichord_v0_additive_2", "vel": 1.0, "bend": 0.0, "ch": 4}, {"t": 127.395, "dur": 0.115, "note": 70, "inst": "organ_v0_additive_1", "vel": 1.0, "bend": 0.0, "ch": 6}, {"t": 127.51, "dur": 0.115, "note": 68, "inst": "harpsichord_v0_additive_2", "vel": 1.0, "bend": 0.0, "ch": 4}, {"t": 127.51, "dur": 0.115, "note": 68, "inst": "harpsichord_v0_additive_2", "vel": 1.0, "bend": 0.0, "ch": 4}, {"t": 127.625, "dur": 0.23, "note": 46, "inst": "organ_v0_additive_1", "vel": 1.0, "bend": 0.0, "ch": 14}, {"t": 127.625, "dur": 0.115, "note": 73, "inst": "organ_v0_additive_1", "vel": 1.0, "bend": 0.0, "ch": 9}, {"t": 127.625, "dur": 0.115, "note": 76, "inst": "organ_v0_additive_1", "vel": 1.0, "bend": 0.0, "ch": 12}, {"t": 127.74, "dur": 0.115, "note": 70, "inst": "organ_v0_additive_1", "vel": 1.0, "bend": 0.0, "ch": 6}, {"t": 127.74, "dur": 0.115, "note": 70, "inst": "organ_v0_additive_1", "vel": 1.0, "bend": 0.0, "ch": 6}, {"t": 127.855, "dur": 0.23, "note": 52, "inst": "organ_v0_additive_1", "vel": 1.0, "bend": 0.0, "ch": 4}, {"t": 127.855, "dur": 0.115, "note": 70, "inst": "organ_v0_additive_1", "vel": 1.0, "bend": 0.0, "ch": 6}, {"t": 127.97, "dur": 0.23, "note": 68, "inst": "harpsichord_v0_additive_2", "vel": 1.0, "bend": 0.0, "ch": 4}, {"t": 128.085, "dur": 0.23, "note": 49, "inst": "organ_v0_additive_1", "vel": 1.0, "bend": 0.0, "ch": 1}, {"t": 128.2, "dur": 0.115, "note": 67, "inst": "organ_v0_additive_1", "vel": 1.0, "bend": 0.0, "ch": 3}, {"t": 128.2, "dur": 0.115, "note": 68, "inst": "harpsichord_v0_additive_2", "vel": 1.0, "bend": 0.0, "ch": 4}, {"t": 128.315, "dur": 0.23, "note": 46, "inst": "organ_v0_additive_1", "vel": 1.0, "bend": 0.0, "ch": 14}, {"t": 128.315, "dur": 0.115, "note": 68, "inst": "harpsichord_v0_additive_2", "vel": 1.0, "bend": 0.0, "ch": 4}, {"t": 128.315, "dur": 0.115, "note": 70, "inst": "organ_v0_additive_1", "vel": 1.0, "bend": 0.0, "ch": 6}, {"t": 128.43, "dur": 0.115, "note": 67, "inst": "organ_v0_additive_1", "vel": 1.0, "bend": 0.0, "ch": 3}, {"t": 128.43, "dur": 0.115, "note": 68, "inst": "harpsichord_v0_additive_2", "vel": 1.0, "bend": 0.0, "ch": 4}, {"t": 128.545, "dur": 0.23, "note": 46, "inst": "organ_v0_additive_1", "vel": 1.0, "bend": 0.0, "ch": 14}, {"t": 128.545, "dur": 0.115, "note": 68, "inst": "harpsichord_v0_additive_2", "vel": 1.0, "bend": 0.0, "ch": 4}, {"t": 128.545, "dur": 0.115, "note": 73, "inst": "organ_v0_additive_1", "vel": 1.0, "bend": 0.0, "ch": 9}, {"t": 128.66, "dur": 0.115, "note": 65, "inst": "harpsichord_v0_additive_2", "vel": 1.0, "bend": 0.0, "ch": 1}, {"t": 128.66, "dur": 0.115, "note": 67, "inst": "organ_v0_additive_1", "vel": 1.0, "bend": 0.0, "ch": 3}, {"t": 128.775, "dur": 0.23, "note": 49, "inst": "organ_v0_additive_1", "vel": 1.0, "bend": 0.0, "ch": 1}, {"t": 128.775, "dur": 0.115, "note": 67, "inst": "organ_v0_additive_1", "vel": 1.0, "bend": 0.0, "ch": 3}, {"t": 128.89, "dur": 0.115, "note": 70, "inst": "organ_v0_additive_1", "vel": 1.0, "bend": 0.0, "ch": 6}, {"t": 129.005, "dur": 0.23, "note": 52, "inst": "organ_v0_additive_1", "vel": 1.0, "bend": 0.0, "ch": 4}, {"t": 129.005, "dur": 0.115, "note": 65, "inst": "harpsichord_v0_additive_2", "vel": 1.0, "bend": 0.0, "ch": 1}, {"t": 129.005, "dur": 0.115, "note": 73, "inst": "organ_v0_additive_1", "vel": 1.0, "bend": 0.0, "ch": 9}, {"t": 129.12, "dur": 0.115, "note": 64, "inst": "organ_v0_additive_1", "vel": 1.0, "bend": 0.0, "ch": 0}, {"t": 129.12, "dur": 0.115, "note": 64, "inst": "organ_v0_additive_1", "vel": 1.0, "bend": 0.0, "ch": 0}, {"t": 129.235, "dur": 0.23, "note": 44, "inst": "harpsichord_v0_additive_2", "vel": 1.0, "bend": 0.0, "ch": 12}, {"t": 129.235, "dur": 0.115, "note": 64, "inst": "organ_v0_additive_1", "vel": 1.0, "bend": 0.0, "ch": 0}, {"t": 129.35, "dur": 0.115, "note": 68, "inst": "harpsichord_v0_additive_2", "vel": 1.0, "bend": 0.0, "ch": 4}, {"t": 129.465, "dur": 0.23, "note": 43, "inst": "organ_v0_additive_1", "vel": 1.0, "bend": 0.0, "ch": 11}, {"t": 129.465, "dur": 0.115, "note": 64, "inst": "organ_v0_additive_1", "vel": 1.0, "bend": 0.0, "ch": 0}, {"t": 129.465, "dur": 0.115, "note": 73, "inst": "organ_v0_additive_1", "vel": 1.0, "bend": 0.0, "ch": 9}, {"t": 129.58, "dur": 0.115, "note": 61, "inst": "organ_v0_additive_1", "vel": 1.0, "bend": 0.0, "ch": 13}, {"t": 129.58, "dur": 0.115, "note": 64, "inst": "organ_v0_additive_1", "vel": 1.0, "bend": 0.0, "ch": 0}, {"t": 129.695, "dur": 0.23, "note": 46, "inst": "organ_v0_additive_1", "vel": 1.0, "bend": 0.0, "ch": 14}, {"t": 129.695, "dur": 0.23, "note": 64, "inst": "organ_v0_additive_1", "vel": 1.0, "bend": 0.0, "ch": 0}, {"t": 129.925, "dur": 0.23, "note": 52, "inst": "organ_v0_additive_1", "vel": 1.0, "bend": 0.0, "ch": 4}, {"t": 129.925, "dur": 0.115, "note": 73, "inst": "organ_v0_additive_1", "vel": 1.0, "bend": 0.0, "ch": 9}, {"t": 130.04, "dur": 0.115, "note": 76, "inst": "organ_v0_additive_1", "vel": 1.0, "bend": 0.0, "ch": 12}, {"t": 130.04, "dur": 0.115, "note": 76, "inst": "organ_v0_additive_1", "vel": 1.0, "bend": 0.0, "ch": 12}, {"t": 130.155, "dur": 0.23, "note": 46, "inst": "organ_v0_additive_1", "vel": 1.0, "bend": 0.0, "ch": 14}, {"t": 130.155, "dur": 0.115, "note": 76, "inst": "organ_v0_additive_1", "vel": 1.0, "bend": 0.0, "ch": 12}, {"t": 130.27, "dur": 0.115, "note": 73, "inst": "organ_v0_additive_1", "vel": 1.0, "bend": 0.0, "ch": 9}, {"t": 130.385, "dur": 0.23, "note": 46, "inst": "organ_v0_additive_1", "vel": 1.0, "bend": 0.0, "ch": 14}, {"t": 130.385, "dur": 0.115, "note": 76, "inst": "organ_v0_additive_1", "vel": 1.0, "bend": 0.0, "ch": 12}, {"t": 130.5, "dur": 0.23, "note": 67, "inst": "organ_v0_additive_1", "vel": 1.0, "bend": 0.0, "ch": 3}, {"t": 130.615, "dur": 0.23, "note": 40, "inst": "organ_v0_additive_1", "vel": 1.0, "bend": 0.0, "ch": 8}, {"t": 130.73, "dur": 0.23, "note": 68, "inst": "harpsichord_v0_additive_2", "vel": 1.0, "bend": 0.0, "ch": 4}, {"t": 130.845, "dur": 0.23, "note": 37, "inst": "organ_v0_additive_1", "vel": 1.0, "bend": 0.0, "ch": 5}, {"t": 130.96, "dur": 0.115, "note": 64, "inst": "organ_v0_additive_1", "vel": 1.0, "bend": 0.0, "ch": 0}, {"t": 130.96, "dur": 0.115, "note": 65, "inst": "harpsichord_v0_additive_2", "vel": 1.0, "bend": 0.0, "ch": 1}, {"t": 131.075, "dur": 0.23, "note": 40, "inst": "organ_v0_additive_1", "vel": 1.0, "bend": 0.0, "ch": 8}, {"t": 131.075, "dur": 0.115, "note": 61, "inst": "organ_v0_additive_1", "vel": 1.0, "bend": 0.0, "ch": 13}, {"t": 131.075, "dur": 0.115, "note": 64, "inst": "organ_v0_additive_1", "vel": 1.0, "bend": 0.0, "ch": 0}, {"t": 131.19, "dur": 0.115, "note": 58, "inst": "organ_v0_additive_1", "vel": 1.0, "bend": 0.0, "ch": 10}, {"t": 131.19, "dur": 0.115, "note": 58, "inst": "organ_v0_additive_1", "vel": 1.0, "bend": 0.0, "ch": 10}, {"t": 131.305, "dur": 0.46, "note": 32, "inst": "harpsichord_v0_additive_2", "vel": 1.0, "bend": 0.0, "ch": 0}, {"t": 131.305, "dur": 0.115, "note": 58, "inst": "organ_v0_additive_1", "vel": 1.0, "bend": 0.0, "ch": 10}, {"t": 131.305, "dur": 0.115, "note": 64, "inst": "organ_v0_additive_1", "vel": 1.0, "bend": 0.0, "ch": 0}, {"t": 131.42, "dur": 0.115, "note": 58, "inst": "organ_v0_additive_1", "vel": 1.0, "bend": 0.0, "ch": 10}, {"t": 131.42, "dur": 0.115, "note": 61, "inst": "organ_v0_additive_1", "vel": 1.0, "bend": 0.0, "ch": 13}, {"t": 131.535, "dur": 0.115, "note": 58, "inst": "organ_v0_additive_1", "vel": 1.0, "bend": 0.0, "ch": 10}, {"t": 131.535, "dur": 0.115, "note": 61, "inst": "organ_v0_additive_1", "vel": 1.0, "bend": 0.0, "ch": 13}, {"t": 131.65, "dur": 0.115, "note": 58, "inst": "organ_v0_additive_1", "vel": 1.0, "bend": 0.0, "ch": 10}, {"t": 131.65, "dur": 0.115, "note": 58, "inst": "organ_v0_additive_1", "vel": 1.0, "bend": 0.0, "ch": 10}, {"t": 131.765, "dur": 0.23, "note": 58, "inst": "organ_v0_additive_1", "vel": 1.0, "bend": 0.0, "ch": 10}, {"t": 131.88, "dur": 0.115, "note": 34, "inst": "organ_v0_additive_1", "vel": 1.0, "bend": 0.0, "ch": 2}, {"t": 131.88, "dur": 0.115, "note": 34, "inst": "organ_v0_additive_1", "vel": 1.0, "bend": 0.0, "ch": 2}, {"t": 131.995, "dur": 0.115, "note": 37, "inst": "organ_v0_additive_1", "vel": 1.0, "bend": 0.0, "ch": 5}, {"t": 131.995, "dur": 0.115, "note": 40, "inst": "organ_v0_additive_1", "vel": 1.0, "bend": 0.0, "ch": 8}, {"t": 131.995, "dur": 0.23, "note": 56, "inst": "harpsichord_v0_additive_2", "vel": 1.0, "bend": 0.0, "ch": 8}, {"t": 132.11, "dur": 0.115, "note": 41, "inst": "harpsichord_v0_additive_2", "vel": 1.0, "bend": 0.0, "ch": 9}, {"t": 132.11, "dur": 0.115, "note": 43, "inst": "organ_v0_additive_1", "vel": 1.0, "bend": 0.0, "ch": 11}, {"t": 132.225, "dur": 0.23, "note": 44, "inst": "harpsichord_v0_additive_2", "vel": 1.0, "bend": 0.0, "ch": 12}, {"t": 132.454, "dur": 0.23, "note": 56, "inst": "harpsichord_v0_additive_2", "vel": 1.0, "bend": 0.0, "ch": 8}, {"t": 132.454, "dur": 0.23, "note": 64, "inst": "organ_v0_additive_1", "vel": 1.0, "bend": 0.0, "ch": 0}, {"t": 132.684, "dur": 0.23, "note": 53, "inst": "harpsichord_v0_additive_2", "vel": 1.0, "bend": 0.0, "ch": 5}, {"t": 132.684, "dur": 0.115, "note": 64, "inst": "organ_v0_additive_1", "vel": 1.0, "bend": 0.0, "ch": 0}, {"t": 132.799, "dur": 0.115, "note": 61, "inst": "organ_v0_additive_1", "vel": 1.0, "bend": 0.0, "ch": 13}, {"t": 132.799, "dur": 0.115, "note": 64, "inst": "organ_v0_additive_1", "vel": 1.0, "bend": 0.0, "ch": 0}, {"t": 132.914, "dur": 0.23, "note": 52, "inst": "organ_v0_additive_1", "vel": 1.0, "bend": 0.0, "ch": 4}, {"t": 132.914, "dur": 0.115, "note": 64, "inst": "organ_v0_additive_1", "vel": 1.0, "bend": 0.0, "ch": 0}, {"t": 133.029, "dur": 0.115, "note": 64, "inst": "organ_v0_additive_1", "vel": 1.0, "bend": 0.0, "ch": 0}, {"t": 133.144, "dur": 0.23, "note": 52, "inst": "organ_v0_additive_1", "vel": 1.0, "bend": 0.0, "ch": 4}, {"t": 133.144, "dur": 0.115, "note": 65, "inst": "harpsichord_v0_additive_2", "vel": 1.0, "bend": 0.0, "ch": 1}, {"t": 133.259, "dur": 0.115, "note": 70, "inst": "organ_v0_additive_1", "vel": 1.0, "bend": 0.0, "ch": 6}, {"t": 133.374, "dur": 0.23, "note": 53, "inst": "harpsichord_v0_additive_2", "vel": 1.0, "bend": 0.0, "ch": 5}, {"t": 133.374, "dur": 0.23, "note": 70, "inst": "organ_v0_additive_1", "vel": 1.0, "bend": 0.0, "ch": 6}, {"t": 133.604, "dur": 0.23, "note": 52, "inst": "organ_v0_additive_1", "vel": 1.0, "bend": 0.0, "ch": 4}, {"t": 133.604, "dur": 0.115, "note": 65, "inst": "harpsichord_v0_additive_2", "vel": 1.0, "bend": 0.0, "ch": 1}, {"t": 133.719, "dur": 0.115, "note": 70, "inst": "organ_v0_additive_1", "vel": 1.0, "bend": 0.0, "ch": 6}, {"t": 133.719, "dur": 0.115, "note": 73, "inst": "organ_v0_additive_1", "vel": 1.0, "bend": 0.0, "ch": 9}, {"t": 133.834, "dur": 0.23, "note": 46, "inst": "organ_v0_additive_1", "vel": 1.0, "bend": 0.0, "ch": 14}, {"t": 133.834, "dur": 0.115, "note": 76, "inst": "organ_v0_additive_1", "vel": 1.0, "bend": 0.0, "ch": 12}, {"t": 133.949, "dur": 0.115, "note": 70, "inst": "organ_v0_additive_1", "vel": 1.0, "bend": 0.0, "ch": 6}, {"t": 134.064, "dur": 0.23, "note": 52, "inst": "organ_v0_additive_1", "vel": 1.0, "bend": 0.0, "ch": 4}, {"t": 134.064, "dur": 0.115, "note": 68, "inst": "harpsichord_v0_additive_2", "vel": 1.0, "bend": 0.0, "ch": 4}, {"t": 134.179, "dur": 0.115, "note": 68, "inst": "harpsichord_v0_additive_2", "vel": 1.0, "bend": 0.0, "ch": 4}, {"t": 134.294, "dur": 0.23, "note": 56, "inst": "harpsichord_v0_additive_2", "vel": 1.0, "bend": 0.0, "ch": 8}, {"t": 134.294, "dur": 0.23, "note": 73, "inst": "organ_v0_additive_1", "vel": 1.0, "bend": 0.0, "ch": 9}, {"t": 134.524, "dur": 0.23, "note": 52, "inst": "organ_v0_additive_1", "vel": 1.0, "bend": 0.0, "ch": 4}, {"t": 134.524, "dur": 0.115, "note": 68, "inst": "harpsichord_v0_additive_2", "vel": 1.0, "bend": 0.0, "ch": 4}, {"t": 134.639, "dur": 0.115, "note": 73, "inst": "organ_v0_additive_1", "vel": 1.0, "bend": 0.0, "ch": 9}, {"t": 134.639, "dur": 0.115, "note": 76, "inst": "organ_v0_additive_1", "vel": 1.0, "bend": 0.0, "ch": 12}, {"t": 134.754, "dur": 0.23, "note": 49, "inst": "organ_v0_additive_1", "vel": 1.0, "bend": 0.0, "ch": 1}, {"t": 134.754, "dur": 0.115, "note": 76, "inst": "organ_v0_additive_1", "vel": 1.0, "bend": 0.0, "ch": 12}, {"t": 134.869, "dur": 0.115, "note": 73, "inst": "organ_v0_additive_1", "vel": 1.0, "bend": 0.0, "ch": 9}, {"t": 134.984, "dur": 0.23, "note": 53, "inst": "harpsichord_v0_additive_2", "vel": 1.0, "bend": 0.0, "ch": 5}, {"t": 134.984, "dur": 0.115, "note": 70, "inst": "organ_v0_additive_1", "vel": 1.0, "bend": 0.0, "ch": 6}, {"t": 135.099, "dur": 0.115, "note": 68, "inst": "harpsichord_v0_additive_2", "vel": 1.0, "bend": 0.0, "ch": 4}, {"t": 135.214, "dur": 0.23, "note": 52, "inst": "organ_v0_additive_1", "vel": 1.0, "bend": 0.0, "ch": 4}, {"t": 135.214, "dur": 0.23, "note": 70, "inst": "organ_v0_additive_1", "vel": 1.0, "bend": 0.0, "ch": 6}, {"t": 135.444, "dur": 0.23, "note": 52, "inst": "organ_v0_additive_1", "vel": 1.0, "bend": 0.0, "ch": 4}, {"t": 135.444, "dur": 0.115, "note": 73, "inst": "organ_v0_additive_1", "vel": 1.0, "bend": 0.0, "ch": 9}, {"t": 135.559, "dur": 0.115, "note": 76, "inst": "organ_v0_additive_1", "vel": 1.0, "bend": 0.0, "ch": 12}, {"t": 135.559, "dur": 0.115, "note": 76, "inst": "organ_v0_additive_1", "vel": 1.0, "bend": 0.0, "ch": 12}, {"t": 135.674, "dur": 0.23, "note": 49, "inst": "organ_v0_additive_1", "vel": 1.0, "bend": 0.0, "ch": 1}, {"t": 135.674, "dur": 0.115, "note": 76, "inst": "organ_v0_additive_1", "vel": 1.0, "bend": 0.0, "ch": 12}, {"t": 135.674, "dur": 0.115, "note": 77, "inst": "harpsichord_v0_additive_2", "vel": 1.0, "bend": 0.0, "ch": 13}, {"t": 135.789, "dur": 0.115, "note": 76, "inst": "organ_v0_additive_1", "vel": 1.0, "bend": 0.0, "ch": 12}, {"t": 135.789, "dur": 0.115, "note": 76, "inst": "organ_v0_additive_1", "vel": 1.0, "bend": 0.0, "ch": 12}, {"t": 135.904, "dur": 0.23, "note": 48, "inst": "piano_v0_additive_0", "vel": 1.0, "bend": 0.0, "ch": 0}, {"t": 135.904, "dur": 0.115, "note": 76, "inst": "organ_v0_additive_1", "vel": 1.0, "bend": 0.0, "ch": 12}, {"t": 135.904, "dur": 0.115, "note": 77, "inst": "harpsichord_v0_additive_2", "vel": 1.0, "bend": 0.0, "ch": 13}, {"t": 136.019, "dur": 0.115, "note": 76, "inst": "organ_v0_additive_1", "vel": 1.0, "bend": 0.0, "ch": 12}, {"t": 136.134, "dur": 0.23, "note": 52, "inst": "organ_v0_additive_1", "vel": 1.0, "bend": 0.0, "ch": 4}, {"t": 136.134, "dur": 0.115, "note": 73, "inst": "organ_v0_additive_1", "vel": 1.0, "bend": 0.0, "ch": 9}, {"t": 136.249, "dur": 0.115, "note": 72, "inst": "piano_v0_additive_0", "vel": 1.0, "bend": 0.0, "ch": 8}, {"t": 136.364, "dur": 0.23, "note": 56, "inst": "harpsichord_v0_additive_2", "vel": 1.0, "bend": 0.0, "ch": 8}, {"t": 136.364, "dur": 0.115, "note": 70, "inst": "organ_v0_additive_1", "vel": 1.0, "bend": 0.0, "ch": 6}, {"t": 136.479, "dur": 0.115, "note": 68, "inst": "harpsichord_v0_additive_2", "vel": 1.0, "bend": 0.0, "ch": 4}, {"t": 136.594, "dur": 0.23, "note": 48, "inst": "piano_v0_additive_0", "vel": 1.0, "bend": 0.0, "ch": 0}, {"t": 136.594, "dur": 0.115, "note": 76, "inst": "organ_v0_additive_1", "vel": 1.0, "bend": 0.0, "ch": 12}, {"t": 136.709, "dur": 0.115, "note": 76, "inst": "organ_v0_additive_1", "vel": 1.0, "bend": 0.0, "ch": 12}, {"t": 136.709, "dur": 0.115, "note": 77, "inst": "harpsichord_v0_additive_2", "vel": 1.0, "bend": 0.0, "ch": 13}, {"t": 136.824, "dur": 0.23, "note": 49, "inst": "organ_v0_additive_1", "vel": 1.0, "bend": 0.0, "ch": 1}, {"t": 136.824, "dur": 0.115, "note": 76, "inst": "organ_v0_additive_1", "vel": 1.0, "bend": 0.0, "ch": 12}, {"t": 136.824, "dur": 0.115, "note": 76, "inst": "organ_v0_additive_1", "vel": 1.0, "bend": 0.0, "ch": 12}, {"t": 136.939, "dur": 0.115, "note": 73, "inst": "organ_v0_additive_1", "vel": 1.0, "bend": 0.0, "ch": 9}, {"t": 137.054, "dur": 0.23, "note": 52, "inst": "organ_v0_additive_1", "vel": 1.0, "bend": 0.0, "ch": 4}, {"t": 137.054, "dur": 0.115, "note": 70, "inst": "organ_v0_additive_1", "vel": 1.0, "bend": 0.0, "ch": 6}, {"t": 137.169, "dur": 0.115, "note": 68, "inst": "harpsichord_v0_additive_2", "vel": 1.0, "bend": 0.0, "ch": 4}, {"t": 137.284, "dur": 0.23, "note": 49, "inst": "organ_v0_additive_1", "vel": 1.0, "bend": 0.0, "ch": 1}, {"t": 137.284, "dur": 0.115, "note": 68, "inst": "harpsichord_v0_additive_2", "vel": 1.0, "bend": 0.0, "ch": 4}, {"t": 137.399, "dur": 0.115, "note": 65, "inst": "harpsichord_v0_additive_2", "vel": 1.0, "bend": 0.0, "ch": 1}, {"t": 137.514, "dur": 0.23, "note": 44, "inst": "harpsichord_v0_additive_2", "vel": 1.0, "bend": 0.0, "ch": 12}, {"t": 137.514, "dur": 0.115, "note": 73, "inst": "organ_v0_additive_1", "vel": 1.0, "bend": 0.0, "ch": 9}, {"t": 137.629, "dur": 0.115, "note": 76, "inst": "organ_v0_additive_1", "vel": 1.0, "bend": 0.0, "ch": 12}, {"t": 137.629, "dur": 0.115, "note": 76, "inst": "organ_v0_additive_1", "vel": 1.0, "bend": 0.0, "ch": 12}, {"t": 137.744, "dur": 0.23, "note": 41, "inst": "harpsichord_v0_additive_2", "vel": 1.0, "bend": 0.0, "ch": 9}, {"t": 137.744, "dur": 0.115, "note": 73, "inst": "organ_v0_additive_1", "vel": 1.0, "bend": 0.0, "ch": 9}, {"t": 137.744, "dur": 0.115, "note": 76, "inst": "organ_v0_additive_1", "vel": 1.0, "bend": 0.0, "ch": 12}, {"t": 137.859, "dur": 0.115, "note": 72, "inst": "piano_v0_additive_0", "vel": 1.0, "bend": 0.0, "ch": 8}, {"t": 137.859, "dur": 0.115, "note": 73, "inst": "organ_v0_additive_1", "vel": 1.0, "bend": 0.0, "ch": 9}, {"t": 137.974, "dur": 0.23, "note": 40, "inst": "organ_v0_additive_1", "vel": 1.0, "bend": 0.0, "ch": 8}, {"t": 137.974, "dur": 0.115, "note": 73, "inst": "organ_v0_additive_1", "vel": 1.0, "bend": 0.0, "ch": 9}, {"t": 137.974, "dur": 0.115, "note": 77, "inst": "harpsichord_v0_additive_2", "vel": 1.0, "bend": 0.0, "ch": 13}, {"t": 138.089, "dur": 0.115, "note": 72, "inst": "piano_v0_additive_0", "vel": 1.0, "bend": 0.0, "ch": 8}, {"t": 138.089, "dur": 0.115, "note": 73, "inst": "organ_v0_additive_1", "vel": 1.0, "bend": 0.0, "ch": 9}, {"t": 138.204, "dur": 0.23, "note": 44, "inst": "harpsichord_v0_additive_2", "vel": 1.0, "bend": 0.0, "ch": 12}, {"t": 138.204, "dur": 0.115, "note": 73, "inst": "organ_v0_additive_1", "vel": 1.0, "bend": 0.0, "ch": 9}, {"t": 138.204, "dur": 0.115, "note": 76, "inst": "organ_v0_additive_1", "vel": 1.0, "bend": 0.0, "ch": 12}, {"t": 138.318, "dur": 0.115, "note": 72, "inst": "piano_v0_additive_0", "vel": 1.0, "bend": 0.0, "ch": 8}, {"t": 138.318, "dur": 0.115, "note": 73, "inst": "organ_v0_additive_1", "vel": 1.0, "bend": 0.0, "ch": 9}, {"t": 138.433, "dur": 0.23, "note": 32, "inst": "harpsichord_v0_additive_2", "vel": 1.0, "bend": 0.0, "ch": 0}, {"t": 138.433, "dur": 0.115, "note": 73, "inst": "organ_v0_additive_1", "vel": 1.0, "bend": 0.0, "ch": 9}, {"t": 138.433, "dur": 0.115, "note": 76, "inst": "organ_v0_additive_1", "vel": 1.0, "bend": 0.0, "ch": 12}, {"t": 138.548, "dur": 0.115, "note": 72, "inst": "piano_v0_additive_0", "vel": 1.0, "bend": 0.0, "ch": 8}, {"t": 138.548, "dur": 0.115, "note": 73, "inst": "organ_v0_additive_1", "vel": 1.0, "bend": 0.0, "ch": 9}, {"t": 138.663, "dur": 0.115, "note": 37, "inst": "organ_v0_additive_1", "vel": 1.0, "bend": 0.0, "ch": 5}, {"t": 138.663, "dur": 0.46, "note": 73, "inst": "organ_v0_additive_1", "vel": 1.0, "bend": 0.0, "ch": 9}, {"t": 138.778, "dur": 0.115, "note": 40, "inst": "organ_v0_additive_1", "vel": 1.0, "bend": 0.0, "ch": 8}, {"t": 138.778, "dur": 0.115, "note": 40, "inst": "organ_v0_additive_1", "vel": 1.0, "bend": 0.0, "ch": 8}, {"t": 138.893, "dur": 0.115, "note": 41, "inst": "harpsichord_v0_additive_2", "vel": 1.0, "bend": 0.0, "ch": 9}, {"t": 138.893, "dur": 0.115, "note": 44, "inst": "harpsichord_v0_additive_2", "vel": 1.0, "bend": 0.0, "ch": 12}, {"t": 139.008, "dur": 0.115, "note": 46, "inst": "organ_v0_additive_1", "vel": 1.0, "bend": 0.0, "ch": 14}, {"t": 139.008, "dur": 0.115, "note": 48, "inst": "piano_v0_additive_0", "vel": 1.0, "bend": 0.0, "ch": 0}, {"t": 139.123, "dur": 0.23, "note": 49, "inst": "organ_v0_additive_1", "vel": 1.0, "bend": 0.0, "ch": 1}, {"t": 139.123, "dur": 0.115, "note": 70, "inst": "organ_v0_additive_1", "vel": 1.0, "bend": 0.0, "ch": 6}, {"t": 139.238, "dur": 0.115, "note": 70, "inst": "organ_v0_additive_1", "vel": 1.0, "bend": 0.0, "ch": 6}, {"t": 139.238, "dur": 0.115, "note": 70, "inst": "organ_v0_additive_1", "vel": 1.0, "bend": 0.0, "ch": 6}, {"t": 139.353, "dur": 0.23, "note": 46, "inst": "organ_v0_additive_1", "vel": 1.0, "bend": 0.0, "ch": 14}, {"t": 139.353, "dur": 0.115, "note": 70, "inst": "organ_v0_additive_1", "vel": 1.0, "bend": 0.0, "ch": 6}, {"t": 139.353, "dur": 0.115, "note": 73, "inst": "organ_v0_additive_1", "vel": 1.0, "bend": 0.0, "ch": 9}, {"t": 139.468, "dur": 0.115, "note": 70, "inst": "organ_v0_additive_1", "vel": 1.0, "bend": 0.0, "ch": 6}, {"t": 139.468, "dur": 0.115, "note": 73, "inst": "organ_v0_additive_1", "vel": 1.0, "bend": 0.0, "ch": 9}, {"t": 139.583, "dur": 0.23, "note": 46, "inst": "organ_v0_additive_1", "vel": 1.0, "bend": 0.0, "ch": 14}, {"t": 139.583, "dur": 0.115, "note": 65, "inst": "harpsichord_v0_additive_2", "vel": 1.0, "bend": 0.0, "ch": 1}, {"t": 139.583, "dur": 0.115, "note": 70, "inst": "organ_v0_additive_1", "vel": 1.0, "bend": 0.0, "ch": 6}, {"t": 139.698, "dur": 0.115, "note": 73, "inst": "organ_v0_additive_1", "vel": 1.0, "bend": 0.0, "ch": 9}, {"t": 139.698, "dur": 0.115, "note": 76, "inst": "organ_v0_additive_1", "vel": 1.0, "bend": 0.0, "ch": 12}, {"t": 139.813, "dur": 0.23, "note": 49, "inst": "organ_v0_additive_1", "vel": 1.0, "bend": 0.0, "ch": 1}, {"t": 139.813, "dur": 0.23, "note": 76, "inst": "organ_v0_additive_1", "vel": 1.0, "bend": 0.0, "ch": 12}, {"t": 140.043, "dur": 0.23, "note": 46, "inst": "organ_v0_additive_1", "vel": 1.0, "bend": 0.0, "ch": 14}, {"t": 140.043, "dur": 0.115, "note": 76, "inst": "organ_v0_additive_1", "vel": 1.0, "bend": 0.0, "ch": 12}, {"t": 140.158, "dur": 0.115, "note": 73, "inst": "organ_v0_additive_1", "vel": 1.0, "bend": 0.0, "ch": 9}, {"t": 140.158, "dur": 0.115, "note": 76, "inst": "organ_v0_additive_1", "vel": 1.0, "bend": 0.0, "ch": 12}, {"t": 140.273, "dur": 0.23, "note": 41, "inst": "harpsichord_v0_additive_2", "vel": 1.0, "bend": 0.0, "ch": 9}, {"t": 140.273, "dur": 0.115, "note": 73, "inst": "organ_v0_additive_1", "vel": 1.0, "bend": 0.0, "ch": 9}, {"t": 140.273, "dur": 0.115, "note": 76, "inst": "organ_v0_additive_1", "vel": 1.0, "bend": 0.0, "ch": 12}, {"t": 140.388, "dur": 0.115, "note": 70, "inst": "organ_v0_additive_1", "vel": 1.0, "bend": 0.0, "ch": 6}, {"t": 140.388, "dur": 0.115, "note": 70, "inst": "organ_v0_additive_1", "vel": 1.0, "bend": 0.0, "ch": 6}, {"t": 140.503, "dur": 0.23, "note": 52, "inst": "organ_v0_additive_1", "vel": 1.0, "bend": 0.0, "ch": 4}, {"t": 140.503, "dur": 0.115, "note": 65, "inst": "harpsichord_v0_additive_2", "vel": 1.0, "bend": 0.0, "ch": 1}, {"t": 140.503, "dur": 0.115, "note": 70, "inst": "organ_v0_additive_1", "vel": 1.0, "bend": 0.0, "ch": 6}, {"t": 140.618, "dur": 0.115, "note": 70, "inst": "organ_v0_additive_1", "vel": 1.0, "bend": 0.0, "ch": 6}, {"t": 140.618, "dur": 0.115, "note": 73, "inst": "organ_v0_additive_1", "vel": 1.0, "bend": 0.0, "ch": 9}, {"t": 140.733, "dur": 0.23, "note": 53, "inst": "harpsichord_v0_additive_2", "vel": 1.0, "bend": 0.0, "ch": 5}, {"t": 140.733, "dur": 0.23, "note": 76, "inst": "organ_v0_additive_1", "vel": 1.0, "bend": 0.0, "ch": 12}, {"t": 140.963, "dur": 0.23, "note": 46, "inst": "organ_v0_additive_1", "vel": 1.0, "bend": 0.0, "ch": 14}, {"t": 140.963, "dur": 0.115, "note": 73, "inst": "organ_v0_additive_1", "vel": 1.0, "bend": 0.0, "ch": 9}, {"t": 141.078, "dur": 0.115, "note": 70, "inst": "organ_v0_additive_1", "vel": 1.0, "bend": 0.0, "ch": 6}, {"t": 141.078, "dur": 0.115, "note": 76, "inst": "organ_v0_additive_1", "vel": 1.0, "bend": 0.0, "ch": 12}, {"t": 141.193, "dur": 0.23, "note": 52, "inst": "organ_v0_additive_1", "vel": 1.0, "bend": 0.0, "ch": 4}, {"t": 141.193, "dur": 0.115, "note": 70, "inst": "organ_v0_additive_1", "vel": 1.0, "bend": 0.0, "ch": 6}, {"t": 141.193, "dur": 0.115, "note": 73, "inst": "organ_v0_additive_1", "vel": 1.0, "bend": 0.0, "ch": 9}, {"t": 141.308, "dur": 0.115, "note": 68, "inst": "harpsichord_v0_additive_2", "vel": 1.0, "bend": 0.0, "ch": 4}, {"t": 141.308, "dur": 0.115, "note": 70, "inst": "organ_v0_additive_1", "vel": 1.0, "bend": 0.0, "ch": 6}, {"t": 141.423, "dur": 0.23, "note": 41, "inst": "harpsichord_v0_additive_2", "vel": 1.0, "bend": 0.0, "ch": 9}, {"t": 141.423, "dur": 0.115, "note": 77, "inst": "harpsichord_v0_additive_2", "vel": 1.0, "bend": 0.0, "ch": 13}, {"t": 141.423, "dur": 0.115, "note": 77, "inst": "harpsichord_v0_additive_2", "vel": 1.0, "bend": 0.0, "ch": 13}, {"t": 141.538, "dur": 0.115, "note": 73, "inst": "organ_v0_additive_1", "vel": 1.0, "bend": 0.0, "ch": 9}, {"t": 141.538, "dur": 0.115, "note": 76, "inst": "organ_v0_additive_1", "vel": 1.0, "bend": 0.0, "ch": 12}, {"t": 141.653, "dur": 0.23, "note": 49, "inst": "organ_v0_additive_1", "vel": 1.0, "bend": 0.0, "ch": 1}, {"t": 141.653, "dur": 0.115, "note": 70, "inst": "organ_v0_additive_1", "vel": 1.0, "bend": 0.0, "ch": 6}, {"t": 141.768, "dur": 0.115, "note": 70, "inst": "organ_v0_additive_1", "vel": 1.0, "bend": 0.0, "ch": 6}, {"t": 141.883, "dur": 0.23, "note": 52, "inst": "organ_v0_additive_1", "vel": 1.0, "bend": 0.0, "ch": 4}, {"t": 141.883, "dur": 0.115, "note": 76, "inst": "organ_v0_additive_1", "vel": 1.0, "bend": 0.0, "ch": 12}, {"t": 141.998, "dur": 0.115, "note": 76, "inst": "organ_v0_additive_1", "vel": 1.0, "bend": 0.0, "ch": 12}, {"t": 141.998, "dur": 0.115, "note": 80, "inst": "harpsichord_v0_additive_2", "vel": 1.0, "bend": 0.0, "ch": 0}, {"t": 142.113, "dur": 0.23, "note": 40, "inst": "organ_v0_additive_1", "vel": 1.0, "bend": 0.0, "ch": 8}, {"t": 142.113, "dur": 0.115, "note": 68, "inst": "harpsichord_v0_additive_2", "vel": 1.0, "bend": 0.0, "ch": 4}, {"t": 142.228, "dur": 0.115, "note": 70, "inst": "organ_v0_additive_1", "vel": 1.0, "bend": 0.0, "ch": 6}, {"t": 142.343, "dur": 0.23, "note": 46, "inst": "organ_v0_additive_1", "vel": 1.0, "bend": 0.0, "ch": 14}, {"t": 142.343, "dur": 0.115, "note": 73, "inst": "organ_v0_additive_1", "vel": 1.0, "bend": 0.0, "ch": 9}, {"t": 142.458, "dur": 0.115, "note": 76, "inst": "organ_v0_additive_1", "vel": 1.0, "bend": 0.0, "ch": 12}, {"t": 142.458, "dur": 0.115, "note": 77, "inst": "harpsichord_v0_additive_2", "vel": 1.0, "bend": 0.0, "ch": 13}, {"t": 142.573, "dur": 0.23, "note": 53, "inst": "harpsichord_v0_additive_2", "vel": 1.0, "bend": 0.0, "ch": 5}, {"t": 142.573, "dur": 0.115, "note": 68, "inst": "harpsichord_v0_additive_2", "vel": 1.0, "bend": 0.0, "ch": 4}, {"t": 142.573, "dur": 0.115, "note": 70, "inst": "organ_v0_additive_1", "vel": 1.0, "bend": 0.0, "ch": 6}, {"t": 142.688, "dur": 0.115, "note": 68, "inst": "harpsichord_v0_additive_2", "vel": 1.0, "bend": 0.0, "ch": 4}, {"t": 142.688, "dur": 0.115, "note": 70, "inst": "organ_v0_additive_1", "vel": 1.0, "bend": 0.0, "ch": 6}, {"t": 142.803, "dur": 0.23, "note": 56, "inst": "harpsichord_v0_additive_2", "vel": 1.0, "bend": 0.0, "ch": 8}, {"t": 142.803, "dur": 0.115, "note": 70, "inst": "organ_v0_additive_1", "vel": 1.0, "bend": 0.0, "ch": 6}, {"t": 142.803, "dur": 0.115, "note": 73, "inst": "organ_v0_additive_1", "vel": 1.0, "bend": 0.0, "ch": 9}, {"t": 142.918, "dur": 0.115, "note": 72, "inst": "piano_v0_additive_0", "vel": 1.0, "bend": 0.0, "ch": 8}, {"t": 142.918, "dur": 0.115, "note": 73, "inst": "organ_v0_additive_1", "vel": 1.0, "bend": 0.0, "ch": 9}, {"t": 143.033, "dur": 0.23, "note": 46, "inst": "organ_v0_additive_1", "vel": 1.0, "bend": 0.0, "ch": 14}, {"t": 143.033, "dur": 0.115, "note": 76, "inst": "organ_v0_additive_1", "vel": 1.0, "bend": 0.0, "ch": 12}, {"t": 143.033, "dur": 0.115, "note": 77, "inst": "harpsichord_v0_additive_2", "vel": 1.0, "bend": 0.0, "ch": 13}, {"t": 143.148, "dur": 0.115, "note": 77, "inst": "harpsichord_v0_additive_2", "vel": 1.0, "bend": 0.0, "ch": 13}, {"t": 143.148, "dur": 0.115, "note": 80, "inst": "harpsichord_v0_additive_2", "vel": 1.0, "bend": 0.0, "ch": 0}, {"t": 143.263, "dur": 0.23, "note": 52, "inst": "organ_v0_additive_1", "vel": 1.0, "bend": 0.0, "ch": 4}, {"t": 143.263, "dur": 0.115, "note": 77, "inst": "harpsichord_v0_additive_2", "vel": 1.0, "bend": 0.0, "ch": 13}, {"t": 143.263, "dur": 0.115, "note": 77, "inst": "harpsichord_v0_additive_2", "vel": 1.0, "bend": 0.0, "ch": 13}, {"t": 143.378, "dur": 0.172, "note": 73, "inst": "organ_v0_additive_1", "vel": 1.0, "bend": 0.0, "ch": 9}, {"t": 143.378, "dur": 0.172, "note": 76, "inst": "organ_v0_additive_1", "vel": 1.0, "bend": 0.0, "ch": 12}, {"t": 143.493, "dur": 0.23, "note": 53, "inst": "harpsichord_v0_additive_2", "vel": 1.0, "bend": 0.0, "ch": 5}, {"t": 143.608, "dur": 0.23, "note": 76, "inst": "organ_v0_additive_1", "vel": 1.0, "bend": 0.0, "ch": 12}, {"t": 143.723, "dur": 0.23, "note": 53, "inst": "harpsichord_v0_additive_2", "vel": 1.0, "bend": 0.0, "ch": 5}, {"t": 143.838, "dur": 0.23, "note": 70, "inst": "organ_v0_additive_1", "vel": 1.0, "bend": 0.0, "ch": 6}, {"t": 143.953, "dur": 0.23, "note": 55, "inst": "organ_v0_additive_1", "vel": 1.0, "bend": 0.0, "ch": 7}, {"t": 144.068, "dur": 0.23, "note": 70, "inst": "organ_v0_additive_1", "vel": 1.0, "bend": 0.0, "ch": 6}, {"t": 144.183, "dur": 0.23, "note": 56, "inst": "harpsichord_v0_additive_2", "vel": 1.0, "bend": 0.0, "ch": 8}, {"t": 144.297, "dur": 0.23, "note": 67, "inst": "organ_v0_additive_1", "vel": 1.0, "bend": 0.0, "ch": 3}, {"t": 144.412, "dur": 0.23, "note": 58, "inst": "organ_v0_additive_1", "vel": 1.0, "bend": 0.0, "ch": 10}, {"t": 144.527, "dur": 0.115, "note": 68, "inst": "harpsichord_v0_additive_2", "vel": 1.0, "bend": 0.0, "ch": 4}, {"t": 144.642, "dur": 0.23, "note": 58, "inst": "organ_v0_additive_1", "vel": 1.0, "bend": 0.0, "ch": 10}, {"t": 144.642, "dur": 0.115, "note": 65, "inst": "harpsichord_v0_additive_2", "vel": 1.0, "bend": 0.0, "ch": 1}, {"t": 144.757, "dur": 0.115, "note": 64, "inst": "organ_v0_additive_1", "vel": 1.0, "bend": 0.0, "ch": 0}, {"t": 144.757, "dur": 0.115, "note": 64, "inst": "organ_v0_additive_1", "vel": 1.0, "bend": 0.0, "ch": 0}, {"t": 144.872, "dur": 0.23, "note": 56, "inst": "harpsichord_v0_additive_2", "vel": 1.0, "bend": 0.0, "ch": 8}, {"t": 144.872, "dur": 0.115, "note": 64, "inst": "organ_v0_additive_1", "vel": 1.0, "bend": 0.0, "ch": 0}, {"t": 144.987, "dur": 0.115, "note": 68, "inst": "harpsichord_v0_additive_2", "vel": 1.0, "bend": 0.0, "ch": 4}, {"t": 145.102, "dur": 0.23, "note": 53, "inst": "harpsichord_v0_additive_2", "vel": 1.0, "bend": 0.0, "ch": 5}, {"t": 145.102, "dur": 0.115, "note": 61, "inst": "organ_v0_additive_1", "vel": 1.0, "bend": 0.0, "ch": 13}, {"t": 145.102, "dur": 0.115, "note": 70, "inst": "organ_v0_additive_1", "vel": 1.0, "bend": 0.0, "ch": 6}, {"t": 145.217, "dur": 0.115, "note": 68, "inst": "harpsichord_v0_additive_2", "vel": 1.0, "bend": 0.0, "ch": 4}, {"t": 145.217, "dur": 0.115, "note": 70, "inst": "organ_v0_additive_1", "vel": 1.0, "bend": 0.0, "ch": 6}, {"t": 145.332, "dur": 0.23, "note": 52, "inst": "organ_v0_additive_1", "vel": 1.0, "bend": 0.0, "ch": 4}, {"t": 145.332, "dur": 0.115, "note": 77, "inst": "harpsichord_v0_additive_2", "vel": 1.0, "bend": 0.0, "ch": 13}, {"t": 145.447, "dur": 0.115, "note": 77, "inst": "harpsichord_v0_additive_2", "vel": 1.0, "bend": 0.0, "ch": 13}, {"t": 145.562, "dur": 0.23, "note": 58, "inst": "organ_v0_additive_1", "vel": 1.0, "bend": 0.0, "ch": 10}, {"t": 145.562, "dur": 0.23, "note": 76, "inst": "organ_v0_additive_1", "vel": 1.0, "bend": 0.0, "ch": 12}, {"t": 145.792, "dur": 0.23, "note": 46, "inst": "organ_v0_additive_1", "vel": 1.0, "bend": 0.0, "ch": 14}, {"t": 145.792, "dur": 0.115, "note": 73, "inst": "organ_v0_additive_1", "vel": 1.0, "bend": 0.0, "ch": 9}, {"t": 145.907, "dur": 0.115, "note": 76, "inst": "organ_v0_additive_1", "vel": 1.0, "bend": 0.0, "ch": 12}, {"t": 146.022, "dur": 0.23, "note": 52, "inst": "organ_v0_additive_1", "vel": 1.0, "bend": 0.0, "ch": 4}, {"t": 146.022, "dur": 0.46, "note": 76, "inst": "organ_v0_additive_1", "vel": 1.0, "bend": 0.0, "ch": 12}, {"t": 146.252, "dur": 0.23, "note": 53, "inst": "harpsichord_v0_additive_2", "vel": 1.0, "bend": 0.0, "ch": 5}, {"t": 146.482, "dur": 0.23, "note": 55, "inst": "organ_v0_additive_1", "vel": 1.0, "bend": 0.0, "ch": 7}, {"t": 146.482, "dur": 0.115, "note": 73, "inst": "organ_v0_additive_1", "vel": 1.0, "bend": 0.0, "ch": 9}, {"t": 146.597, "dur": 0.115, "note": 76, "inst": "organ_v0_additive_1", "vel": 1.0, "bend": 0.0, "ch": 12}, {"t": 146.597, "dur": 0.115, "note": 76, "inst": "organ_v0_additive_1", "vel": 1.0, "bend": 0.0, "ch": 12}, {"t": 146.712, "dur": 0.23, "note": 52, "inst": "organ_v0_additive_1", "vel": 1.0, "bend": 0.0, "ch": 4}, {"t": 146.712, "dur": 0.115, "note": 73, "inst": "organ_v0_additive_1", "vel": 1.0, "bend": 0.0, "ch": 9}, {"t": 146.712, "dur": 0.115, "note": 76, "inst": "organ_v0_additive_1", "vel": 1.0, "bend": 0.0, "ch": 12}, {"t": 146.827, "dur": 0.115, "note": 70, "inst": "organ_v0_additive_1", "vel": 1.0, "bend": 0.0, "ch": 6}, {"t": 146.827, "dur": 0.115, "note": 70, "inst": "organ_v0_additive_1", "vel": 1.0, "bend": 0.0, "ch": 6}, {"t": 146.942, "dur": 0.23, "note": 56, "inst": "harpsichord_v0_additive_2", "vel": 1.0, "bend": 0.0, "ch": 8}, {"t": 146.942, "dur": 0.115, "note": 70, "inst": "organ_v0_additive_1", "vel": 1.0, "bend": 0.0, "ch": 6}, {"t": 146.942, "dur": 0.115, "note": 73, "inst": "organ_v0_additive_1", "vel": 1.0, "bend": 0.0, "ch": 9}, {"t": 147.057, "dur": 0.115, "note": 68, "inst": "harpsichord_v0_additive_2", "vel": 1.0, "bend": 0.0, "ch": 4}, {"t": 147.057, "dur": 0.115, "note": 70, "inst": "organ_v0_additive_1", "vel": 1.0, "bend": 0.0, "ch": 6}, {"t": 147.172, "dur": 0.23, "note": 58, "inst": "organ_v0_additive_1", "vel": 1.0, "bend": 0.0, "ch": 10}, {"t": 147.172, "dur": 0.23, "note": 76, "inst": "organ_v0_additive_1", "vel": 1.0, "bend": 0.0, "ch": 12}, {"t": 147.402, "dur": 0.23, "note": 56, "inst": "harpsichord_v0_additive_2", "vel": 1.0, "bend": 0.0, "ch": 8}, {"t": 147.402, "dur": 0.115, "note": 70, "inst": "organ_v0_additive_1", "vel": 1.0, "bend": 0.0, "ch": 6}, {"t": 147.517, "dur": 0.115, "note": 73, "inst": "organ_v0_additive_1", "vel": 1.0, "bend": 0.0, "ch": 9}, {"t": 147.517, "dur": 0.115, "note": 76, "inst": "organ_v0_additive_1", "vel": 1.0, "bend": 0.0, "ch": 12}, {"t": 147.632, "dur": 0.23, "note": 53, "inst": "harpsichord_v0_additive_2", "vel": 1.0, "bend": 0.0, "ch": 5}, {"t": 147.632, "dur": 0.115, "note": 70, "inst": "organ_v0_additive_1", "vel": 1.0, "bend": 0.0, "ch": 6}, {"t": 147.632, "dur": 0.115, "note": 73, "inst": "organ_v0_additive_1", "vel": 1.0, "bend": 0.0, "ch": 9}, {"t": 147.747, "dur": 0.115, "note": 68, "inst": "harpsichord_v0_additive_2", "vel": 1.0, "bend": 0.0, "ch": 4}, {"t": 147.747, "dur": 0.115, "note": 70, "inst": "organ_v0_additive_1", "vel": 1.0, "bend": 0.0, "ch": 6}, {"t": 147.862, "dur": 0.23, "note": 53, "inst": "harpsichord_v0_additive_2", "vel": 1.0, "bend": 0.0, "ch": 5}, {"t": 147.862, "dur": 0.115, "note": 70, "inst": "organ_v0_additive_1", "vel": 1.0, "bend": 0.0, "ch": 6}, {"t": 147.862, "dur": 0.115, "note": 70, "inst": "organ_v0_additive_1", "vel": 1.0, "bend": 0.0, "ch": 6}, {"t": 147.977, "dur": 0.115, "note": 65, "inst": "harpsichord_v0_additive_2", "vel": 1.0, "bend": 0.0, "ch": 1}, {"t": 147.977, "dur": 0.115, "note": 68, "inst": "harpsichord_v0_additive_2", "vel": 1.0, "bend": 0.0, "ch": 4}, {"t": 148.092, "dur": 0.23, "note": 58, "inst": "organ_v0_additive_1", "vel": 1.0, "bend": 0.0, "ch": 10}, {"t": 148.092, "dur": 0.23, "note": 76, "inst": "organ_v0_additive_1", "vel": 1.0, "bend": 0.0, "ch": 12}, {"t": 148.322, "dur": 0.23, "note": 53, "inst": "harpsichord_v0_additive_2", "vel": 1.0, "bend": 0.0, "ch": 5}, {"t": 148.322, "dur": 0.115, "note": 70, "inst": "organ_v0_additive_1", "vel": 1.0, "bend": 0.0, "ch": 6}, {"t": 148.437, "dur": 0.115, "note": 70, "inst": "organ_v0_additive_1", "vel": 1.0, "bend": 0.0, "ch": 6}, {"t": 148.437, "dur": 0.115, "note": 73, "inst": "organ_v0_additive_1", "vel": 1.0, "bend": 0.0, "ch": 9}, {"t": 168.178, "dur": 0.214, "note": 64, "inst": "organ_v0_additive_1", "vel": 0.756, "bend": 0.0, "ch": 0}, {"t": 168.178, "dur": 0.214, "note": 79, "inst": "organ_v0_additive_1", "vel": 0.756, "bend": 0.0, "ch": 15}, {"t": 168.178, "dur": 0.214, "note": 81, "inst": "piano_v0_additive_0", "vel": 0.756, "bend": 0.0, "ch": 1}, {"t": 168.392, "dur": 0.214, "note": 65, "inst": "harpsichord_v0_additive_2", "vel": 0.756, "bend": 0.0, "ch": 1}, {"t": 168.392, "dur": 0.214, "note": 77, "inst": "harpsichord_v0_additive_2", "vel": 0.756, "bend": 0.0, "ch": 13}, {"t": 168.392, "dur": 0.214, "note": 81, "inst": "piano_v0_additive_0", "vel": 0.756, "bend": 0.0, "ch": 1}, {"t": 168.606, "dur": 0.214, "note": 60, "inst": "piano_v0_additive_0", "vel": 0.756, "bend": 0.0, "ch": 12}, {"t": 168.606, "dur": 0.214, "note": 77, "inst": "harpsichord_v0_additive_2", "vel": 0.709, "bend": 0.0, "ch": 13}, {"t": 168.606, "dur": 0.214, "note": 81, "inst": "piano_v0_additive_0", "vel": 0.709, "bend": 0.0, "ch": 1}, {"t": 168.82, "dur": 0.214, "note": 72, "inst": "piano_v0_additive_0", "vel": 0.756, "bend": 0.0, "ch": 8}, {"t": 168.82, "dur": 0.214, "note": 76, "inst": "organ_v0_additive_1", "vel": 0.709, "bend": 0.0, "ch": 12}, {"t": 168.82, "dur": 0.214, "note": 79, "inst": "organ_v0_additive_1", "vel": 0.709, "bend": 0.0, "ch": 15}, {"t": 169.034, "dur": 0.214, "note": 69, "inst": "piano_v0_additive_0", "vel": 0.756, "bend": 0.0, "ch": 5}, {"t": 169.034, "dur": 0.214, "note": 72, "inst": "piano_v0_additive_0", "vel": 0.756, "bend": 0.0, "ch": 8}, {"t": 169.034, "dur": 0.214, "note": 77, "inst": "harpsichord_v0_additive_2", "vel": 0.756, "bend": 0.0, "ch": 13}, {"t": 169.034, "dur": 0.214, "note": 89, "inst": "harpsichord_v0_additive_2", "vel": 0.756, "bend": 0.0, "ch": 9}, {"t": 169.248, "dur": 0.214, "note": 69, "inst": "piano_v0_additive_0", "vel": 0.756, "bend": 0.0, "ch": 5}, {"t": 169.248, "dur": 0.214, "note": 72, "inst": "piano_v0_additive_0", "vel": 0.756, "bend": 0.0, "ch": 8}, {"t": 169.248, "dur": 0.214, "note": 77, "inst": "harpsichord_v0_additive_2", "vel": 0.756, "bend": 0.0, "ch": 13}, {"t": 169.248, "dur": 0.214, "note": 89, "inst": "harpsichord_v0_additive_2", "vel": 0.756, "bend": 0.0, "ch": 9}, {"t": 169.462, "dur": 0.214, "note": 60, "inst": "piano_v0_additive_0", "vel": 0.709, "bend": 0.0, "ch": 12}, {"t": 169.462, "dur": 0.428, "note": 69, "inst": "piano_v0_additive_0", "vel": 0.709, "bend": 0.0, "ch": 5}, {"t": 169.462, "dur": 0.428, "note": 79, "inst": "organ_v0_additive_1", "vel": 0.709, "bend": 0.0, "ch": 15}, {"t": 169.462, "dur": 0.214, "note": 89, "inst": "harpsichord_v0_additive_2", "vel": 0.709, "bend": 0.0, "ch": 9}, {"t": 169.676, "dur": 0.214, "note": 72, "inst": "piano_v0_additive_0", "vel": 0.756, "bend": 0.0, "ch": 8}, {"t": 169.676, "dur": 0.214, "note": 88, "inst": "organ_v0_additive_1", "vel": 0.709, "bend": 0.0, "ch": 8}, {"t": 169.889, "dur": 0.214, "note": 69, "inst": "piano_v0_additive_0", "vel": 0.756, "bend": 0.0, "ch": 5}, {"t": 169.889, "dur": 0.214, "note": 72, "inst": "piano_v0_additive_0", "vel": 0.756, "bend": 0.0, "ch": 8}, {"t": 169.889, "dur": 0.214, "note": 77, "inst": "harpsichord_v0_additive_2", "vel": 0.756, "bend": 0.0, "ch": 13}, {"t": 169.889, "dur": 0.214, "note": 89, "inst": "harpsichord_v0_additive_2", "vel": 0.756, "bend": 0.0, "ch": 9}, {"t": 170.103, "dur": 0.214, "note": 69, "inst": "piano_v0_additive_0", "vel": 0.756, "bend": 0.0, "ch": 5}, {"t": 170.103, "dur": 0.214, "note": 72, "inst": "piano_v0_additive_0", "vel": 0.756, "bend": 0.0, "ch": 8}, {"t": 170.103, "dur": 0.214, "note": 77, "inst": "harpsichord_v0_additive_2", "vel": 0.756, "bend": 0.0, "ch": 13}, {"t": 170.103, "dur": 0.214, "note": 89, "inst": "harpsichord_v0_additive_2", "vel": 0.756, "bend": 0.0, "ch": 9}, {"t": 170.317, "dur": 0.214, "note": 60, "inst": "piano_v0_additive_0", "vel": 0.709, "bend": 0.0, "ch": 12}, {"t": 170.317, "dur": 0.428, "note": 69, "inst": "piano_v0_additive_0", "vel": 0.709, "bend": 0.0, "ch": 5}, {"t": 170.317, "dur": 0.428, "note": 79, "inst": "organ_v0_additive_1", "vel": 0.709, "bend": 0.0, "ch": 15}, {"t": 170.317, "dur": 0.214, "note": 89, "inst": "harpsichord_v0_additive_2", "vel": 0.709, "bend": 0.0, "ch": 9}, {"t": 170.531, "dur": 0.214, "note": 72, "inst": "piano_v0_additive_0", "vel": 0.756, "bend": 0.0, "ch": 8}, {"t": 170.531, "dur": 0.214, "note": 88, "inst": "organ_v0_additive_1", "vel": 0.709, "bend": 0.0, "ch": 8}, {"t": 170.745, "dur": 0.214, "note": 57, "inst": "piano_v0_additive_0", "vel": 0.756, "bend": 0.0, "ch": 9}, {"t": 170.745, "dur": 0.214, "note": 72, "inst": "piano_v0_additive_0", "vel": 0.756, "bend": 0.0, "ch": 8}, {"t": 170.745, "dur": 0.214, "note": 77, "inst": "harpsichord_v0_additive_2", "vel": 0.756, "bend": 0.0, "ch": 13}, {"t": 170.745, "dur": 0.214, "note": 89, "inst": "harpsichord_v0_additive_2", "vel": 0.756, "bend": 0.0, "ch": 9}, {"t": 170.959, "dur": 0.214, "note": 57, "inst": "piano_v0_additive_0", "vel": 0.756, "bend": 0.0, "ch": 9}, {"t": 170.959, "dur": 0.214, "note": 72, "inst": "piano_v0_additive_0", "vel": 0.756, "bend": 0.0, "ch": 8}, {"t": 170.959, "dur": 0.214, "note": 77, "inst": "harpsichord_v0_additive_2", "vel": 0.756, "bend": 0.0, "ch": 13}, {"t": 170.959, "dur": 0.214, "note": 89, "inst": "harpsichord_v0_additive_2", "vel": 0.756, "bend": 0.0, "ch": 9}, {"t": 171.173, "dur": 0.214, "note": 57, "inst": "piano_v0_additive_0", "vel": 0.756, "bend": 0.0, "ch": 9}, {"t": 171.173, "dur": 0.214, "note": 74, "inst": "harpsichord_v0_additive_2", "vel": 0.756, "bend": 0.0, "ch": 10}, {"t": 171.173, "dur": 0.214, "note": 77, "inst": "harpsichord_v0_additive_2", "vel": 0.756, "bend": 0.0, "ch": 13}, {"t": 171.173, "dur": 0.214, "note": 86, "inst": "harpsichord_v0_additive_2", "vel": 0.756, "bend": 0.0, "ch": 6}, {"t": 171.387, "dur": 0.214, "note": 57, "inst": "piano_v0_additive_0", "vel": 0.756, "bend": 0.0, "ch": 9}, {"t": 171.387, "dur": 0.214, "note": 74, "inst": "harpsichord_v0_additive_2", "vel": 0.756, "bend": 0.0, "ch": 10}, {"t": 171.387, "dur": 0.214, "note": 77, "inst": "harpsichord_v0_additive_2", "vel": 0.756, "bend": 0.0, "ch": 13}, {"t": 171.387, "dur": 0.214, "note": 86, "inst": "harpsichord_v0_additive_2", "vel": 0.756, "bend": 0.0, "ch": 6}, {"t": 171.6, "dur": 0.214, "note": 60, "inst": "piano_v0_additive_0", "vel": 0.756, "bend": 0.0, "ch": 12}, {"t": 171.6, "dur": 0.214, "note": 67, "inst": "organ_v0_additive_1", "vel": 0.756, "bend": 0.0, "ch": 3}, {"t": 171.6, "dur": 0.214, "note": 69, "inst": "piano_v0_additive_0", "vel": 0.756, "bend": 0.0, "ch": 5}, {"t": 171.6, "dur": 0.107, "note": 77, "inst": "harpsichord_v0_additive_2", "vel": 0.709, "bend": 0.0, "ch": 13}, {"t": 171.707, "dur": 0.107, "note": 76, "inst": "organ_v0_additive_1", "vel": 0.709, "bend": 0.0, "ch": 12}, {"t": 171.814, "dur": 0.214, "note": 60, "inst": "piano_v0_additive_0", "vel": 0.756, "bend": 0.0, "ch": 12}, {"t": 171.814, "dur": 0.214, "note": 67, "inst": "organ_v0_additive_1", "vel": 0.756, "bend": 0.0, "ch": 3}, {"t": 171.814, "dur": 0.214, "note": 69, "inst": "piano_v0_additive_0", "vel": 0.756, "bend": 0.0, "ch": 5}, {"t": 171.814, "dur": 0.107, "note": 74, "inst": "harpsichord_v0_additive_2", "vel": 0.709, "bend": 0.0, "ch": 10}, {"t": 171.921, "dur": 0.107, "note": 76, "inst": "organ_v0_additive_1", "vel": 0.709, "bend": 0.0, "ch": 12}, {"t": 172.028, "dur": 0.214, "note": 53, "inst": "harpsichord_v0_additive_2", "vel": 0.756, "bend": 0.0, "ch": 5}, {"t": 172.028, "dur": 0.214, "note": 69, "inst": "piano_v0_additive_0", "vel": 0.709, "bend": 0.0, "ch": 5}, {"t": 172.028, "dur": 0.214, "note": 69, "inst": "piano_v0_additive_0", "vel": 0.756, "bend": 0.0, "ch": 5}, {"t": 172.028, "dur": 0.214, "note": 77, "inst": "harpsichord_v0_additive_2", "vel": 0.756, "bend": 0.0, "ch": 13}, {"t": 172.242, "dur": 0.214, "note": 65, "inst": "harpsichord_v0_additive_2", "vel": 0.756, "bend": 0.0, "ch": 1}, {"t": 172.456, "dur": 0.214, "note": 72, "inst": "piano_v0_additive_0", "vel": 0.756, "bend": 0.0, "ch": 8}, {"t": 172.456, "dur": 0.214, "note": 76, "inst": "organ_v0_additive_1", "vel": 0.756, "bend": 0.0, "ch": 12}, {"t": 172.67, "dur": 0.214, "note": 74, "inst": "harpsichord_v0_additive_2", "vel": 0.756, "bend": 0.0, "ch": 10}, {"t": 172.67, "dur": 0.214, "note": 77, "inst": "harpsichord_v0_additive_2", "vel": 0.756, "bend": 0.0, "ch": 13}, {"t": 172.884, "dur": 0.214, "note": 74, "inst": "harpsichord_v0_additive_2", "vel": 0.709, "bend": 0.0, "ch": 10}, {"t": 172.884, "dur": 0.214, "note": 77, "inst": "harpsichord_v0_additive_2", "vel": 0.709, "bend": 0.0, "ch": 13}, {"t": 173.098, "dur": 0.214, "note": 72, "inst": "piano_v0_additive_0", "vel": 0.756, "bend": 0.0, "ch": 8}, {"t": 173.098, "dur": 0.214, "note": 76, "inst": "organ_v0_additive_1", "vel": 0.709, "bend": 0.0, "ch": 12}, {"t": 173.098, "dur": 0.214, "note": 79, "inst": "organ_v0_additive_1", "vel": 0.709, "bend": 0.0, "ch": 15}, {"t": 173.311, "dur": 0.214, "note": 64, "inst": "organ_v0_additive_1", "vel": 0.756, "bend": 0.0, "ch": 0}, {"t": 173.311, "dur": 0.214, "note": 79, "inst": "organ_v0_additive_1", "vel": 0.756, "bend": 0.0, "ch": 15}, {"t": 173.311, "dur": 0.214, "note": 81, "inst": "piano_v0_additive_0", "vel": 0.756, "bend": 0.0, "ch": 1}, {"t": 173.525, "dur": 0.214, "note": 65, "inst": "harpsichord_v0_additive_2", "vel": 0.756, "bend": 0.0, "ch": 1}, {"t": 173.525, "dur": 0.214, "note": 77, "inst": "harpsichord_v0_additive_2", "vel": 0.756, "bend": 0.0, "ch": 13}, {"t": 173.525, "dur": 0.214, "note": 81, "inst": "piano_v0_additive_0", "vel": 0.756, "bend": 0.0, "ch": 1}, {"t": 173.739, "dur": 0.214, "note": 60, "inst": "piano_v0_additive_0", "vel": 0.756, "bend": 0.0, "ch": 12}, {"t": 173.739, "dur": 0.214, "note": 77, "inst": "harpsichord_v0_additive_2", "vel": 0.709, "bend": 0.0, "ch": 13}, {"t": 173.739, "dur": 0.214, "note": 81, "inst": "piano_v0_additive_0", "vel": 0.709, "bend": 0.0, "ch": 1}, {"t": 173.953, "dur": 0.214, "note": 72, "inst": "piano_v0_additive_0", "vel": 0.756, "bend": 0.0, "ch": 8}, {"t": 173.953, "dur": 0.214, "note": 76, "inst": "organ_v0_additive_1", "vel": 0.709, "bend": 0.0, "ch": 12}, {"t": 173.953, "dur": 0.214, "note": 79, "inst": "organ_v0_additive_1", "vel": 0.709, "bend": 0.0, "ch": 15}, {"t": 174.167, "dur": 0.214, "note": 77, "inst": "harpsichord_v0_additive_2", "vel": 0.756, "bend": 0.0, "ch": 13}, {"t": 174.167, "dur": 0.214, "note": 81, "inst": "piano_v0_additive_0", "vel": 0.756, "bend": 0.0, "ch": 1}, {"t": 174.381, "dur": 0.214, "note": 79, "inst": "organ_v0_additive_1", "vel": 0.756, "bend": 0.0, "ch": 15}, {"t": 174.381, "dur": 0.214, "note": 81, "inst": "piano_v0_additive_0", "vel": 0.756, "bend": 0.0, "ch": 1}, {"t": 174.595, "dur": 0.214, "note": 79, "inst": "organ_v0_additive_1", "vel": 0.709, "bend": 0.0, "ch": 15}, {"t": 174.595, "dur": 0.214, "note": 83, "inst": "harpsichord_v0_additive_2", "vel": 0.709, "bend": 0.0, "ch": 3}, {"t": 174.809, "dur": 0.214, "note": 65, "inst": "harpsichord_v0_additive_2", "vel": 0.756, "bend": 0.0, "ch": 1}, {"t": 174.809, "dur": 0.214, "note": 81, "inst": "piano_v0_additive_0", "vel": 0.709, "bend": 0.0, "ch": 1}, {"t": 174.809, "dur": 0.214, "note": 84, "inst": "piano_v0_additive_0", "vel": 0.709, "bend": 0.0, "ch": 4}, {"t": 175.022, "dur": 0.214, "note": 53, "inst": "harpsichord_v0_additive_2", "vel": 0.756, "bend": 0.0, "ch": 5}, {"t": 175.022, "dur": 0.214, "note": 86, "inst": "harpsichord_v0_additive_2", "vel": 0.756, "bend": 0.0, "ch": 6}, {"t": 175.022, "dur": 0.214, "note": 89, "inst": "harpsichord_v0_additive_2", "vel": 0.756, "bend": 0.0, "ch": 9}, {"t": 175.236, "dur": 0.214, "note": 57, "inst": "piano_v0_additive_0", "vel": 0.756, "bend": 0.0, "ch": 9}, {"t": 175.236, "dur": 0.214, "note": 84, "inst": "piano_v0_additive_0", "vel": 0.756, "bend": 0.0, "ch": 4}, {"t": 175.236, "dur": 0.214, "note": 86, "inst": "harpsichord_v0_additive_2", "vel": 0.756, "bend": 0.0, "ch": 6}, {"t": 175.45, "dur": 0.214, "note": 45, "inst": "piano_v0_additive_0", "vel": 0.756, "bend": 0.0, "ch": 13}, {"t": 175.45, "dur": 0.214, "note": 84, "inst": "piano_v0_additive_0", "vel": 0.709, "bend": 0.0, "ch": 4}, {"t": 175.45, "dur": 0.214, "note": 86, "inst": "harpsichord_v0_additive_2", "vel": 0.709, "bend": 0.0, "ch": 6}, {"t": 175.664, "dur": 0.214, "note": 57, "inst": "piano_v0_additive_0", "vel": 0.756, "bend": 0.0, "ch": 9}, {"t": 175.664, "dur": 0.214, "note": 81, "inst": "piano_v0_additive_0", "vel": 0.709, "bend": 0.0, "ch": 1}, {"t": 175.664, "dur": 0.214, "note": 86, "inst": "harpsichord_v0_additive_2", "vel": 0.709, "bend": 0.0, "ch": 6}, {"t": 175.878, "dur": 0.214, "note": 81, "inst": "piano_v0_additive_0", "vel": 0.756, "bend": 0.0, "ch": 1}, {"t": 175.878, "dur": 0.214, "note": 86, "inst": "harpsichord_v0_additive_2", "vel": 0.756, "bend": 0.0, "ch": 6}, {"t": 176.092, "dur": 0.214, "note": 74, "inst": "harpsichord_v0_additive_2", "vel": 0.756, "bend": 0.0, "ch": 10}, {"t": 176.092, "dur": 0.214, "note": 77, "inst": "harpsichord_v0_additive_2", "vel": 0.756, "bend": 0.0, "ch": 13}, {"t": 176.092, "dur": 0.214, "note": 81, "inst": "piano_v0_additive_0", "vel": 0.756, "bend": 0.0, "ch": 1}, {"t": 176.306, "dur": 0.214, "note": 67, "inst": "organ_v0_additive_1", "vel": 0.756, "bend": 0.0, "ch": 3}, {"t": 176.306, "dur": 0.214, "note": 81, "inst": "piano_v0_additive_0", "vel": 0.709, "bend": 0.0, "ch": 1}, {"t": 176.306, "dur": 0.214, "note": 84, "inst": "piano_v0_additive_0", "vel": 0.709, "bend": 0.0, "ch": 4}, {"t": 176.52, "dur": 0.214, "note": 79, "inst": "organ_v0_additive_1", "vel": 0.709, "bend": 0.0, "ch": 15}, {"t": 176.52, "dur": 0.214, "note": 79, "inst": "organ_v0_additive_1", "vel": 0.756, "bend": 0.0, "ch": 15}, {"t": 176.52, "dur": 0.214, "note": 81, "inst": "piano_v0_additive_0", "vel": 0.709, "bend": 0.0, "ch": 1}, {"t": 176.733, "dur": 0.214, "note": 81, "inst": "piano_v0_additive_0", "vel": 0.756, "bend": 0.0, "ch": 1}, {"t": 176.733, "dur": 0.214, "note": 86, "inst": "harpsichord_v0_additive_2", "vel": 0.756, "bend": 0.0, "ch": 6}, {"t": 176.947, "dur": 0.214, "note": 60, "inst": "piano_v0_additive_0", "vel": 0.756, "bend": 0.0, "ch": 12}, {"t": 176.947, "dur": 0.214, "note": 76, "inst": "organ_v0_additive_1", "vel": 0.756, "bend": 0.0, "ch": 12}, {"t": 176.947, "dur": 0.214, "note": 79, "inst": "organ_v0_additive_1", "vel": 0.756, "bend": 0.0, "ch": 15}, {"t": 177.161, "dur": 0.214, "note": 53, "inst": "harpsichord_v0_additive_2", "vel": 0.756, "bend": 0.0, "ch": 5}, {"t": 177.161, "dur": 0.214, "note": 79, "inst": "organ_v0_additive_1", "vel": 0.709, "bend": 0.0, "ch": 15}, {"t": 177.161, "dur": 0.214, "note": 81, "inst": "piano_v0_additive_0", "vel": 0.709, "bend": 0.0, "ch": 1}, {"t": 177.375, "dur": 0.214, "note": 65, "inst": "harpsichord_v0_additive_2", "vel": 0.756, "bend": 0.0, "ch": 1}, {"t": 177.375, "dur": 0.214, "note": 77, "inst": "harpsichord_v0_additive_2", "vel": 0.709, "bend": 0.0, "ch": 13}, {"t": 177.375, "dur": 0.214, "note": 81, "inst": "piano_v0_additive_0", "vel": 0.709, "bend": 0.0, "ch": 1}, {"t": 177.589, "dur": 0.214, "note": 81, "inst": "piano_v0_additive_0", "vel": 0.756, "bend": 0.0, "ch": 1}, {"t": 177.589, "dur": 0.214, "note": 84, "inst": "piano_v0_additive_0", "vel": 0.756, "bend": 0.0, "ch": 4}, {"t": 177.803, "dur": 0.214, "note": 53, "inst": "harpsichord_v0_additive_2", "vel": 0.756, "bend": 0.0, "ch": 5}, {"t": 177.803, "dur": 0.214, "note": 72, "inst": "piano_v0_additive_0", "vel": 0.756, "bend": 0.0, "ch": 8}, {"t": 177.803, "dur": 0.214, "note": 74, "inst": "harpsichord_v0_additive_2", "vel": 0.756, "bend": 0.0, "ch": 10}, {"t": 177.803, "dur": 0.214, "note": 81, "inst": "piano_v0_additive_0", "vel": 0.756, "bend": 0.0, "ch": 1}, {"t": 178.017, "dur": 0.214, "note": 57, "inst": "piano_v0_additive_0", "vel": 0.756, "bend": 0.0, "ch": 9}, {"t": 178.017, "dur": 0.214, "note": 69, "inst": "piano_v0_additive_0", "vel": 0.756, "bend": 0.0, "ch": 5}, {"t": 178.017, "dur": 0.214, "note": 74, "inst": "harpsichord_v0_additive_2", "vel": 0.709, "bend": 0.0, "ch": 10}, {"t": 178.017, "dur": 0.214, "note": 77, "inst": "harpsichord_v0_additive_2", "vel": 0.709, "bend": 0.0, "ch": 13}, {"t": 178.231, "dur": 0.214, "note": 45, "inst": "piano_v0_additive_0", "vel": 0.756, "bend": 0.0, "ch": 13}, {"t": 178.231, "dur": 0.214, "note": 74, "inst": "harpsichord_v0_additive_2", "vel": 0.709, "bend": 0.0, "ch": 10}, {"t": 178.231, "dur": 0.214, "note": 74, "inst": "harpsichord_v0_additive_2", "vel": 0.756, "bend": 0.0, "ch": 10}, {"t": 178.231, "dur": 0.214, "note": 79, "inst": "organ_v0_additive_1", "vel": 0.709, "bend": 0.0, "ch": 15}, {"t": 178.444, "dur": 0.214, "note": 69, "inst": "piano_v0_additive_0", "vel": 0.756, "bend": 0.0, "ch": 5}, {"t": 178.444, "dur": 0.214, "note": 74, "inst": "harpsichord_v0_additive_2", "vel": 0.756, "bend": 0.0, "ch": 10}, {"t": 178.658, "dur": 0.214, "note": 59, "inst": "harpsichord_v0_additive_2", "vel": 0.756, "bend": 0.0, "ch": 11}, {"t": 178.658, "dur": 0.214, "note": 71, "inst": "harpsichord_v0_additive_2", "vel": 0.756, "bend": 0.0, "ch": 7}, {"t": 178.658, "dur": 0.214, "note": 74, "inst": "harpsichord_v0_additive_2", "vel": 0.756, "bend": 0.0, "ch": 10}, {"t": 178.658, "dur": 0.214, "note": 79, "inst": "organ_v0_additive_1", "vel": 0.756, "bend": 0.0, "ch": 15}, {"t": 178.872, "dur": 0.214, "note": 60, "inst": "piano_v0_additive_0", "vel": 0.756, "bend": 0.0, "ch": 12}, {"t": 178.872, "dur": 0.214, "note": 69, "inst": "piano_v0_additive_0", "vel": 0.709, "bend": 0.0, "ch": 5}, {"t": 178.872, "dur": 0.214, "note": 72, "inst": "piano_v0_additive_0", "vel": 0.756, "bend": 0.0, "ch": 8}, {"t": 178.872, "dur": 0.214, "note": 77, "inst": "harpsichord_v0_additive_2", "vel": 0.709, "bend": 0.0, "ch": 13}, {"t": 179.086, "dur": 0.214, "note": 48, "inst": "piano_v0_additive_0", "vel": 0.756, "bend": 0.0, "ch": 0}, {"t": 179.086, "dur": 0.214, "note": 60, "inst": "piano_v0_additive_0", "vel": 0.756, "bend": 0.0, "ch": 12}, {"t": 179.086, "dur": 0.214, "note": 67, "inst": "organ_v0_additive_1", "vel": 0.709, "bend": 0.0, "ch": 3}, {"t": 179.086, "dur": 0.214, "note": 76, "inst": "organ_v0_additive_1", "vel": 0.709, "bend": 0.0, "ch": 12}, {"t": 179.3, "dur": 0.214, "note": 72, "inst": "piano_v0_additive_0", "vel": 0.756, "bend": 0.0, "ch": 8}, {"t": 179.3, "dur": 0.214, "note": 76, "inst": "organ_v0_additive_1", "vel": 0.756, "bend": 0.0, "ch": 12}, {"t": 179.514, "dur": 0.214, "note": 74, "inst": "harpsichord_v0_additive_2", "vel": 0.756, "bend": 0.0, "ch": 10}, {"t": 179.514, "dur": 0.214, "note": 77, "inst": "harpsichord_v0_additive_2", "vel": 0.756, "bend": 0.0, "ch": 13}, {"t": 179.728, "dur": 0.214, "note": 77, "inst": "harpsichord_v0_additive_2", "vel": 0.709, "bend": 0.0, "ch": 13}, {"t": 179.728, "dur": 0.214, "note": 81, "inst": "piano_v0_additive_0", "vel": 0.709, "bend": 0.0, "ch": 1}, {"t": 179.942, "dur": 0.214, "note": 76, "inst": "organ_v0_additive_1", "vel": 0.709, "bend": 0.0, "ch": 12}, {"t": 179.942, "dur": 0.214, "note": 79, "inst": "organ_v0_additive_1", "vel": 0.709, "bend": 0.0, "ch": 15}, {"t": 180.155, "dur": 0.214, "note": 76, "inst": "organ_v0_additive_1", "vel": 0.756, "bend": 0.0, "ch": 12}, {"t": 180.155, "dur": 0.214, "note": 79, "inst": "organ_v0_additive_1", "vel": 0.756, "bend": 0.0, "ch": 15}, {"t": 180.369, "dur": 0.214, "note": 77, "inst": "harpsichord_v0_additive_2", "vel": 0.756, "bend": 0.0, "ch": 13}, {"t": 180.369, "dur": 0.214, "note": 81, "inst": "piano_v0_additive_0", "vel": 0.756, "bend": 0.0, "ch": 1}, {"t": 180.583, "dur": 0.214, "note": 81, "inst": "piano_v0_additive_0", "vel": 0.709, "bend": 0.0, "ch": 1}, {"t": 180.583, "dur": 0.214, "note": 84, "inst": "piano_v0_additive_0", "vel": 0.709, "bend": 0.0, "ch": 4}, {"t": 180.797, "dur": 0.214, "note": 79, "inst": "organ_v0_additive_1", "vel": 0.709, "bend": 0.0, "ch": 15}, {"t": 180.797, "dur": 0.214, "note": 81, "inst": "piano_v0_additive_0", "vel": 0.709, "bend": 0.0, "ch": 1}, {"t": 181.011, "dur": 0.214, "note": 60, "inst": "piano_v0_additive_0", "vel": 0.756, "bend": 0.0, "ch": 12}, {"t": 181.011, "dur": 0.214, "note": 64, "inst": "organ_v0_additive_1", "vel": 0.756, "bend": 0.0, "ch": 0}, {"t": 181.225, "dur": 0.214, "note": 53, "inst": "harpsichord_v0_additive_2", "vel": 0.756, "bend": 0.0, "ch": 5}, {"t": 181.225, "dur": 0.214, "note": 62, "inst": "harpsichord_v0_additive_2", "vel": 0.756, "bend": 0.0, "ch": 14}, {"t": 181.439, "dur": 0.214, "note": 65, "inst": "harpsichord_v0_additive_2", "vel": 0.709, "bend": 0.0, "ch": 1}, {"t": 181.439, "dur": 0.214, "note": 69, "inst": "piano_v0_additive_0", "vel": 0.709, "bend": 0.0, "ch": 5}, {"t": 181.653, "dur": 0.214, "note": 64, "inst": "organ_v0_additive_1", "vel": 0.709, "bend": 0.0, "ch": 0}, {"t": 181.653, "dur": 0.214, "note": 67, "inst": "organ_v0_additive_1", "vel": 0.709, "bend": 0.0, "ch": 3}, {"t": 181.866, "dur": 0.214, "note": 64, "inst": "organ_v0_additive_1", "vel": 0.756, "bend": 0.0, "ch": 0}, {"t": 181.866, "dur": 0.214, "note": 67, "inst": "organ_v0_additive_1", "vel": 0.756, "bend": 0.0, "ch": 3}, {"t": 182.08, "dur": 0.214, "note": 65, "inst": "harpsichord_v0_additive_2", "vel": 0.756, "bend": 0.0, "ch": 1}, {"t": 182.08, "dur": 0.214, "note": 69, "inst": "piano_v0_additive_0", "vel": 0.756, "bend": 0.0, "ch": 5}, {"t": 182.294, "dur": 0.214, "note": 69, "inst": "piano_v0_additive_0", "vel": 0.709, "bend": 0.0, "ch": 5}, {"t": 182.294, "dur": 0.214, "note": 72, "inst": "piano_v0_additive_0", "vel": 0.709, "bend": 0.0, "ch": 8}, {"t": 182.508, "dur": 0.214, "note": 67, "inst": "organ_v0_additive_1", "vel": 0.709, "bend": 0.0, "ch": 3}, {"t": 182.508, "dur": 0.214, "note": 69, "inst": "piano_v0_additive_0", "vel": 0.709, "bend": 0.0, "ch": 5}, {"t": 182.722, "dur": 0.214, "note": 76, "inst": "organ_v0_additive_1", "vel": 0.756, "bend": 0.0, "ch": 12}, {"t": 182.722, "dur": 0.214, "note": 79, "inst": "organ_v0_additive_1", "vel": 0.756, "bend": 0.0, "ch": 15}, {"t": 182.936, "dur": 0.214, "note": 77, "inst": "harpsichord_v0_additive_2", "vel": 0.756, "bend": 0.0, "ch": 13}, {"t": 182.936, "dur": 0.214, "note": 81, "inst": "piano_v0_additive_0", "vel": 0.756, "bend": 0.0, "ch": 1}, {"t": 183.15, "dur": 0.214, "note": 81, "inst": "piano_v0_additive_0", "vel": 0.709, "bend": 0.0, "ch": 1}, {"t": 183.15, "dur": 0.214, "note": 84, "inst": "piano_v0_additive_0", "vel": 0.709, "bend": 0.0, "ch": 4}, {"t": 183.364, "dur": 0.214, "note": 79, "inst": "organ_v0_additive_1", "vel": 0.709, "bend": 0.0, "ch": 15}, {"t": 183.364, "dur": 0.214, "note": 81, "inst": "piano_v0_additive_0", "vel": 0.709, "bend": 0.0, "ch": 1}, {"t": 183.577, "dur": 0.214, "note": 52, "inst": "organ_v0_additive_1", "vel": 0.756, "bend": 0.0, "ch": 4}, {"t": 183.577, "dur": 0.214, "note": 55, "inst": "organ_v0_additive_1", "vel": 0.756, "bend": 0.0, "ch": 7}, {"t": 183.791, "dur": 0.214, "note": 53, "inst": "harpsichord_v0_additive_2", "vel": 0.756, "bend": 0.0, "ch": 5}, {"t": 183.791, "dur": 0.214, "note": 57, "inst": "piano_v0_additive_0", "vel": 0.756, "bend": 0.0, "ch": 9}, {"t": 184.005, "dur": 0.214, "note": 57, "inst": "piano_v0_additive_0", "vel": 0.709, "bend": 0.0, "ch": 9}, {"t": 184.005, "dur": 0.214, "note": 60, "inst": "piano_v0_additive_0", "vel": 0.709, "bend": 0.0, "ch": 12}, {"t": 184.219, "dur": 0.214, "note": 55, "inst": "organ_v0_additive_1", "vel": 0.709, "bend": 0.0, "ch": 7}, {"t": 184.219, "dur": 0.214, "note": 57, "inst": "piano_v0_additive_0", "vel": 0.709, "bend": 0.0, "ch": 9}, {"t": 186.144, "dur": 0.214, "note": 65, "inst": "harpsichord_v0_additive_2", "vel": 0.756, "bend": 0.0, "ch": 1}, {"t": 186.144, "dur": 0.214, "note": 69, "inst": "piano_v0_additive_0", "vel": 0.756, "bend": 0.0, "ch": 5}, {"t": 186.358, "dur": 0.214, "note": 67, "inst": "organ_v0_additive_1", "vel": 0.756, "bend": 0.0, "ch": 3}, {"t": 186.358, "dur": 0.214, "note": 69, "inst": "piano_v0_additive_0", "vel": 0.756, "bend": 0.0, "ch": 5}, {"t": 186.572, "dur": 0.214, "note": 67, "inst": "organ_v0_additive_1", "vel": 0.709, "bend": 0.0, "ch": 3}, {"t": 186.572, "dur": 0.214, "note": 71, "inst": "harpsichord_v0_additive_2", "vel": 0.709, "bend": 0.0, "ch": 7}, {"t": 186.786, "dur": 0.214, "note": 53, "inst": "harpsichord_v0_additive_2", "vel": 0.756, "bend": 0.0, "ch": 5}, {"t": 186.786, "dur": 0.214, "note": 69, "inst": "piano_v0_additive_0", "vel": 0.709, "bend": 0.0, "ch": 5}, {"t": 186.786, "dur": 0.214, "note": 72, "inst": "piano_v0_additive_0", "vel": 0.709, "bend": 0.0, "ch": 8}, {"t": 186.999, "dur": 0.214, "note": 41, "inst": "harpsichord_v0_additive_2", "vel": 0.756, "bend": 0.0, "ch": 9}, {"t": 186.999, "dur": 0.214, "note": 69, "inst": "piano_v0_additive_0", "vel": 0.756, "bend": 0.0, "ch": 5}, {"t": 186.999, "dur": 0.214, "note": 74, "inst": "harpsichord_v0_additive_2", "vel": 0.756, "bend": 0.0, "ch": 10}, {"t": 187.213, "dur": 0.214, "note": 53, "inst": "harpsichord_v0_additive_2", "vel": 0.756, "bend": 0.0, "ch": 5}, {"t": 187.213, "dur": 0.214, "note": 67, "inst": "organ_v0_additive_1", "vel": 0.756, "bend": 0.0, "ch": 3}, {"t": 187.213, "dur": 0.214, "note": 76, "inst": "organ_v0_additive_1", "vel": 0.756, "bend": 0.0, "ch": 12}, {"t": 187.427, "dur": 0.214, "note": 41, "inst": "harpsichord_v0_additive_2", "vel": 0.756, "bend": 0.0, "ch": 9}, {"t": 187.427, "dur": 0.214, "note": 69, "inst": "piano_v0_additive_0", "vel": 0.709, "bend": 0.0, "ch": 5}, {"t": 187.427, "dur": 0.214, "note": 79, "inst": "organ_v0_additive_1", "vel": 0.709, "bend": 0.0, "ch": 15}, {"t": 187.641, "dur": 0.214, "note": 53, "inst": "harpsichord_v0_additive_2", "vel": 0.756, "bend": 0.0, "ch": 5}, {"t": 187.641, "dur": 0.214, "note": 69, "inst": "piano_v0_additive_0", "vel": 0.709, "bend": 0.0, "ch": 5}, {"t": 187.641, "dur": 0.214, "note": 77, "inst": "harpsichord_v0_additive_2", "vel": 0.709, "bend": 0.0, "ch": 13}, {"t": 187.855, "dur": 0.214, "note": 72, "inst": "piano_v0_additive_0", "vel": 0.756, "bend": 0.0, "ch": 8}, {"t": 187.855, "dur": 0.214, "note": 76, "inst": "organ_v0_additive_1", "vel": 0.756, "bend": 0.0, "ch": 12}, {"t": 188.069, "dur": 0.214, "note": 74, "inst": "harpsichord_v0_additive_2", "vel": 0.756, "bend": 0.0, "ch": 10}, {"t": 188.069, "dur": 0.214, "note": 77, "inst": "harpsichord_v0_additive_2", "vel": 0.756, "bend": 0.0, "ch": 13}, {"t": 188.283, "dur": 0.214, "note": 74, "inst": "harpsichord_v0_additive_2", "vel": 0.709, "bend": 0.0, "ch": 10}, {"t": 188.283, "dur": 0.214, "note": 77, "inst": "harpsichord_v0_additive_2", "vel": 0.709, "bend": 0.0, "ch": 13}, {"t": 188.497, "dur": 0.214, "note": 72, "inst": "piano_v0_additive_0", "vel": 0.756, "bend": 0.0, "ch": 8}, {"t": 188.497, "dur": 0.214, "note": 76, "inst": "organ_v0_additive_1", "vel": 0.709, "bend": 0.0, "ch": 12}, {"t": 188.497, "dur": 0.214, "note": 79, "inst": "organ_v0_additive_1", "vel": 0.709, "bend": 0.0, "ch": 15}, {"t": 188.711, "dur": 0.214, "note": 64, "inst": "organ_v0_additive_1", "vel": 0.756, "bend": 0.0, "ch": 0}, {"t": 188.711, "dur": 0.214, "note": 79, "inst": "organ_v0_additive_1", "vel": 0.756, "bend": 0.0, "ch": 15}, {"t": 188.711, "dur": 0.214, "note": 81, "inst": "piano_v0_additive_0", "vel": 0.756, "bend": 0.0, "ch": 1}, {"t": 188.924, "dur": 0.214, "note": 65, "inst": "harpsichord_v0_additive_2", "vel": 0.756, "bend": 0.0, "ch": 1}, {"t": 188.924, "dur": 0.214, "note": 77, "inst": "harpsichord_v0_additive_2", "vel": 0.756, "bend": 0.0, "ch": 13}, {"t": 188.924, "dur": 0.214, "note": 81, "inst": "piano_v0_additive_0", "vel": 0.756, "bend": 0.0, "ch": 1}, {"t": 189.138, "dur": 0.214, "note": 60, "inst": "piano_v0_additive_0", "vel": 0.756, "bend": 0.0, "ch": 12}, {"t": 189.138, "dur": 0.214, "note": 77, "inst": "harpsichord_v0_additive_2", "vel": 0.709, "bend": 0.0, "ch": 13}, {"t": 189.138, "dur": 0.214, "note": 81, "inst": "piano_v0_additive_0", "vel": 0.709, "bend": 0.0, "ch": 1}, {"t": 189.352, "dur": 0.214, "note": 72, "inst": "piano_v0_additive_0", "vel": 0.756, "bend": 0.0, "ch": 8}, {"t": 189.352, "dur": 0.214, "note": 76, "inst": "organ_v0_additive_1", "vel": 0.709, "bend": 0.0, "ch": 12}, {"t": 189.352, "dur": 0.214, "note": 79, "inst": "organ_v0_additive_1", "vel": 0.709, "bend": 0.0, "ch": 15}, {"t": 189.566, "dur": 0.214, "note": 69, "inst": "piano_v0_additive_0", "vel": 0.756, "bend": 0.0, "ch": 5}, {"t": 189.566, "dur": 0.214, "note": 72, "inst": "piano_v0_additive_0", "vel": 0.756, "bend": 0.0, "ch": 8}, {"t": 189.566, "dur": 0.214, "note": 77, "inst": "harpsichord_v0_additive_2", "vel": 0.756, "bend": 0.0, "ch": 13}, {"t": 189.566, "dur": 0.214, "note": 89, "inst": "harpsichord_v0_additive_2", "vel": 0.756, "bend": 0.0, "ch": 9}, {"t": 189.78, "dur": 0.214, "note": 69, "inst": "piano_v0_additive_0", "vel": 0.756, "bend": 0.0, "ch": 5}, {"t": 189.78, "dur": 0.214, "note": 72, "inst": "piano_v0_additive_0", "vel": 0.756, "bend": 0.0, "ch": 8}, {"t": 189.78, "dur": 0.214, "note": 77, "inst": "harpsichord_v0_additive_2", "vel": 0.756, "bend": 0.0, "ch": 13}, {"t": 189.78, "dur": 0.214, "note": 89, "inst": "harpsichord_v0_additive_2", "vel": 0.756, "bend": 0.0, "ch": 9}, {"t": 189.994, "dur": 0.214, "note": 60, "inst": "piano_v0_additive_0", "vel": 0.709, "bend": 0.0, "ch": 12}, {"t": 189.994, "dur": 0.428, "note": 69, "inst": "piano_v0_additive_0", "vel": 0.709, "bend": 0.0, "ch": 5}, {"t": 189.994, "dur": 0.428, "note": 79, "inst": "organ_v0_additive_1", "vel": 0.709, "bend": 0.0, "ch": 15}, {"t": 189.994, "dur": 0.214, "note": 89, "inst": "harpsichord_v0_additive_2", "vel": 0.709, "bend": 0.0, "ch": 9}, {"t": 190.208, "dur": 0.214, "note": 72, "inst": "piano_v0_additive_0", "vel": 0.756, "bend": 0.0, "ch": 8}, {"t": 190.208, "dur": 0.214, "note": 88, "inst": "organ_v0_additive_1", "vel": 0.709, "bend": 0.0, "ch": 8}, {"t": 190.422, "dur": 0.214, "note": 69, "inst": "piano_v0_additive_0", "vel": 0.756, "bend": 0.0, "ch": 5}, {"t": 190.422, "dur": 0.214, "note": 72, "inst": "piano_v0_additive_0", "vel": 0.756, "bend": 0.0, "ch": 8}, {"t": 190.422, "dur": 0.214, "note": 77, "inst": "harpsichord_v0_additive_2", "vel": 0.756, "bend": 0.0, "ch": 13}, {"t": 190.422, "dur": 0.214, "note": 89, "inst": "harpsichord_v0_additive_2", "vel": 0.756, "bend": 0.0, "ch": 9}, {"t": 190.635, "dur": 0.214, "note": 69, "inst": "piano_v0_additive_0", "vel": 0.756, "bend": 0.0, "ch": 5}, {"t": 190.635, "dur": 0.214, "note": 72, "inst": "piano_v0_additive_0", "vel": 0.756, "bend": 0.0, "ch": 8}, {"t": 190.635, "dur": 0.214, "note": 77, "inst": "harpsichord_v0_additive_2", "vel": 0.756, "bend": 0.0, "ch": 13}, {"t": 190.635, "dur": 0.214, "note": 89, "inst": "harpsichord_v0_additive_2", "vel": 0.756, "bend": 0.0, "ch": 9}, {"t": 190.849, "dur": 0.214, "note": 60, "inst": "piano_v0_additive_0", "vel": 0.709, "bend": 0.0, "ch": 12}, {"t": 190.849, "dur": 0.428, "note": 69, "inst": "piano_v0_additive_0", "vel": 0.709, "bend": 0.0, "ch": 5}, {"t": 190.849, "dur": 0.428, "note": 79, "inst": "organ_v0_additive_1", "vel": 0.709, "bend": 0.0, "ch": 15}, {"t": 190.849, "dur": 0.214, "note": 89, "inst": "harpsichord_v0_additive_2", "vel": 0.709, "bend": 0.0, "ch": 9}, {"t": 191.063, "dur": 0.214, "note": 72, "inst": "piano_v0_additive_0", "vel": 0.756, "bend": 0.0, "ch": 8}, {"t": 191.063, "dur": 0.214, "note": 88, "inst": "organ_v0_additive_1", "vel": 0.709, "bend": 0.0, "ch": 8}, {"t": 191.277, "dur": 0.214, "note": 57, "inst": "piano_v0_additive_0", "vel": 0.756, "bend": 0.0, "ch": 9}, {"t": 191.277, "dur": 0.214, "note": 72, "inst": "piano_v0_additive_0", "vel": 0.756, "bend": 0.0, "ch": 8}, {"t": 191.277, "dur": 0.214, "note": 77, "inst": "harpsichord_v0_additive_2", "vel": 0.756, "bend": 0.0, "ch": 13}, {"t": 191.277, "dur": 0.214, "note": 89, "inst": "harpsichord_v0_additive_2", "vel": 0.756, "bend": 0.0, "ch": 9}, {"t": 191.491, "dur": 0.214, "note": 57, "inst": "piano_v0_additive_0", "vel": 0.756, "bend": 0.0, "ch": 9}, {"t": 191.491, "dur": 0.214, "note": 72, "inst": "piano_v0_additive_0", "vel": 0.756, "bend": 0.0, "ch": 8}, {"t": 191.491, "dur": 0.214, "note": 77, "inst": "harpsichord_v0_additive_2", "vel": 0.756, "bend": 0.0, "ch": 13}, {"t": 191.491, "dur": 0.214, "note": 89, "inst": "harpsichord_v0_additive_2", "vel": 0.756, "bend": 0.0, "ch": 9}, {"t": 191.705, "dur": 0.214, "note": 57, "inst": "piano_v0_additive_0", "vel": 0.756, "bend": 0.0, "ch": 9}, {"t": 191.705, "dur": 0.214, "note": 74, "inst": "harpsichord_v0_additive_2", "vel": 0.756, "bend": 0.0, "ch": 10}, {"t": 191.705, "dur": 0.214, "note": 77, "inst": "harpsichord_v0_additive_2", "vel": 0.756, "bend": 0.0, "ch": 13}, {"t": 191.705, "dur": 0.214, "note": 86, "inst": "harpsichord_v0_additive_2", "vel": 0.756, "bend": 0.0, "ch": 6}, {"t": 191.919, "dur": 0.214, "note": 57, "inst": "piano_v0_additive_0", "vel": 0.756, "bend": 0.0, "ch": 9}, {"t": 191.919, "dur": 0.214, "note": 74, "inst": "harpsichord_v0_additive_2", "vel": 0.756, "bend": 0.0, "ch": 10}, {"t": 191.919, "dur": 0.214, "note": 77, "inst": "harpsichord_v0_additive_2", "vel": 0.756, "bend": 0.0, "ch": 13}, {"t": 191.919, "dur": 0.214, "note": 86, "inst": "harpsichord_v0_additive_2", "vel": 0.756, "bend": 0.0, "ch": 6}, {"t": 192.133, "dur": 0.214, "note": 60, "inst": "piano_v0_additive_0", "vel": 0.756, "bend": 0.0, "ch": 12}, {"t": 192.133, "dur": 0.214, "note": 67, "inst": "organ_v0_additive_1", "vel": 0.756, "bend": 0.0, "ch": 3}, {"t": 192.133, "dur": 0.214, "note": 69, "inst": "piano_v0_additive_0", "vel": 0.756, "bend": 0.0, "ch": 5}, {"t": 192.133, "dur": 0.107, "note": 77, "inst": "harpsichord_v0_additive_2", "vel": 0.709, "bend": 0.0, "ch": 13}, {"t": 192.239, "dur": 0.107, "note": 76, "inst": "organ_v0_additive_1", "vel": 0.709, "bend": 0.0, "ch": 12}, {"t": 192.346, "dur": 0.214, "note": 60, "inst": "piano_v0_additive_0", "vel": 0.756, "bend": 0.0, "ch": 12}, {"t": 192.346, "dur": 0.214, "note": 67, "inst": "organ_v0_additive_1", "vel": 0.756, "bend": 0.0, "ch": 3}, {"t": 192.346, "dur": 0.214, "note": 69, "inst": "piano_v0_additive_0", "vel": 0.756, "bend": 0.0, "ch": 5}, {"t": 192.346, "dur": 0.107, "note": 74, "inst": "harpsichord_v0_additive_2", "vel": 0.709, "bend": 0.0, "ch": 10}, {"t": 192.453, "dur": 0.107, "note": 76, "inst": "organ_v0_additive_1", "vel": 0.709, "bend": 0.0, "ch": 12}, {"t": 192.56, "dur": 0.428, "note": 62, "inst": "harpsichord_v0_additive_2", "vel": 0.709, "bend": 0.0, "ch": 14}, {"t": 192.56, "dur": 0.428, "note": 65, "inst": "harpsichord_v0_additive_2", "vel": 0.709, "bend": 0.0, "ch": 1}, {"t": 192.56, "dur": 0.428, "note": 69, "inst": "piano_v0_additive_0", "vel": 0.709, "bend": 0.0, "ch": 5}, {"t": 192.56, "dur": 0.214, "note": 77, "inst": "harpsichord_v0_additive_2", "vel": 0.756, "bend": 0.0, "ch": 13}, {"t": 192.774, "dur": 0.214, "note": 77, "inst": "harpsichord_v0_additive_2", "vel": 0.756, "bend": 0.0, "ch": 13}, {"t": 192.988, "dur": 0.214, "note": 74, "inst": "harpsichord_v0_additive_2", "vel": 0.756, "bend": 0.0, "ch": 10}, {"t": 192.988, "dur": 0.214, "note": 77, "inst": "harpsichord_v0_additive_2", "vel": 0.756, "bend": 0.0, "ch": 13}, {"t": 192.988, "dur": 0.214, "note": 81, "inst": "piano_v0_additive_0", "vel": 0.756, "bend": 0.0, "ch": 1}, {"t": 193.202, "dur": 0.214, "note": 74, "inst": "harpsichord_v0_additive_2", "vel": 0.756, "bend": 0.0, "ch": 10}, {"t": 193.202, "dur": 0.214, "note": 77, "inst": "harpsichord_v0_additive_2", "vel": 0.756, "bend": 0.0, "ch": 13}, {"t": 193.202, "dur": 0.214, "note": 81, "inst": "piano_v0_additive_0", "vel": 0.756, "bend": 0.0, "ch": 1}, {"t": 193.416, "dur": 0.214, "note": 62, "inst": "harpsichord_v0_additive_2", "vel": 0.756, "bend": 0.0, "ch": 14}, {"t": 193.416, "dur": 0.214, "note": 76, "inst": "organ_v0_additive_1", "vel": 0.756, "bend": 0.0, "ch": 12}, {"t": 193.416, "dur": 0.214, "note": 81, "inst": "piano_v0_additive_0", "vel": 0.709, "bend": 0.0, "ch": 1}, {"t": 193.63, "dur": 0.214, "note": 62, "inst": "harpsichord_v0_additive_2", "vel": 0.756, "bend": 0.0, "ch": 14}, {"t": 193.63, "dur": 0.214, "note": 76, "inst": "organ_v0_additive_1", "vel": 0.756, "bend": 0.0, "ch": 12}, {"t": 193.63, "dur": 0.214, "note": 81, "inst": "piano_v0_additive_0", "vel": 0.709, "bend": 0.0, "ch": 1}, {"t": 193.844, "dur": 0.214, "note": 74, "inst": "harpsichord_v0_additive_2", "vel": 0.756, "bend": 0.0, "ch": 10}, {"t": 193.844, "dur": 0.214, "note": 77, "inst": "harpsichord_v0_additive_2", "vel": 0.756, "bend": 0.0, "ch": 13}, {"t": 193.844, "dur": 0.214, "note": 79, "inst": "organ_v0_additive_1", "vel": 0.756, "bend": 0.0, "ch": 15}, {"t": 194.057, "dur": 0.214, "note": 74, "inst": "harpsichord_v0_additive_2", "vel": 0.756, "bend": 0.0, "ch": 10}, {"t": 194.057, "dur": 0.214, "note": 77, "inst": "harpsichord_v0_additive_2", "vel": 0.756, "bend": 0.0, "ch": 13}, {"t": 194.057, "dur": 0.214, "note": 79, "inst": "organ_v0_additive_1", "vel": 0.756, "bend": 0.0, "ch": 15}, {"t": 194.271, "dur": 0.214, "note": 62, "inst": "harpsichord_v0_additive_2", "vel": 0.756, "bend": 0.0, "ch": 14}, {"t": 194.271, "dur": 0.214, "note": 76, "inst": "organ_v0_additive_1", "vel": 0.756, "bend": 0.0, "ch": 12}, {"t": 194.271, "dur": 0.214, "note": 79, "inst": "organ_v0_additive_1", "vel": 0.709, "bend": 0.0, "ch": 15}, {"t": 194.485, "dur": 0.214, "note": 62, "inst": "harpsichord_v0_additive_2", "vel": 0.756, "bend": 0.0, "ch": 14}, {"t": 194.485, "dur": 0.214, "note": 76, "inst": "organ_v0_additive_1", "vel": 0.756, "bend": 0.0, "ch": 12}, {"t": 194.485, "dur": 0.214, "note": 81, "inst": "piano_v0_additive_0", "vel": 0.709, "bend": 0.0, "ch": 1}, {"t": 194.699, "dur": 0.214, "note": 72, "inst": "piano_v0_additive_0", "vel": 0.756, "bend": 0.0, "ch": 8}, {"t": 194.699, "dur": 0.214, "note": 74, "inst": "harpsichord_v0_additive_2", "vel": 0.756, "bend": 0.0, "ch": 10}, {"t": 194.699, "dur": 0.214, "note": 81, "inst": "piano_v0_additive_0", "vel": 0.756, "bend": 0.0, "ch": 1}, {"t": 194.913, "dur": 0.214, "note": 72, "inst": "piano_v0_additive_0", "vel": 0.756, "bend": 0.0, "ch": 8}, {"t": 194.913, "dur": 0.214, "note": 74, "inst": "harpsichord_v0_additive_2", "vel": 0.756, "bend": 0.0, "ch": 10}, {"t": 194.913, "dur": 0.214, "note": 81, "inst": "piano_v0_additive_0", "vel": 0.756, "bend": 0.0, "ch": 1}, {"t": 210.236, "dur": 0.482, "note": 80, "inst": "harpsichord_v0_additive_2", "vel": 0.63, "bend": 0.0, "ch": 0}, {"t": 210.745, "dur": 0.966, "note": 68, "inst": "harpsichord_v0_additive_2", "vel": 0.63, "bend": 0.0, "ch": 4}, {"t": 210.745, "dur": 1.932, "note": 77, "inst": "harpsichord_v0_additive_2", "vel": 0.63, "bend": 0.0, "ch": 13}, {"t": 211.762, "dur": 1.932, "note": 68, "inst": "harpsichord_v0_additive_2", "vel": 0.63, "bend": 0.0, "ch": 4}, {"t": 212.78, "dur": 0.966, "note": 75, "inst": "piano_v0_additive_0", "vel": 0.63, "bend": 0.0, "ch": 11}, {"t": 213.797, "dur": 3.865, "note": 65, "inst": "harpsichord_v0_additive_2", "vel": 0.63, "bend": 0.0, "ch": 1}, {"t": 213.797, "dur": 11.598, "note": 73, "inst": "organ_v0_additive_1", "vel": 0.63, "bend": 0.0, "ch": 9}, {"t": 213.797, "dur": 2.899, "note": 77, "inst": "harpsichord_v0_additive_2", "vel": 0.63, "bend": 0.0, "ch": 13}, {"t": 215.832, "dur": 1.932, "note": 53, "inst": "harpsichord_v0_additive_2", "vel": 0.63, "bend": 0.0, "ch": 5}, {"t": 216.85, "dur": 0.482, "note": 75, "inst": "piano_v0_additive_0", "vel": 0.63, "bend": 0.0, "ch": 11}, {"t": 217.358, "dur": 0.482, "note": 73, "inst": "organ_v0_additive_1", "vel": 0.63, "bend": 0.0, "ch": 9}, {"t": 217.867, "dur": 2.899, "note": 61, "inst": "organ_v0_additive_1", "vel": 0.63, "bend": 0.0, "ch": 13}, {"t": 217.867, "dur": 0.966, "note": 75, "inst": "piano_v0_additive_0", "vel": 0.63, "bend": 0.0, "ch": 11}, {"t": 218.885, "dur": 1.449, "note": 73, "inst": "organ_v0_additive_1", "vel": 0.63, "bend": 0.0, "ch": 9}, {"t": 219.902, "dur": 1.932, "note": 75, "inst": "piano_v0_additive_0", "vel": 0.63, "bend": 0.0, "ch": 11}, {"t": 220.411, "dur": 0.482, "note": 70, "inst": "organ_v0_additive_1", "vel": 0.63, "bend": 0.0, "ch": 6}, {"t": 220.919, "dur": 0.966, "note": 58, "inst": "organ_v0_additive_1", "vel": 0.63, "bend": 0.0, "ch": 10}, {"t": 220.919, "dur": 0.966, "note": 68, "inst": "harpsichord_v0_additive_2", "vel": 0.63, "bend": 0.0, "ch": 4}, {"t": 221.937, "dur": 0.966, "note": 56, "inst": "harpsichord_v0_additive_2", "vel": 0.63, "bend": 0.0, "ch": 8}, {"t": 221.937, "dur": 1.932, "note": 68, "inst": "harpsichord_v0_additive_2", "vel": 0.63, "bend": 0.0, "ch": 4}, {"t": 221.937, "dur": 1.932, "note": 77, "inst": "harpsichord_v0_additive_2", "vel": 0.63, "bend": 0.0, "ch": 13}], "instruments": ["harpsichord_v0_additive_2", "organ_v0_additive_1", "piano_v0_additive_0"], "duration": 225.395, "n_events": 881}