{"events": [{"t": 0.008, "dur": 0.16, "note": 54, "inst": "harpsichord_v0_additive_2", "vel": 1.0, "bend": 0.0, "ch": 6}, {"t": 0.168, "dur": 0.16, "note": 61, "inst": "organ_v0_additive_1", "vel": 1.0, "bend": 0.0, "ch": 13}, {"t": 0.328, "dur": 0.16, "note": 61, "inst": "organ_v0_additive_1", "vel": 1.0, "bend": 0.0, "ch": 13}, {"t": 0.488, "dur": 0.639, "note": 25, "inst": "organ_v0_additive_1", "vel": 1.0, "bend": 0.0, "ch": 9}, {"t": 0.488, "dur": 0.16, "note": 61, "inst": "organ_v0_additive_1", "vel": 1.0, "bend": 0.0, "ch": 13}, {"t": 0.647, "dur": 0.16, "note": 61, "inst": "organ_v0_additive_1", "vel": 1.0, "bend": 0.0, "ch": 13}, {"t": 0.807, "dur": 0.16, "note": 54, "inst": "harpsichord_v0_additive_2", "vel": 1.0, "bend": 0.0, "ch": 6}, {"t": 0.967, "dur": 0.16, "note": 66, "inst": "harpsichord_v0_additive_2", "vel": 1.0, "bend": 0.0, "ch": 2}, {"t": 1.127, "dur": 0.639, "note": 24, "inst": "piano_v0_additive_0", "vel": 1.0, "bend": 0.0, "ch": 8}, {"t": 1.127, "dur": 0.639, "note": 66, "inst": "harpsichord_v0_additive_2", "vel": 1.0, "bend": 0.0, "ch": 2}, {"t": 1.766, "dur": 0.639, "note": 25, "inst": "organ_v0_additive_1", "vel": 1.0, "bend": 0.0, "ch": 9}, {"t": 2.085, "dur": 0.107, "note": 66, "inst": "harpsichord_v0_additive_2", "vel": 1.0, "bend": 0.0, "ch": 2}, {"t": 2.192, "dur": 0.107, "note": 73, "inst": "organ_v0_additive_1", "vel": 1.0, "bend": 0.0, "ch": 9}, {"t": 2.298, "dur": 0.107, "note": 66, "inst": "harpsichord_v0_additive_2", "vel": 1.0, "bend": 0.0, "ch": 2}, {"t": 2.405, "dur": 0.639, "note": 24, "inst": "piano_v0_additive_0", "vel": 1.0, "bend": 0.0, "ch": 8}, {"t": 2.405, "dur": 0.32, "note": 54, "inst": "harpsichord_v0_additive_2", "vel": 1.0, "bend": 0.0, "ch": 6}, {"t": 2.725, "dur": 0.32, "note": 73, "inst": "organ_v0_additive_1", "vel": 1.0, "bend": 0.0, "ch": 9}, {"t": 3.044, "dur": 0.639, "note": 25, "inst": "organ_v0_additive_1", "vel": 1.0, "bend": 0.0, "ch": 9}, {"t": 3.044, "dur": 0.32, "note": 73, "inst": "organ_v0_additive_1", "vel": 1.0, "bend": 0.0, "ch": 9}, {"t": 3.364, "dur": 0.107, "note": 54, "inst": "harpsichord_v0_additive_2", "vel": 1.0, "bend": 0.0, "ch": 6}, {"t": 3.47, "dur": 0.107, "note": 66, "inst": "harpsichord_v0_additive_2", "vel": 1.0, "bend": 0.0, "ch": 2}, {"t": 3.577, "dur": 0.107, "note": 54, "inst": "harpsichord_v0_additive_2", "vel": 1.0, "bend": 0.0, "ch": 6}, {"t": 3.683, "dur": 0.639, "note": 24, "inst": "piano_v0_additive_0", "vel": 1.0, "bend": 0.0, "ch": 8}, {"t": 3.683, "dur": 0.32, "note": 61, "inst": "organ_v0_additive_1", "vel": 1.0, "bend": 0.0, "ch": 13}, {"t": 4.003, "dur": 0.32, "note": 66, "inst": "harpsichord_v0_additive_2", "vel": 1.0, "bend": 0.0, "ch": 2}, {"t": 4.322, "dur": 0.639, "note": 25, "inst": "organ_v0_additive_1", "vel": 1.0, "bend": 0.0, "ch": 9}, {"t": 4.322, "dur": 0.32, "note": 54, "inst": "harpsichord_v0_additive_2", "vel": 1.0, "bend": 0.0, "ch": 6}, {"t": 4.642, "dur": 0.32, "note": 61, "inst": "organ_v0_additive_1", "vel": 1.0, "bend": 0.0, "ch": 13}, {"t": 4.961, "dur": 0.639, "note": 25, "inst": "organ_v0_additive_1", "vel": 1.0, "bend": 0.0, "ch": 9}, {"t": 4.961, "dur": 0.16, "note": 61, "inst": "organ_v0_additive_1", "vel": 1.0, "bend": 0.0, "ch": 13}, {"t": 5.121, "dur": 0.16, "note": 54, "inst": "harpsichord_v0_additive_2", "vel": 1.0, "bend": 0.0, "ch": 6}, {"t": 5.281, "dur": 0.16, "note": 61, "inst": "organ_v0_additive_1", "vel": 1.0, "bend": 0.0, "ch": 13}, {"t": 5.441, "dur": 0.16, "note": 61, "inst": "organ_v0_additive_1", "vel": 1.0, "bend": 0.0, "ch": 13}, {"t": 5.601, "dur": 0.639, "note": 25, "inst": "organ_v0_additive_1", "vel": 1.0, "bend": 0.0, "ch": 9}, {"t": 5.601, "dur": 0.16, "note": 61, "inst": "organ_v0_additive_1", "vel": 1.0, "bend": 0.0, "ch": 13}, {"t": 5.76, "dur": 0.16, "note": 61, "inst": "organ_v0_additive_1", "vel": 1.0, "bend": 0.0, "ch": 13}, {"t": 5.92, "dur": 0.16, "note": 54, "inst": "harpsichord_v0_additive_2", "vel": 1.0, "bend": 0.0, "ch": 6}, {"t": 6.08, "dur": 0.16, "note": 66, "inst": "harpsichord_v0_additive_2", "vel": 1.0, "bend": 0.0, "ch": 2}, {"t": 6.24, "dur": 0.639, "note": 25, "inst": "organ_v0_additive_1", "vel": 1.0, "bend": 0.0, "ch": 9}, {"t": 6.24, "dur": 0.639, "note": 66, "inst": "harpsichord_v0_additive_2", "vel": 1.0, "bend": 0.0, "ch": 2}, {"t": 6.879, "dur": 0.639, "note": 25, "inst": "organ_v0_additive_1", "vel": 1.0, "bend": 0.0, "ch": 9}, {"t": 7.518, "dur": 0.639, "note": 25, "inst": "organ_v0_additive_1", "vel": 1.0, "bend": 0.0, "ch": 9}, {"t": 7.518, "dur": 0.32, "note": 66, "inst": "harpsichord_v0_additive_2", "vel": 1.0, "bend": 0.0, "ch": 2}, {"t": 7.837, "dur": 0.32, "note": 73, "inst": "organ_v0_additive_1", "vel": 1.0, "bend": 0.0, "ch": 9}, {"t": 8.157, "dur": 0.639, "note": 25, "inst": "organ_v0_additive_1", "vel": 1.0, "bend": 0.0, "ch": 9}, {"t": 8.157, "dur": 0.32, "note": 73, "inst": "organ_v0_additive_1", "vel": 1.0, "bend": 0.0, "ch": 9}, {"t": 8.477, "dur": 0.107, "note": 54, "inst": "harpsichord_v0_additive_2", "vel": 1.0, "bend": 0.0, "ch": 6}, {"t": 8.583, "dur": 0.107, "note": 66, "inst": "harpsichord_v0_additive_2", "vel": 1.0, "bend": 0.0, "ch": 2}, {"t": 8.69, "dur": 0.107, "note": 54, "inst": "harpsichord_v0_additive_2", "vel": 1.0, "bend": 0.0, "ch": 6}, {"t": 8.796, "dur": 0.639, "note": 25, "inst": "organ_v0_additive_1", "vel": 1.0, "bend": 0.0, "ch": 9}, {"t": 8.796, "dur": 0.32, "note": 61, "inst": "organ_v0_additive_1", "vel": 1.0, "bend": 0.0, "ch": 13}, {"t": 9.116, "dur": 0.32, "note": 66, "inst": "harpsichord_v0_additive_2", "vel": 1.0, "bend": 0.0, "ch": 2}, {"t": 9.435, "dur": 0.639, "note": 25, "inst": "organ_v0_additive_1", "vel": 1.0, "bend": 0.0, "ch": 9}, {"t": 9.435, "dur": 0.32, "note": 66, "inst": "harpsichord_v0_additive_2", "vel": 1.0, "bend": 0.0, "ch": 2}, {"t": 9.755, "dur": 0.32, "note": 61, "inst": "organ_v0_additive_1", "vel": 1.0, "bend": 0.0, "ch": 13}, {"t": 10.074, "dur": 0.639, "note": 25, "inst": "organ_v0_additive_1", "vel": 1.0, "bend": 0.0, "ch": 9}, {"t": 10.074, "dur": 0.16, "note": 61, "inst": "organ_v0_additive_1", "vel": 1.0, "bend": 0.0, "ch": 13}, {"t": 42.2, "dur": 1.84, "note": 47, "inst": "celesta_v0_additive_3", "vel": 0.63, "bend": 0.0, "ch": 15}, {"t": 42.2, "dur": 1.311, "note": 61, "inst": "organ_v0_additive_1", "vel": 0.63, "bend": 0.0, "ch": 13}, {"t": 42.2, "dur": 0.919, "note": 71, "inst": "celesta_v0_additive_3", "vel": 0.63, "bend": 0.0, "ch": 7}, {"t": 43.121, "dur": 1.38, "note": 54, "inst": "harpsichord_v0_additive_2", "vel": 0.63, "bend": 0.0, "ch": 6}, {"t": 43.121, "dur": 1.84, "note": 71, "inst": "celesta_v0_additive_3", "vel": 0.63, "bend": 0.0, "ch": 7}, {"t": 43.581, "dur": 0.436, "note": 64, "inst": "piano_v0_additive_0", "vel": 0.63, "bend": 0.0, "ch": 0}, {"t": 44.041, "dur": 1.84, "note": 54, "inst": "harpsichord_v0_additive_2", "vel": 0.63, "bend": 0.0, "ch": 6}, {"t": 44.041, "dur": 0.873, "note": 61, "inst": "organ_v0_additive_1", "vel": 0.63, "bend": 0.0, "ch": 13}, {"t": 44.501, "dur": 0.459, "note": 54, "inst": "harpsichord_v0_additive_2", "vel": 0.63, "bend": 0.0, "ch": 6}, {"t": 44.961, "dur": 0.919, "note": 57, "inst": "organ_v0_additive_1", "vel": 0.63, "bend": 0.0, "ch": 9}, {"t": 44.961, "dur": 0.873, "note": 61, "inst": "organ_v0_additive_1", "vel": 0.63, "bend": 0.0, "ch": 13}, {"t": 44.961, "dur": 0.919, "note": 69, "inst": "organ_v0_additive_1", "vel": 0.63, "bend": 0.0, "ch": 5}, {"t": 45.882, "dur": 0.459, "note": 54, "inst": "harpsichord_v0_additive_2", "vel": 0.63, "bend": 0.0, "ch": 6}, {"t": 45.882, "dur": 3.496, "note": 59, "inst": "celesta_v0_additive_3", "vel": 0.63, "bend": 0.0, "ch": 11}, {"t": 45.882, "dur": 1.38, "note": 71, "inst": "celesta_v0_additive_3", "vel": 0.63, "bend": 0.0, "ch": 7}, {"t": 46.342, "dur": 0.459, "note": 52, "inst": "piano_v0_additive_0", "vel": 0.63, "bend": 0.0, "ch": 4}, {"t": 46.802, "dur": 1.84, "note": 64, "inst": "piano_v0_additive_0", "vel": 0.63, "bend": 0.0, "ch": 0}, {"t": 47.262, "dur": 0.459, "note": 69, "inst": "organ_v0_additive_1", "vel": 0.63, "bend": 0.0, "ch": 5}, {"t": 47.723, "dur": 0.919, "note": 66, "inst": "harpsichord_v0_additive_2", "vel": 0.63, "bend": 0.0, "ch": 2}, {"t": 48.643, "dur": 0.919, "note": 47, "inst": "celesta_v0_additive_3", "vel": 0.63, "bend": 0.0, "ch": 15}, {"t": 48.643, "dur": 0.919, "note": 61, "inst": "organ_v0_additive_1", "vel": 0.63, "bend": 0.0, "ch": 13}, {"t": 48.643, "dur": 0.919, "note": 66, "inst": "harpsichord_v0_additive_2", "vel": 0.63, "bend": 0.0, "ch": 2}, {"t": 49.563, "dur": 0.919, "note": 52, "inst": "piano_v0_additive_0", "vel": 0.63, "bend": 0.0, "ch": 4}, {"t": 49.563, "dur": 0.919, "note": 64, "inst": "piano_v0_additive_0", "vel": 0.63, "bend": 0.0, "ch": 0}, {"t": 49.563, "dur": 1.84, "note": 64, "inst": "piano_v0_additive_0", "vel": 0.63, "bend": 0.0, "ch": 0}, {"t": 50.484, "dur": 0.919, "note": 49, "inst": "organ_v0_additive_1", "vel": 0.63, "bend": 0.0, "ch": 1}, {"t": 50.484, "dur": 0.919, "note": 69, "inst": "organ_v0_additive_1", "vel": 0.63, "bend": 0.0, "ch": 5}, {"t": 51.404, "dur": 0.919, "note": 49, "inst": "organ_v0_additive_1", "vel": 0.63, "bend": 0.0, "ch": 1}, {"t": 51.404, "dur": 0.919, "note": 66, "inst": "harpsichord_v0_additive_2", "vel": 0.63, "bend": 0.0, "ch": 2}, {"t": 52.324, "dur": 0.919, "note": 52, "inst": "piano_v0_additive_0", "vel": 0.63, "bend": 0.0, "ch": 4}, {"t": 52.324, "dur": 0.873, "note": 59, "inst": "celesta_v0_additive_3", "vel": 0.63, "bend": 0.0, "ch": 11}, {"t": 52.324, "dur": 1.84, "note": 66, "inst": "harpsichord_v0_additive_2", "vel": 0.63, "bend": 0.0, "ch": 2}, {"t": 53.245, "dur": 1.84, "note": 49, "inst": "organ_v0_additive_1", "vel": 0.63, "bend": 0.0, "ch": 1}, {"t": 53.245, "dur": 0.873, "note": 64, "inst": "piano_v0_additive_0", "vel": 0.63, "bend": 0.0, "ch": 0}, {"t": 54.165, "dur": 0.873, "note": 61, "inst": "organ_v0_additive_1", "vel": 0.63, "bend": 0.0, "ch": 13}, {"t": 54.165, "dur": 0.919, "note": 69, "inst": "organ_v0_additive_1", "vel": 0.63, "bend": 0.0, "ch": 5}, {"t": 55.086, "dur": 1.84, "note": 47, "inst": "celesta_v0_additive_3", "vel": 0.63, "bend": 0.0, "ch": 15}, {"t": 55.086, "dur": 1.311, "note": 61, "inst": "organ_v0_additive_1", "vel": 0.63, "bend": 0.0, "ch": 13}, {"t": 55.086, "dur": 1.84, "note": 66, "inst": "harpsichord_v0_additive_2", "vel": 0.63, "bend": 0.0, "ch": 2}, {"t": 84.349, "dur": 0.463, "note": 48, "inst": "piano_v0_additive_0", "vel": 1.0, "bend": 0.0, "ch": 0}, {"t": 84.812, "dur": 0.463, "note": 50, "inst": "harpsichord_v0_additive_2", "vel": 1.0, "bend": 0.0, "ch": 2}, {"t": 85.275, "dur": 0.463, "note": 40, "inst": "piano_v0_additive_0", "vel": 1.0, "bend": 0.0, "ch": 8}, {"t": 85.275, "dur": 0.463, "note": 48, "inst": "piano_v0_additive_0", "vel": 1.0, "bend": 0.0, "ch": 0}, {"t": 85.737, "dur": 0.463, "note": 50, "inst": "harpsichord_v0_additive_2", "vel": 1.0, "bend": 0.0, "ch": 2}, {"t": 86.2, "dur": 0.463, "note": 46, "inst": "harpsichord_v0_additive_2", "vel": 1.0, "bend": 0.0, "ch": 14}, {"t": 86.663, "dur": 0.463, "note": 34, "inst": "harpsichord_v0_additive_2", "vel": 1.0, "bend": 0.0, "ch": 2}, {"t": 87.126, "dur": 0.463, "note": 40, "inst": "piano_v0_additive_0", "vel": 1.0, "bend": 0.0, "ch": 8}, {"t": 87.588, "dur": 0.463, "note": 38, "inst": "harpsichord_v0_additive_2", "vel": 1.0, "bend": 0.0, "ch": 6}, {"t": 88.051, "dur": 0.463, "note": 36, "inst": "piano_v0_additive_0", "vel": 1.0, "bend": 0.0, "ch": 4}, {"t": 88.051, "dur": 1.388, "note": 52, "inst": "piano_v0_additive_0", "vel": 1.0, "bend": 0.0, "ch": 4}, {"t": 88.514, "dur": 0.463, "note": 34, "inst": "harpsichord_v0_additive_2", "vel": 1.0, "bend": 0.0, "ch": 2}, {"t": 88.976, "dur": 0.463, "note": 24, "inst": "piano_v0_additive_0", "vel": 1.0, "bend": 0.0, "ch": 8}, {"t": 89.439, "dur": 0.463, "note": 34, "inst": "harpsichord_v0_additive_2", "vel": 1.0, "bend": 0.0, "ch": 2}, {"t": 89.439, "dur": 0.463, "note": 42, "inst": "harpsichord_v0_additive_2", "vel": 1.0, "bend": 0.0, "ch": 10}, {"t": 89.439, "dur": 1.388, "note": 52, "inst": "piano_v0_additive_0", "vel": 1.0, "bend": 0.0, "ch": 4}, {"t": 89.902, "dur": 0.463, "note": 24, "inst": "piano_v0_additive_0", "vel": 1.0, "bend": 0.0, "ch": 8}, {"t": 90.364, "dur": 0.463, "note": 36, "inst": "piano_v0_additive_0", "vel": 1.0, "bend": 0.0, "ch": 4}, {"t": 90.827, "dur": 0.463, "note": 24, "inst": "piano_v0_additive_0", "vel": 1.0, "bend": 0.0, "ch": 8}, {"t": 91.29, "dur": 0.463, "note": 40, "inst": "piano_v0_additive_0", "vel": 1.0, "bend": 0.0, "ch": 8}, {"t": 91.752, "dur": 0.463, "note": 40, "inst": "piano_v0_additive_0", "vel": 1.0, "bend": 0.0, "ch": 8}, {"t": 92.215, "dur": 0.463, "note": 42, "inst": "harpsichord_v0_additive_2", "vel": 1.0, "bend": 0.0, "ch": 10}, {"t": 92.678, "dur": 0.463, "note": 34, "inst": "harpsichord_v0_additive_2", "vel": 1.0, "bend": 0.0, "ch": 2}, {"t": 93.141, "dur": 0.463, "note": 46, "inst": "harpsichord_v0_additive_2", "vel": 1.0, "bend": 0.0, "ch": 14}, {"t": 93.603, "dur": 0.463, "note": 34, "inst": "harpsichord_v0_additive_2", "vel": 1.0, "bend": 0.0, "ch": 2}, {"t": 94.066, "dur": 0.463, "note": 46, "inst": "harpsichord_v0_additive_2", "vel": 1.0, "bend": 0.0, "ch": 14}, {"t": 94.529, "dur": 0.463, "note": 42, "inst": "harpsichord_v0_additive_2", "vel": 1.0, "bend": 0.0, "ch": 10}, {"t": 94.991, "dur": 1.388, "note": 26, "inst": "harpsichord_v0_additive_2", "vel": 1.0, "bend": 0.0, "ch": 10}, {"t": 94.991, "dur": 1.388, "note": 40, "inst": "piano_v0_additive_0", "vel": 1.0, "bend": 0.0, "ch": 8}, {"t": 95.454, "dur": 0.463, "note": 50, "inst": "harpsichord_v0_additive_2", "vel": 1.0, "bend": 0.0, "ch": 2}, {"t": 95.917, "dur": 0.463, "note": 52, "inst": "piano_v0_additive_0", "vel": 1.0, "bend": 0.0, "ch": 4}, {"t": 96.379, "dur": 2.776, "note": 50, "inst": "harpsichord_v0_additive_2", "vel": 1.0, "bend": 0.0, "ch": 2}, {"t": 96.379, "dur": 0.463, "note": 52, "inst": "piano_v0_additive_0", "vel": 1.0, "bend": 0.0, "ch": 4}, {"t": 96.842, "dur": 0.463, "note": 54, "inst": "harpsichord_v0_additive_2", "vel": 1.0, "bend": 0.0, "ch": 6}, {"t": 97.305, "dur": 0.463, "note": 46, "inst": "harpsichord_v0_additive_2", "vel": 1.0, "bend": 0.0, "ch": 14}, {"t": 97.767, "dur": 0.463, "note": 54, "inst": "harpsichord_v0_additive_2", "vel": 1.0, "bend": 0.0, "ch": 6}, {"t": 98.23, "dur": 0.463, "note": 46, "inst": "harpsichord_v0_additive_2", "vel": 1.0, "bend": 0.0, "ch": 14}, {"t": 98.693, "dur": 0.463, "note": 52, "inst": "piano_v0_additive_0", "vel": 1.0, "bend": 0.0, "ch": 4}, {"t": 99.155, "dur": 0.463, "note": 30, "inst": "harpsichord_v0_additive_2", "vel": 1.0, "bend": 0.0, "ch": 14}, {"t": 99.155, "dur": 1.851, "note": 58, "inst": "harpsichord_v0_additive_2", "vel": 1.0, "bend": 0.0, "ch": 10}, {"t": 99.618, "dur": 0.463, "note": 46, "inst": "harpsichord_v0_additive_2", "vel": 1.0, "bend": 0.0, "ch": 14}, {"t": 100.081, "dur": 0.463, "note": 48, "inst": "piano_v0_additive_0", "vel": 1.0, "bend": 0.0, "ch": 0}, {"t": 100.544, "dur": 1.388, "note": 50, "inst": "harpsichord_v0_additive_2", "vel": 1.0, "bend": 0.0, "ch": 2}, {"t": 101.006, "dur": 0.463, "note": 52, "inst": "piano_v0_additive_0", "vel": 1.0, "bend": 0.0, "ch": 4}, {"t": 101.469, "dur": 0.463, "note": 52, "inst": "piano_v0_additive_0", "vel": 1.0, "bend": 0.0, "ch": 4}, {"t": 101.932, "dur": 0.463, "note": 52, "inst": "piano_v0_additive_0", "vel": 1.0, "bend": 0.0, "ch": 4}, {"t": 102.394, "dur": 0.463, "note": 52, "inst": "piano_v0_additive_0", "vel": 1.0, "bend": 0.0, "ch": 4}, {"t": 102.857, "dur": 0.463, "note": 50, "inst": "harpsichord_v0_additive_2", "vel": 1.0, "bend": 0.0, "ch": 2}, {"t": 103.32, "dur": 1.388, "note": 28, "inst": "piano_v0_additive_0", "vel": 1.0, "bend": 0.0, "ch": 12}, {"t": 103.32, "dur": 0.463, "note": 48, "inst": "piano_v0_additive_0", "vel": 1.0, "bend": 0.0, "ch": 0}, {"t": 126.086, "dur": 0.144, "note": 56, "inst": "piano_v0_additive_0", "vel": 1.0, "bend": 0.0, "ch": 8}, {"t": 126.086, "dur": 0.144, "note": 71, "inst": "celesta_v0_additive_3", "vel": 1.0, "bend": 0.0, "ch": 7}, {"t": 126.23, "dur": 0.144, "note": 52, "inst": "piano_v0_additive_0", "vel": 1.0, "bend": 0.0, "ch": 4}, {"t": 126.23, "dur": 0.144, "note": 68, "inst": "piano_v0_additive_0", "vel": 1.0, "bend": 0.0, "ch": 4}, {"t": 126.374, "dur": 0.144, "note": 51, "inst": "celesta_v0_additive_3", "vel": 1.0, "bend": 0.0, "ch": 3}, {"t": 126.374, "dur": 0.288, "note": 56, "inst": "piano_v0_additive_0", "vel": 1.0, "bend": 0.0, "ch": 8}, {"t": 126.374, "dur": 0.288, "note": 56, "inst": "piano_v0_additive_0", "vel": 1.0, "bend": 0.0, "ch": 8}, {"t": 126.518, "dur": 0.144, "note": 56, "inst": "piano_v0_additive_0", "vel": 1.0, "bend": 0.0, "ch": 8}, {"t": 126.663, "dur": 0.144, "note": 59, "inst": "celesta_v0_additive_3", "vel": 1.0, "bend": 0.0, "ch": 11}, {"t": 126.663, "dur": 0.144, "note": 64, "inst": "piano_v0_additive_0", "vel": 1.0, "bend": 0.0, "ch": 0}, {"t": 126.807, "dur": 0.144, "note": 56, "inst": "piano_v0_additive_0", "vel": 1.0, "bend": 0.0, "ch": 8}, {"t": 126.807, "dur": 0.144, "note": 56, "inst": "piano_v0_additive_0", "vel": 1.0, "bend": 0.0, "ch": 8}, {"t": 126.951, "dur": 0.144, "note": 32, "inst": "piano_v0_additive_0", "vel": 1.0, "bend": 0.0, "ch": 0}, {"t": 126.951, "dur": 0.577, "note": 56, "inst": "piano_v0_additive_0", "vel": 1.0, "bend": 0.0, "ch": 8}, {"t": 127.095, "dur": 0.144, "note": 47, "inst": "celesta_v0_additive_3", "vel": 1.0, "bend": 0.0, "ch": 15}, {"t": 127.24, "dur": 0.144, "note": 51, "inst": "celesta_v0_additive_3", "vel": 1.0, "bend": 0.0, "ch": 3}, {"t": 127.384, "dur": 0.144, "note": 44, "inst": "piano_v0_additive_0", "vel": 1.0, "bend": 0.0, "ch": 12}, {"t": 127.528, "dur": 0.144, "note": 44, "inst": "piano_v0_additive_0", "vel": 1.0, "bend": 0.0, "ch": 12}, {"t": 127.672, "dur": 0.144, "note": 44, "inst": "piano_v0_additive_0", "vel": 1.0, "bend": 0.0, "ch": 12}, {"t": 127.817, "dur": 0.144, "note": 52, "inst": "piano_v0_additive_0", "vel": 1.0, "bend": 0.0, "ch": 4}, {"t": 127.961, "dur": 0.144, "note": 51, "inst": "celesta_v0_additive_3", "vel": 1.0, "bend": 0.0, "ch": 3}, {"t": 128.105, "dur": 0.144, "note": 47, "inst": "celesta_v0_additive_3", "vel": 1.0, "bend": 0.0, "ch": 15}, {"t": 128.249, "dur": 0.144, "note": 44, "inst": "piano_v0_additive_0", "vel": 1.0, "bend": 0.0, "ch": 12}, {"t": 128.297, "dur": 0.192, "note": 64, "inst": "piano_v0_additive_0", "vel": 1.0, "bend": 0.0, "ch": 0}, {"t": 128.394, "dur": 0.144, "note": 52, "inst": "piano_v0_additive_0", "vel": 1.0, "bend": 0.0, "ch": 4}, {"t": 128.49, "dur": 0.192, "note": 76, "inst": "piano_v0_additive_0", "vel": 1.0, "bend": 0.0, "ch": 12}, {"t": 128.538, "dur": 0.144, "note": 44, "inst": "piano_v0_additive_0", "vel": 1.0, "bend": 0.0, "ch": 12}, {"t": 128.682, "dur": 0.144, "note": 47, "inst": "celesta_v0_additive_3", "vel": 1.0, "bend": 0.0, "ch": 15}, {"t": 128.826, "dur": 0.144, "note": 44, "inst": "piano_v0_additive_0", "vel": 1.0, "bend": 0.0, "ch": 12}, {"t": 128.874, "dur": 0.192, "note": 56, "inst": "piano_v0_additive_0", "vel": 1.0, "bend": 0.0, "ch": 8}, {"t": 128.971, "dur": 0.144, "note": 51, "inst": "celesta_v0_additive_3", "vel": 1.0, "bend": 0.0, "ch": 3}, {"t": 129.067, "dur": 0.192, "note": 68, "inst": "piano_v0_additive_0", "vel": 1.0, "bend": 0.0, "ch": 4}, {"t": 129.115, "dur": 0.144, "note": 44, "inst": "piano_v0_additive_0", "vel": 1.0, "bend": 0.0, "ch": 12}, {"t": 129.259, "dur": 0.144, "note": 44, "inst": "piano_v0_additive_0", "vel": 1.0, "bend": 0.0, "ch": 12}, {"t": 129.403, "dur": 0.144, "note": 52, "inst": "piano_v0_additive_0", "vel": 1.0, "bend": 0.0, "ch": 4}, {"t": 129.451, "dur": 0.192, "note": 59, "inst": "celesta_v0_additive_3", "vel": 1.0, "bend": 0.0, "ch": 11}, {"t": 129.548, "dur": 0.144, "note": 47, "inst": "celesta_v0_additive_3", "vel": 1.0, "bend": 0.0, "ch": 15}, {"t": 129.644, "dur": 0.192, "note": 71, "inst": "celesta_v0_additive_3", "vel": 1.0, "bend": 0.0, "ch": 7}, {"t": 129.692, "dur": 0.144, "note": 52, "inst": "piano_v0_additive_0", "vel": 1.0, "bend": 0.0, "ch": 4}, {"t": 129.836, "dur": 0.144, "note": 32, "inst": "piano_v0_additive_0", "vel": 1.0, "bend": 0.0, "ch": 0}, {"t": 129.98, "dur": 0.144, "note": 52, "inst": "piano_v0_additive_0", "vel": 1.0, "bend": 0.0, "ch": 4}, {"t": 130.028, "dur": 0.192, "note": 64, "inst": "piano_v0_additive_0", "vel": 1.0, "bend": 0.0, "ch": 0}, {"t": 130.125, "dur": 0.144, "note": 47, "inst": "celesta_v0_additive_3", "vel": 1.0, "bend": 0.0, "ch": 15}, {"t": 130.221, "dur": 0.192, "note": 76, "inst": "piano_v0_additive_0", "vel": 1.0, "bend": 0.0, "ch": 12}, {"t": 130.269, "dur": 0.144, "note": 52, "inst": "piano_v0_additive_0", "vel": 1.0, "bend": 0.0, "ch": 4}, {"t": 130.413, "dur": 0.144, "note": 40, "inst": "piano_v0_additive_0", "vel": 1.0, "bend": 0.0, "ch": 8}, {"t": 130.557, "dur": 0.144, "note": 47, "inst": "celesta_v0_additive_3", "vel": 1.0, "bend": 0.0, "ch": 15}, {"t": 130.605, "dur": 0.192, "note": 56, "inst": "piano_v0_additive_0", "vel": 1.0, "bend": 0.0, "ch": 8}, {"t": 130.702, "dur": 0.144, "note": 44, "inst": "piano_v0_additive_0", "vel": 1.0, "bend": 0.0, "ch": 12}, {"t": 130.798, "dur": 0.192, "note": 68, "inst": "piano_v0_additive_0", "vel": 1.0, "bend": 0.0, "ch": 4}, {"t": 130.846, "dur": 0.144, "note": 47, "inst": "celesta_v0_additive_3", "vel": 1.0, "bend": 0.0, "ch": 15}, {"t": 130.99, "dur": 0.144, "note": 40, "inst": "piano_v0_additive_0", "vel": 1.0, "bend": 0.0, "ch": 8}, {"t": 131.134, "dur": 0.144, "note": 47, "inst": "celesta_v0_additive_3", "vel": 1.0, "bend": 0.0, "ch": 15}, {"t": 131.182, "dur": 0.192, "note": 59, "inst": "celesta_v0_additive_3", "vel": 1.0, "bend": 0.0, "ch": 11}, {"t": 131.279, "dur": 0.144, "note": 32, "inst": "piano_v0_additive_0", "vel": 1.0, "bend": 0.0, "ch": 0}, {"t": 131.375, "dur": 0.192, "note": 71, "inst": "celesta_v0_additive_3", "vel": 1.0, "bend": 0.0, "ch": 7}, {"t": 131.423, "dur": 0.144, "note": 47, "inst": "celesta_v0_additive_3", "vel": 1.0, "bend": 0.0, "ch": 15}, {"t": 131.567, "dur": 0.144, "note": 39, "inst": "celesta_v0_additive_3", "vel": 1.0, "bend": 0.0, "ch": 7}, {"t": 131.711, "dur": 0.144, "note": 47, "inst": "celesta_v0_additive_3", "vel": 1.0, "bend": 0.0, "ch": 15}, {"t": 131.759, "dur": 0.192, "note": 63, "inst": "celesta_v0_additive_3", "vel": 1.0, "bend": 0.0, "ch": 15}, {"t": 131.856, "dur": 0.144, "note": 32, "inst": "piano_v0_additive_0", "vel": 1.0, "bend": 0.0, "ch": 0}, {"t": 131.952, "dur": 0.192, "note": 75, "inst": "celesta_v0_additive_3", "vel": 1.0, "bend": 0.0, "ch": 11}, {"t": 132.0, "dur": 0.144, "note": 47, "inst": "celesta_v0_additive_3", "vel": 1.0, "bend": 0.0, "ch": 15}, {"t": 132.144, "dur": 0.144, "note": 35, "inst": "celesta_v0_additive_3", "vel": 1.0, "bend": 0.0, "ch": 3}, {"t": 132.288, "dur": 0.144, "note": 47, "inst": "celesta_v0_additive_3", "vel": 1.0, "bend": 0.0, "ch": 15}, {"t": 132.336, "dur": 0.192, "note": 64, "inst": "piano_v0_additive_0", "vel": 1.0, "bend": 0.0, "ch": 0}, {"t": 132.433, "dur": 0.144, "note": 32, "inst": "piano_v0_additive_0", "vel": 1.0, "bend": 0.0, "ch": 0}, {"t": 132.529, "dur": 0.192, "note": 76, "inst": "piano_v0_additive_0", "vel": 1.0, "bend": 0.0, "ch": 12}, {"t": 132.577, "dur": 0.144, "note": 47, "inst": "celesta_v0_additive_3", "vel": 1.0, "bend": 0.0, "ch": 15}, {"t": 132.721, "dur": 0.144, "note": 47, "inst": "celesta_v0_additive_3", "vel": 1.0, "bend": 0.0, "ch": 15}, {"t": 132.865, "dur": 0.144, "note": 44, "inst": "piano_v0_additive_0", "vel": 1.0, "bend": 0.0, "ch": 12}, {"t": 132.913, "dur": 0.192, "note": 64, "inst": "piano_v0_additive_0", "vel": 1.0, "bend": 0.0, "ch": 0}, {"t": 133.01, "dur": 0.144, "note": 52, "inst": "piano_v0_additive_0", "vel": 1.0, "bend": 0.0, "ch": 4}, {"t": 133.106, "dur": 0.192, "note": 76, "inst": "piano_v0_additive_0", "vel": 1.0, "bend": 0.0, "ch": 12}, {"t": 133.154, "dur": 0.144, "note": 44, "inst": "piano_v0_additive_0", "vel": 1.0, "bend": 0.0, "ch": 12}, {"t": 133.298, "dur": 0.144, "note": 47, "inst": "celesta_v0_additive_3", "vel": 1.0, "bend": 0.0, "ch": 15}, {"t": 133.442, "dur": 0.144, "note": 44, "inst": "piano_v0_additive_0", "vel": 1.0, "bend": 0.0, "ch": 12}, {"t": 133.49, "dur": 0.192, "note": 56, "inst": "piano_v0_additive_0", "vel": 1.0, "bend": 0.0, "ch": 8}, {"t": 133.587, "dur": 0.144, "note": 51, "inst": "celesta_v0_additive_3", "vel": 1.0, "bend": 0.0, "ch": 3}, {"t": 133.683, "dur": 0.192, "note": 68, "inst": "piano_v0_additive_0", "vel": 1.0, "bend": 0.0, "ch": 4}, {"t": 133.731, "dur": 0.144, "note": 44, "inst": "piano_v0_additive_0", "vel": 1.0, "bend": 0.0, "ch": 12}, {"t": 133.875, "dur": 0.144, "note": 44, "inst": "piano_v0_additive_0", "vel": 1.0, "bend": 0.0, "ch": 12}, {"t": 134.019, "dur": 0.144, "note": 44, "inst": "piano_v0_additive_0", "vel": 1.0, "bend": 0.0, "ch": 12}, {"t": 134.067, "dur": 0.192, "note": 71, "inst": "celesta_v0_additive_3", "vel": 1.0, "bend": 0.0, "ch": 7}, {"t": 134.164, "dur": 0.144, "note": 51, "inst": "celesta_v0_additive_3", "vel": 1.0, "bend": 0.0, "ch": 3}, {"t": 134.26, "dur": 0.192, "note": 83, "inst": "celesta_v0_additive_3", "vel": 1.0, "bend": 0.0, "ch": 3}, {"t": 134.308, "dur": 0.144, "note": 44, "inst": "piano_v0_additive_0", "vel": 1.0, "bend": 0.0, "ch": 12}, {"t": 134.452, "dur": 0.144, "note": 32, "inst": "piano_v0_additive_0", "vel": 1.0, "bend": 0.0, "ch": 0}, {"t": 134.596, "dur": 0.144, "note": 44, "inst": "piano_v0_additive_0", "vel": 1.0, "bend": 0.0, "ch": 12}, {"t": 134.644, "dur": 0.192, "note": 71, "inst": "celesta_v0_additive_3", "vel": 1.0, "bend": 0.0, "ch": 7}, {"t": 134.741, "dur": 0.144, "note": 51, "inst": "celesta_v0_additive_3", "vel": 1.0, "bend": 0.0, "ch": 3}, {"t": 134.837, "dur": 0.192, "note": 83, "inst": "celesta_v0_additive_3", "vel": 1.0, "bend": 0.0, "ch": 3}, {"t": 134.885, "dur": 0.144, "note": 44, "inst": "piano_v0_additive_0", "vel": 1.0, "bend": 0.0, "ch": 12}, {"t": 135.029, "dur": 0.144, "note": 47, "inst": "celesta_v0_additive_3", "vel": 1.0, "bend": 0.0, "ch": 15}, {"t": 135.173, "dur": 0.144, "note": 56, "inst": "piano_v0_additive_0", "vel": 1.0, "bend": 0.0, "ch": 8}, {"t": 135.221, "dur": 0.192, "note": 68, "inst": "piano_v0_additive_0", "vel": 1.0, "bend": 0.0, "ch": 4}, {"t": 135.318, "dur": 0.144, "note": 52, "inst": "piano_v0_additive_0", "vel": 1.0, "bend": 0.0, "ch": 4}, {"t": 135.414, "dur": 0.192, "note": 80, "inst": "piano_v0_additive_0", "vel": 1.0, "bend": 0.0, "ch": 0}, {"t": 135.462, "dur": 0.144, "note": 56, "inst": "piano_v0_additive_0", "vel": 1.0, "bend": 0.0, "ch": 8}, {"t": 135.606, "dur": 0.144, "note": 51, "inst": "celesta_v0_additive_3", "vel": 1.0, "bend": 0.0, "ch": 3}, {"t": 135.75, "dur": 0.144, "note": 59, "inst": "celesta_v0_additive_3", "vel": 1.0, "bend": 0.0, "ch": 11}, {"t": 135.798, "dur": 0.192, "note": 56, "inst": "piano_v0_additive_0", "vel": 1.0, "bend": 0.0, "ch": 8}, {"t": 135.895, "dur": 0.144, "note": 56, "inst": "piano_v0_additive_0", "vel": 1.0, "bend": 0.0, "ch": 8}, {"t": 135.991, "dur": 0.192, "note": 68, "inst": "piano_v0_additive_0", "vel": 1.0, "bend": 0.0, "ch": 4}, {"t": 136.039, "dur": 0.144, "note": 59, "inst": "celesta_v0_additive_3", "vel": 1.0, "bend": 0.0, "ch": 11}, {"t": 136.183, "dur": 0.144, "note": 32, "inst": "piano_v0_additive_0", "vel": 1.0, "bend": 0.0, "ch": 0}, {"t": 136.327, "dur": 0.144, "note": 47, "inst": "celesta_v0_additive_3", "vel": 1.0, "bend": 0.0, "ch": 15}, {"t": 136.375, "dur": 0.192, "note": 56, "inst": "piano_v0_additive_0", "vel": 1.0, "bend": 0.0, "ch": 8}, {"t": 136.472, "dur": 0.144, "note": 51, "inst": "celesta_v0_additive_3", "vel": 1.0, "bend": 0.0, "ch": 3}, {"t": 136.568, "dur": 0.192, "note": 68, "inst": "piano_v0_additive_0", "vel": 1.0, "bend": 0.0, "ch": 4}, {"t": 136.616, "dur": 0.144, "note": 44, "inst": "piano_v0_additive_0", "vel": 1.0, "bend": 0.0, "ch": 12}, {"t": 136.76, "dur": 0.144, "note": 44, "inst": "piano_v0_additive_0", "vel": 1.0, "bend": 0.0, "ch": 12}, {"t": 136.904, "dur": 0.144, "note": 44, "inst": "piano_v0_additive_0", "vel": 1.0, "bend": 0.0, "ch": 12}, {"t": 137.048, "dur": 0.144, "note": 51, "inst": "celesta_v0_additive_3", "vel": 1.0, "bend": 0.0, "ch": 3}, {"t": 137.193, "dur": 0.144, "note": 47, "inst": "celesta_v0_additive_3", "vel": 1.0, "bend": 0.0, "ch": 15}, {"t": 137.337, "dur": 0.288, "note": 32, "inst": "piano_v0_additive_0", "vel": 1.0, "bend": 0.0, "ch": 0}, {"t": 137.337, "dur": 0.288, "note": 56, "inst": "piano_v0_additive_0", "vel": 1.0, "bend": 0.0, "ch": 8}, {"t": 137.625, "dur": 0.144, "note": 44, "inst": "piano_v0_additive_0", "vel": 1.0, "bend": 0.0, "ch": 12}, {"t": 137.625, "dur": 0.144, "note": 68, "inst": "piano_v0_additive_0", "vel": 1.0, "bend": 0.0, "ch": 4}, {"t": 137.77, "dur": 0.144, "note": 32, "inst": "piano_v0_additive_0", "vel": 1.0, "bend": 0.0, "ch": 0}, {"t": 137.77, "dur": 0.144, "note": 56, "inst": "piano_v0_additive_0", "vel": 1.0, "bend": 0.0, "ch": 8}, {"t": 137.914, "dur": 0.288, "note": 40, "inst": "piano_v0_additive_0", "vel": 1.0, "bend": 0.0, "ch": 8}, {"t": 137.914, "dur": 0.288, "note": 64, "inst": "piano_v0_additive_0", "vel": 1.0, "bend": 0.0, "ch": 0}, {"t": 138.202, "dur": 0.288, "note": 32, "inst": "piano_v0_additive_0", "vel": 1.0, "bend": 0.0, "ch": 0}, {"t": 138.202, "dur": 0.288, "note": 56, "inst": "piano_v0_additive_0", "vel": 1.0, "bend": 0.0, "ch": 8}, {"t": 138.491, "dur": 0.577, "note": 32, "inst": "piano_v0_additive_0", "vel": 1.0, "bend": 0.0, "ch": 0}, {"t": 138.491, "dur": 0.577, "note": 56, "inst": "piano_v0_additive_0", "vel": 1.0, "bend": 0.0, "ch": 8}, {"t": 139.068, "dur": 0.577, "note": 24, "inst": "piano_v0_additive_0", "vel": 1.0, "bend": 0.0, "ch": 8}, {"t": 139.068, "dur": 0.577, "note": 44, "inst": "piano_v0_additive_0", "vel": 1.0, "bend": 0.0, "ch": 12}, {"t": 139.645, "dur": 0.288, "note": 32, "inst": "piano_v0_additive_0", "vel": 1.0, "bend": 0.0, "ch": 0}, {"t": 139.645, "dur": 0.288, "note": 35, "inst": "celesta_v0_additive_3", "vel": 1.0, "bend": 0.0, "ch": 3}, {"t": 139.645, "dur": 0.288, "note": 56, "inst": "piano_v0_additive_0", "vel": 1.0, "bend": 0.0, "ch": 8}, {"t": 139.645, "dur": 0.288, "note": 59, "inst": "celesta_v0_additive_3", "vel": 1.0, "bend": 0.0, "ch": 11}, {"t": 139.933, "dur": 0.288, "note": 24, "inst": "piano_v0_additive_0", "vel": 1.0, "bend": 0.0, "ch": 8}, {"t": 139.933, "dur": 0.288, "note": 44, "inst": "piano_v0_additive_0", "vel": 1.0, "bend": 0.0, "ch": 12}, {"t": 140.222, "dur": 0.288, "note": 32, "inst": "piano_v0_additive_0", "vel": 1.0, "bend": 0.0, "ch": 0}, {"t": 140.222, "dur": 0.288, "note": 56, "inst": "piano_v0_additive_0", "vel": 1.0, "bend": 0.0, "ch": 8}, {"t": 140.51, "dur": 0.288, "note": 35, "inst": "celesta_v0_additive_3", "vel": 1.0, "bend": 0.0, "ch": 3}, {"t": 140.51, "dur": 0.288, "note": 59, "inst": "celesta_v0_additive_3", "vel": 1.0, "bend": 0.0, "ch": 11}, {"t": 140.799, "dur": 0.577, "note": 35, "inst": "celesta_v0_additive_3", "vel": 1.0, "bend": 0.0, "ch": 3}, {"t": 140.799, "dur": 0.577, "note": 59, "inst": "celesta_v0_additive_3", "vel": 1.0, "bend": 0.0, "ch": 11}, {"t": 141.376, "dur": 0.577, "note": 24, "inst": "piano_v0_additive_0", "vel": 1.0, "bend": 0.0, "ch": 8}, {"t": 141.376, "dur": 0.577, "note": 47, "inst": "celesta_v0_additive_3", "vel": 1.0, "bend": 0.0, "ch": 15}, {"t": 141.953, "dur": 0.144, "note": 32, "inst": "piano_v0_additive_0", "vel": 1.0, "bend": 0.0, "ch": 0}, {"t": 142.097, "dur": 0.144, "note": 51, "inst": "celesta_v0_additive_3", "vel": 1.0, "bend": 0.0, "ch": 3}, {"t": 142.145, "dur": 0.192, "note": 56, "inst": "piano_v0_additive_0", "vel": 1.0, "bend": 0.0, "ch": 8}, {"t": 142.241, "dur": 0.144, "note": 47, "inst": "celesta_v0_additive_3", "vel": 1.0, "bend": 0.0, "ch": 15}, {"t": 142.338, "dur": 0.192, "note": 68, "inst": "piano_v0_additive_0", "vel": 1.0, "bend": 0.0, "ch": 4}, {"t": 142.386, "dur": 0.144, "note": 51, "inst": "celesta_v0_additive_3", "vel": 1.0, "bend": 0.0, "ch": 3}, {"t": 142.53, "dur": 0.144, "note": 44, "inst": "piano_v0_additive_0", "vel": 1.0, "bend": 0.0, "ch": 12}, {"t": 142.674, "dur": 0.144, "note": 51, "inst": "celesta_v0_additive_3", "vel": 1.0, "bend": 0.0, "ch": 3}, {"t": 142.722, "dur": 0.192, "note": 56, "inst": "piano_v0_additive_0", "vel": 1.0, "bend": 0.0, "ch": 8}, {"t": 142.818, "dur": 0.144, "note": 47, "inst": "celesta_v0_additive_3", "vel": 1.0, "bend": 0.0, "ch": 15}, {"t": 142.915, "dur": 0.192, "note": 68, "inst": "piano_v0_additive_0", "vel": 1.0, "bend": 0.0, "ch": 4}, {"t": 142.963, "dur": 0.144, "note": 51, "inst": "celesta_v0_additive_3", "vel": 1.0, "bend": 0.0, "ch": 3}, {"t": 143.107, "dur": 0.144, "note": 32, "inst": "piano_v0_additive_0", "vel": 1.0, "bend": 0.0, "ch": 0}, {"t": 143.251, "dur": 0.144, "note": 51, "inst": "celesta_v0_additive_3", "vel": 1.0, "bend": 0.0, "ch": 3}, {"t": 143.299, "dur": 0.192, "note": 56, "inst": "piano_v0_additive_0", "vel": 1.0, "bend": 0.0, "ch": 8}, {"t": 143.395, "dur": 0.144, "note": 47, "inst": "celesta_v0_additive_3", "vel": 1.0, "bend": 0.0, "ch": 15}, {"t": 143.492, "dur": 0.192, "note": 68, "inst": "piano_v0_additive_0", "vel": 1.0, "bend": 0.0, "ch": 4}, {"t": 143.54, "dur": 0.144, "note": 51, "inst": "celesta_v0_additive_3", "vel": 1.0, "bend": 0.0, "ch": 3}, {"t": 143.684, "dur": 0.144, "note": 35, "inst": "celesta_v0_additive_3", "vel": 1.0, "bend": 0.0, "ch": 3}, {"t": 143.828, "dur": 0.144, "note": 47, "inst": "celesta_v0_additive_3", "vel": 1.0, "bend": 0.0, "ch": 15}, {"t": 143.876, "dur": 0.192, "note": 64, "inst": "piano_v0_additive_0", "vel": 1.0, "bend": 0.0, "ch": 0}, {"t": 143.972, "dur": 0.144, "note": 46, "inst": "harpsichord_v0_additive_2", "vel": 1.0, "bend": 0.0, "ch": 14}, {"t": 144.069, "dur": 0.192, "note": 76, "inst": "piano_v0_additive_0", "vel": 1.0, "bend": 0.0, "ch": 12}, {"t": 144.117, "dur": 0.144, "note": 47, "inst": "celesta_v0_additive_3", "vel": 1.0, "bend": 0.0, "ch": 15}, {"t": 144.261, "dur": 0.144, "note": 40, "inst": "piano_v0_additive_0", "vel": 1.0, "bend": 0.0, "ch": 8}, {"t": 144.405, "dur": 0.144, "note": 51, "inst": "celesta_v0_additive_3", "vel": 1.0, "bend": 0.0, "ch": 3}, {"t": 144.453, "dur": 0.192, "note": 64, "inst": "piano_v0_additive_0", "vel": 1.0, "bend": 0.0, "ch": 0}, {"t": 144.549, "dur": 0.144, "note": 44, "inst": "piano_v0_additive_0", "vel": 1.0, "bend": 0.0, "ch": 12}, {"t": 144.646, "dur": 0.192, "note": 76, "inst": "piano_v0_additive_0", "vel": 1.0, "bend": 0.0, "ch": 12}, {"t": 144.694, "dur": 0.144, "note": 51, "inst": "celesta_v0_additive_3", "vel": 1.0, "bend": 0.0, "ch": 3}, {"t": 144.838, "dur": 0.144, "note": 32, "inst": "piano_v0_additive_0", "vel": 1.0, "bend": 0.0, "ch": 0}, {"t": 144.982, "dur": 0.144, "note": 52, "inst": "piano_v0_additive_0", "vel": 1.0, "bend": 0.0, "ch": 4}, {"t": 145.03, "dur": 0.192, "note": 59, "inst": "celesta_v0_additive_3", "vel": 1.0, "bend": 0.0, "ch": 11}, {"t": 145.126, "dur": 0.144, "note": 51, "inst": "celesta_v0_additive_3", "vel": 1.0, "bend": 0.0, "ch": 3}, {"t": 145.223, "dur": 0.192, "note": 71, "inst": "celesta_v0_additive_3", "vel": 1.0, "bend": 0.0, "ch": 7}, {"t": 145.271, "dur": 0.144, "note": 52, "inst": "piano_v0_additive_0", "vel": 1.0, "bend": 0.0, "ch": 4}, {"t": 145.415, "dur": 0.144, "note": 47, "inst": "celesta_v0_additive_3", "vel": 1.0, "bend": 0.0, "ch": 15}, {"t": 145.415, "dur": 0.144, "note": 52, "inst": "piano_v0_additive_0", "vel": 1.0, "bend": 0.0, "ch": 4}, {"t": 145.415, "dur": 0.577, "note": 59, "inst": "celesta_v0_additive_3", "vel": 1.0, "bend": 0.0, "ch": 11}, {"t": 145.415, "dur": 0.577, "note": 71, "inst": "celesta_v0_additive_3", "vel": 1.0, "bend": 0.0, "ch": 7}, {"t": 145.559, "dur": 0.144, "note": 44, "inst": "piano_v0_additive_0", "vel": 1.0, "bend": 0.0, "ch": 12}, {"t": 145.703, "dur": 0.144, "note": 52, "inst": "piano_v0_additive_0", "vel": 1.0, "bend": 0.0, "ch": 4}, {"t": 145.848, "dur": 0.144, "note": 52, "inst": "piano_v0_additive_0", "vel": 1.0, "bend": 0.0, "ch": 4}, {"t": 145.992, "dur": 0.144, "note": 51, "inst": "celesta_v0_additive_3", "vel": 1.0, "bend": 0.0, "ch": 3}, {"t": 146.136, "dur": 0.144, "note": 47, "inst": "celesta_v0_additive_3", "vel": 1.0, "bend": 0.0, "ch": 15}, {"t": 146.28, "dur": 0.144, "note": 47, "inst": "celesta_v0_additive_3", "vel": 1.0, "bend": 0.0, "ch": 15}, {"t": 146.425, "dur": 0.144, "note": 44, "inst": "piano_v0_additive_0", "vel": 1.0, "bend": 0.0, "ch": 12}, {"t": 146.569, "dur": 0.288, "note": 32, "inst": "piano_v0_additive_0", "vel": 1.0, "bend": 0.0, "ch": 0}, {"t": 146.569, "dur": 0.288, "note": 56, "inst": "piano_v0_additive_0", "vel": 1.0, "bend": 0.0, "ch": 8}, {"t": 146.857, "dur": 0.144, "note": 44, "inst": "piano_v0_additive_0", "vel": 1.0, "bend": 0.0, "ch": 12}, {"t": 146.857, "dur": 0.144, "note": 68, "inst": "piano_v0_additive_0", "vel": 1.0, "bend": 0.0, "ch": 4}, {"t": 147.002, "dur": 0.144, "note": 32, "inst": "piano_v0_additive_0", "vel": 1.0, "bend": 0.0, "ch": 0}, {"t": 147.002, "dur": 0.144, "note": 56, "inst": "piano_v0_additive_0", "vel": 1.0, "bend": 0.0, "ch": 8}, {"t": 147.146, "dur": 0.288, "note": 40, "inst": "piano_v0_additive_0", "vel": 1.0, "bend": 0.0, "ch": 8}, {"t": 147.146, "dur": 0.288, "note": 64, "inst": "piano_v0_additive_0", "vel": 1.0, "bend": 0.0, "ch": 0}, {"t": 147.434, "dur": 0.288, "note": 32, "inst": "piano_v0_additive_0", "vel": 1.0, "bend": 0.0, "ch": 0}, {"t": 147.434, "dur": 0.288, "note": 56, "inst": "piano_v0_additive_0", "vel": 1.0, "bend": 0.0, "ch": 8}, {"t": 147.723, "dur": 0.577, "note": 32, "inst": "piano_v0_additive_0", "vel": 1.0, "bend": 0.0, "ch": 0}, {"t": 147.723, "dur": 0.577, "note": 56, "inst": "piano_v0_additive_0", "vel": 1.0, "bend": 0.0, "ch": 8}, {"t": 148.3, "dur": 0.577, "note": 24, "inst": "piano_v0_additive_0", "vel": 1.0, "bend": 0.0, "ch": 8}, {"t": 148.3, "dur": 0.577, "note": 44, "inst": "piano_v0_additive_0", "vel": 1.0, "bend": 0.0, "ch": 12}, {"t": 148.877, "dur": 0.144, "note": 56, "inst": "piano_v0_additive_0", "vel": 1.0, "bend": 0.0, "ch": 8}, {"t": 148.877, "dur": 0.288, "note": 68, "inst": "piano_v0_additive_0", "vel": 1.0, "bend": 0.0, "ch": 4}, {"t": 149.021, "dur": 0.144, "note": 71, "inst": "celesta_v0_additive_3", "vel": 1.0, "bend": 0.0, "ch": 7}, {"t": 160.0, "dur": 8.452, "note": 0, "inst": "voice_vocoder", "vel": 0.8, "bend": 0.0, "ch": 63, "text": "root.children.append ASTNode. Convenience find all"}, {"t": 160.0, "dur": 1.207, "note": 75, "inst": "voice_vocoder", "vel": 0.65, "bend": 0.0, "ch": 63}, {"t": 161.207, "dur": 1.207, "note": 55, "inst": "voice_vocoder", "vel": 0.65, "bend": -20.0, "ch": 63}, {"t": 162.415, "dur": 1.207, "note": 87, "inst": "voice_vocoder", "vel": 0.65, "bend": 32.0, "ch": 63}, {"t": 163.622, "dur": 1.207, "note": 85, "inst": "voice_vocoder", "vel": 0.65, "bend": -2.0, "ch": 63}, {"t": 164.83, "dur": 1.207, "note": 75, "inst": "voice_vocoder", "vel": 0.65, "bend": -10.0, "ch": 63}, {"t": 166.037, "dur": 1.207, "note": 65, "inst": "voice_vocoder", "vel": 0.65, "bend": -10.0, "ch": 63}, {"t": 167.244, "dur": 1.207, "note": 68, "inst": "voice_vocoder", "vel": 0.65, "bend": 3.0, "ch": 63}], "instruments": ["celesta_v0_additive_3", "harpsichord_v0_additive_2", "organ_v0_additive_1", "piano_v0_additive_0", "voice_vocoder"], "duration": 168.452, "n_events": 361}